<?xml version="1.0" standalone="no"?>
<!DOCTYPE svg PUBLIC "-//W3C//DTD SVG 20010904//EN"
 "http://www.w3.org/TR/2001/REC-SVG-20010904/DTD/svg10.dtd">
<svg version="1.0" xmlns="http://www.w3.org/2000/svg"
 width="580.000000pt" height="433.000000pt" viewBox="0 0 580.000000 433.000000"
 preserveAspectRatio="xMidYMid meet">
<metadata>
Created by potrace 1.15, written by Peter Selinger 2001-2017
</metadata>
<g transform="translate(0.000000,433.000000) scale(0.100000,-0.100000)"
fill="#000000" stroke="none">
<path d="M769 3537 c7 -9 11 -24 7 -32 -3 -9 -2 -13 4 -10 6 3 10 -1 10 -10 0
-9 -5 -13 -11 -9 -8 4 -8 0 0 -15 7 -11 18 -21 25 -21 19 0 39 -27 31 -40 -5
-8 -14 -6 -31 5 -29 19 -32 3 -5 -24 12 -12 19 -31 18 -48 -2 -23 -15 -36 -74
-72 -40 -24 -70 -48 -67 -53 4 -6 45 -38 92 -73 l86 -63 100 50 100 50 -23 19
c-13 11 -29 19 -36 19 -7 0 -27 13 -44 29 -18 17 -40 33 -51 36 -10 3 -24 13
-32 22 -9 12 -9 15 0 9 18 -11 15 0 -14 45 -25 40 -25 41 -4 46 20 5 20 7 4
24 -15 16 -15 19 -2 19 21 0 41 -26 32 -42 -4 -7 1 -5 12 4 17 17 17 18 -6 43
-15 16 -26 21 -31 14 -5 -8 -8 -8 -13 0 -4 6 -4 11 0 11 11 0 -48 60 -71 72
-18 10 -19 10 -6 -5z"/>
<path d="M677 3470 c-14 -16 -31 -30 -38 -30 -8 0 -7 -5 2 -17 8 -9 9 -14 2
-10 -17 11 -43 -21 -43 -53 0 -16 -4 -31 -10 -35 -5 -3 -6 -13 -3 -23 6 -16 5
-16 -14 1 -20 17 -20 17 -19 -12 1 -19 7 -32 19 -35 9 -2 17 0 17 6 0 5 5 6
10 3 6 -4 7 -11 3 -18 -3 -6 9 0 28 13 19 13 38 30 42 37 4 7 15 13 23 13 8 0
31 11 50 24 l35 23 -35 31 c-32 27 -34 34 -26 61 5 20 5 31 -1 31 -6 0 -7 5
-4 10 14 23 -15 8 -38 -20z"/>
<path d="M2072 3324 c-15 -31 -32 -9 156 -203 51 -52 92 -99 92 -103 0 -5 11
-13 24 -19 13 -6 29 -23 36 -37 6 -14 25 -43 42 -65 26 -33 33 -36 40 -23 20
36 0 64 -201 280 -69 75 -88 90 -110 88 -23 -2 -24 -1 -9 11 15 12 14 17 -20
56 l-38 44 -12 -29z"/>
<path d="M1736 3176 c4 -11 -3 -14 -33 -11 -21 1 -27 0 -14 -2 13 -3 33 -13
44 -24 11 -10 26 -19 33 -19 23 0 26 -20 6 -45 -12 -15 -22 -20 -24 -14 -3 8
-10 6 -21 -5 -9 -10 -21 -15 -26 -12 -5 3 -35 -8 -68 -25 -32 -17 -77 -38 -99
-47 l-42 -17 24 -18 c24 -18 24 -18 24 5 0 20 8 25 55 36 30 7 60 10 65 7 6
-3 10 -1 10 4 0 6 8 11 18 11 10 0 23 5 30 12 7 7 12 9 12 4 0 -4 12 2 26 13
42 33 46 25 14 -26 -17 -26 -30 -56 -30 -68 0 -28 -54 -75 -80 -68 -24 6 -24
5 -3 -37 13 -28 18 -31 27 -18 13 17 36 13 36 -7 0 -16 33 -30 38 -16 8 23 22
10 16 -14 -4 -15 -2 -25 4 -25 6 0 14 -10 18 -22 10 -32 29 -48 58 -48 14 0
31 -9 40 -22 9 -12 16 -20 17 -18 1 3 2 16 3 30 3 30 60 122 70 113 4 -4 4 0
1 9 -4 9 -2 19 4 23 6 3 11 15 11 25 0 15 6 19 24 18 14 -1 22 -6 20 -10 -9
-15 14 -8 27 8 19 23 20 44 1 37 -10 -4 -13 -2 -8 5 3 6 2 14 -4 17 -6 4 -10
3 -9 -2 6 -33 -4 -34 -35 -4 -19 18 -39 30 -45 27 -7 -4 -9 -1 -5 8 6 16 -28
40 -41 28 -5 -4 -5 -1 -1 6 5 8 -5 25 -28 46 -19 19 -32 36 -29 40 4 3 1 6 -5
6 -7 0 -12 4 -12 9 0 5 9 7 20 4 11 -3 18 -9 15 -13 -3 -5 -1 -11 4 -14 11 -7
9 13 -2 32 -5 7 -13 9 -19 6 -8 -5 -9 -1 -5 12 6 17 6 17 -5 3 -15 -19 -78
-53 -85 -46 -2 3 6 11 18 18 39 21 49 35 36 48 -9 9 -8 11 7 5 13 -5 17 -4 12
4 -13 21 -39 14 -33 -8 3 -11 1 -20 -4 -20 -8 0 -10 6 -13 38 -1 7 -14 19 -30
27 -35 18 -37 18 -30 1z"/>
<path d="M5094 3163 c1 -18 -1 -33 -6 -33 -5 0 -6 -4 -3 -10 3 -5 -1 -10 -9
-10 -21 0 -30 19 -12 26 18 7 22 34 5 34 -5 0 -8 -4 -5 -9 3 -5 -5 -16 -18
-25 -22 -14 -25 -14 -38 2 -12 15 -11 16 5 3 15 -12 17 -12 11 3 -8 22 -21 20
-34 -4 -6 -10 -16 -17 -23 -15 -6 3 -25 -4 -42 -15 -16 -11 -25 -20 -19 -20 5
0 19 7 30 15 25 19 34 19 34 -2 0 -15 2 -15 19 1 12 11 21 13 25 7 4 -5 -2
-14 -11 -20 -16 -9 -16 -12 -3 -20 17 -11 16 -13 -27 -28 -30 -10 -31 -10 -27
15 3 14 7 30 10 36 3 6 -1 2 -10 -9 -8 -11 -21 -26 -27 -34 -9 -10 -9 -15 2
-22 12 -7 12 -9 0 -9 -11 0 -11 -3 0 -16 11 -14 10 -18 -6 -31 -15 -12 -16
-14 -3 -10 29 10 100 58 94 64 -9 10 23 47 44 50 11 2 28 4 38 6 27 4 65 34
58 46 -4 5 -13 8 -22 4 -12 -4 -14 0 -9 23 5 20 4 25 -3 15 -8 -11 -11 -10
-16 5 -3 10 -4 4 -2 -13z"/>
<path d="M1075 3117 c-11 -6 -49 -25 -85 -42 -65 -30 -82 -55 -52 -74 8 -4 24
-26 37 -47 19 -32 25 -36 30 -21 4 9 13 17 21 17 7 0 47 15 88 33 58 25 73 36
66 47 -5 8 -5 21 0 29 6 11 1 19 -17 28 -30 16 -47 17 -38 3 3 -5 2 -10 -4
-10 -20 0 -23 22 -5 35 18 14 18 14 -1 14 -11 0 -29 -5 -40 -12z"/>
<path d="M4835 3090 c-5 -15 -12 -19 -25 -15 -19 6 -92 -26 -117 -50 -7 -8
-29 -19 -48 -25 -19 -6 -35 -16 -35 -21 0 -5 -6 -9 -14 -9 -8 0 -21 -8 -28
-17 -7 -10 -21 -18 -30 -18 -10 0 -18 -4 -19 -10 0 -5 -9 -13 -20 -17 -11 -4
-18 -12 -15 -17 3 -5 -4 -7 -16 -3 -16 4 -19 2 -13 -8 6 -10 3 -12 -13 -8 -15
4 -19 2 -15 -9 5 -13 -2 -15 -35 -11 -49 4 -50 -1 -14 -61 l27 -44 -65 -35
c-177 -93 -236 -125 -245 -132 -5 -5 -68 -39 -140 -76 -71 -37 -147 -78 -168
-91 -21 -13 -49 -28 -63 -33 -51 -20 -11 10 101 75 63 37 118 71 121 76 3 5
10 7 15 4 5 -4 9 -1 9 4 0 6 9 11 21 11 23 0 52 24 41 34 -3 4 1 4 11 0 9 -3
17 -2 17 4 0 5 15 16 33 23 17 7 73 36 122 65 50 28 100 55 113 58 26 9 27 14
6 44 -9 13 -13 29 -10 37 3 9 0 12 -10 8 -7 -3 -14 -9 -14 -13 0 -17 -59 -64
-115 -91 -77 -38 -132 -69 -121 -69 5 0 -13 -11 -40 -25 -27 -14 -56 -23 -64
-19 -9 3 -25 -7 -40 -25 -24 -29 -107 -81 -162 -102 -16 -6 -28 -15 -28 -20 0
-5 -6 -9 -13 -9 -8 0 -22 -9 -32 -20 -17 -19 -20 -19 -42 -5 -27 18 -32 2 -8
-28 7 -11 11 -25 9 -32 -15 -38 71 -21 152 31 30 19 54 31 54 27 0 -4 4 -3 8
2 12 17 99 65 118 65 10 0 27 9 39 20 38 39 340 203 377 206 10 1 26 11 35 22
10 12 59 42 108 68 50 26 114 59 143 75 29 16 75 31 103 34 28 3 58 9 67 15
12 7 -1 8 -43 4 l-60 -5 48 26 c26 14 52 23 57 20 11 -7 60 5 60 14 0 4 -7 16
-16 27 -8 10 -12 12 -8 4 4 -8 4 -12 -1 -8 -4 4 -13 4 -20 -2 -6 -5 -43 -25
-82 -44 -39 -19 -77 -41 -85 -48 -31 -28 -245 -141 -259 -136 -18 6 9 25 116
78 61 30 119 63 129 72 11 10 32 24 48 30 15 7 28 16 28 20 0 5 12 8 26 8 14
0 23 4 19 10 -3 6 -1 10 5 10 6 0 8 5 4 11 -4 7 0 9 14 5 12 -4 30 -2 42 4 19
10 19 13 5 39 -8 16 -11 31 -8 35 4 3 -1 6 -10 6 -8 0 -19 -9 -22 -20z"/>
<path d="M1255 2987 c-7 -15 -36 -32 -88 -53 -43 -17 -77 -35 -76 -40 2 -5 53
-47 114 -93 60 -46 119 -92 131 -102 11 -10 23 -19 27 -19 22 0 -4 25 -98 95
-71 53 -104 83 -100 93 4 10 0 12 -12 8 -14 -6 -15 -4 -6 4 8 9 16 9 30 1 10
-6 13 -11 5 -11 -7 0 -10 -5 -7 -10 4 -6 11 -8 16 -5 9 6 58 -27 62 -42 3 -12
67 -66 72 -61 8 7 -122 131 -146 140 -12 5 -19 11 -16 14 13 13 73 -18 158
-82 84 -62 104 -89 60 -77 -15 4 -20 0 -18 -16 1 -21 17 -28 31 -14 10 11 37
12 30 2 -3 -5 -12 -9 -20 -9 -8 0 -14 -4 -14 -10 0 -5 5 -10 11 -10 6 0 25
-12 43 -26 27 -24 28 -26 7 -19 -15 5 -21 4 -17 -3 3 -6 -4 -13 -16 -15 -21
-4 -21 -4 3 -6 14 0 29 -5 35 -10 5 -6 26 -6 49 -1 22 4 67 13 100 20 72 14
79 18 66 34 -8 9 -24 11 -58 5 -27 -4 -54 -8 -61 -8 -7 -1 -10 -5 -7 -11 6
-10 -9 -15 -30 -10 -5 1 -14 2 -20 3 -16 3 -37 37 -32 51 3 7 25 18 49 24 79
21 78 25 -17 87 -95 63 -178 132 -210 176 -21 27 -21 27 -30 6z"/>
<path d="M2082 2844 c-7 -7 -12 -17 -12 -22 0 -5 -16 -44 -35 -86 -33 -73 -44
-118 -27 -114 14 3 72 -28 66 -35 -4 -4 1 -17 12 -29 l19 -22 -29 22 c-41 32
-54 27 -14 -5 45 -38 58 -56 53 -72 -4 -8 0 -11 10 -8 8 4 17 2 20 -3 3 -5 12
-7 20 -3 9 3 15 -1 15 -11 0 -21 52 -68 63 -57 5 5 -31 88 -81 189 -66 132
-85 179 -73 178 9 0 15 5 14 12 -2 6 1 12 5 12 21 0 56 -58 142 -235 51 -104
102 -201 114 -214 11 -13 15 -21 8 -17 -15 9 25 -75 40 -85 5 -3 10 -10 11
-15 1 -5 8 -8 14 -8 7 1 11 -2 8 -6 -3 -5 -1 -11 4 -15 6 -3 8 -13 5 -23 -5
-13 -4 -14 4 -4 13 20 50 -4 49 -32 0 -12 3 -29 7 -38 6 -14 4 -16 -13 -13
-42 8 -31 -4 126 -140 24 -21 41 -40 39 -44 -2 -3 7 -7 22 -8 23 -1 20 3 -28
48 -29 27 -57 49 -61 49 -5 0 -14 11 -21 24 -7 14 -15 25 -18 25 -31 -1 -43
22 -26 49 4 7 2 20 -6 29 -11 15 -11 16 5 10 10 -4 28 -2 39 4 15 8 23 8 32
-1 8 -8 7 -10 -5 -5 -11 4 -18 0 -22 -14 -5 -22 14 -45 29 -33 4 4 2 -1 -5
-11 -12 -16 -12 -20 4 -35 16 -16 17 -16 6 6 -10 18 -9 22 4 22 13 0 19 -12
16 -32 0 -4 5 -5 12 -2 8 3 32 -15 54 -39 23 -25 52 -52 64 -61 13 -9 18 -16
11 -16 -8 0 -10 -5 -6 -12 4 -7 3 -8 -5 -4 -6 4 -8 12 -5 18 4 7 2 8 -4 4 -6
-4 -8 -14 -5 -23 4 -10 2 -14 -4 -10 -6 4 -16 0 -22 -7 -8 -10 -9 -16 -2 -21
6 -3 33 14 59 39 45 42 53 46 101 46 37 0 51 4 51 14 0 8 -6 17 -12 20 -7 3 0
4 15 2 25 -3 26 -2 12 13 -11 13 -12 20 -3 29 8 8 8 12 1 12 -6 0 -13 -7 -17
-15 -6 -16 -41 -20 -50 -6 -4 5 5 8 19 7 20 -3 23 0 15 15 -6 10 -15 21 -20
24 -6 4 -8 10 -5 15 3 4 -2 11 -11 14 -8 3 -12 2 -9 -4 3 -6 1 -10 -5 -10 -7
0 -9 -7 -6 -16 3 -9 2 -12 -5 -9 -5 4 -9 15 -7 25 2 10 -7 29 -20 43 -17 18
-20 27 -11 32 8 6 10 4 4 -5 -6 -9 -4 -11 5 -5 9 6 11 4 5 -5 -6 -9 -4 -11 5
-5 9 6 11 4 5 -5 -5 -8 -4 -11 3 -6 5 3 12 1 14 -6 3 -7 6 -8 9 -3 3 6 -30 44
-73 86 l-78 76 -12 -28 -13 -28 -22 21 c-16 15 -20 25 -13 33 7 9 -1 23 -30
49 -22 20 -36 36 -31 36 6 0 13 -5 16 -10 4 -6 11 -8 16 -4 6 3 13 -3 16 -15
3 -11 9 -18 14 -15 5 3 8 0 7 -7 -2 -7 2 -13 7 -14 6 0 16 -4 23 -8 27 -18 8
5 -59 70 -39 37 -76 67 -81 65 -6 -2 -8 4 -5 12 4 9 1 18 -5 22 -7 4 -8 3 -4
-4 4 -7 4 -12 -1 -12 -4 0 -15 -4 -23 -10 -12 -7 -11 -12 5 -32 l20 -23 -22
19 c-13 11 -23 26 -23 35 0 8 -28 44 -62 79 -50 49 -58 62 -40 59 12 -2 41
-21 65 -43 23 -21 14 -10 -19 26 -34 36 -70 75 -80 87 -17 22 -18 22 -31 3
-16 -22 -45 -27 -37 -7 3 8 -22 40 -56 74 -46 45 -57 62 -46 66 8 3 18 2 21
-3 4 -6 0 -10 -7 -10 -10 0 -9 -3 2 -9 8 -6 18 -7 23 -4 11 7 -82 103 -97 100
-6 -1 -10 3 -9 9 3 15 -20 13 -35 -2z"/>
<path d="M1625 2603 c-95 -23 -108 -30 -95 -52 11 -22 -1 -65 -22 -75 -7 -3
-4 -4 8 -3 11 1 28 -4 37 -11 8 -7 38 -14 67 -16 55 -3 69 -12 234 -144 l79
-64 85 8 c47 3 97 10 111 14 l26 6 -33 12 c-40 14 -89 50 -167 124 -33 32 -66
58 -72 58 -7 0 -13 4 -13 9 0 5 -11 12 -25 15 -14 4 -24 10 -23 14 2 4 -5 18
-15 32 -18 26 -25 8 -7 -20 8 -12 3 -16 -23 -20 l-32 -5 55 -35 c30 -19 57
-37 60 -40 16 -18 142 -111 146 -107 2 2 -22 25 -53 50 -96 76 -128 106 -120
113 4 4 7 2 7 -4 0 -7 3 -11 8 -10 10 3 232 -173 232 -184 0 -5 -10 -4 -21 3
-17 8 -23 8 -29 -1 -5 -9 -20 -11 -43 -7 -22 3 -37 1 -39 -5 -3 -7 -9 -5 -18
3 -8 8 -31 26 -50 39 -67 46 -180 141 -180 152 0 6 7 5 18 -3 16 -13 16 -13
-1 7 -16 19 -23 20 -78 12 -67 -11 -86 -3 -86 35 0 19 5 22 46 23 78 2 160 16
172 30 6 8 8 14 3 14 -5 0 -2 5 6 10 12 8 11 10 -7 10 -12 0 -32 -4 -46 -9
-18 -7 -24 -6 -24 4 0 8 3 13 6 11 3 -2 12 2 19 10 11 12 8 14 -15 13 -15 -1
-55 -8 -88 -16z"/>
<path d="M1937 2543 c-12 -11 -8 -24 7 -21 8 2 47 -26 87 -62 110 -98 146
-123 153 -108 3 7 3 1 0 -14 -4 -20 -2 -30 9 -34 20 -7 29 -32 15 -40 -7 -5
-8 -2 -3 6 5 9 4 11 -3 6 -7 -4 -12 -2 -12 5 0 7 -3 10 -6 7 -3 -4 42 -53 100
-111 58 -58 106 -99 106 -91 0 7 -16 25 -35 39 -31 24 -93 115 -77 115 3 0 17
-10 30 -22 14 -13 23 -18 20 -13 -2 6 -10 24 -17 42 -7 18 -21 35 -32 38 -11
4 -19 15 -19 28 0 12 -11 34 -25 49 -14 15 -25 32 -25 38 0 6 -4 8 -10 5 -5
-3 -10 -2 -10 2 0 5 -6 18 -14 29 -14 18 -15 18 -14 -6 1 -14 8 -32 15 -42 10
-11 11 -18 3 -23 -6 -4 -49 26 -96 67 -124 107 -140 119 -147 111z"/>
<path d="M3563 2378 c1 -7 -4 -12 -11 -10 -8 1 -11 -2 -7 -7 3 -6 -9 -17 -27
-24 -19 -8 -40 -20 -48 -28 -8 -8 -43 -27 -78 -43 -35 -17 -57 -33 -51 -37 15
-9 -2 -19 -27 -15 -10 2 -36 -10 -56 -26 -21 -16 -65 -44 -99 -62 -45 -24 -63
-39 -64 -55 -1 -11 2 -21 6 -21 4 0 38 23 75 51 44 33 72 48 83 43 14 -5 14
-7 1 -11 -55 -17 -75 -44 -50 -69 7 -7 -3 -18 -30 -33 -22 -12 -40 -29 -40
-37 0 -18 1 -18 51 11 26 14 44 32 44 42 0 13 6 17 22 15 27 -4 107 41 96 53
-5 4 -3 5 3 2 13 -7 67 27 57 37 -4 4 -1 11 7 16 21 13 33 12 24 -2 -4 -7 -3
-8 5 -4 6 4 9 11 6 16 -7 11 22 33 34 26 5 -3 12 1 15 10 4 9 9 14 13 10 3 -3
21 5 39 19 18 14 37 25 43 25 6 0 11 7 11 15 0 8 -3 15 -6 15 -7 0 -121 -65
-151 -87 -13 -8 -23 -11 -23 -5 0 6 33 30 73 55 98 61 119 83 104 108 -13 21
-48 26 -44 7z"/>
<path d="M2103 2223 c-22 -3 -33 -10 -34 -21 0 -14 -2 -14 -8 2 -4 12 -10 15
-14 9 -4 -6 -18 -8 -32 -5 -37 7 -24 -18 30 -57 48 -35 69 -59 42 -48 -23 9
-22 6 13 -26 17 -16 27 -22 24 -13 -11 28 9 18 95 -50 85 -65 85 -65 145 -63
34 1 66 6 73 11 7 6 14 5 18 -2 10 -16 2 -20 -41 -21 -64 -1 -75 -7 -61 -30 6
-10 17 -19 23 -19 11 0 54 -42 54 -53 0 -11 -55 -57 -69 -57 -10 0 -12 -10 -6
-47 4 -27 8 -49 8 -49 1 -1 51 -5 112 -9 100 -7 108 -6 96 9 -7 9 -22 16 -32
16 -10 0 -21 5 -25 11 -4 8 1 9 16 4 12 -4 28 -8 34 -9 6 -1 16 -5 22 -9 27
-16 17 13 -47 144 -38 77 -69 148 -69 158 0 15 -8 18 -42 17 -36 -1 -42 2 -40
17 2 9 -1 17 -6 17 -5 0 -44 34 -86 74 -42 41 -80 76 -84 77 -29 7 -34 12 -20
20 13 9 -26 10 -89 2z"/>
<path d="M3130 2053 c-19 -13 -45 -28 -57 -33 -33 -13 -58 -57 -44 -74 16 -19
-4 -32 -24 -16 -10 9 -16 7 -24 -7 -6 -10 -11 -13 -11 -6 0 6 5 15 11 19 6 3
9 15 6 25 -3 11 -1 19 4 19 5 0 9 -6 10 -12 0 -7 4 -3 9 10 5 12 26 32 46 44
21 12 32 24 26 26 -7 2 -10 8 -6 13 3 5 -1 9 -9 9 -8 0 -17 -7 -20 -14 -4 -11
-16 -13 -44 -9 -21 3 -35 2 -31 -2 4 -4 1 -14 -7 -22 -10 -9 -12 -20 -7 -31 5
-9 6 -28 2 -42 -5 -22 -10 -25 -48 -22 -34 3 -42 0 -42 -13 0 -9 5 -13 10 -10
6 3 10 1 10 -4 0 -10 -14 -15 -34 -12 -15 3 -56 -41 -49 -53 3 -6 3 -8 -2 -4
-9 9 -35 -9 -35 -23 0 -5 21 -9 46 -9 41 0 46 -2 41 -20 -3 -11 -1 -17 5 -14
23 15 54 10 55 -8 1 -10 -5 -18 -13 -18 -8 0 -14 -4 -14 -9 0 -10 -34 -23 -64
-25 -19 -1 -36 -26 -18 -26 5 0 12 -9 15 -19 3 -15 -2 -21 -21 -26 -20 -5 -23
-8 -11 -16 7 -5 10 -9 6 -9 -16 0 22 -30 37 -30 9 0 16 -4 16 -9 0 -10 -68 5
-85 19 -9 7 -69 19 -102 20 -7 0 -13 7 -13 16 0 8 -7 23 -16 32 -15 15 -16 14
-10 -14 l7 -30 -88 8 c-119 12 -138 7 -67 -17 32 -10 64 -27 71 -36 10 -13 30
-16 90 -17 43 0 117 -4 164 -9 l86 -9 -10 26 c-13 34 0 114 21 133 10 9 54 20
102 27 117 16 129 19 127 39 -1 18 -33 22 -45 5 -4 -5 -19 -15 -34 -21 -24
-11 -28 -10 -28 2 0 8 -7 15 -16 15 -8 0 -12 -4 -9 -10 3 -5 0 -10 -7 -10 -7
0 -14 10 -14 23 -1 19 4 23 30 25 17 2 32 7 34 12 2 5 9 7 16 4 7 -3 35 18 61
45 27 28 51 49 54 47 3 -2 20 9 36 25 27 26 28 29 10 30 -55 3 -115 -8 -134
-25 -9 -9 -22 -16 -27 -16 -5 0 -18 -8 -29 -17 -19 -14 -16 -15 45 -10 36 3
58 3 50 0 -8 -4 -23 -17 -33 -30 -14 -17 -29 -23 -57 -23 -27 0 -40 -5 -44
-17 -6 -15 -8 -15 -16 -3 -8 12 -10 11 -10 -7 0 -12 -5 -25 -10 -28 -6 -4 -8
-10 -5 -15 3 -5 1 -11 -5 -15 -6 -4 -10 8 -10 29 0 41 -2 42 -35 20 -14 -9
-25 -13 -25 -9 0 12 28 35 44 35 23 0 26 14 11 43 -11 22 -11 25 1 20 8 -3 14
1 14 11 0 9 5 16 10 16 10 0 12 -8 12 -50 0 -23 0 -23 5 -2 5 25 25 31 21 6
-2 -10 3 -19 10 -21 9 -4 10 1 2 21 -10 28 0 39 63 67 15 7 27 19 27 27 0 12
-3 12 -15 2 -11 -9 -19 -10 -26 -3 -8 8 -6 11 7 10 11 -1 18 3 17 10 -2 7 3
10 10 7 14 -5 91 71 85 85 -2 5 -19 -2 -38 -16z"/>
<path d="M4255 1870 c-3 -5 1 -10 7 -13 13 -5 -11 -3 -117 9 -57 7 -59 6 -45
-11 8 -10 42 -40 75 -67 33 -26 67 -55 75 -63 22 -20 249 -23 261 -4 5 8 3 17
-4 21 -8 5 -5 10 11 14 12 4 22 12 22 19 0 10 11 12 42 8 33 -5 39 -3 32 8
-18 31 -30 35 -78 31 -28 -2 -64 2 -81 9 -16 7 -34 13 -38 13 -4 1 -11 6 -15
12 -9 15 -49 27 -63 19 -13 -8 17 -45 37 -45 7 0 25 -11 40 -25 14 -13 31 -22
36 -19 6 4 8 -2 6 -12 -4 -22 -38 -32 -38 -12 0 7 -18 24 -40 38 -22 14 -40
31 -40 38 0 7 -4 11 -9 8 -5 -3 -11 0 -14 8 -6 15 -55 28 -62 16z"/>
<path d="M3449 1746 c-2 -2 -67 -7 -144 -10 -77 -3 -167 -13 -200 -21 -33 -8
-73 -17 -88 -20 -15 -3 -25 -10 -22 -15 3 -6 1 -10 -4 -10 -22 0 -10 -18 15
-24 21 -6 25 -12 22 -38 -4 -39 -25 -49 -25 -13 0 15 -6 32 -12 38 -29 29 -32
-48 -3 -99 10 -18 11 -18 17 -1 5 13 17 17 49 16 l41 -2 -40 -7 -40 -7 37 -2
c21 0 84 5 140 11 88 11 97 13 63 19 -22 3 -32 7 -22 8 10 0 15 6 12 11 -3 6
-1 10 4 10 6 0 11 -4 11 -9 0 -5 11 -11 25 -13 27 -6 30 -1 16 21 -7 10 -20
12 -52 7 -24 -4 -66 -9 -94 -12 -27 -2 -60 -6 -72 -9 -15 -3 -21 0 -19 10 1 8
5 17 8 20 3 4 2 20 -2 36 -8 26 -6 29 16 29 13 0 24 -4 24 -10 0 -5 -7 -10
-15 -10 -8 0 -15 -4 -15 -9 0 -5 7 -11 15 -15 8 -3 15 -2 15 2 0 4 10 7 23 8
12 1 59 4 104 8 72 6 83 5 91 -10 9 -16 15 -17 62 -6 28 7 64 13 78 13 27 1
27 1 -3 9 -22 6 -24 8 -9 9 17 1 20 6 16 27 -4 23 -2 25 24 22 27 -3 29 -6 29
-43 0 -22 5 -44 10 -48 6 -5 0 -5 -13 -2 -30 9 -185 -4 -203 -17 -11 -7 -11
-11 -1 -15 6 -2 9 -9 6 -15 -6 -10 45 -5 146 14 73 13 90 30 90 85 0 66 -13
83 -64 83 -23 0 -45 -2 -47 -4z"/>
</g>
</svg>
