<?xml version="1.0" standalone="no"?>
<!DOCTYPE svg PUBLIC "-//W3C//DTD SVG 20010904//EN"
 "http://www.w3.org/TR/2001/REC-SVG-20010904/DTD/svg10.dtd">
<svg version="1.0" xmlns="http://www.w3.org/2000/svg"
 width="583.000000pt" height="433.000000pt" viewBox="0 0 583.000000 433.000000"
 preserveAspectRatio="xMidYMid meet">
<metadata>
Created by potrace 1.15, written by Peter Selinger 2001-2017
</metadata>
<g transform="translate(0.000000,433.000000) scale(0.100000,-0.100000)"
fill="#000000" stroke="none">
<path d="M0 4115 c0 -161 3 -215 12 -215 9 0 9 -3 0 -12 -9 -9 -12 -119 -12
-433 0 -475 -7 -439 79 -397 24 12 48 19 54 15 6 -3 7 -1 3 5 -3 6 9 15 30 22
28 9 33 15 23 22 -10 7 -8 8 7 3 14 -3 28 1 38 11 10 9 19 14 23 11 3 -3 15 3
26 14 12 11 31 19 42 17 11 -1 26 2 34 6 9 6 12 5 7 -2 -3 -5 0 -12 6 -15 19
-6 58 14 58 30 0 8 6 13 13 10 6 -2 26 6 44 19 19 14 34 20 38 14 11 -18 35
-11 29 8 -4 11 -3 13 3 5 7 -9 19 -10 48 -2 68 17 73 20 50 29 -13 5 -4 7 27
6 34 0 56 6 77 22 23 17 35 20 53 13 16 -6 30 -5 43 5 15 11 21 11 34 1 9 -7
12 -8 8 -1 -11 19 13 31 103 54 47 11 93 25 102 30 23 13 31 13 23 0 -8 -13
27 0 40 15 10 12 140 63 185 72 14 3 30 9 35 14 6 4 31 11 55 15 25 4 56 12
70 19 14 7 30 10 37 8 6 -2 14 1 18 6 3 6 1 11 -4 11 -18 0 -12 20 7 27 9 4
20 10 23 15 3 5 31 5 63 0 58 -9 142 7 177 34 8 6 21 13 30 16 11 5 18 34 28
124 7 66 15 133 17 149 2 17 6 57 9 90 3 33 8 66 10 73 2 6 -2 12 -9 12 -17 0
-8 50 10 57 8 3 14 14 14 24 0 10 4 19 9 19 5 0 11 9 14 20 5 19 14 20 191 20
124 0 186 4 186 11 0 12 106 10 134 -4 10 -5 28 -10 40 -12 11 -1 71 -8 131
-14 124 -14 159 -20 153 -26 -2 -3 -99 4 -214 15 -174 17 -238 19 -379 12 -93
-5 -143 -10 -110 -11 l60 -2 -29 -23 c-15 -13 -60 -41 -98 -62 -65 -37 -69
-41 -66 -71 2 -17 1 -30 -2 -28 -4 2 -7 -37 -6 -88 0 -100 -19 -257 -33 -266
-4 -3 -7 -27 -5 -53 1 -27 -2 -48 -7 -48 -5 0 -9 -7 -9 -16 0 -9 5 -12 12 -8
8 5 9 2 5 -10 -4 -10 -7 -27 -8 -39 0 -21 -1 -21 -9 -2 -8 18 -9 18 -10 -5 -1
-14 -5 -60 -8 -102 -5 -50 -4 -79 3 -82 6 -3 5 -8 -4 -14 -8 -6 -11 -18 -6
-31 4 -13 2 -21 -5 -21 -8 0 -10 -18 -6 -62 5 -45 3 -64 -6 -69 -9 -6 -13 -35
-13 -93 0 -46 -3 -80 -6 -75 -3 5 -11 -41 -18 -103 -7 -62 -17 -138 -22 -168
-5 -30 -10 -87 -11 -126 -2 -40 -6 -70 -9 -68 -3 2 -9 -27 -13 -64 -16 -167
-16 -168 -7 -142 8 22 9 22 10 4 1 -11 -3 -24 -8 -30 -14 -14 -1 -72 18 -77 9
-3 5 -5 -10 -6 -21 -1 -28 -8 -39 -43 -8 -24 -20 -50 -27 -59 -12 -15 -15
-139 -10 -436 0 -28 -4 -58 -10 -65 -6 -7 -10 -26 -9 -43 1 -16 -5 -37 -12
-47 -11 -13 -11 -20 0 -37 10 -16 10 -23 0 -33 -9 -9 -12 -6 -12 15 0 19 -4
25 -15 21 -22 -9 -22 -242 0 -250 17 -7 21 -59 5 -69 -5 -3 -10 -11 -10 -17 0
-7 5 -6 14 1 9 8 16 8 20 2 4 -5 2 -12 -3 -16 -21 -12 2 -35 35 -35 22 0 37
-6 40 -15 10 -24 24 -7 24 28 1 47 35 116 64 127 21 8 24 14 20 44 -2 19 0 46
6 60 8 22 16 26 49 26 36 0 42 4 62 40 15 26 30 40 42 40 11 0 37 8 58 17 37
16 38 17 41 77 2 49 7 61 21 64 9 2 17 -2 17 -8 0 -6 -4 -8 -10 -5 -5 3 -10
-1 -10 -9 0 -12 5 -14 25 -6 23 9 25 7 25 -19 0 -20 -6 -30 -20 -34 -15 -4
-20 0 -20 16 0 30 -9 16 -14 -23 -7 -54 -16 -70 -41 -70 -13 0 -27 -4 -30 -10
-3 -5 4 -10 16 -10 17 0 20 -4 16 -25 -3 -21 1 -29 25 -41 31 -16 82 -12 94 8
8 13 -14 28 -43 28 -30 0 -30 16 -1 24 44 11 98 7 98 -9 0 -18 24 -31 73 -40
28 -6 37 -12 37 -27 0 -19 -4 -20 -97 -13 -54 4 -128 7 -165 8 -55 0 -68 4
-68 16 -1 18 -30 -57 -30 -76 0 -9 12 -12 34 -10 35 2 40 17 5 17 -12 0 -19 7
-19 20 0 18 6 20 68 19 37 -1 114 -4 171 -8 101 -6 104 -5 112 17 10 26 19 27
88 7 50 -16 52 -17 47 -48 -3 -18 -7 -54 -10 -82 -5 -54 -5 -54 27 64 11 38
18 46 51 58 22 7 42 11 45 8 2 -3 -5 -45 -17 -93 -12 -48 -22 -95 -22 -104 0
-31 -23 -68 -42 -68 -11 0 -28 -5 -39 -11 -19 -10 -20 -8 -15 38 l5 48 -11
-38 -12 -37 -63 0 c-57 0 -65 -2 -73 -22 -7 -20 -9 -20 -9 -4 -1 15 -4 16 -16
6 -12 -10 -16 -9 -21 4 -7 19 -35 21 -52 4 -8 -8 -15 -8 -28 3 -14 11 -18 11
-22 1 -3 -9 -8 -10 -17 -2 -14 12 -45 3 -46 -14 0 -6 -4 -1 -9 12 -8 19 -16
22 -70 22 -55 0 -60 2 -61 23 -1 12 -5 3 -11 -20 -8 -36 -13 -43 -34 -43 -20
0 -24 -5 -24 -29 0 -22 6 -30 25 -35 20 -5 25 -12 25 -40 0 -28 -4 -35 -26
-40 -20 -5 -25 -12 -22 -34 2 -15 9 -28 16 -28 6 -1 17 -2 22 -3 6 0 10 -10
10 -21 0 -25 14 -27 305 -38 275 -11 363 -9 393 7 18 9 21 9 16 -2 -11 -28
-56 -37 -192 -37 -100 0 -133 -3 -122 -11 11 -8 -28 -9 -135 -6 -161 6 -222
17 -150 28 22 3 -35 7 -127 8 l-168 1 0 34 c0 19 -3 43 -6 53 -4 13 -3 15 4 4
12 -16 24 0 13 17 -6 10 -10 10 -18 0 -17 -21 -25 -56 -13 -63 6 -4 7 -13 1
-23 -8 -15 -8 -130 -1 -157 2 -5 0 -18 -4 -27 -4 -9 -3 -25 3 -36 13 -25 3
-65 -15 -58 -8 3 -14 3 -14 0 0 -2 11 -9 25 -14 14 -5 22 -15 20 -22 -10 -25
35 -79 83 -100 37 -17 74 -22 177 -26 126 -5 152 -20 36 -21 l-53 -1 6 -32
c11 -55 28 -65 134 -77 137 -15 309 -22 510 -21 l172 0 0 -80 0 -80 396 0
c332 0 395 2 391 14 -3 7 0 19 6 25 9 10 9 12 -2 9 -10 -2 -15 10 -18 46 -2
27 -7 54 -12 60 -5 6 -5 20 0 31 11 29 11 37 -2 29 -6 -3 -3 5 6 20 10 14 13
26 7 26 -6 0 -13 -6 -15 -12 -5 -12 -11 36 -8 56 1 5 -4 13 -11 17 -7 5 -8 9
-3 9 6 0 9 16 7 38 -4 39 12 64 44 68 19 3 18 -12 -1 -20 -8 -3 -15 -13 -15
-21 0 -9 -4 -14 -9 -11 -4 3 -3 -13 3 -35 8 -33 8 -42 -4 -49 -14 -9 -7 -14
13 -11 4 1 18 -9 31 -22 17 -17 21 -28 15 -38 -5 -8 -9 -9 -9 -4 0 18 -26 -39
-27 -62 -1 -12 5 -24 13 -27 9 -3 12 -10 9 -16 -6 -9 8 -14 28 -11 4 0 7 -4 7
-9 0 -6 -4 -10 -9 -10 -5 0 -11 -14 -13 -30 -3 -21 0 -30 10 -30 8 0 12 -6 8
-15 -4 -12 6 -15 62 -15 47 0 63 3 52 10 -13 8 -12 10 3 10 9 0 17 -4 17 -10
0 -15 817 -13 823 2 4 10 6 10 6 0 1 -9 65 -12 288 -12 253 1 289 3 306 17 17
16 17 16 11 0 -6 -16 7 -17 151 -16 148 1 156 2 152 20 -3 12 0 19 9 19 8 0
14 -5 14 -12 0 -6 10 0 23 13 27 28 24 48 -3 24 -17 -15 -19 -15 -25 6 -6 18
-9 19 -16 7 -10 -18 -47 -17 -59 2 -7 12 -10 11 -16 -3 -3 -9 -10 -15 -14 -12
-4 3 -13 -1 -19 -9 -9 -11 -6 -13 16 -10 42 4 48 -7 13 -24 -30 -14 -33 -14
-42 1 -5 10 -15 14 -21 11 -7 -4 -9 -4 -5 1 11 12 -11 35 -34 35 -10 0 -16 4
-13 10 3 5 -1 10 -10 10 -14 0 -14 2 1 25 15 22 42 27 29 4 -4 -5 1 -9 9 -9
10 0 16 -9 16 -25 0 -14 4 -25 9 -25 21 0 41 13 41 27 0 8 4 12 9 9 5 -4 11
-1 13 5 2 7 15 13 29 14 13 1 24 7 24 12 0 6 3 15 8 19 4 4 7 -2 7 -14 0 -22
14 -30 24 -13 4 5 1 11 -6 13 -7 3 7 19 31 36 24 18 40 32 35 32 -5 0 3 11 18
25 15 14 32 25 38 25 5 0 10 5 10 10 0 6 -9 10 -20 10 -26 0 -26 21 0 43 21
18 27 37 11 37 -5 0 -18 3 -28 7 -16 6 -16 5 -4 -10 16 -20 2 -23 -18 -5 -10
9 -12 10 -7 1 7 -13 -32 -39 -42 -27 -4 4 -1 9 6 11 16 6 53 78 45 87 -4 3 5
6 18 6 18 0 25 -5 25 -20 0 -11 -4 -20 -8 -20 -4 0 -8 -4 -8 -10 0 -26 33 -4
75 51 26 33 58 71 71 84 22 22 23 25 6 34 -16 10 -16 10 1 11 13 0 17 9 17 41
0 24 -4 38 -10 34 -5 -3 -10 -13 -10 -22 0 -8 -18 -33 -40 -55 -22 -23 -40
-34 -40 -26 0 8 4 18 9 24 6 5 3 15 -7 24 -14 13 -15 12 -9 -3 3 -9 4 -24 1
-32 -7 -17 -34 -21 -34 -5 0 15 -25 12 -59 -7 -29 -17 -37 -41 -11 -35 15 3
39 -27 39 -48 0 -8 -4 -5 -9 8 -8 18 -15 21 -35 16 -16 -4 -25 -2 -25 6 0 7
-7 10 -15 6 -8 -3 -15 -1 -15 4 0 6 -8 10 -17 10 -15 -1 -15 -3 5 -19 29 -25
28 -33 -8 -71 -17 -18 -30 -37 -30 -42 0 -19 34 -68 47 -68 7 0 13 -4 13 -10
0 -5 5 -10 10 -10 6 0 10 6 10 14 0 8 7 17 15 20 14 5 13 1 -2 -24 -19 -33
-28 -37 -37 -15 -3 8 -12 12 -21 9 -10 -4 -15 0 -15 10 0 9 -4 16 -9 16 -5 0
-7 -9 -4 -20 3 -11 14 -20 24 -20 21 0 27 -34 8 -45 -17 -11 -59 -13 -65 -3
-3 5 -13 3 -22 -4 -15 -11 -15 -11 -4 4 8 10 9 19 3 22 -5 3 -12 0 -15 -6 -3
-7 -3 1 -1 17 5 42 5 43 15 17 11 -25 30 -30 30 -7 0 9 -7 30 -16 46 -8 17
-13 33 -10 37 3 3 6 0 6 -8 0 -10 3 -10 15 0 9 7 13 21 10 31 -4 10 1 23 12
31 25 18 30 153 6 162 -12 5 -14 1 -11 -17 4 -22 2 -23 -41 -20 -33 2 -42 0
-31 -7 12 -8 9 -10 -13 -10 -16 0 -26 -4 -22 -9 3 -5 0 -13 -6 -16 -5 -4 -7
-14 -4 -24 13 -32 16 -63 5 -56 -16 10 -12 -11 6 -26 14 -12 20 -9 40 16 13
17 24 36 24 43 0 7 4 11 10 7 11 -7 2 -34 -22 -60 -12 -13 -17 -28 -13 -45 5
-26 -2 -44 -21 -47 -6 -1 -9 10 -6 27 3 22 -2 32 -21 45 -14 9 -27 25 -30 36
-3 12 -10 18 -15 15 -5 -3 -12 5 -14 19 -3 14 -1 25 3 25 10 0 7 36 -3 46 -13
12 5 34 28 34 30 0 30 7 3 31 -19 16 -23 16 -36 4 -8 -8 -19 -15 -24 -15 -12
0 -11 17 2 25 6 4 14 17 19 29 7 17 9 17 9 4 1 -20 21 -25 21 -5 1 16 46 67
60 67 5 0 10 -7 10 -15 0 -8 -6 -15 -14 -15 -8 0 -18 -5 -22 -12 -5 -8 -2 -9
10 -5 10 4 15 3 11 -3 -3 -6 -16 -10 -28 -10 -20 0 -20 -1 -4 -17 15 -15 19
-16 26 -4 5 7 13 11 18 8 5 -3 22 6 37 20 15 14 33 26 39 27 7 1 22 7 34 14
19 11 21 10 18 -8 -2 -11 1 -20 7 -20 5 0 7 7 4 16 -8 20 42 67 66 61 19 -5
25 8 8 18 -6 3 -24 -3 -40 -15 -44 -31 -87 -42 -94 -24 -3 9 -1 12 4 9 5 -3
18 -1 27 4 17 10 17 10 0 11 -10 0 -16 4 -13 8 3 5 -1 9 -9 9 -8 0 -15 -3 -15
-7 0 -4 -12 -12 -26 -18 -18 -9 -23 -9 -18 -1 4 8 -1 9 -17 5 -13 -3 -18 -3
-11 0 6 3 12 10 12 15 0 6 -4 7 -10 4 -6 -3 -10 -2 -10 3 0 17 13 22 27 10 11
-9 16 -9 23 2 4 7 17 11 29 7 14 -3 21 0 21 9 0 11 -8 13 -32 9 -57 -10 -108
-12 -108 -3 0 7 24 12 43 9 5 -1 6 3 3 8 -11 16 10 21 41 9 17 -6 39 -8 49 -3
12 5 15 9 7 12 -19 7 -15 33 5 33 16 1 16 2 -1 14 -12 9 -14 16 -8 21 18 11
12 25 -14 35 -34 13 -31 30 10 63 19 15 35 33 35 40 0 8 -3 8 -9 -2 -5 -7 -14
-11 -20 -7 -7 5 -9 1 -5 -8 3 -9 1 -16 -4 -16 -6 0 -14 9 -17 20 -8 25 17 54
33 38 6 -6 12 -6 16 1 4 6 2 11 -3 11 -6 0 -11 5 -11 10 0 19 21 10 29 -12 9
-24 -5 -78 -19 -78 -4 0 -7 -11 -6 -25 1 -30 16 -34 16 -5 0 11 4 20 8 20 5 0
14 11 21 23 12 22 21 26 61 28 9 0 20 10 25 21 6 11 14 19 18 17 5 -2 14 5 20
16 12 19 47 31 47 15 0 -12 -26 -30 -33 -23 -4 3 -7 -1 -7 -9 0 -16 28 -33 38
-23 3 3 -1 5 -8 5 -10 0 -11 3 -3 11 13 13 36 3 28 -12 -4 -5 0 -9 7 -9 8 0
21 -9 31 -20 9 -11 21 -20 27 -20 7 0 10 473 10 1450 0 942 -4 1450 -10 1450
-6 0 -10 7 -10 16 0 8 4 13 8 10 5 -3 9 94 10 215 2 202 -2 243 -23 209 -4 -6
-13 -5 -25 2 -14 9 -25 9 -44 0 -16 -7 -26 -8 -26 -2 0 6 -12 10 -26 10 -14 0
-23 -4 -19 -9 3 -5 -4 -12 -15 -16 -11 -3 -20 -9 -20 -13 0 -4 -23 -8 -50 -10
-28 -1 -63 -8 -78 -14 -32 -13 -38 -14 -75 -16 -17 -1 -26 -6 -21 -13 3 -6 17
-8 30 -5 13 4 24 2 24 -3 0 -11 -29 -23 -40 -16 -5 3 -11 -4 -15 -15 -3 -11
-13 -20 -21 -20 -8 0 -14 -5 -14 -11 0 -5 -4 -7 -10 -4 -5 3 -10 1 -10 -5 0
-6 -4 -9 -10 -5 -5 3 -19 -4 -31 -16 -17 -17 -23 -19 -30 -8 -7 11 -9 11 -9 1
0 -7 -4 -10 -10 -7 -5 3 -10 -1 -10 -9 0 -9 -3 -17 -7 -17 -44 -7 -63 -6 -63
2 0 5 -10 9 -22 9 -14 0 -18 -3 -12 -8 8 -4 0 -18 -22 -39 -19 -18 -34 -29
-35 -25 0 4 -4 -2 -8 -13 -5 -11 -17 -20 -27 -21 -10 0 -26 -3 -34 -6 -8 -3
-48 -16 -87 -28 -75 -24 -97 -37 -42 -25 24 6 30 4 27 -6 -3 -8 -12 -13 -21
-11 -10 2 -17 -6 -19 -20 -2 -17 -9 -22 -25 -20 -12 2 -24 -2 -28 -8 -3 -5
-17 -10 -31 -10 -14 0 -27 -7 -31 -16 -5 -13 -7 -13 -14 -2 -7 10 -9 11 -9 0
0 -7 -5 -10 -10 -7 -6 3 -13 0 -16 -8 -3 -8 -25 -22 -50 -32 -24 -9 -47 -23
-52 -30 -9 -17 -52 -21 -102 -11 -25 5 -41 3 -55 -8 -19 -15 -19 -15 14 -16
l34 0 -24 -17 c-36 -27 -67 -43 -81 -43 -7 0 -19 -9 -26 -20 -7 -11 -19 -20
-27 -20 -8 0 -15 -4 -15 -10 0 -5 -11 -12 -25 -16 -14 -3 -25 -10 -25 -15 0
-11 32 -28 50 -27 8 1 39 0 68 0 61 -2 67 -21 11 -35 -53 -15 -222 -12 -244 3
-5 4 -19 4 -30 -1 -17 -7 -17 -8 8 -8 17 -1 27 -7 27 -16 0 -21 -36 -37 -70
-31 -23 3 -33 -1 -41 -16 -10 -18 -9 -20 9 -16 15 4 19 1 17 -11 -2 -9 -4 -21
-4 -27 -1 -6 -8 -11 -16 -11 -20 0 -19 7 3 23 15 13 15 13 -8 10 -14 -3 -31
-5 -38 -5 -9 -1 -10 -6 -3 -19 9 -16 4 -18 -47 -18 -31 0 -65 -3 -74 -8 -13
-6 -16 -3 -12 16 l5 23 -11 -24 c-6 -13 -16 -21 -23 -18 -25 10 -37 -8 -16
-22 12 -7 18 -8 14 -2 -3 7 2 11 14 11 13 0 18 -5 15 -13 -5 -15 23 -44 33
-33 3 3 1 6 -5 6 -7 0 -12 5 -12 10 0 6 6 10 14 10 8 0 16 5 18 12 3 7 20 13
39 13 l35 2 -21 -22 c-11 -11 -25 -19 -31 -17 -7 2 -15 -2 -19 -8 -3 -6 -1 -9
6 -8 6 2 13 -2 15 -7 4 -10 -35 -18 -84 -17 -16 0 -22 -4 -18 -14 3 -8 -1 -14
-9 -14 -8 0 -12 6 -9 14 6 15 -22 30 -31 17 -3 -5 -13 -7 -24 -4 -10 2 -25 -3
-34 -12 -9 -9 -21 -13 -27 -10 -15 9 -2 25 21 25 11 0 17 4 14 10 -3 5 0 7 9
4 10 -4 16 4 20 23 6 27 65 76 67 56 0 -4 3 -1 7 8 9 22 103 99 119 99 7 0 13
4 13 9 0 5 15 15 34 21 19 6 37 18 40 26 3 8 14 14 23 12 10 -2 18 3 18 10 0
6 3 12 8 12 4 0 17 9 29 20 12 11 25 20 29 20 4 0 14 7 22 15 13 13 153 88
167 90 3 0 25 10 50 22 81 39 120 52 135 46 10 -3 13 -1 10 9 -4 9 11 20 45
33 28 11 47 21 42 23 -12 4 -186 -70 -301 -127 -184 -93 -376 -216 -528 -337
-104 -83 -277 -257 -323 -324 -204 -297 -216 -317 -297 -533 -49 -131 -73
-204 -93 -280 -7 -26 -17 -50 -21 -53 -5 -3 -9 -15 -9 -27 -1 -12 -14 -67 -29
-122 -29 -100 -30 -125 -6 -125 13 0 25 30 25 62 0 9 5 29 12 45 13 32 14 39
16 74 2 31 29 34 56 7 18 -19 52 -25 41 -8 -3 6 -13 10 -21 10 -17 0 -19 16
-1 23 7 3 4 6 -6 6 -10 1 -15 6 -12 11 4 6 10 8 15 5 5 -3 20 -1 35 5 21 8 26
15 22 31 -4 15 -1 19 11 15 18 -6 71 29 60 39 -3 4 -17 1 -30 -6 -61 -32 -85
-38 -73 -19 3 6 1 10 -4 10 -6 0 -11 -9 -11 -20 0 -14 7 -20 21 -20 11 0 18
-4 15 -9 -4 -5 -21 -8 -39 -7 -17 1 -38 -3 -45 -8 -11 -8 -13 -5 -10 14 2 14
9 24 15 23 7 -2 9 11 6 37 -4 26 -2 40 6 40 6 0 11 9 11 20 0 11 6 23 14 26 8
3 22 16 30 29 14 21 14 23 -4 18 -17 -5 -18 -2 -8 28 6 19 12 40 14 46 2 7 18
14 36 14 30 1 31 2 8 8 -14 3 -25 11 -25 16 2 20 18 60 27 66 5 3 11 15 13 25
2 10 4 21 5 24 3 8 7 24 8 38 1 7 5 11 10 9 4 -3 8 9 9 26 3 39 50 88 64 66 7
-12 9 -12 10 1 1 8 1 19 -1 25 -1 5 6 15 16 22 14 10 15 15 4 28 -10 12 -10
15 4 15 13 0 16 5 11 20 -5 14 -2 20 10 20 9 0 13 5 10 10 -3 6 1 13 9 16 9 3
16 15 16 25 0 10 4 19 8 19 4 0 15 12 24 28 49 82 187 256 196 247 3 -3 12 5
19 17 10 18 12 20 13 6 0 -11 8 -18 21 -18 11 0 18 4 15 9 -3 5 1 12 10 15 8
3 13 2 10 -3 -3 -5 3 -11 14 -14 11 -3 20 -1 20 4 0 5 -4 9 -10 9 -5 0 -10 5
-10 11 0 6 7 8 17 5 9 -4 21 -1 26 6 6 9 7 8 3 -4 -4 -14 1 -18 24 -18 25 0
29 -4 28 -24 -1 -14 -5 -23 -9 -20 -4 2 -10 0 -14 -6 -3 -5 1 -10 10 -10 9 0
13 -5 10 -10 -4 -6 -11 -8 -16 -5 -5 4 -9 1 -9 -4 0 -6 5 -11 12 -11 6 0 8 -3
5 -6 -4 -4 -12 -2 -19 4 -10 8 -22 2 -50 -23 -20 -18 -33 -36 -30 -40 4 -4 -1
-13 -11 -20 -12 -8 -14 -15 -8 -20 21 -12 11 -26 -16 -25 -46 3 -64 0 -59 -9
3 -4 -10 -17 -29 -27 -19 -10 -35 -22 -35 -27 0 -4 9 -3 19 3 14 7 21 6 24 -3
3 -7 6 -5 6 6 1 18 9 21 36 10 15 -5 14 -8 -6 -20 -13 -7 -17 -12 -9 -11 24 4
23 -16 0 -22 -19 -5 -17 -7 14 -18 20 -7 40 -10 46 -7 5 3 7 0 4 -8 -3 -9 -13
-13 -24 -10 -15 4 -18 1 -13 -16 6 -22 36 -45 46 -35 2 3 32 -2 66 -11 60 -15
93 -14 208 11 l32 6 -11 -38 c-17 -56 -22 -60 -98 -79 -73 -18 -155 -16 -225
4 -54 16 -68 19 -81 20 -12 1 -14 31 -4 41 12 12 29 60 21 60 -5 0 -11 8 -13
17 -2 14 -10 10 -39 -18 -19 -20 -42 -39 -50 -42 -9 -4 -10 -6 -1 -6 6 -1 12
-6 12 -13 0 -6 -3 -9 -6 -5 -4 3 -19 0 -35 -8 -31 -17 -52 -20 -29 -5 12 8 11
10 -7 10 -16 0 -21 -4 -17 -15 4 -8 -1 -17 -10 -21 -9 -3 -13 -10 -10 -15 3
-5 0 -9 -5 -9 -6 0 -10 -6 -8 -12 1 -7 -3 -12 -9 -11 -6 1 -11 -4 -11 -12 0
-7 6 -11 12 -9 7 3 24 6 39 7 14 1 25 7 24 12 -2 6 -6 9 -10 8 -13 -5 -9 14 5
26 10 8 17 7 25 -1 9 -9 12 -9 12 0 0 7 8 12 18 12 13 0 14 2 4 9 -10 6 -7 10
12 13 14 3 26 1 26 -5 0 -6 3 -7 7 -4 7 8 33 -11 33 -24 0 -5 -6 -9 -14 -9 -9
0 -12 -7 -9 -20 4 -16 2 -19 -13 -13 -14 5 -16 3 -11 -11 5 -13 -1 -24 -18
-38 -14 -11 -23 -24 -20 -29 4 -5 1 -9 -4 -9 -6 0 -11 -5 -11 -11 0 -5 4 -8
10 -4 5 3 21 3 35 -1 21 -5 24 -9 13 -16 -10 -7 -10 -11 -1 -15 16 -6 17 -33
2 -33 -5 0 -8 4 -5 9 3 5 -1 11 -9 15 -17 6 -21 -9 -5 -19 15 -9 12 -43 -4
-52 -8 -4 -15 -12 -15 -18 0 -5 -8 -12 -18 -14 -15 -3 -15 1 5 22 22 24 16 47
-8 32 -9 -6 -14 8 -11 28 1 5 -8 6 -19 2 -25 -8 -26 2 -2 24 24 21 23 58 -1
65 -19 5 -39 -28 -30 -51 3 -7 -2 -13 -10 -13 -42 0 -35 -53 8 -62 11 -2 19
-10 18 -16 -2 -7 2 -12 7 -12 6 0 10 5 10 10 0 6 4 10 9 10 5 0 7 -9 4 -19 -3
-11 -10 -18 -17 -15 -6 2 -17 -5 -24 -16 -7 -12 -8 -20 -2 -20 5 0 10 5 10 11
0 17 23 5 26 -13 4 -28 -58 -68 -72 -47 -3 5 0 16 6 24 11 13 7 15 -21 15 -28
-1 -31 -2 -16 -11 14 -8 15 -14 6 -30 -13 -26 -5 -36 16 -19 16 13 18 9 16
-30 -2 -20 0 -22 8 -10 9 13 11 13 11 -2 0 -12 8 -18 25 -18 14 0 25 5 25 10
0 6 -7 10 -15 10 -14 0 -41 38 -32 46 3 3 17 -6 32 -20 27 -25 83 -37 70 -16
-3 6 -2 10 3 10 6 0 12 -6 15 -14 4 -9 -4 -16 -24 -20 -17 -3 -29 -12 -29 -21
0 -10 5 -13 13 -9 8 6 8 3 -2 -9 -9 -11 -23 -15 -45 -12 -17 2 -34 4 -38 4 -5
1 -8 6 -8 11 0 6 10 8 24 4 13 -3 26 -2 29 3 11 17 -50 7 -83 -14 -22 -14 -29
-23 -18 -23 9 0 18 5 20 12 6 16 38 2 38 -17 0 -8 -8 -15 -17 -15 -16 0 -16 2
-3 11 13 9 13 10 0 6 -8 -2 -17 -12 -19 -22 -2 -14 2 -17 17 -13 20 6 62 -16
62 -31 0 -5 -11 -6 -25 -3 -14 2 -25 7 -25 11 0 3 -11 7 -26 7 -23 2 -24 1 -7
-11 10 -7 14 -17 10 -21 -4 -5 -12 -2 -17 5 -4 8 -15 11 -25 8 -13 -6 -15 -3
-10 14 5 15 4 19 -4 15 -6 -4 -11 -2 -11 3 0 12 -30 15 -31 4 0 -5 -2 -18 -5
-31 -3 -15 0 -21 7 -17 6 4 8 14 4 22 -4 13 -3 14 10 3 16 -13 21 -31 8 -28
-18 4 -63 -26 -59 -39 3 -7 -1 -13 -11 -13 -12 0 -13 -3 -4 -13 6 -8 8 -17 4
-21 -4 -4 -1 -12 7 -17 12 -9 12 -10 -3 -5 -15 5 -17 2 -11 -16 5 -17 3 -20
-11 -15 -17 7 -49 -16 -38 -27 4 -3 0 -6 -7 -6 -7 0 -10 -3 -7 -6 4 -4 12 -2
19 3 7 6 25 13 41 17 21 5 27 3 27 -9 0 -13 10 -15 48 -12 45 4 48 2 50 -20 2
-22 0 -23 -14 -9 -17 18 -34 21 -34 7 0 -13 -39 -21 -46 -9 -7 11 -26 -15 -30
-40 -6 -33 63 -35 95 -3 11 11 28 21 36 21 8 0 13 6 11 13 -1 6 -1 8 2 4 6
-11 32 13 32 29 0 10 6 11 26 3 15 -5 34 -7 43 -4 12 3 16 -2 16 -20 0 -19 -5
-25 -23 -25 -13 0 -20 4 -17 10 4 6 -6 7 -27 3 -18 -3 -35 -10 -36 -15 -2 -4
-11 -8 -20 -8 -10 0 -23 -9 -29 -19 -10 -15 -9 -22 2 -31 12 -10 15 -10 15 1
0 9 14 15 42 16 23 2 45 8 50 15 5 9 8 8 8 -4 0 -10 5 -18 10 -18 6 0 10 -5
10 -11 0 -6 -6 -9 -14 -6 -9 4 -12 0 -10 -11 2 -9 0 -23 -5 -31 -7 -11 -17 -9
-56 8 -26 12 -56 21 -65 21 -10 0 -20 5 -22 11 -3 9 -9 9 -25 1 -14 -8 -23 -8
-25 -2 -5 15 -308 26 -308 12 0 -7 -7 -12 -15 -12 -10 0 -15 -10 -15 -31 0
-26 3 -31 20 -26 11 3 51 -1 88 -9 37 -8 110 -15 162 -15 l95 -2 -59 -10 c-45
-7 -81 -6 -164 8 l-106 17 -18 -22 c-19 -23 -54 -21 -45 3 2 6 0 22 -4 35 -5
13 -5 21 0 18 10 -6 21 26 21 62 0 32 -17 18 -26 -21 -6 -30 -7 -31 -15 -9 -5
13 -17 22 -29 22 -17 0 -20 6 -20 44 0 25 4 47 8 50 14 8 14 178 1 209 -10 23
-9 31 1 37 10 6 12 30 7 102 l-6 93 34 35 c19 19 35 43 36 55 0 11 4 52 8 90
10 87 -6 130 -56 151 l-33 14 6 70 c6 64 5 70 -12 70 -18 0 -19 6 -11 132 6
94 13 136 23 144 8 6 14 20 13 30 0 18 -1 18 -9 -1 -6 -13 -9 41 -7 147 2 134
5 170 17 181 8 8 52 29 98 47 45 18 84 36 87 40 5 8 -89 5 -130 -6 -26 -6 -27
-8 -10 -15 19 -7 19 -8 -2 -15 -13 -3 -23 -10 -23 -15 0 -5 -4 -9 -10 -9 -6 0
-10 65 -10 175 0 202 -12 181 128 216 50 12 92 26 92 30 0 4 29 8 64 8 36 0
73 4 83 9 16 8 97 27 228 53 22 4 87 17 145 29 58 12 167 32 244 45 76 13 145
26 152 29 7 3 50 10 96 16 46 7 88 16 94 21 7 5 43 11 80 13 73 4 359 42 372
50 4 2 34 7 67 11 147 16 347 44 465 66 l95 17 -490 -2 c-269 -1 -508 -6 -530
-11 -22 -4 -52 -8 -66 -7 -15 1 -35 -7 -45 -17 -15 -14 -27 -16 -54 -10 -19 5
-46 6 -60 3 -14 -2 -19 -1 -12 2 10 5 9 9 -5 19 -15 11 -22 10 -45 -7 -16 -10
-28 -17 -28 -14 0 2 -14 1 -32 -4 -25 -8 -34 -6 -44 8 -8 10 -13 12 -14 5 0
-7 -5 -13 -11 -13 -6 0 -9 7 -5 15 3 8 1 15 -4 15 -6 0 -10 -6 -10 -12 0 -9
-4 -8 -11 2 -8 11 -12 12 -16 3 -6 -15 -29 -17 -38 -3 -3 5 0 7 8 4 8 -3 17 2
20 10 5 13 -1 16 -31 16 -20 0 -32 -4 -25 -8 16 -10 20 -44 5 -49 -8 -3 -10 1
-6 12 7 17 -15 18 -29 0 -6 -6 -10 -6 -14 3 -2 6 -10 10 -16 6 -7 -3 -4 1 6 9
9 8 17 17 17 20 0 4 -830 7 -1845 7 l-1845 0 0 -215z m2866 73 c1 -24 2 -70 4
-103 2 -33 -3 -139 -9 -235 -7 -96 -16 -276 -20 -399 -5 -162 -10 -226 -19
-229 -7 -2 -12 -13 -12 -23 0 -13 4 -18 12 -13 8 5 9 2 5 -9 -10 -26 -25 -245
-32 -452 -3 -104 -9 -271 -12 -370 -3 -99 -6 -213 -5 -254 0 -49 -5 -79 -13
-88 -18 -18 -28 -16 -21 3 3 9 3 20 0 25 -3 5 -5 105 -4 221 0 117 -2 210 -5
206 -6 -6 -18 -189 -20 -328 -2 -115 -2 -114 -19 -98 -8 7 -12 17 -9 22 3 4
-1 12 -8 17 -10 6 -11 9 -1 9 6 0 12 7 12 15 0 8 -5 15 -12 15 -11 0 -9 67 14
315 5 61 11 153 13 205 l3 95 -9 -75 c-13 -109 -19 -109 -12 0 8 143 20 250
23 210 l2 -35 9 40 c4 22 7 65 7 95 l-1 55 -8 -55 c-5 -40 -6 -25 -5 58 3 113
15 168 17 76 l1 -49 9 60 c6 39 5 61 -1 63 -6 2 -7 9 -3 15 3 6 10 49 14 96 6
69 4 88 -7 97 -9 7 -12 19 -7 29 6 18 7 17 14 -1 6 -15 8 -13 8 11 -1 17 6
122 15 235 9 113 20 251 24 308 l7 102 -67 53 c-37 28 -68 55 -68 60 0 4 31 7
68 7 56 0 72 4 87 20 28 31 40 24 41 -22z m1695 -1026 c-6 -11 -7 -22 -4 -26
3 -3 1 -6 -5 -6 -7 0 -12 5 -12 11 0 5 -4 7 -10 4 -14 -9 -12 -25 3 -22 7 1
11 -6 9 -18 -5 -28 -9 -30 -26 -12 -16 16 -56 12 -56 -5 0 -6 6 -8 14 -5 18 7
38 -46 32 -80 -4 -20 -2 -22 25 -16 25 5 29 2 29 -16 0 -11 -4 -21 -10 -21 -5
0 -13 -18 -16 -40 -4 -22 -10 -38 -14 -35 -4 3 -10 -4 -13 -14 -2 -11 -15 -21
-28 -23 -21 -3 -24 -8 -21 -41 3 -28 -1 -43 -16 -55 -10 -9 -22 -27 -26 -39
-4 -13 -12 -23 -17 -23 -6 0 -7 4 -4 10 4 6 -1 7 -12 3 -10 -4 -22 -12 -26
-20 -11 -19 -56 -16 -64 4 -4 9 -1 19 5 21 18 6 14 19 -7 25 -11 3 -22 17 -26
37 -5 23 -10 29 -15 19 -5 -7 -6 -17 -4 -21 3 -4 -2 -8 -10 -8 -9 0 -16 -4
-16 -10 0 -5 -5 -10 -12 -10 -6 0 -4 7 5 18 16 17 25 43 10 29 -3 -4 -12 5
-20 20 -18 36 -2 69 39 77 16 3 27 10 24 15 -4 5 7 12 24 16 27 6 32 11 29 31
0 4 5 10 13 15 7 5 14 13 14 19 1 5 2 15 3 20 0 6 9 10 19 10 10 0 28 7 40 16
19 13 20 18 10 37 -10 19 -9 20 4 10 18 -15 32 -5 18 12 -8 9 -6 14 5 19 8 3
15 12 15 19 0 25 90 83 108 71 2 -1 -1 -11 -7 -22z m-120 -571 c-5 -14 -6 -32
-4 -38 5 -15 49 -17 58 -3 3 6 1 10 -4 10 -6 0 -11 5 -11 10 0 6 6 10 13 10
17 0 17 -27 1 -59 -10 -18 -10 -27 -2 -32 6 -4 8 -15 4 -25 -4 -10 -4 -15 0
-11 4 4 12 -3 19 -16 6 -12 17 -21 23 -20 7 2 12 -3 12 -10 -1 -19 -82 -64
-117 -65 -46 -1 -53 -8 -43 -42 5 -17 7 -31 4 -31 -2 -1 -8 -2 -13 -3 -5 0
-13 -4 -17 -8 -19 -20 -23 -5 -5 18 19 24 19 26 3 45 -9 10 -23 19 -32 20 -10
0 -9 3 5 9 19 8 19 9 -2 9 -17 1 -23 -5 -23 -19 0 -11 -5 -19 -12 -17 -7 1
-12 -3 -13 -10 0 -7 -6 -18 -12 -24 -10 -11 -13 -10 -13 1 0 7 -13 -1 -29 -19
-19 -21 -30 -28 -34 -19 -2 7 -4 1 -4 -14 0 -15 3 -25 8 -22 5 3 9 0 9 -5 0
-6 -6 -11 -12 -11 -10 0 -9 -3 1 -9 11 -7 9 -11 -9 -21 -21 -11 -22 -10 -18
12 3 16 0 25 -8 25 -7 0 -13 -3 -12 -6 2 -24 -3 -33 -15 -23 -9 8 -17 8 -27 0
-13 -8 -12 -9 1 -5 11 4 20 -3 28 -19 15 -34 16 -32 -26 -40 -37 -7 -89 -34
-65 -34 18 0 15 -12 -13 -44 -14 -16 -25 -24 -25 -18 0 7 -9 12 -19 12 -11 0
-22 6 -24 13 -4 9 -8 8 -16 -3 -7 -10 -7 -17 0 -21 6 -3 -1 -9 -16 -11 -20 -4
-25 -2 -21 9 5 11 0 13 -17 8 -20 -6 -21 -5 -5 8 10 8 14 18 10 22 -4 5 1 5
10 2 14 -5 19 1 24 29 4 22 2 40 -5 47 -6 6 -11 15 -11 20 0 5 7 2 15 -7 16
-15 45 -12 45 5 0 5 5 9 11 9 13 0 44 30 32 31 -41 6 -71 5 -67 -3 3 -4 10 -6
15 -3 5 4 9 2 9 -4 0 -18 -18 -22 -33 -7 -18 19 -11 70 9 62 13 -5 19 12 15
37 -1 5 8 2 20 -7 19 -13 25 -13 50 0 19 10 29 22 29 38 0 15 9 27 25 34 36
17 50 15 35 -3 -12 -15 -6 -35 11 -35 5 0 9 6 8 13 -3 28 2 57 10 57 5 0 7
-10 3 -22 l-5 -21 21 21 c25 25 44 29 36 8 -4 -11 0 -13 15 -9 12 3 24 10 28
16 3 6 1 7 -5 3 -8 -5 -12 2 -12 18 0 23 -3 25 -30 20 -16 -4 -30 -4 -30 -1 0
17 14 37 27 37 8 0 11 5 7 11 -4 6 1 9 12 8 11 -2 25 0 32 4 6 5 12 4 12 -2 0
-5 -4 -13 -10 -16 -5 -3 -10 -12 -10 -18 0 -7 4 -6 10 3 9 13 11 13 19 0 14
-21 24 -5 12 18 -16 31 -14 72 4 72 9 0 15 7 13 16 -2 10 3 19 11 22 9 3 11
-1 6 -17 -4 -15 -2 -21 8 -21 9 0 15 10 15 25 0 33 8 41 27 25 13 -10 15 -9
15 9 0 11 5 21 11 21 5 0 8 3 6 8 -3 4 5 8 18 8 20 2 22 -1 16 -25z m179 -261
c0 -5 -4 -10 -10 -10 -5 0 -10 -6 -10 -14 0 -7 -7 -19 -15 -26 -10 -9 -14 -22
-10 -39 5 -25 -5 -54 -19 -52 -35 5 -36 -15 0 -22 32 -6 78 37 115 108 15 28
35 52 45 54 15 2 13 -2 -10 -23 -26 -25 -27 -28 -12 -45 25 -28 20 -48 -6 -25
-13 10 -18 12 -11 5 8 -10 9 -20 2 -33 -6 -12 -6 -18 1 -18 5 0 10 5 10 10 0
6 6 10 13 10 6 0 23 9 37 20 14 11 35 20 48 20 23 0 30 -14 11 -26 -8 -4 -7
-9 2 -16 12 -8 12 -10 1 -15 -16 -6 24 -53 45 -53 8 0 11 -5 7 -12 -5 -7 -2
-9 9 -5 22 8 41 -47 21 -64 -8 -6 -14 -8 -14 -4 0 4 -6 2 -14 -4 -8 -7 -16 -8
-18 -4 -3 4 -3 3 -2 -4 5 -20 -24 -37 -39 -24 -8 6 -17 8 -20 4 -12 -11 -8
-23 7 -23 8 0 16 -5 18 -11 3 -8 10 -6 20 5 9 9 24 16 32 16 9 0 16 5 16 12 0
9 3 9 11 1 7 -7 8 -17 3 -25 -5 -7 -9 -15 -9 -18 -5 -39 -35 -68 -35 -35 0 11
-7 14 -25 9 -14 -3 -25 -2 -25 4 0 6 -9 8 -20 5 -11 -3 -20 -10 -20 -15 0 -5
8 -7 18 -4 13 5 22 -1 30 -19 10 -21 9 -25 -3 -25 -8 0 -15 6 -15 14 0 16 -37
28 -46 15 -3 -5 -1 -9 4 -9 13 0 25 -101 16 -125 -7 -17 -9 -15 -16 10 -5 18
-4 31 2 33 6 2 8 8 4 13 -10 17 -40 9 -64 -16 -13 -14 -30 -25 -38 -25 -10 0
-13 -8 -10 -29 2 -17 1 -28 -3 -25 -4 2 -10 -2 -12 -8 -4 -10 -8 -9 -16 2 -14
21 -25 6 -12 -18 14 -27 14 -42 -1 -42 -7 0 -20 -5 -28 -10 -12 -8 -13 -12 -2
-19 10 -6 7 -10 -12 -15 -14 -3 -26 -11 -26 -16 0 -6 -6 -10 -13 -10 -6 0 -18
-13 -25 -29 -7 -16 -22 -31 -32 -34 -23 -6 -26 6 -7 25 15 14 12 38 -5 38 -6
0 -7 -7 -4 -15 3 -9 -1 -18 -9 -21 -18 -7 -20 -44 -3 -44 17 0 4 -10 -19 -14
-26 -6 -23 30 7 79 25 40 17 45 -17 13 -16 -15 -23 -17 -23 -8 0 11 -3 11 -12
2 -7 -7 -13 -18 -13 -24 0 -6 -10 -14 -22 -19 -14 -5 -23 -5 -23 1 0 6 -5 10
-11 10 -6 0 -9 -7 -6 -14 4 -10 1 -13 -7 -10 -8 3 -21 -4 -29 -16 -12 -18 -19
-20 -34 -11 -10 6 -13 11 -6 11 7 0 10 6 7 14 -3 9 4 19 18 26 22 11 22 10 4
-4 -24 -19 -15 -32 12 -17 23 12 24 67 1 85 -9 7 -13 25 -11 50 2 26 0 36 -8
31 -6 -4 -8 -15 -5 -26 4 -10 3 -19 -1 -19 -9 0 -44 41 -44 52 0 13 18 9 23
-4 3 -10 7 -10 20 0 13 11 18 9 33 -13 18 -27 18 -27 26 -5 9 23 2 44 -12 35
-4 -3 -6 4 -3 16 4 15 11 19 28 15 19 -5 22 -3 18 14 -3 11 -14 27 -24 34 -10
7 -16 16 -11 21 4 4 -1 5 -10 2 -11 -4 -18 -1 -18 6 0 7 -5 4 -11 -6 -6 -9 -7
-27 -4 -40 5 -16 4 -18 -3 -8 -5 7 -15 10 -21 7 -8 -5 -8 0 -2 17 6 14 7 27 5
30 -3 3 3 8 14 11 11 4 27 17 37 30 11 14 25 21 39 19 11 -2 27 0 34 5 17 11
5 42 -14 35 -10 -3 -14 2 -14 18 0 17 3 20 9 11 6 -11 13 -8 28 12 13 16 28
24 41 21 15 -3 19 1 15 16 -6 22 -19 25 -27 7 -3 -7 -4 -4 -3 7 2 12 10 19 20
19 9 -1 17 4 17 12 0 8 -7 14 -16 14 -12 0 -15 6 -11 22 4 15 -1 28 -16 41
-20 17 -21 19 -4 28 9 6 17 15 17 20 0 15 26 39 43 39 9 0 27 14 40 30 24 28
56 43 41 19 -4 -7 1 -7 16 1 12 7 32 10 45 8 17 -4 22 0 20 11 -2 15 11 31 28
31 4 0 7 -4 7 -10z m-2191 -415 c124 -4 210 -10 218 -17 7 -6 13 -21 13 -34 0
-34 -34 -37 -351 -30 -274 6 -279 6 -279 -14 0 -11 -7 -20 -15 -20 -11 0 -15
11 -15 38 0 66 52 93 165 86 33 -2 152 -6 264 -9z m2520 -77 c-10 -18 -9 -20
5 -15 10 4 16 1 16 -8 0 -8 5 -15 11 -15 5 0 7 4 4 10 -11 18 -14 50 -4 50 5
0 9 -5 9 -11 0 -6 6 -9 14 -6 22 9 25 -14 4 -35 -9 -9 -15 -24 -12 -33 7 -17
34 -21 34 -5 0 6 5 10 10 10 7 0 7 -7 0 -20 -6 -11 -8 -24 -6 -29 13 -20 -28
-20 -50 0 -31 29 -55 20 -26 -9 12 -12 22 -25 22 -28 0 -4 8 -13 18 -20 16
-13 16 -14 -3 -8 -16 5 -17 4 -5 -5 22 -16 27 -14 34 14 4 16 11 23 18 19 8
-5 9 2 5 24 -5 23 -2 34 10 41 14 7 15 12 5 24 -11 13 -9 16 8 22 16 5 18 10
10 20 -8 9 -7 14 5 19 14 5 20 -10 16 -36 0 -5 8 -8 18 -8 10 0 21 -6 24 -13
4 -10 -2 -13 -19 -9 -19 3 -23 1 -18 -12 5 -12 2 -15 -11 -10 -15 6 -17 2 -13
-25 3 -20 1 -30 -6 -28 -6 3 -11 -8 -12 -25 -1 -20 -11 -38 -30 -53 l-28 -22
-24 24 c-13 13 -21 30 -19 38 3 7 -1 16 -9 19 -8 3 -13 2 -11 -2 3 -4 -4 -16
-15 -27 -19 -20 -19 -20 -12 0 7 19 7 19 -13 3 -24 -22 -37 -23 -29 -3 3 8 0
15 -5 15 -7 0 -9 -11 -7 -25 3 -13 2 -22 -3 -20 -4 3 -9 -1 -12 -7 -3 -10 -8
-10 -17 -2 -9 9 -8 18 5 38 16 24 16 28 1 51 -14 22 -20 24 -38 14 -18 -10
-20 -9 -15 6 4 9 7 21 7 26 0 5 7 9 15 9 8 0 20 9 27 20 14 22 44 27 51 8 2
-7 -7 -25 -20 -40 -29 -30 -23 -51 12 -42 17 4 24 1 28 -13 4 -15 5 -14 6 4 0
12 -5 23 -11 25 -9 3 -8 9 5 22 18 19 22 36 9 36 -5 0 -9 6 -9 14 0 18 23 10
31 -10 3 -9 10 -12 16 -9 16 10 12 22 -10 28 -15 4 -18 10 -13 24 6 15 21 32
31 33 1 0 -2 -10 -9 -22z m-784 -138 c-9 -10 -12 -21 -7 -24 15 -9 22 -45 7
-40 -12 5 -65 -36 -65 -50 0 -3 10 -4 23 -1 12 3 29 1 37 -5 13 -9 13 -11 0
-20 -13 -9 -13 -11 0 -20 10 -6 0 -8 -33 -5 -45 4 -47 3 -47 -20 0 -14 -4 -25
-10 -25 -5 0 -10 -9 -10 -20 0 -21 29 -29 31 -7 0 10 2 10 6 0 5 -15 33 -18
33 -4 0 8 72 51 85 51 2 0 2 -6 -1 -14 -3 -7 -23 -21 -45 -31 -21 -10 -39 -22
-39 -28 0 -5 -11 -7 -25 -4 -19 3 -31 -2 -45 -21 -11 -14 -23 -22 -27 -19 -3
4 -12 -1 -19 -11 -12 -16 -13 -16 -14 3 -1 18 -2 18 -13 4 -7 -9 -18 -14 -25
-11 -7 2 -20 -2 -29 -10 -13 -10 -15 -10 -9 0 4 7 2 19 -4 27 -18 21 6 48 34
39 12 -4 18 -3 14 1 -4 4 -3 17 3 28 8 14 8 18 0 13 -6 -4 -11 -2 -11 3 0 6 7
11 15 11 8 0 15 5 15 10 0 6 -7 10 -15 10 -20 0 -19 16 1 24 9 3 14 12 11 19
-3 7 1 24 8 37 7 13 11 30 8 37 -3 8 3 14 13 15 11 0 24 2 30 2 6 1 19 7 28
15 13 11 17 11 22 -3 3 -9 13 -16 22 -16 12 0 10 6 -9 26 -13 14 -17 23 -9 19
9 -3 21 3 28 13 8 10 23 19 34 19 19 2 19 1 3 -17z m-1086 -19 c11 -11 21 -26
23 -33 3 -19 -12 -72 -23 -79 -10 -6 8 -69 20 -69 5 0 8 -13 9 -30 0 -16 -4
-30 -9 -30 -5 0 -18 -9 -28 -19 -20 -20 -20 -20 7 -24 15 -2 2 -4 -28 -4 -30
-1 -47 1 -38 4 11 3 16 13 14 31 -4 34 -23 40 -35 10 -7 -17 -10 0 -10 65 -1
49 -5 87 -11 87 -15 0 -32 -40 -27 -66 3 -19 1 -22 -8 -14 -11 9 -10 20 0 59
18 69 28 82 90 118 28 16 33 15 54 -6z m216 -11 c-6 -10 66 -7 84 4 10 7 12 3
6 -13 -6 -19 -3 -21 32 -18 21 1 45 7 53 12 13 8 13 7 1 -8 -12 -15 -11 -17 5
-17 16 0 17 -2 4 -10 -8 -5 -28 -9 -45 -9 -17 1 -22 3 -12 6 9 2 17 8 17 13 0
4 -9 6 -20 3 -25 -7 -26 -19 -2 -32 9 -6 12 -11 6 -11 -7 0 -14 -6 -17 -13 -4
-10 3 -12 25 -9 29 4 30 3 24 -21 -6 -25 -5 -26 21 -17 25 9 26 8 11 -4 -23
-17 -23 -23 3 -36 15 -9 24 -8 37 2 13 9 12 7 -2 -9 -21 -25 -63 -25 -58 0 1
8 -6 18 -17 22 -17 5 -18 10 -11 31 5 13 7 24 4 24 -11 0 -74 -30 -74 -35 0
-3 4 -3 10 0 5 3 18 1 27 -4 16 -9 15 -10 -7 -11 -22 -1 -23 -2 -7 -11 35 -20
15 -25 -42 -10 -33 8 -57 20 -54 25 4 5 -1 7 -10 3 -26 -10 -22 41 5 62 15 12
18 20 10 25 -7 4 -12 2 -12 -4 0 -6 -5 -8 -10 -5 -17 11 0 26 22 19 15 -4 18
-3 13 6 -6 9 -3 9 14 1 13 -7 21 -8 21 -2 0 13 -31 30 -50 28 -16 -2 -20 4
-20 29 0 8 5 12 10 9 6 -4 8 -10 5 -15z m1935 -50 c0 -5 -4 -10 -10 -10 -5 0
-10 -7 -10 -16 0 -10 6 -14 15 -11 8 4 17 2 21 -4 3 -6 33 -8 75 -4 43 3 69 1
69 -5 0 -5 8 -10 18 -10 16 -1 16 -1 0 -14 -10 -7 -15 -16 -11 -19 3 -4 1 -13
-5 -20 -10 -11 -6 -13 18 -12 16 1 27 -2 24 -7 -3 -5 -14 -6 -25 -3 -23 8 -24
3 -3 -37 9 -16 11 -27 6 -24 -6 4 -14 1 -18 -6 -4 -7 -4 -10 1 -6 5 5 15 -2
23 -14 12 -16 12 -23 4 -26 -15 -5 -16 -39 -1 -48 6 -3 16 0 21 7 6 10 7 7 3
-9 -6 -21 -4 -22 22 -17 15 3 23 3 16 -1 -7 -3 -9 -12 -6 -20 6 -16 53 -19 53
-3 0 5 5 7 10 4 6 -4 1 -14 -11 -24 -20 -16 -20 -18 -5 -24 9 -4 14 -3 11 2
-3 5 0 13 6 17 6 3 15 1 19 -5 5 -9 10 -8 19 3 9 11 9 17 -2 27 -19 18 1 38
42 41 17 1 31 8 31 15 0 17 21 17 44 0 20 -14 18 -54 -2 -49 -7 1 -20 -6 -30
-15 -10 -10 -28 -25 -40 -33 -12 -8 -21 -19 -21 -25 5 -40 -2 -61 -21 -61 -21
0 -28 30 -10 41 22 14 8 23 -21 15 -26 -8 -34 -5 -53 15 -16 17 -26 21 -37 14
-20 -13 -29 -11 -29 6 0 8 -5 15 -11 15 -5 0 -9 -10 -7 -22 2 -11 -3 -23 -10
-25 -7 -3 -10 1 -6 10 3 8 -2 17 -10 20 -9 4 -16 17 -16 29 -1 22 -1 22 -15 4
-12 -16 -15 -16 -15 -4 0 8 9 23 20 33 11 10 20 23 20 29 0 6 -6 4 -13 -5 -17
-21 -45 -30 -51 -16 -4 7 -4 -5 -2 -25 5 -40 -8 -52 -19 -18 -8 27 -19 25 -39
-5 -9 -14 -12 -25 -6 -25 5 0 10 -5 10 -11 0 -6 -7 -8 -16 -5 -8 3 -12 2 -9
-3 3 -5 -4 -13 -16 -16 -17 -6 -19 -9 -8 -16 8 -5 22 -6 32 -4 9 3 26 8 37 11
13 3 20 1 20 -8 0 -7 14 -19 30 -27 24 -10 28 -16 20 -27 -7 -7 -9 -22 -5 -33
5 -16 3 -20 -9 -15 -9 4 -16 1 -16 -6 0 -24 63 -1 91 33 16 17 28 27 29 20 0
-6 -5 -15 -11 -19 -8 -4 -7 -10 1 -18 8 -8 14 -7 21 7 12 20 29 14 29 -11 0
-13 -2 -14 -8 -4 -7 9 -13 8 -27 -8 -10 -11 -24 -20 -30 -20 -7 0 -15 -7 -19
-15 -4 -10 1 -15 14 -15 11 0 20 7 20 15 0 9 6 12 18 9 15 -5 15 -4 2 6 -13
10 -13 11 0 7 21 -5 26 -37 6 -37 -9 0 -16 -4 -16 -10 0 -5 5 -10 12 -10 6 0
4 -6 -6 -13 -12 -9 -19 -27 -20 -53 0 -36 -3 -39 -28 -39 -24 0 -27 3 -23 24
2 13 9 29 15 35 17 17 11 22 -25 20 -24 -2 -38 2 -41 11 -5 11 -11 12 -26 4
-15 -8 -19 -8 -14 0 4 6 2 11 -4 11 -6 0 -18 7 -26 15 -11 11 -12 15 -3 15 7
0 9 3 6 6 -4 4 -13 2 -21 -5 -11 -9 -15 -8 -20 4 -5 14 -10 14 -36 -5 -22 -15
-30 -18 -30 -8 0 8 6 20 13 27 10 11 9 13 -4 8 -12 -4 -15 0 -11 18 2 14 15
28 31 34 18 6 20 10 8 10 -10 1 -16 5 -12 10 3 6 14 8 25 6 15 -3 20 2 20 17
0 17 -2 18 -15 8 -13 -11 -14 -10 -9 4 3 9 1 16 -5 16 -7 0 -8 6 -2 18 5 9 14
29 21 44 9 18 18 24 28 20 14 -5 14 -4 3 9 -20 20 -77 23 -85 3 -3 -9 -4 -20
0 -25 9 -15 -18 -10 -38 8 -21 19 -24 34 -5 29 6 -1 9 -1 5 1 -5 3 -8 11 -8
19 0 10 -6 11 -22 5 -25 -9 -48 -4 -48 10 0 5 6 9 13 9 18 1 59 38 53 49 -6 9
-19 6 -79 -15 -10 -4 -16 -13 -13 -20 3 -8 -1 -14 -8 -14 -15 0 -26 21 -26 52
0 17 4 20 30 15 17 -4 30 -5 30 -3 0 3 3 11 6 19 4 11 -1 13 -18 10 -21 -4
-24 -1 -22 29 1 18 5 41 9 51 5 12 3 17 -9 17 -9 0 -13 6 -10 14 3 8 -3 15
-13 18 -22 6 -28 48 -7 48 8 0 14 -5 14 -11 0 -7 10 -9 26 -5 17 5 23 3 19 -4
-10 -16 27 -12 47 7 10 9 18 11 18 5 0 -16 -30 -43 -41 -37 -5 4 -9 1 -9 -5 0
-7 6 -10 14 -7 8 3 31 9 51 13 25 4 35 11 31 20 -6 17 27 36 48 28 9 -3 16 -1
16 5 0 6 5 11 10 11 6 0 10 -4 10 -10z m-1920 -152 c0 -9 4 -8 10 2 7 10 12
12 18 4 7 -11 70 -25 127 -27 27 -2 32 -8 27 -35 -3 -11 -118 -35 -142 -29
-11 3 -23 0 -27 -5 -3 -7 -1 -8 5 -4 7 4 12 2 12 -4 0 -6 5 -8 10 -5 6 3 10 1
10 -6 0 -7 -10 -9 -25 -7 -14 3 -25 1 -25 -4 0 -5 -4 -7 -9 -3 -5 3 -12 1 -16
-5 -14 -23 -26 -7 -23 32 l3 42 45 4 c25 2 48 9 52 15 10 16 1 22 -14 10 -7
-6 -28 -10 -45 -10 -28 0 -33 4 -33 24 0 16 6 23 20 23 11 0 20 -6 20 -12z
m1967 -922 c-1 -6 8 -10 21 -9 20 3 21 0 12 -17 -6 -11 -17 -20 -25 -20 -8 0
-15 -5 -15 -11 0 -5 -5 -7 -12 -3 -6 4 -8 3 -4 -4 3 -6 -6 -20 -20 -31 -15
-12 -24 -24 -21 -27 3 -4 18 3 33 15 l28 22 13 -26 c8 -14 18 -23 23 -20 6 4
10 2 10 -4 0 -5 3 -18 7 -28 6 -16 5 -16 -10 -5 -9 8 -21 11 -27 7 -14 -9 -13
-35 2 -35 8 0 9 -3 2 -10 -5 -5 -19 -7 -31 -4 -20 6 -21 8 -7 21 8 9 12 18 9
21 -3 4 -10 0 -14 -7 -5 -8 -14 -10 -21 -6 -8 5 -11 4 -7 -1 3 -5 -3 -10 -14
-10 -24 0 -24 4 2 27 11 10 27 15 34 13 13 -5 28 10 31 34 1 6 -2 12 -7 12 -5
0 -9 -4 -9 -10 0 -17 -61 -42 -88 -35 -14 3 -28 2 -31 -4 -4 -6 -17 -12 -30
-14 -13 -2 -29 -11 -35 -19 -6 -9 -23 -14 -39 -12 -15 1 -27 -2 -27 -7 0 -16
-28 -40 -34 -30 -3 4 3 16 14 26 11 10 17 21 15 26 -3 4 0 11 6 15 6 3 15 1
19 -6 9 -15 30 -5 30 15 0 7 -8 16 -17 19 -15 6 -14 9 7 20 14 7 29 9 34 5 5
-5 16 -3 24 4 13 10 14 8 8 -13 -6 -19 -5 -21 3 -10 6 8 11 22 11 31 0 9 7 16
15 16 8 0 15 -4 15 -9 0 -15 27 -8 44 11 12 13 15 27 10 45 -4 16 -2 26 5 26
6 0 11 6 11 13 0 6 11 13 25 13 13 1 23 -3 22 -10z"/>
<path d="M4875 4159 c-108 -21 -175 -34 -242 -49 -72 -16 -125 -28 -188 -40
-33 -7 -114 -25 -180 -40 -66 -15 -156 -36 -200 -46 -44 -9 -89 -22 -100 -28
-11 -6 -31 -12 -45 -12 -22 -2 -121 -26 -215 -54 -16 -4 -57 -15 -90 -24 -128
-34 -405 -128 -405 -138 0 -5 -10 -6 -21 -3 -16 5 -19 4 -14 -5 5 -8 4 -11 -2
-7 -17 10 -83 -15 -83 -32 0 -13 -2 -13 -9 -2 -5 7 -14 10 -20 7 -6 -4 -9 -11
-6 -16 3 -5 -3 -14 -14 -20 -13 -7 -22 -7 -26 0 -3 5 2 10 11 10 10 0 15 2 12
5 -5 5 -127 -31 -136 -40 -2 -2 16 -1 40 2 24 3 45 10 46 14 2 5 8 9 13 9 6 0
7 -4 4 -10 -3 -5 1 -11 9 -11 9 -1 22 -2 29 -3 6 -1 15 3 20 9 4 6 10 5 16 -4
11 -17 40 -10 126 26 88 37 90 38 210 81 103 38 413 137 570 183 39 11 79 24
90 29 17 7 16 9 -10 10 -26 0 -27 2 -12 11 10 6 31 7 48 4 31 -7 124 11 269
52 125 35 144 39 275 63 66 12 145 28 175 35 30 7 83 18 117 25 35 7 60 17 57
21 -3 5 -8 9 -12 8 -4 -1 -52 -10 -107 -20z"/>
<path d="M1762 3083 c-6 -3 -9 -10 -6 -15 4 -7 2 -8 -4 -4 -6 4 -45 -14 -86
-39 -41 -25 -79 -45 -85 -45 -6 0 -11 -4 -11 -10 0 -5 -7 -10 -15 -10 -7 0
-19 -8 -24 -17 -6 -10 -11 -15 -11 -10 0 11 -80 -44 -80 -55 0 -5 -4 -7 -9 -3
-5 3 -30 -8 -54 -25 -25 -16 -49 -30 -55 -30 -6 0 -12 -3 -14 -7 -4 -10 -85
-73 -93 -73 -9 0 -233 -147 -267 -175 -15 -13 -24 -26 -20 -30 4 -4 2 -5 -5
-3 -12 3 -81 -43 -207 -137 -29 -22 -64 -47 -76 -55 -13 -8 -35 -24 -49 -36
-14 -11 -48 -38 -76 -58 -27 -21 -66 -52 -85 -70 -19 -17 -87 -70 -150 -118
-63 -48 -124 -95 -135 -105 -11 -10 -36 -30 -55 -45 -89 -68 -90 -70 -90 -142
0 -37 4 -66 10 -66 6 0 10 8 11 18 0 11 2 12 6 4 3 -7 -1 -19 -7 -27 -9 -11
-10 -15 -1 -15 7 0 9 -5 6 -10 -4 -6 -10 -8 -14 -5 -5 2 -9 -25 -10 -62 l-1
-66 24 26 c14 15 34 27 45 27 14 0 18 5 14 20 -4 13 1 22 13 27 11 4 27 17 36
29 10 12 29 24 42 28 17 4 23 11 19 24 -3 12 4 23 21 32 14 7 26 17 26 22 0 4
6 8 13 8 8 0 20 11 27 25 7 14 17 25 21 25 5 0 6 7 2 16 -5 15 -7 15 -15 0
-12 -21 -28 -21 -28 1 0 13 -4 11 -20 -7 -13 -15 -17 -26 -10 -30 6 -4 2 -14
-11 -26 -13 -10 -19 -13 -15 -7 5 9 0 12 -18 11 -13 -1 -22 -6 -20 -10 3 -5
10 -6 15 -3 16 10 10 -12 -8 -26 -12 -10 -17 -11 -20 -2 -3 8 -11 5 -24 -8
-11 -11 -18 -23 -15 -27 2 -4 -9 -7 -25 -7 -17 0 -34 7 -39 14 -10 17 -2 43
11 35 5 -3 9 4 9 15 0 12 6 21 13 21 7 0 18 9 25 21 7 12 16 19 19 16 3 -3 18
9 34 27 22 26 35 32 54 28 15 -2 25 0 25 7 0 6 -6 11 -12 12 -7 0 11 8 40 18
29 9 50 20 46 24 -11 10 4 9 27 -3 25 -14 24 -24 -5 -39 -21 -12 -31 -42 -13
-41 4 0 12 0 17 0 6 0 10 8 10 18 0 22 31 50 49 44 9 -3 11 0 7 7 -4 7 -15 10
-24 7 -19 -6 -59 20 -49 31 7 6 30 10 70 12 12 1 17 9 17 27 0 24 3 26 33 20
28 -5 30 -4 15 8 -16 11 -16 15 -3 32 9 10 14 15 13 9 -4 -16 14 -13 45 6 17
10 24 19 18 23 -6 4 -11 2 -11 -3 0 -6 -9 -11 -20 -11 -25 0 -27 20 -2 21 9 0
12 3 5 5 -21 9 -3 35 19 28 15 -4 18 -3 13 7 -6 9 -3 11 8 6 12 -4 17 -1 17
11 0 23 55 76 69 68 5 -4 15 2 20 13 6 10 23 22 38 26 15 3 22 9 17 13 -10 7
18 42 34 42 28 2 51 15 55 31 3 11 9 19 14 18 24 -4 43 3 43 16 0 16 12 23 47
30 10 2 19 4 21 4 1 1 -2 10 -8 21 -10 18 -7 21 19 26 16 4 38 17 47 29 16 21
19 22 29 8 8 -10 19 -13 33 -9 26 9 29 36 5 36 -10 1 -3 7 16 15 22 10 31 20
27 30 -6 17 33 48 55 43 8 -2 13 3 11 11 -2 11 0 12 11 2 12 -9 16 -7 20 9 3
13 17 22 36 26 24 5 30 11 26 24 -4 13 9 23 65 45 49 20 69 33 68 44 -2 12 6
16 31 16 19 0 36 5 38 12 3 7 -3 9 -16 6 -30 -8 -26 3 7 19 15 8 37 21 50 29
17 11 26 11 41 2 15 -10 22 -9 31 2 8 10 32 15 71 15 38 0 63 5 73 15 8 8 20
15 26 15 6 0 10 6 7 13 -5 15 -104 12 -123 -4 -8 -7 -14 -7 -18 0 -4 6 13 20
36 32 24 12 47 28 51 35 4 8 14 14 22 14 20 0 67 46 63 63 -1 8 -9 12 -16 10z"/>
<path d="M280 1593 c-11 -15 -18 -34 -15 -42 3 -11 0 -9 -10 3 -15 19 -15 19
-15 -2 0 -12 -5 -22 -12 -22 -6 0 -26 -16 -44 -36 -21 -23 -38 -33 -46 -28 -7
4 -10 4 -6 -1 13 -14 -11 -33 -33 -28 -12 4 -25 0 -30 -8 -13 -20 -11 -37 2
-19 9 12 10 12 5 -3 -3 -10 -6 -21 -6 -23 0 -2 -7 -4 -15 -4 -8 0 -12 -6 -9
-14 3 -9 -3 -17 -15 -21 -26 -8 -33 -35 -29 -106 l3 -54 30 34 c24 28 26 32 8
23 -31 -17 -35 -15 -16 7 9 11 23 17 32 14 9 -2 5 3 -9 11 -20 12 -21 15 -7
16 11 0 17 6 15 18 -2 12 3 16 18 15 14 -2 25 6 32 21 6 13 27 32 48 43 35 18
66 54 80 95 3 9 13 19 21 22 8 3 11 11 7 17 -4 7 -3 9 4 5 13 -8 62 54 62 77
0 26 -26 20 -50 -10z"/>
<path d="M1813 1091 c-17 -16 -34 -38 -37 -49 -4 -11 -18 -23 -31 -26 -28 -7
-33 -21 -10 -30 19 -7 19 -30 0 -46 -14 -11 -14 -15 2 -32 16 -18 16 -18 0
-12 -23 8 -22 -8 1 -23 15 -9 26 -8 50 4 26 13 32 21 32 48 0 18 7 68 15 111
8 43 13 79 11 81 -1 2 -17 -10 -33 -26z"/>
</g>
</svg>
