<?xml version="1.0" standalone="no"?>
<!DOCTYPE svg PUBLIC "-//W3C//DTD SVG 20010904//EN"
 "http://www.w3.org/TR/2001/REC-SVG-20010904/DTD/svg10.dtd">
<svg version="1.0" xmlns="http://www.w3.org/2000/svg"
 width="603.000000pt" height="434.000000pt" viewBox="0 0 603.000000 434.000000"
 preserveAspectRatio="xMidYMid meet">
<metadata>
Created by potrace 1.15, written by Peter Selinger 2001-2017
</metadata>
<g transform="translate(0.000000,434.000000) scale(0.100000,-0.100000)"
fill="#000000" stroke="none">
<path d="M3640 4009 c-11 -8 -12 -12 -2 -16 14 -5 16 -177 5 -525 -5 -179 -9
-218 -21 -223 -8 -3 -17 -3 -19 -1 -7 7 -4 746 2 757 4 5 -2 9 -12 9 -17 0
-18 -19 -18 -338 l0 -337 -23 -3 c-12 -2 -20 -8 -17 -13 4 -5 1 -9 -6 -9 -7 0
-9 -3 -5 -7 4 -4 15 -8 24 -8 13 0 17 -9 18 -35 0 -19 3 -42 7 -50 5 -12 4
-55 -2 -92 -1 -4 -10 -6 -22 -5 -14 1 -26 13 -36 38 -11 29 -19 36 -34 32 -10
-3 -19 -12 -19 -20 0 -8 -5 -11 -10 -8 -6 4 -8 10 -5 15 3 5 1 11 -5 15 -5 3
-11 1 -11 -4 -3 -26 -4 -30 -10 -35 -3 -4 -4 26 -2 65 3 74 -3 101 -18 78 -7
-11 -9 -10 -9 4 0 9 -4 17 -10 17 -6 0 -10 -30 -9 -72 1 -68 2 -70 10 -34 14
58 19 56 12 -6 -5 -52 -4 -54 23 -68 l29 -14 -25 -4 c-17 -3 -31 3 -45 20 -16
18 -29 23 -53 21 -30 -4 -32 -2 -32 26 0 17 -4 31 -10 31 -5 0 -10 6 -10 14 0
22 31 28 57 10 31 -19 35 -16 27 24 -8 37 -32 42 -54 12 -8 -11 -20 -20 -28
-20 -10 0 -10 4 2 16 22 21 20 24 -10 24 -23 0 -25 -3 -19 -22 9 -32 9 -39 1
-71 -5 -20 -3 -27 8 -27 19 0 29 -30 15 -46 -6 -8 -30 -14 -54 -14 -36 0 -44
-4 -48 -22 -6 -22 -22 -18 -22 5 0 7 -8 13 -17 15 -11 2 -18 -3 -18 -11 0 -17
-58 -29 -80 -16 -13 7 -12 8 3 9 9 0 17 5 17 10 0 6 -21 10 -47 9 -41 0 -45
-2 -24 -10 47 -19 4 -25 -124 -17 -156 9 -154 9 -207 7 -24 0 -132 0 -241 1
-177 2 -199 1 -217 -15 -16 -15 -18 -21 -8 -34 10 -13 10 -14 -2 -3 -8 6 -27
12 -43 12 -36 0 -67 16 -67 35 0 9 -10 15 -25 15 -18 0 -23 4 -19 15 7 17 -22
20 -46 5 -12 -8 -11 -10 8 -10 31 0 27 -27 -5 -33 -34 -6 -55 9 -51 37 3 19
-2 20 -99 20 -112 0 -112 0 -113 61 0 72 13 181 24 188 6 5 3 6 -9 2 -11 -4
-69 -9 -129 -12 -98 -5 -109 -4 -103 11 9 22 -10 20 -41 -4 -20 -16 -27 -18
-35 -8 -6 9 -7 8 -4 -4 3 -9 -3 -28 -14 -42 -11 -14 -16 -26 -10 -26 6 0 12 6
12 13 1 6 4 -1 8 -18 11 -46 -14 -65 -91 -67 -35 0 -73 2 -85 6 -28 9 -66 -2
-57 -16 4 -6 3 -9 -2 -5 -5 3 -63 8 -129 11 -250 12 -310 18 -338 35 -18 10
-30 12 -35 6 -9 -13 -219 -13 -246 -1 -11 6 -30 5 -45 -1 -18 -6 -32 -6 -43 1
-11 7 -28 6 -55 -3 -25 -8 -82 -11 -166 -9 l-127 3 0 -126 0 -126 25 5 c14 2
25 8 25 12 0 5 8 6 19 3 10 -2 25 3 34 11 16 17 82 23 73 7 -4 -5 10 -4 29 2
19 6 35 14 35 18 0 5 7 6 15 3 8 -4 12 -10 9 -15 -3 -5 2 -9 11 -9 10 0 15 7
13 18 -2 11 4 18 20 20 12 2 22 11 23 20 0 11 3 12 6 5 2 -7 11 -13 18 -13 8
0 11 -7 8 -20 -3 -11 -10 -20 -15 -20 -5 0 -6 -4 -3 -10 3 -5 15 -10 27 -10
15 0 18 3 10 13 -7 8 -6 16 3 24 8 7 16 9 20 4 3 -5 -1 -12 -7 -15 -7 -3 -4
-5 7 -3 11 1 25 -2 31 -6 6 -3 45 -9 85 -12 70 -5 72 -4 44 9 -16 9 -25 16
-20 16 6 1 1 5 -10 10 -16 7 -11 9 20 9 31 0 36 -2 20 -9 -19 -8 -19 -9 2 -9
12 -1 24 5 26 12 4 10 6 10 6 0 1 -7 9 -13 19 -13 13 -1 11 -4 -8 -15 -26 -14
-27 -13 25 -30 8 -2 15 0 15 6 0 5 11 7 24 3 17 -4 27 0 35 13 6 10 11 13 11
7 0 -6 11 -10 25 -9 14 2 25 0 25 -3 0 -10 183 -2 193 7 10 10 57 2 57 -9 0
-4 -6 -8 -13 -7 -6 0 -23 -1 -36 -1 -24 -2 -24 -3 -6 -19 19 -18 65 -25 62 -9
-1 5 4 11 11 13 6 3 12 -2 12 -11 0 -9 4 -16 10 -16 5 0 7 8 4 18 -5 16 -5 16
6 0 9 -16 28 -18 135 -18 107 0 126 2 135 18 11 16 11 16 6 0 -4 -14 0 -18 19
-18 14 0 25 -5 25 -11 0 -7 -73 -9 -227 -6 -126 1 -266 1 -313 -3 l-85 -5 65
-9 c99 -14 94 -14 423 -16 263 -1 310 1 320 13 15 19 279 25 627 14 255 -8
312 -9 350 -7 l25 2 -25 7 c-14 4 -24 13 -23 19 2 7 -9 12 -25 12 -21 0 -24 2
-12 10 19 12 193 13 186 1 -3 -4 29 -11 72 -15 76 -7 132 -23 132 -39 0 -4 15
-5 33 -2 18 4 160 7 315 9 155 1 284 5 288 9 4 3 15 2 25 -4 21 -11 26 -55 7
-62 -10 -4 -10 -6 0 -6 6 -1 12 -8 12 -16 0 -8 7 -15 15 -15 14 0 16 25 15
181 -1 99 1 183 4 186 3 3 12 0 21 -7 12 -10 15 -43 15 -185 0 -157 2 -174 18
-178 9 -3 -49 -5 -130 -6 l-148 -1 2 -47 1 -48 4 43 c3 26 9 42 17 42 9 0 12
-9 8 -25 -2 -15 0 -25 7 -25 6 0 11 11 11 25 0 18 5 25 20 25 18 0 20 -7 20
-66 0 -62 -1 -65 -22 -62 -13 2 -22 9 -21 16 2 6 -2 12 -8 12 -6 0 -9 -6 -6
-14 8 -20 0 -24 -35 -17 -23 5 -34 14 -39 31 -6 21 -7 19 -8 -12 -1 -31 -5
-38 -22 -38 -11 0 -17 -4 -14 -10 4 -6 -16 -10 -54 -10 -34 0 -63 5 -67 12 -5
8 5 9 34 5 32 -4 42 -2 42 9 0 15 -9 17 -52 14 -20 -1 -28 3 -28 14 0 20 -36
21 -44 1 -7 -19 -108 -22 -105 -2 1 6 1 19 0 27 -1 13 -2 13 -11 0 -8 -12 -11
-13 -19 -1 -6 9 -11 10 -15 2 -9 -15 -106 -15 -106 0 0 8 -4 8 -14 0 -11 -9
-15 -9 -18 0 -3 8 -9 9 -17 5 -7 -5 -35 -9 -62 -10 l-49 -1 -9 40 -9 40 -3
-45 -2 -45 -7 50 c-7 50 -7 50 -8 10 -2 -50 -17 -68 -44 -54 -10 5 -16 14 -13
20 4 5 -1 9 -9 9 -9 0 -16 -7 -16 -15 0 -9 -9 -15 -22 -14 -13 0 -17 3 -10 6
21 8 13 23 -14 23 -17 0 -23 4 -18 12 4 7 7 27 6 45 -3 37 -24 33 178 35 l95
1 -95 6 c-52 3 -118 4 -146 3 -48 -3 -51 -5 -46 -28 3 -19 1 -23 -12 -18 -9 3
-16 17 -16 31 0 25 -1 26 -52 19 -29 -3 -64 -6 -78 -6 -24 0 -25 -2 -23 -64
l2 -64 -37 -5 c-20 -2 -59 -5 -87 -6 -58 -2 -62 -5 -43 -24 11 -11 25 -13 57
-7 32 6 44 4 48 -6 3 -8 13 -14 22 -14 19 0 26 -36 8 -47 -6 -4 -63 -8 -126
-9 -87 -1 -118 1 -129 12 -7 8 -19 11 -25 7 -17 -11 -37 -12 -37 -3 0 4 -17 8
-37 8 -21 0 -46 3 -57 7 -10 4 -21 4 -25 -1 -9 -13 -63 -11 -68 2 -4 12 49 27
57 16 3 -4 25 -8 48 -8 38 -2 43 1 39 17 -4 17 1 19 39 19 26 0 44 -5 44 -11
0 -6 -9 -9 -20 -6 -10 3 -27 -1 -36 -8 -15 -10 -11 -12 27 -11 24 1 44 6 44
11 0 19 17 36 32 33 9 -2 18 2 20 8 2 7 -24 11 -77 12 -45 1 -85 4 -91 7 -5 4
-9 2 -9 -3 0 -5 -12 -9 -27 -9 -100 -1 -106 -2 -100 -22 4 -17 2 -18 -14 -8
-16 10 -22 9 -30 -3 -9 -12 -10 -12 -5 4 5 13 2 17 -9 13 -8 -4 -17 -2 -20 3
-4 7 -13 6 -25 0 -28 -15 -120 -13 -120 3 0 8 -3 8 -8 2 -10 -15 -69 -18 -77
-5 -5 8 -11 7 -22 -1 -12 -10 -16 -10 -23 1 -6 10 -12 11 -22 3 -8 -7 -99 -11
-246 -12 -129 0 -237 -3 -240 -5 -4 -2 -90 -7 -192 -10 -151 -5 -307 -14 -365
-21 -5 0 -9 -5 -8 -10 1 -6 -51 -11 -120 -13 -67 -2 -138 -5 -157 -7 -19 -1
-47 -3 -62 -4 l-28 -1 0 -106 0 -105 160 4 c88 2 162 1 166 -2 9 -10 31 -10
594 -15 825 -6 1041 -7 1225 -2 94 2 150 1 125 -3 l-45 -7 45 -5 45 -4 2 -85
c1 -54 -2 -87 -10 -92 -6 -3 -43 -4 -81 -1 -52 3 -67 2 -56 -6 8 -6 11 -11 6
-11 -6 0 -1 -7 10 -16 18 -15 18 -15 0 -6 -13 7 -30 5 -54 -5 -18 -8 -39 -12
-45 -9 -7 2 -4 5 6 5 9 1 17 6 17 12 0 7 -7 8 -17 4 -10 -4 -27 -9 -38 -12
-17 -4 -18 -3 -5 7 12 9 10 11 -12 6 -29 -7 -49 10 -21 17 14 4 13 5 -4 6 -34
2 -28 17 10 26 26 7 14 10 -67 18 -58 6 -106 6 -115 1 -9 -5 -49 -8 -89 -6
-67 3 -73 4 -67 22 5 15 2 20 -12 20 -14 0 -15 -2 -4 -9 17 -11 -2 -23 -24
-15 -12 5 -13 9 -5 14 18 11 -76 15 -306 11 -152 -2 -214 0 -219 8 -7 12 -28
12 -595 -4 -243 -6 -475 -16 -497 -21 -23 -4 -23 -7 -23 -145 0 -109 3 -139
13 -133 9 6 9 4 -1 -7 -14 -16 -16 -33 -2 -24 6 3 10 2 10 -4 0 -5 16 -7 38
-5 20 3 45 6 54 7 9 1 15 3 13 6 -3 2 5 11 16 19 18 12 23 13 30 1 5 -8 9 -9
9 -4 0 6 6 3 13 -5 7 -8 30 -16 52 -17 71 -4 219 -24 262 -35 24 -6 57 -8 73
-4 19 3 40 0 53 -8 12 -7 39 -16 61 -19 34 -5 38 -4 33 12 -6 24 38 47 58 31
9 -7 20 -8 32 -2 24 11 79 -1 75 -17 -2 -9 8 -12 32 -10 19 2 38 0 42 -4 4 -4
12 -3 18 2 24 19 88 19 123 0 41 -23 38 -23 59 -1 16 15 17 16 11 0 -5 -14 -1
-16 23 -13 17 2 32 -1 35 -6 10 -15 22 -10 30 14 6 19 8 20 12 4 4 -17 51 -43
60 -33 3 2 0 13 -6 24 -18 34 -13 44 14 26 19 -13 23 -20 14 -30 -25 -30 21
-46 57 -19 10 8 27 15 37 15 10 0 17 8 17 20 0 28 12 25 31 -8 15 -27 15 -27
112 -24 57 2 95 7 92 13 -4 5 1 12 10 15 9 4 14 13 11 20 -8 22 10 16 35 -11
13 -13 39 -27 56 -31 38 -7 34 -25 -5 -24 -15 1 -40 -1 -57 -5 -16 -3 -24 -2
-17 1 6 3 12 13 11 22 0 11 -2 12 -6 5 -2 -7 -20 -13 -39 -13 -21 0 -34 -5
-34 -13 0 -16 -119 -19 -139 -3 -11 8 -13 8 -8 -1 14 -23 -11 -22 -33 2 -30
32 -42 32 -34 1 5 -21 2 -25 -15 -23 -13 1 -20 6 -17 14 3 7 1 13 -4 13 -6 0
-10 -7 -10 -15 0 -10 -10 -15 -33 -15 -25 0 -33 -4 -34 -20 -1 -11 2 -22 8
-25 5 -4 9 1 9 9 0 19 50 22 83 5 11 -7 58 -12 104 -11 73 0 83 -2 83 -17 0
-14 -16 -22 -68 -35 -62 -15 -124 -15 -222 -1 -14 2 -31 4 -38 4 -26 2 -24 32
4 56 16 14 24 25 18 25 -6 0 -17 -7 -24 -15 -7 -9 -19 -14 -26 -11 -7 3 -26
-1 -41 -9 -14 -8 -51 -17 -80 -21 -47 -6 -57 -4 -77 15 -12 12 -26 18 -29 14
-12 -11 -8 -23 8 -23 8 0 15 -3 15 -8 0 -10 -133 -15 -171 -7 -24 6 -29 12
-29 37 0 28 -2 30 -27 23 -99 -28 -138 -32 -171 -19 -32 13 -62 10 -62 -7 0
-5 -57 -9 -126 -9 -123 0 -160 12 -68 23 25 2 51 10 57 17 10 10 -1 11 -53 4
-36 -4 -84 -8 -107 -8 -23 0 -39 -5 -36 -10 4 -5 0 -6 -8 -1 -19 12 -49 14
-49 3 0 -5 -28 -8 -62 -6 -53 3 -61 6 -64 24 -3 19 2 22 54 26 31 3 67 2 80
-3 12 -5 22 -6 22 -4 0 10 -55 27 -103 32 -27 3 -47 1 -47 -4 0 -6 -12 -8 -26
-5 -19 3 -25 1 -20 -7 5 -7 -3 -11 -23 -11 -29 0 -31 -2 -31 -39 0 -36 3 -40
28 -44 l27 -4 -27 -2 -28 -1 0 -83 0 -83 50 -44 c28 -24 50 -47 50 -51 0 -4
-22 -12 -50 -19 -52 -13 -61 -27 -34 -54 16 -16 10 -41 -7 -31 -5 4 -9 -3 -9
-15 0 -14 4 -19 13 -14 9 6 9 4 -1 -7 -7 -7 -12 -38 -12 -71 l0 -58 63 0 c35
0 67 -3 71 -8 8 -8 62 -13 116 -12 62 2 160 -11 155 -21 -4 -5 -1 -9 4 -9 6 0
11 4 11 9 0 6 9 9 20 8 11 -1 20 -8 20 -17 0 -11 2 -12 9 -2 4 8 23 12 45 10
28 -2 35 -6 31 -18 -5 -12 -4 -13 6 -2 15 14 49 16 49 3 0 -5 -9 -7 -20 -4
-13 4 -20 0 -20 -10 0 -10 9 -14 25 -13 18 1 25 7 25 21 0 17 2 18 11 5 8 -11
12 -12 16 -2 8 19 47 14 73 -10 19 -18 22 -19 17 -5 -6 16 -3 17 26 12 17 -4
40 -7 50 -8 9 -1 17 -5 17 -9 0 -4 11 -3 24 2 53 20 161 -6 149 -37 -4 -10 8
-13 48 -14 100 -1 95 -12 -19 -47 -177 -55 -450 -142 -557 -177 -104 -35 -385
-124 -407 -130 -7 -2 -23 -6 -35 -10 l-23 -7 0 -359 0 -359 1076 0 c805 0
1073 3 1068 12 -4 7 -3 8 5 4 6 -4 15 2 21 16 10 22 10 21 5 -4 l-5 -27 102 0
c68 0 105 4 110 12 6 9 8 9 8 0 0 -10 51 -13 215 -13 137 1 214 4 210 10 -3 6
-1 10 4 10 6 0 11 -4 11 -10 0 -6 578 -9 1600 -10 l1600 0 0 325 0 325 -27 1
c-18 1 -21 3 -10 6 9 2 15 8 12 13 -3 4 2 13 10 20 13 11 15 62 15 341 0 307
-1 329 -17 329 -17 1 -17 1 0 11 12 7 17 23 17 53 0 44 0 44 -42 50 -46 7 -65
8 -143 7 -83 -1 -95 1 -95 10 0 8 -76 26 -92 21 -5 -1 -8 2 -8 8 0 5 15 10 33
11 17 0 61 2 96 4 40 2 59 0 50 -6 -9 -5 -1 -6 21 -3 45 7 156 -19 152 -36 -1
-6 3 -10 10 -8 8 3 14 27 16 67 2 51 0 66 -15 76 -15 12 -21 11 -39 -6 -22
-21 -39 -13 -29 13 7 17 -49 42 -73 33 -9 -3 -53 -8 -96 -11 -44 -2 -85 -9
-92 -15 -9 -7 -19 -7 -33 1 -21 11 -43 3 -81 -27 -9 -7 -34 -11 -55 -9 l-40 4
-3 53 c-2 42 0 51 9 42 8 -8 19 -9 36 -2 14 5 29 7 34 3 5 -3 9 -1 9 5 0 15
39 25 94 23 27 0 57 4 65 9 14 9 14 10 -2 5 -18 -6 -57 25 -57 44 0 6 -5 10
-11 10 -5 0 -8 -4 -5 -9 3 -5 -14 -14 -39 -20 -54 -13 -55 -13 -55 -1 0 6 16
10 35 10 19 0 35 4 35 9 0 11 18 18 88 37 62 16 96 18 87 4 -3 -5 -20 -10 -36
-10 -41 0 -77 -19 -58 -31 8 -5 24 -9 37 -9 12 0 22 -5 22 -11 0 -5 -4 -7 -10
-4 -5 3 -10 1 -10 -4 0 -16 28 -13 60 5 18 11 34 14 46 9 38 -17 62 -14 68 7
7 30 0 38 -35 38 -34 0 -37 10 -10 34 14 12 29 16 48 12 15 -3 45 -7 65 -8 20
-1 34 -6 32 -10 -3 -4 0 -8 5 -8 7 0 11 49 11 144 l0 144 -22 -5 c-13 -3 -28
-9 -33 -14 -6 -4 -17 -4 -25 1 -23 14 -28 12 -32 -12 -2 -19 -10 -24 -45 -26
-23 -2 -51 1 -61 7 -14 7 -22 5 -34 -9 -9 -10 -13 -22 -10 -26 4 -3 -3 -1 -16
5 -12 7 -20 16 -17 22 4 5 -13 9 -39 9 -25 0 -48 -5 -52 -11 -4 -8 0 -9 15 -4
24 7 30 -12 6 -21 -23 -9 -42 12 -43 47 0 23 3 29 14 25 8 -3 14 -1 14 4 0 6
-17 10 -37 9 -31 0 -34 -2 -18 -9 11 -5 14 -9 8 -9 -7 -1 -13 -6 -13 -12 0 -5
5 -7 11 -4 6 4 5 -2 -2 -14 -13 -20 -14 -20 -34 -1 -12 11 -32 21 -46 21 -18
1 -16 3 11 9 31 7 32 7 8 9 -16 0 -28 6 -28 12 0 6 -6 9 -14 6 -12 -5 -14 17
-12 131 2 132 8 168 26 157 4 -3 11 2 14 11 3 8 10 12 16 9 5 -3 10 2 10 12 0
11 7 28 15 39 14 19 14 19 16 -1 1 -11 1 -23 0 -27 -3 -19 28 7 33 28 8 29 22
31 31 4 7 -21 30 -26 55 -10 9 6 17 5 22 -3 6 -9 10 -8 18 3 6 10 10 11 10 3
0 -7 8 -13 18 -14 14 0 14 -2 -3 -9 -17 -7 -17 -9 -2 -9 9 -1 17 -7 17 -13 0
-10 3 -9 9 1 10 15 3 53 -8 46 -4 -2 -8 2 -8 9 0 8 6 12 14 9 7 -3 13 -9 13
-13 0 -4 16 -11 35 -14 20 -4 33 -11 30 -17 -8 -12 11 -12 36 1 15 8 19 7 19
-4 0 -17 45 -33 78 -28 30 5 37 24 23 62 -6 18 -6 28 -1 25 6 -4 10 20 10 59
0 38 -4 66 -10 66 -6 0 -6 7 1 19 25 38 6 49 -78 47 -43 -1 -84 -6 -91 -10 -7
-4 -12 -2 -12 5 0 8 -4 8 -12 2 -17 -13 -69 -23 -62 -12 5 9 -8 13 -38 10 -12
-2 -16 3 -12 13 4 11 11 13 30 6 18 -7 26 -6 30 4 6 14 56 30 87 27 9 -1 20 5
23 13 3 9 10 16 16 16 5 0 7 -4 4 -9 -3 -5 1 -12 10 -15 8 -3 12 -2 9 3 -3 5
-1 12 5 16 5 3 10 1 10 -6 0 -7 8 -9 21 -6 12 3 32 2 45 -3 23 -9 24 -8 24 30
0 35 -3 40 -22 41 -22 0 -22 1 -3 8 22 9 -60 21 -176 26 -37 2 -77 6 -89 10
-15 5 -20 4 -16 -4 8 -12 -6 -15 -18 -4 -4 4 -26 8 -49 9 -23 1 -46 3 -52 4
-14 5 -69 -19 -62 -27 4 -3 31 -6 62 -7 30 0 54 -5 52 -10 -4 -12 -47 -19 -47
-8 0 5 -7 9 -15 9 -8 0 -15 -3 -15 -6 0 -4 -20 -8 -45 -9 -39 -1 -45 1 -45 19
0 11 7 22 15 25 8 4 15 11 15 17 0 8 -3 8 -11 0 -6 -6 -18 -9 -26 -6 -12 5
-12 7 -2 14 7 4 13 27 14 51 l0 43 150 1 c83 1 137 -1 122 -3 -16 -3 -26 -10
-24 -16 2 -8 48 -13 145 -15 l142 -3 0 45 c0 35 -4 46 -19 51 -12 3 -21 17
-24 33 l-3 27 -11 -25 c-8 -18 -7 -27 1 -32 7 -5 5 -8 -6 -8 -10 0 -18 7 -18
15 0 11 -12 15 -47 15 -43 0 -45 1 -28 14 11 8 24 12 29 9 5 -4 6 -1 2 5 -4 7
-15 12 -25 12 -14 0 -16 7 -13 35 2 19 0 35 -6 35 -5 0 -13 -16 -16 -35 -4
-19 -10 -35 -14 -35 -12 0 -1 80 12 81 6 0 50 0 99 -1 l87 -1 0 75 0 76 -57 1
c-32 0 -86 2 -120 3 l-63 3 -6 -33 c-6 -31 -27 -50 -44 -39 -14 9 1 44 16 38
10 -4 14 3 14 22 0 21 -4 26 -16 21 -11 -4 -18 1 -21 14 -8 29 -17 25 -32 -16
-11 -30 -11 -38 0 -45 7 -4 17 -5 23 -2 5 4 7 -1 3 -11 -4 -10 -7 -20 -7 -22
0 -2 -9 -4 -20 -4 -16 0 -20 7 -20 36 0 33 -2 36 -23 31 -12 -4 -29 -2 -37 3
-17 11 -43 -7 -33 -24 3 -6 -2 -4 -13 5 -16 13 -52 17 -91 10 -5 0 5 -12 21
-26 20 -17 41 -25 67 -25 21 0 41 -4 44 -10 3 -5 26 -10 50 -10 24 0 47 -5 50
-11 4 -6 13 -8 20 -5 14 5 29 -20 21 -33 -8 -13 -10 -85 -2 -108 8 -25 17 -23
-126 -22 -63 0 -98 -3 -98 -10 0 -6 -9 -11 -20 -11 -13 0 -18 5 -15 15 3 8 7
22 10 30 4 13 9 14 25 5 15 -8 25 -7 44 5 21 14 26 14 38 1 16 -16 29 -19 71
-17 25 1 27 4 27 46 l0 45 -49 0 c-29 0 -51 -5 -53 -12 -3 -7 -31 -13 -69 -15
-84 -4 -92 -8 -83 -35 6 -20 5 -21 -9 -10 -10 9 -17 10 -22 2 -3 -5 -16 -10
-28 -10 -16 0 -18 -3 -9 -9 23 -14 10 -46 -18 -46 -15 0 -24 5 -22 13 3 16
-13 15 -28 -2 -9 -12 -18 -13 -38 -5 -18 7 -28 7 -30 0 -2 -6 -12 -11 -23 -11
-22 0 -28 45 -6 53 6 3 3 6 -8 6 -12 1 -26 6 -32 12 -7 7 -12 6 -16 -5 -4 -10
-1 -16 9 -16 10 0 14 -8 11 -27 -3 -21 -9 -27 -28 -27 -16 0 -25 6 -27 19 -7
51 -13 65 -27 65 -12 0 -14 -8 -9 -40 l7 -40 -36 0 c-20 0 -38 -4 -41 -9 -6
-8 -85 -3 -96 6 -2 2 2 8 10 13 10 7 11 10 3 10 -22 0 -14 28 10 33 l22 4 -22
8 c-12 4 -25 16 -28 26 -4 10 -15 19 -25 19 -10 0 -21 7 -24 16 -10 26 -7 29
9 8 14 -17 14 -16 0 13 -19 40 -19 40 3 45 10 3 19 13 19 22 0 18 -22 22 -32
6 -10 -16 -45 8 -58 38 -19 43 -68 114 -74 108 -3 -3 2 -18 11 -33 l17 -28
-24 28 c-22 26 -25 27 -40 13 -20 -20 -30 -5 -20 31 4 15 6 37 5 48 -2 16 -1
17 7 6 7 -11 10 -9 13 10 3 13 5 4 5 -20 0 -28 -2 -39 -8 -30 -7 11 -9 10 -9
-4 0 -40 25 -8 28 35 3 44 2 46 -28 50 -17 3 -30 0 -31 -6 -4 -52 5 -133 17
-151 13 -20 13 -23 -1 -28 -10 -5 -15 0 -15 13 0 10 -5 22 -11 25 -6 4 -9 36
-8 78 2 64 0 72 -16 76 -15 3 -17 0 -8 -10 6 -8 11 -44 11 -81 0 -61 -1 -68
-20 -68 -16 0 -19 6 -18 38 4 87 0 119 -15 119 -10 0 -15 -10 -14 -26 0 -24 1
-24 9 -6 6 14 9 -3 9 -52 1 -71 0 -73 -24 -73 -22 0 -25 4 -26 38 -1 20 0 52
1 70 1 17 -3 32 -9 32 -7 0 -11 -27 -11 -70 0 -63 -2 -70 -20 -70 -16 0 -20 7
-20 38 0 25 -6 41 -17 48 -16 10 -18 7 -15 -37 4 -44 2 -49 -17 -49 -16 0 -21
6 -21 25 0 14 5 25 11 25 6 0 3 7 -5 16 -20 20 -21 48 -2 41 12 -5 11 0 -2 22
-11 19 -24 29 -41 29 -22 0 -23 -2 -8 -13 22 -16 22 -26 0 -18 -12 5 -15 2
-10 -10 6 -15 -2 -17 -66 -16 -62 1 -67 2 -37 10 19 4 43 6 53 3 9 -3 17 -2
17 1 0 12 -28 34 -34 27 -4 -3 -11 0 -16 8 -8 12 -10 11 -10 -6 0 -18 -6 -20
-47 -20 l-47 1 1 -35 c0 -19 6 -36 12 -38 16 -5 13 -22 -4 -22 -8 0 -15 -9
-15 -20 0 -11 -4 -20 -10 -20 -6 0 -10 33 -10 79 l0 80 43 4 c37 3 36 4 -14 5
-55 2 -56 2 -51 -24 4 -22 2 -24 -19 -19 -13 3 -38 7 -56 8 -17 1 -29 5 -27 8
5 8 -49 19 -90 18 -26 0 -28 -2 -11 -9 18 -7 18 -9 3 -15 -20 -8 -41 2 -33 16
4 5 1 9 -4 9 -6 0 -11 -6 -11 -14 0 -17 -31 -26 -88 -26 l-43 0 3 260 c2 209
0 261 -10 265 -23 9 -76 5 -92 -6z m226 -549 c1 -8 2 -45 3 -82 1 -61 3 -68
21 -68 11 0 20 -4 20 -9 0 -5 12 -11 27 -13 l27 -3 -3 -190 c-1 -104 -6 -194
-10 -198 -5 -4 -14 6 -21 22 -7 17 -16 31 -21 31 -5 0 -9 8 -9 18 0 10 -4 22
-9 28 -13 14 -21 122 -9 126 6 2 4 22 -5 53 l-16 50 -1 -100 c-1 -55 -3 -160
-4 -232 l-1 -133 50 -2 50 -2 -52 -3 c-49 -4 -53 -6 -53 -29 0 -21 -4 -24 -36
-24 -34 0 -35 2 -34 33 4 70 0 127 -10 127 -6 0 -10 -33 -10 -79 0 -44 -4 -83
-10 -86 -6 -4 -9 137 -9 390 l0 396 62 -3 c46 -2 62 -7 63 -18z m811 -199 c33
-49 41 -68 32 -82 -15 -23 -10 -29 21 -29 20 0 33 -6 37 -17 4 -10 15 -29 25
-42 10 -13 18 -27 18 -31 0 -5 -27 -10 -60 -12 -53 -3 -60 -1 -60 15 0 10 -4
16 -9 12 -5 -3 -15 11 -21 30 -7 21 -18 35 -28 35 -15 0 -132 103 -132 117 0
3 11 2 24 -1 33 -8 86 4 86 19 0 24 49 14 67 -14z m-513 -3 c9 -12 17 -38 17
-58 1 -26 3 -28 6 -10 10 63 13 70 38 70 22 0 42 -29 32 -47 -2 -5 -1 -42 3
-83 l7 -75 2 95 c1 99 9 120 43 120 17 0 18 -14 18 -187 0 -212 -10 -348 -21
-298 -5 22 -7 12 -8 -36 -1 -64 -2 -66 -24 -62 -22 4 -23 8 -16 51 4 26 5 58
2 71 -4 14 0 27 8 32 8 5 10 9 4 9 -19 0 -32 -15 -38 -45 -3 -16 -9 -39 -12
-50 -6 -16 -5 -17 4 -5 8 12 11 7 11 -22 0 -37 -19 -56 -21 -20 0 14 -2 14 -8
-3 -6 -15 -3 -21 13 -27 21 -6 21 -6 -1 -7 -12 -1 -25 4 -29 10 -4 8 -9 8 -17
0 -15 -15 -67 -14 -68 2 -3 77 3 571 8 582 8 22 30 18 47 -7z m331 -44 c105
-92 135 -124 135 -139 0 -21 -50 -19 -66 3 -12 16 -13 16 -20 -3 -11 -30 -17
-31 -106 -30 l-81 1 -4 48 c-4 41 -2 48 16 53 24 6 29 33 6 33 -18 0 -21 45
-4 56 8 4 7 9 -2 15 -12 8 -12 10 0 18 28 18 60 4 126 -55z m-3199 -29 c4 -16
13 -25 25 -25 10 0 19 -4 19 -10 0 -5 5 -10 10 -10 6 0 10 6 10 14 0 22 27 26
45 6 11 -12 38 -20 86 -25 38 -4 69 -11 69 -15 0 -5 -16 -6 -35 -3 -19 3 -42
2 -52 -3 -13 -6 -5 -10 32 -14 l50 -7 -70 -3 c-38 -1 -89 -4 -113 -5 -29 -2
-45 1 -48 10 -8 19 -97 51 -102 37 -5 -15 -52 -16 -52 -2 0 6 9 10 20 10 11 0
20 7 20 15 0 8 9 15 20 15 11 0 23 -7 26 -15 4 -8 14 -15 24 -15 13 0 17 5 13
20 -3 11 -12 20 -19 20 -15 0 -19 12 -7 23 13 13 23 7 29 -18z m2063 -153 c9
-14 109 -22 158 -13 33 6 43 5 48 -7 3 -8 4 -16 2 -18 -6 -7 -355 -7 -365 0
-7 4 -29 2 -49 -3 -32 -9 -40 -8 -51 7 -7 9 -18 16 -23 15 -13 -4 -11 11 4 26
9 10 42 12 141 8 71 -3 132 -10 135 -15z m2039 -147 c2 -2 1 -44 -4 -92 -8
-86 -8 -87 -15 -38 l-6 50 -1 -47 -2 -48 -65 0 c-68 0 -69 0 -65 -52 l1 -28
-108 3 -108 2 0 83 c0 59 -4 82 -12 82 -10 0 -13 -24 -13 -86 0 -85 0 -86 -22
-80 -13 3 -90 6 -171 6 l-149 0 2 28 c1 15 2 53 1 85 -2 90 -21 59 -21 -34 l0
-79 -46 0 c-37 0 -47 4 -51 20 -3 11 -12 20 -20 20 -8 0 -11 5 -8 10 4 6 11 8
16 5 5 -4 9 37 9 101 l0 107 427 -6 c234 -4 429 -9 431 -12z m-2766 -263 c15
-6 10 -15 -31 -62 l-49 -55 -73 -6 -74 -6 63 -1 c34 -1 62 -5 62 -8 0 -8 -151
-188 -160 -192 -12 -5 -17 53 -19 201 l-1 137 132 -1 c73 0 141 -3 150 -7z
m868 -3 c0 -7 16 -33 36 -58 l36 -46 -44 48 c-23 26 -49 47 -55 47 -10 0 -14
-31 -15 -117 l-2 -118 -3 115 c-2 63 -7 118 -12 123 -4 4 -38 -22 -74 -60 -59
-59 -72 -68 -114 -74 -45 -6 -46 -6 -10 -8 20 0 37 -3 37 -6 0 -10 -173 -205
-182 -205 -4 0 -8 79 -8 175 l0 175 159 0 c96 0 162 4 166 10 9 14 85 13 85
-1z m-453 -5 c21 -6 21 -10 22 -180 0 -96 -3 -174 -7 -174 -4 0 -29 28 -57 63
-27 34 -56 68 -63 75 -7 8 -25 30 -40 50 -15 21 -29 39 -32 42 -3 3 -29 33
-59 68 l-53 62 134 0 c73 0 143 -3 155 -6z m-358 -174 l1 -169 -138 6 c-75 3
-139 7 -141 9 -5 4 262 323 271 324 4 0 7 -76 7 -170z m94 121 c20 -27 37 -54
37 -59 0 -5 6 -12 13 -15 12 -4 160 -181 181 -216 7 -11 -15 -12 -135 -6 -88
5 -147 12 -151 19 -4 6 -8 82 -8 169 0 119 3 157 13 157 6 -1 29 -23 50 -49z
m625 -61 l-2 -60 -35 -2 -36 -1 38 -4 38 -4 -3 -87 -3 -87 -122 0 c-67 0 -125
3 -129 7 -6 6 30 50 146 179 8 9 35 40 58 68 24 28 46 51 48 51 2 0 3 -27 2
-60z m1223 49 c11 -6 18 -16 15 -24 -2 -7 -2 -16 2 -19 9 -10 3 -86 -10 -118
-8 -21 -17 -28 -37 -28 -26 0 -28 3 -57 92 -5 13 2 17 33 21 36 3 36 4 -9 5
-44 2 -48 4 -48 27 0 18 5 25 20 25 11 0 23 7 26 15 7 18 37 20 65 4z m238 -5
c3 -3 0 -9 -6 -15 -6 -6 -8 -19 -6 -30 6 -23 48 -26 57 -3 8 20 -1 34 -20 34
-8 0 -14 5 -14 10 0 6 23 10 50 10 30 0 50 -4 50 -11 0 -6 -6 -9 -13 -6 -8 3
-14 -5 -15 -24 -2 -26 1 -29 27 -29 32 0 48 24 30 46 -9 11 -9 14 0 14 11 0
31 -40 31 -61 0 -5 -26 -10 -57 -11 l-58 -2 57 -3 58 -4 -1 -55 c-2 -53 -19
-90 -19 -40 0 16 -6 26 -15 26 -8 0 -14 -3 -14 -7 6 -38 3 -38 -153 -33 l-153
5 0 85 c0 125 -1 123 98 115 45 -4 84 -9 86 -11z m-2411 -436 l3 -78 -51 0
-50 0 0 81 0 80 48 -3 47 -3 3 -77z m2460 -135 c109 -6 112 -7 112 -30 0 -12
-3 -22 -7 -22 -20 3 -66 -3 -55 -8 7 -3 12 -25 12 -59 l0 -54 -37 5 c-21 3
-72 5 -113 6 -41 0 -83 5 -92 10 -25 14 -22 39 5 40 l22 2 -22 4 c-29 5 -33
52 -5 54 16 1 16 2 0 6 -11 3 -18 14 -18 29 0 28 7 28 198 17z m-2873 -193
c14 -6 15 -9 5 -10 -10 -1 -9 -4 5 -10 31 -13 39 -12 25 5 -10 12 -10 15 4 15
17 0 20 -9 10 -34 -7 -19 -31 -21 -37 -3 -3 9 -7 9 -18 0 -8 -7 -29 -10 -46
-8 -27 3 -31 1 -28 -16 2 -12 -2 -19 -11 -19 -8 0 -14 4 -14 8 0 4 -34 8 -75
8 -78 1 -87 -5 -61 -39 10 -13 15 -15 19 -5 3 10 7 10 17 1 9 -8 7 -13 -11
-19 -13 -4 -33 -8 -44 -8 -11 -1 -19 -7 -17 -14 1 -8 -2 -11 -8 -7 -5 3 -10 2
-10 -3 0 -5 -13 -7 -30 -4 -16 2 -28 8 -25 12 2 4 16 5 30 2 15 -2 25 0 25 7
0 6 -7 11 -16 11 -8 0 -12 5 -8 11 3 6 0 15 -7 20 -9 6 -10 9 -2 9 6 0 18 -9
25 -19 10 -14 18 -17 28 -10 13 7 13 9 0 9 -13 0 -13 1 0 11 12 9 11 10 -6 6
-30 -6 -52 14 -56 53 l-3 35 45 -2 c93 -4 106 -4 139 1 23 3 39 0 49 -11 11
-10 17 -12 20 -4 2 7 10 8 20 2 9 -5 26 -5 37 0 17 6 17 8 3 8 -10 1 -18 6
-18 11 0 12 17 12 45 0z m1938 -47 c59 -3 107 -9 107 -12 0 -11 -345 -141
-375 -142 -25 0 -27 -1 -12 -10 15 -9 17 -31 17 -236 l0 -226 -97 8 c-54 4
-107 8 -118 10 -11 1 -54 3 -95 4 l-75 1 3 231 3 231 97 -7 c184 -12 247 -13
226 -5 -15 6 -236 22 -349 25 -5 0 -11 -14 -13 -32 -2 -19 -8 -30 -15 -28 -7
2 -37 6 -67 9 -30 3 -116 14 -190 25 -74 12 -152 21 -172 21 -37 0 -38 1 -38
38 0 67 -8 66 260 32 134 -16 262 -30 285 -30 37 0 187 46 276 84 38 17 166
20 342 9z m574 -182 c-3 -14 -1 -18 9 -14 8 3 12 9 9 13 -3 4 12 4 33 -1 50
-12 142 -11 142 1 0 5 14 7 33 3 17 -3 37 -6 42 -7 18 -2 24 -20 13 -39 -9
-18 -7 -19 16 -15 15 3 29 1 32 -3 3 -5 -5 -9 -18 -9 -24 -1 -81 -28 -63 -31
24 -3 61 4 66 13 9 14 29 1 29 -18 0 -8 5 -12 10 -9 6 4 8 10 5 15 -3 5 7 16
22 24 24 13 25 15 7 16 -11 0 -25 -5 -32 -12 -9 -9 -12 -9 -12 0 0 13 6 16 53
26 18 4 27 12 25 23 -3 14 8 16 72 14 41 -1 82 -7 92 -12 11 -6 31 -9 46 -7
15 2 27 -1 27 -7 0 -5 -9 -8 -20 -7 -11 2 1 -8 27 -21 29 -16 55 -23 70 -20
16 4 20 2 13 -5 -5 -6 -23 -12 -40 -14 -34 -3 -42 -32 -10 -34 59 -2 60 -3 45
-18 -14 -14 -82 -27 -161 -31 -19 -1 -40 -4 -46 -8 -24 -15 -195 -29 -187 -15
3 4 -2 8 -10 8 -9 0 -16 -5 -16 -11 0 -6 -9 -9 -20 -6 -11 3 -18 1 -14 -4 3
-5 -4 -9 -16 -9 -12 0 -19 3 -17 8 3 4 -63 8 -145 9 -90 1 -155 6 -161 12 -8
8 5 11 44 12 l54 1 -55 11 -55 12 2 49 c1 27 5 52 10 55 15 11 38 45 26 37 -9
-5 -13 -1 -13 13 0 10 -6 22 -12 24 -7 3 2 6 21 6 28 1 33 -2 28 -18z m-1111
-466 c32 -2 100 -7 149 -10 142 -9 128 18 123 -241 l-3 -225 -30 3 -30 3 -3
193 c-2 143 -6 192 -15 193 -6 0 -21 2 -32 3 -29 4 -88 8 -102 7 -10 -1 -13
-46 -13 -191 l0 -190 -47 1 c-27 1 -59 4 -73 8 l-25 7 -3 212 c-2 117 -1 220
2 228 4 10 13 13 24 10 10 -4 45 -8 78 -11z m-2219 -10 c11 -12 35 -16 87 -16
80 0 302 -22 311 -31 3 -3 -43 -22 -102 -42 -59 -21 -202 -71 -316 -112 -115
-41 -227 -75 -250 -76 -23 -1 -103 4 -177 11 -74 7 -152 14 -174 16 -21 2 -40
6 -43 9 -10 10 8 25 40 32 17 3 113 33 212 66 99 32 209 68 245 79 108 34 150
51 150 61 0 5 -4 6 -10 3 -5 -3 -10 -1 -10 4 0 16 19 13 37 -4z m566 -39 c-4
-19 0 -24 26 -29 17 -4 38 -4 46 -1 9 4 15 0 15 -9 0 -9 -10 -17 -22 -19 -14
-2 -23 -10 -22 -19 1 -12 -5 -14 -25 -11 -25 5 -25 5 -7 -13 18 -18 18 -19 -3
-27 -11 -4 -21 -13 -20 -20 0 -10 2 -10 6 0 6 14 53 17 53 2 0 -5 -6 -10 -14
-10 -21 0 -29 -17 -17 -37 6 -10 11 -12 11 -5 0 14 30 17 30 2 0 -5 -5 -10
-11 -10 -5 0 -8 -4 -4 -9 3 -6 -10 -9 -30 -8 -19 1 -35 5 -35 10 0 4 5 7 11 7
6 0 4 6 -4 14 -8 8 -22 14 -33 13 -10 -1 -18 4 -16 11 4 24 -14 11 -25 -18 -7
-18 -7 -30 -2 -30 6 0 8 -4 4 -10 -3 -5 -12 -7 -19 -4 -11 4 -14 26 -13 87 2
82 2 82 30 85 15 2 27 7 27 12 0 5 10 10 23 12 17 2 22 9 22 31 -1 15 4 27 11
27 6 0 9 -10 7 -24z m1233 -57 c3 -6 9 -7 13 -3 3 5 29 6 56 3 l50 -6 -50 -1
c-28 -1 -56 -7 -63 -14 -9 -9 -12 -9 -12 1 0 9 -8 8 -29 -6 -30 -18 -38 -41
-12 -35 7 2 17 -1 20 -7 4 -6 37 -12 73 -13 l66 -2 -10 -25 c-10 -28 -25 -41
-48 -41 -11 1 -10 3 4 11 17 11 17 12 -5 24 -20 10 -26 9 -37 -4 -9 -11 -15
-12 -20 -5 -4 6 -32 14 -62 17 -30 3 -50 4 -43 1 7 -3 9 -12 6 -20 -5 -13 -7
-13 -14 -2 -7 10 -9 9 -9 -4 0 -11 -8 -18 -19 -18 -13 0 -20 9 -23 30 -5 33 5
40 57 40 28 0 32 3 28 19 -5 19 -34 19 -60 -1 -7 -6 -20 -5 -32 2 -24 12 -29
35 -7 27 8 -3 16 -2 18 3 2 6 25 11 52 12 26 1 53 7 60 14 14 16 42 18 52 3z
m-354 -29 c15 0 30 -5 34 -12 5 -8 2 -9 -9 -5 -9 3 -19 2 -22 -3 -4 -6 -15
-10 -26 -10 -24 0 -26 -20 -1 -21 10 0 5 -6 -15 -15 -17 -7 -34 -18 -38 -24
-3 -6 -11 -8 -16 -5 -5 4 -9 1 -9 -4 0 -6 -10 -11 -22 -12 -21 0 -21 -1 -4 -8
38 -15 -1 -21 -53 -8 -42 10 -51 15 -47 29 3 13 -2 18 -14 18 -11 0 -22 5 -25
10 -6 10 15 15 45 10 12 -2 11 3 -4 19 -33 36 -10 46 101 44 54 -2 110 -3 125
-3z m-2002 -144 c30 -3 55 -5 55 -6 0 -1 20 -3 45 -5 25 -2 45 -4 45 -5 0 -1
20 -3 45 -4 80 -3 76 9 83 -269 l6 -249 -72 6 c-140 12 -167 21 -167 56 0 10
-4 20 -8 22 -8 3 -32 41 -78 128 -11 19 -22 37 -26 40 -22 17 -36 84 -38 180
-1 58 -2 108 -1 112 0 4 13 5 29 3 15 -3 52 -7 82 -9z m2351 -86 c36 0 59 -4
59 -11 0 -6 7 -9 15 -5 18 7 21 -24 3 -42 -9 -9 -9 -12 1 -12 10 0 12 -10 8
-35 -6 -39 4 -50 45 -47 31 3 45 -13 28 -33 -6 -8 -9 -20 -5 -27 4 -7 1 -6 -7
2 -16 18 -66 20 -72 3 -3 -7 -1 -13 4 -13 6 0 10 -4 10 -10 0 -5 -5 -9 -12 -7
-20 4 -45 31 -40 45 2 6 0 12 -6 12 -5 0 -13 -10 -17 -22 -5 -18 -8 -19 -12
-7 -3 11 -12 15 -29 11 -19 -3 -23 -1 -18 12 3 9 1 16 -5 16 -15 0 -14 -37 2
-43 6 -2 9 -8 4 -12 -4 -5 -13 -3 -19 3 -14 14 -32 16 -24 3 3 -4 -1 -17 -9
-27 -14 -18 -15 -18 -9 0 10 26 -16 39 -38 19 -10 -9 -18 -12 -18 -7 0 5 -8
10 -19 10 -12 0 -17 -5 -13 -14 4 -12 1 -12 -16 -1 -11 7 -18 17 -16 21 12 19
-29 6 -46 -14 -17 -21 -19 -22 -25 -5 -6 13 -11 15 -20 7 -9 -8 -17 -6 -28 5
-12 11 -17 12 -21 2 -3 -9 -8 -8 -18 3 -12 14 -15 14 -30 -1 -9 -10 -14 -19
-12 -21 2 -3 -3 -5 -11 -5 -8 0 -11 5 -8 11 4 6 -1 5 -10 -3 -9 -7 -18 -10
-18 -5 -1 5 -2 16 -3 24 -1 17 -6 17 -58 6 -21 -5 -38 -12 -38 -18 0 -5 -6 -6
-12 -2 -10 6 -10 5 -1 -7 10 -12 8 -15 -6 -15 -10 0 -17 5 -15 11 7 17 -41 54
-57 45 -7 -5 -17 -6 -23 -3 -5 4 -6 1 -2 -6 5 -7 15 -10 23 -7 8 3 22 -1 30
-10 13 -12 13 -18 3 -27 -10 -9 -11 -9 -5 2 6 11 3 13 -13 9 -13 -4 -22 -1
-22 5 0 7 -4 6 -10 -3 -7 -12 -11 -10 -19 10 -7 18 -10 20 -10 8 -1 -10 -5
-19 -11 -19 -5 -1 -16 -2 -22 -3 -7 -1 -16 2 -19 7 -3 5 -9 2 -12 -7 -4 -9 -1
-16 6 -16 8 0 8 -3 -2 -9 -18 -12 -39 8 -33 31 2 10 8 16 12 13 5 -3 11 -1 15
5 4 6 -4 9 -18 8 -16 -1 -23 -7 -20 -15 3 -7 -2 -13 -10 -13 -8 0 -18 6 -20
13 -3 6 -6 -1 -6 -18 -1 -23 -4 -27 -11 -15 -8 13 -10 12 -10 -3 0 -10 -5 -15
-10 -12 -7 4 -7 13 0 25 8 16 7 18 -4 14 -8 -3 -17 -12 -20 -20 -3 -8 -11 -14
-17 -14 -7 0 -9 3 -6 7 9 8 -12 33 -28 33 -7 0 -15 -7 -18 -14 -4 -10 -1 -13
7 -10 8 3 17 0 22 -7 5 -8 3 -10 -6 -4 -8 5 -18 1 -27 -10 -7 -11 -13 -13 -13
-6 0 7 -4 10 -9 6 -5 -3 -3 8 5 25 11 21 23 30 40 30 13 0 24 4 24 8 0 15 129
72 193 86 15 4 27 2 27 -4 0 -12 37 -13 44 -1 4 5 -6 14 -21 19 -16 6 -22 11
-15 11 6 1 12 6 12 11 0 6 -20 10 -43 10 -24 0 -47 3 -51 7 -4 4 -27 6 -52 4
-39 -2 -45 0 -42 15 2 14 15 18 60 20 32 1 63 6 69 10 8 5 10 2 6 -8 -4 -12 3
-17 29 -20 34 -4 35 -3 28 25 -6 30 -6 30 32 23 22 -4 69 -9 105 -13 62 -5 68
-4 79 17 11 21 13 21 22 7 5 -10 22 -17 41 -18 l32 -1 -34 -8 c-19 -5 -40 -6
-47 -3 -8 3 -21 -3 -30 -12 -16 -16 -12 -16 72 -11 49 3 107 8 128 12 28 5 37
4 32 -4 -4 -6 -14 -8 -24 -5 -13 5 -14 3 -5 -7 8 -9 28 -10 72 -5 33 4 64 7
68 7 5 -1 13 8 18 18 6 10 15 19 20 19 6 0 11 12 13 27 4 26 4 26 18 5 13 -17
25 -21 75 -21z m2294 6 c11 -1 24 0 30 3 5 3 25 6 43 8 25 2 39 -4 57 -23 14
-15 22 -30 19 -35 -8 -13 -97 -8 -120 8 -16 10 -24 11 -29 3 -4 -6 -14 -9 -22
-5 -9 3 -26 -2 -39 -10 -16 -10 -24 -11 -24 -4 0 8 -4 8 -15 -1 -10 -9 -15 -9
-15 -1 0 6 -9 11 -20 11 -25 0 -26 17 -2 43 14 16 25 18 67 12 28 -3 59 -7 70
-9z m-791 -31 c3 -9 1 -15 -7 -14 -30 4 -41 -1 -29 -13 16 -16 -4 -39 -26 -31
-13 4 -14 3 -3 -5 11 -8 2 -21 -40 -66 -43 -44 -59 -54 -77 -49 -15 4 -22 1
-22 -10 0 -10 -9 -14 -25 -13 -14 0 -25 7 -25 14 0 9 -7 11 -19 7 -13 -4 -23
0 -30 12 -6 10 -11 14 -11 10 0 -4 -9 -3 -19 3 -15 7 -23 6 -35 -6 -15 -14
-16 -14 -16 2 0 16 -2 16 -21 -2 -14 -13 -20 -14 -17 -4 2 8 -2 14 -8 15 -6 0
-18 8 -28 18 -10 9 -22 15 -27 12 -5 -4 -9 1 -9 9 0 15 12 21 34 17 4 -1 13 5
20 13 15 20 102 34 91 15 -5 -8 1 -6 12 4 11 9 27 17 35 17 9 0 33 6 54 13 22
8 59 16 84 20 25 3 37 3 28 0 -10 -2 -18 -8 -18 -13 0 -5 7 -7 15 -4 8 4 15 1
15 -5 0 -19 17 -12 23 9 9 35 89 54 101 25z m243 -16 c-4 -15 -2 -19 9 -15 17
7 18 -1 2 -18 -33 -34 -144 -161 -156 -178 -8 -10 -25 -31 -39 -46 -13 -15
-32 -35 -41 -45 -9 -10 -21 -16 -28 -13 -6 2 -11 -3 -10 -12 1 -12 -6 -16 -22
-14 -28 2 -57 -17 -57 -38 0 -8 -8 -16 -19 -18 -15 -3 -13 4 13 42 18 25 59
73 92 106 33 33 56 60 53 60 -4 0 -16 -7 -26 -17 -17 -15 -18 -15 -18 1 0 9 8
20 18 23 44 16 90 55 85 71 -5 11 -2 14 9 9 11 -4 18 1 21 15 4 13 10 17 18
12 7 -4 10 -3 6 3 -6 9 78 93 91 93 3 0 2 -9 -1 -21z m-1423 -113 c-3 -8 0
-17 7 -22 7 -4 10 -3 6 4 -16 25 3 39 47 32 24 -4 51 -5 59 -4 9 1 18 -8 21
-22 4 -13 13 -24 21 -24 9 0 15 -9 14 -22 -1 -17 -2 -19 -6 -5 -3 11 -14 17
-31 16 -24 0 -25 -1 -7 -9 11 -5 15 -9 8 -9 -6 -1 -18 -3 -26 -6 -10 -5 -13 1
-9 25 3 23 0 30 -12 30 -9 0 -13 -6 -10 -14 3 -8 0 -17 -7 -22 -7 -4 -10 -3
-5 4 3 6 -2 16 -13 21 -26 15 -38 14 -23 -1 18 -18 14 -27 -9 -23 -12 2 -31 0
-43 -6 -20 -10 -20 -10 -2 5 15 12 16 16 5 16 -8 0 -20 -5 -27 -12 -9 -9 -13
-7 -18 5 -3 9 -10 17 -16 17 -5 0 -7 -4 -4 -9 3 -4 -6 -6 -21 -3 -20 4 -24 2
-18 -8 6 -10 4 -12 -8 -7 -9 3 -18 3 -20 -1 -2 -4 -2 -1 0 6 1 8 3 19 3 26 0
7 25 18 58 26 31 7 62 13 67 15 16 4 25 -5 19 -19z"/>
<path d="M0 3587 c0 -35 5 -57 13 -60 10 -4 10 -6 0 -6 -9 -1 -13 -22 -13 -71
0 -56 3 -70 15 -70 8 0 15 7 15 15 0 8 9 15 20 15 11 0 37 -7 57 -15 45 -19
43 -19 43 6 0 18 4 20 36 14 44 -7 54 -12 54 -30 0 -10 13 -14 43 -14 23 0 53
0 67 0 61 -2 74 0 81 10 4 7 24 9 58 4 28 -4 49 -10 46 -15 -3 -4 2 -10 10
-14 8 -3 17 -1 20 4 3 4 -1 11 -7 13 -14 6 14 10 47 8 12 -1 24 7 30 21 6 13
18 22 28 22 36 -3 15 22 -28 34 -60 16 -75 15 -75 -4 0 -10 6 -13 19 -9 13 4
20 0 24 -15 3 -11 1 -20 -4 -20 -5 0 -9 5 -9 10 0 6 -7 10 -16 10 -14 0 -14
-3 -4 -15 11 -13 10 -14 -4 -9 -9 3 -16 11 -17 18 -1 6 -2 20 -3 31 -1 15 -15
23 -66 37 -36 10 -78 19 -95 20 -16 1 -33 7 -37 13 -5 7 -8 6 -8 -1 0 -7 -11
-9 -25 -6 -14 2 -25 8 -25 13 0 14 5 24 10 23 3 -1 15 -5 28 -9 12 -3 22 -2
22 3 0 10 -36 22 -85 28 -28 3 -29 2 -11 -11 18 -13 18 -14 -3 -12 -11 1 -21
7 -21 15 0 16 -60 42 -110 48 -73 10 -85 12 -102 19 -16 6 -18 1 -18 -48z"/>
<path d="M797 3468 c-13 -8 2 -15 40 -21 12 -2 26 -6 30 -10 12 -13 14 -56 3
-77 -14 -27 -2 -25 22 2 12 15 22 19 26 11 4 -6 23 -14 42 -18 19 -4 44 -14
55 -21 21 -15 55 -18 93 -8 25 7 31 34 7 34 -21 0 -19 13 6 28 20 13 38 7 59
-19 3 -4 40 -10 83 -14 69 -6 76 -5 71 10 -4 9 -9 13 -12 11 -3 -3 -11 2 -18
12 -12 16 -14 16 -29 -3 -9 -11 -14 -15 -11 -8 4 8 -9 14 -39 18 -25 4 -45 11
-45 16 0 13 -64 11 -110 -3 -23 -7 -40 -19 -40 -27 0 -23 -21 2 -23 27 -1 25
-27 39 -27 16 0 -22 -27 -47 -36 -33 -3 6 -2 14 3 18 14 10 9 36 -7 36 -8 0
-14 -6 -12 -12 1 -7 -5 -13 -13 -13 -8 0 -15 7 -15 15 0 8 -6 15 -14 15 -8 0
-16 7 -20 15 -5 15 -46 17 -69 3z"/>
<path d="M1435 2859 c9 -13 -70 -17 -410 -18 -187 -1 -343 -5 -347 -9 -4 -4
117 -6 268 -5 163 1 272 -2 268 -8 -3 -5 -37 -9 -76 -9 -124 0 -66 -11 78 -15
77 -2 174 -7 218 -10 156 -11 566 -9 578 3 7 7 8 12 2 12 -44 3 -108 10 -112
14 -2 3 -15 1 -29 -5 -16 -6 -22 -6 -18 1 3 6 3 10 -2 10 -4 0 -42 3 -83 7
-153 12 -109 22 110 24 177 1 209 3 150 10 -93 10 -601 9 -595 -2z"/>
<path d="M3010 2815 c0 -19 5 -35 10 -35 6 0 10 6 10 13 0 8 3 8 8 1 4 -5 23
-11 43 -12 28 -2 38 2 47 20 l11 23 7 -22 c3 -13 10 -23 14 -23 5 0 15 -3 24
-6 11 -4 16 0 16 12 0 16 2 16 10 4 13 -21 70 -22 70 -2 0 13 3 12 14 -4 17
-23 24 -18 32 24 5 25 3 32 -10 32 -9 0 -16 -6 -16 -12 0 -10 -2 -10 -9 0 -12
19 -60 22 -70 5 -7 -13 -9 -13 -14 1 -10 27 -26 18 -29 -16 l-4 -33 -13 28
c-18 34 -39 35 -47 2 -8 -30 -24 -23 -24 11 0 25 -24 34 -34 12 -5 -10 -7 -10
-12 0 -12 26 -34 12 -34 -23z"/>
<path d="M580 1115 c-19 -7 -96 -30 -170 -50 -74 -20 -153 -43 -175 -50 -22
-7 -84 -26 -137 -41 -87 -25 -98 -31 -98 -51 0 -28 1 -28 76 -4 32 10 88 26
124 36 36 9 85 24 110 31 25 8 101 30 170 50 165 47 185 55 168 65 -11 7 -11
9 0 9 7 0 10 5 7 10 -8 13 -31 11 -75 -5z"/>
</g>
</svg>
