<?xml version="1.0" standalone="no"?>
<!DOCTYPE svg PUBLIC "-//W3C//DTD SVG 20010904//EN"
 "http://www.w3.org/TR/2001/REC-SVG-20010904/DTD/svg10.dtd">
<svg version="1.0" xmlns="http://www.w3.org/2000/svg"
 width="584.000000pt" height="434.000000pt" viewBox="0 0 584.000000 434.000000"
 preserveAspectRatio="xMidYMid meet">
<metadata>
Created by potrace 1.15, written by Peter Selinger 2001-2017
</metadata>
<g transform="translate(0.000000,434.000000) scale(0.100000,-0.100000)"
fill="#000000" stroke="none">
<path d="M2425 3784 c-27 -19 -50 -38 -50 -43 0 -5 -4 -13 -9 -18 -5 -5 -6 -3
-2 5 4 6 2 12 -3 12 -14 0 -221 -84 -291 -118 -53 -26 -55 -29 -60 -74 -5 -42
-4 -45 11 -37 31 16 45 2 41 -41 -3 -33 -1 -40 14 -40 16 0 17 -12 11 -182 -4
-99 -7 -216 -7 -258 0 -72 -2 -78 -22 -83 -21 -6 -21 -7 -4 -26 17 -19 18 -34
12 -183 -4 -90 -7 -194 -8 -232 -1 -65 -1 -67 -13 -39 -7 16 -16 62 -20 101
-4 40 -11 72 -16 72 -4 0 -6 7 -3 15 4 8 2 15 -4 15 -11 0 -10 -25 1 -36 10
-10 9 -52 -1 -58 -12 -7 -104 39 -95 47 3 4 0 7 -8 7 -11 0 -13 18 -11 92 2
51 8 98 13 105 7 7 5 13 -3 16 -7 3 -3 6 10 6 30 1 28 21 -3 21 -14 0 -25 5
-25 11 0 6 -7 9 -15 5 -8 -3 -15 0 -16 7 -1 7 -5 -4 -9 -23 -5 -20 -5 -39 1
-45 6 -5 9 -5 9 3 0 7 4 12 8 12 5 0 9 -7 9 -15 0 -19 -16 -19 -42 1 -17 13
-18 16 -5 24 13 8 13 10 -1 10 -9 0 -22 -7 -29 -15 -7 -8 -17 -15 -23 -15 -5
0 -2 10 9 22 10 12 14 18 7 15 -6 -4 -14 -1 -16 5 -4 9 -8 10 -14 3 -4 -6 -24
-11 -43 -11 -19 -1 -34 -5 -33 -11 1 -5 -7 -14 -18 -21 -11 -7 -19 -8 -19 -2
0 5 -4 10 -10 10 -5 0 -7 -7 -4 -15 4 -8 13 -15 21 -15 8 0 11 -5 7 -11 -3 -6
-16 -8 -28 -5 -15 4 -30 -1 -44 -14 -24 -22 -42 -26 -42 -9 0 8 -5 7 -15 -1
-9 -7 -14 -19 -11 -27 3 -7 1 -13 -3 -13 -5 0 -7 -10 -3 -22 5 -21 5 -21 -14
-2 -12 11 -15 21 -9 24 5 3 11 11 13 18 1 9 -2 11 -10 6 -7 -4 -39 -9 -71 -10
-49 -1 -64 -6 -88 -28 -20 -19 -27 -22 -22 -10 5 14 2 16 -14 12 -12 -3 -27
-2 -34 3 -13 8 -44 -4 -67 -28 -8 -7 -18 -10 -24 -7 -6 4 -21 -6 -34 -21 -13
-16 -24 -23 -24 -17 0 5 -8 9 -17 7 -62 -12 -73 -17 -68 -24 2 -5 -2 -11 -9
-14 -8 -3 -16 -1 -18 5 -3 7 -11 6 -26 -3 -12 -8 -20 -20 -17 -27 3 -8 5 -24
5 -36 l0 -22 253 -2 c138 -2 261 -5 272 -7 11 -2 31 -4 45 -4 24 -1 26 -4 22
-38 -2 -21 -9 -44 -14 -50 -6 -7 -11 -38 -13 -68 -1 -30 -8 -62 -16 -71 -17
-20 -24 -301 -8 -320 15 -18 27 -173 14 -178 -6 -2 -17 9 -24 26 -17 38 -24
31 -10 -10 7 -20 18 -32 32 -34 13 -2 23 -12 25 -23 4 -20 4 -20 -11 0 -9 11
-19 17 -23 12 -4 -4 -2 -7 5 -7 7 0 9 -5 6 -10 -5 -8 -12 -7 -22 1 -12 11 -13
9 -8 -12 5 -20 1 -28 -18 -38 -14 -7 -30 -10 -36 -7 -6 4 -11 2 -11 -3 0 -6 7
-11 16 -11 8 0 12 -5 9 -10 -4 -7 -13 -6 -26 1 -23 12 -35 6 -24 -10 3 -6 17
-11 30 -11 19 0 23 -4 18 -17 -5 -15 -3 -16 8 -5 7 6 22 11 34 11 16 -1 17 -2
3 -6 -10 -2 -18 -8 -18 -13 0 -5 -10 -10 -22 -12 -31 -4 -35 -34 -6 -41 12 -4
25 -3 28 2 11 16 39 19 57 6 10 -8 26 -15 36 -15 9 0 17 -4 17 -10 0 -5 8 -10
18 -10 13 0 14 -2 4 -9 -8 -4 -14 -12 -14 -17 0 -5 -3 -15 -6 -22 -2 -7 -1
-16 3 -20 4 -4 10 -2 12 4 2 6 10 20 18 30 13 18 14 17 9 -9 -2 -15 -1 -26 3
-25 13 2 43 -14 43 -23 0 -6 -9 -5 -20 1 -17 9 -22 7 -29 -12 -10 -27 -4 -39
9 -18 8 12 13 13 29 3 12 -7 22 -9 26 -3 3 5 15 7 26 5 16 -3 19 0 14 13 -5
13 -3 14 5 6 9 -9 8 -17 -2 -33 -11 -18 -11 -23 2 -31 8 -5 21 -8 28 -5 9 3
11 -5 9 -30 -3 -19 -2 -35 0 -35 12 0 56 51 49 57 -5 4 -11 2 -13 -4 -3 -7
-10 -13 -16 -13 -8 0 -7 4 1 12 16 16 15 38 -1 38 -8 0 -19 11 -25 24 -10 23
-10 24 14 11 14 -7 31 -21 39 -31 17 -22 20 -64 5 -64 -5 0 -10 -5 -10 -11 0
-5 5 -7 10 -4 6 3 10 -4 10 -16 0 -16 -3 -19 -13 -11 -8 7 -18 7 -27 2 -18
-11 -13 -15 23 -24 19 -5 29 -2 33 8 3 8 13 17 21 20 12 5 13 4 5 -7 -7 -8 -9
-16 -6 -20 10 -9 34 4 34 19 0 8 5 14 10 14 7 0 7 -6 1 -19 -8 -13 -6 -23 5
-37 11 -14 14 -15 11 -3 -4 13 0 14 29 5 19 -6 31 -12 27 -13 -63 -13 -63 -13
-51 -27 9 -10 15 -11 20 -3 4 6 10 8 14 4 4 -4 2 -13 -4 -19 -16 -16 -15 -28
3 -28 8 0 15 -5 15 -11 0 -6 -7 -9 -15 -5 -9 3 -15 0 -15 -8 0 -8 -3 -16 -7
-19 -5 -2 -2 -2 5 0 8 1 21 -4 29 -13 15 -14 14 -15 -2 -12 -10 2 -20 -2 -22
-9 -3 -9 4 -10 27 -3 29 8 30 7 18 -7 -12 -15 -11 -15 9 -5 15 8 28 9 45 2 22
-10 21 -10 -4 -5 -16 3 -28 1 -28 -5 0 -9 17 -14 47 -13 7 0 11 -4 10 -11 -1
-6 9 -10 23 -8 23 2 24 2 6 -11 -11 -8 -17 -21 -14 -28 4 -10 -1 -15 -13 -15
-11 0 -19 4 -19 8 0 4 6 8 13 8 8 0 8 3 -2 9 -9 6 -19 4 -28 -5 -8 -8 -19 -14
-24 -14 -12 0 -12 37 1 45 6 3 7 -1 4 -9 -3 -9 -1 -16 5 -16 18 0 13 28 -8 39
-21 12 -31 5 -31 -20 0 -9 -7 -20 -16 -23 -20 -8 -9 -26 17 -26 10 0 19 -4 19
-9 0 -5 -22 -9 -49 -8 -34 1 -47 6 -44 14 3 7 -2 13 -11 13 -9 0 -16 4 -16 10
0 5 13 7 30 4 28 -6 30 -5 29 22 -1 17 -3 22 -6 12 -7 -26 -33 -22 -34 5 -1
15 -3 17 -6 6 -5 -21 -43 -33 -43 -13 0 8 -6 11 -15 8 -8 -4 -15 -1 -15 5 0 6
5 11 11 11 5 0 7 5 4 10 -3 6 -1 10 5 10 6 0 8 5 5 10 -5 8 -11 8 -19 1 -7 -6
-16 -8 -19 -4 -4 3 -7 1 -7 -5 0 -6 -9 -14 -20 -17 -11 -3 -20 -11 -20 -17 0
-5 7 -8 15 -4 17 6 65 -13 65 -26 0 -5 -4 -7 -9 -3 -5 3 -12 1 -15 -4 -3 -5 4
-11 17 -15 29 -7 28 -6 61 -44 27 -30 54 -38 49 -14 -3 11 8 10 45 -2 18 -6
21 -12 15 -34 -3 -15 -6 -32 -6 -39 0 -7 -6 -13 -14 -13 -7 0 -13 -4 -13 -10
0 -5 6 -10 13 -10 17 0 57 -42 57 -59 0 -7 -4 -10 -9 -7 -14 9 -41 -4 -41 -19
0 -7 -7 -18 -16 -25 -13 -11 -16 -10 -21 8 -5 22 -33 31 -33 12 0 -5 5 -10 12
-10 6 0 8 -3 4 -7 -4 -5 -13 0 -21 10 -12 16 -13 16 -19 1 -15 -38 38 -56 119
-41 17 3 32 6 34 6 3 1 -4 8 -15 16 -10 8 -14 15 -7 15 6 0 15 9 18 20 8 24
28 26 46 4 10 -13 10 -17 -2 -25 -8 -5 -9 -9 -2 -9 6 0 18 7 27 15 8 8 22 12
30 9 22 -9 20 5 -5 24 -20 17 -19 17 13 17 31 0 33 -2 30 -28 -3 -20 0 -27 13
-27 27 0 85 -50 84 -74 0 -21 0 -21 -11 2 -11 22 -28 30 -28 13 0 -16 -40 -24
-55 -11 -24 20 -29 -9 -6 -34 26 -28 27 -52 1 -59 -14 -3 -20 -14 -20 -32 0
-14 -4 -24 -9 -21 -5 4 -12 0 -14 -6 -4 -10 -7 -10 -15 0 -5 7 -16 10 -25 6
-12 -4 -22 3 -34 26 -10 17 -23 39 -30 48 -11 15 -12 14 -13 -10 0 -14 12 -40
26 -57 23 -28 32 -31 80 -31 39 0 54 4 54 14 0 7 7 19 15 26 8 7 15 21 15 31
0 11 5 19 11 19 6 0 8 -9 4 -20 -4 -11 -2 -20 4 -20 6 0 10 5 8 12 -1 6 6 14
17 16 11 2 16 0 12 -7 -4 -6 0 -11 9 -11 9 0 14 4 10 9 -3 5 -1 12 4 15 16 10
21 -23 5 -39 -9 -8 -11 -15 -5 -15 5 0 15 8 21 17 8 13 13 14 16 6 3 -7 14
-13 24 -13 26 0 35 -32 14 -47 -26 -19 -26 -47 0 -72 19 -18 38 -23 95 -25 54
-3 71 0 71 10 0 22 48 -5 52 -29 5 -34 28 -33 28 1 0 21 -8 37 -27 51 -19 14
-21 19 -8 14 51 -20 65 -37 65 -80 0 -24 5 -43 10 -43 6 0 10 7 10 15 0 8 5
15 11 15 6 0 9 9 6 20 -4 15 0 20 13 20 24 0 29 -9 23 -43 -4 -21 -10 -26 -24
-22 -31 10 -22 -13 12 -30 27 -14 30 -20 24 -47 -6 -27 -5 -29 8 -17 8 8 12
20 9 28 -4 10 -1 13 10 8 10 -3 19 0 22 9 3 8 0 14 -7 14 -7 0 -12 15 -12 39
-1 34 1 38 16 30 10 -5 29 -9 43 -9 14 0 26 -4 26 -10 0 -5 -9 -10 -19 -10
-10 0 -22 -7 -25 -16 -9 -23 -7 -31 4 -14 8 12 12 12 37 0 37 -19 53 -35 53
-52 0 -8 10 -14 23 -15 12 0 16 1 10 4 -19 7 -16 36 6 55 13 11 18 24 14 39
-4 16 -3 20 6 15 7 -4 11 -17 9 -28 -2 -12 3 -23 10 -25 7 -3 12 4 12 16 0 24
22 28 40 6 10 -12 10 -15 -4 -15 -26 0 -19 -27 9 -34 14 -4 25 -12 26 -19 0
-6 4 -3 9 8 7 17 9 17 9 3 1 -10 6 -18 11 -18 14 0 13 23 -2 38 -13 13 5 42
26 42 6 0 4 -5 -4 -10 -13 -9 -8 -14 12 -11 4 0 6 -11 5 -26 -1 -14 4 -28 11
-30 8 -3 10 2 6 14 -5 17 -4 17 10 -1 20 -24 35 -12 18 14 -19 31 -14 35 13
10 30 -28 31 -36 5 -43 -11 -3 -20 -11 -20 -17 0 -8 8 -10 23 -5 12 3 28 7 34
7 9 1 10 5 2 15 -9 9 -7 14 5 19 9 4 31 -6 53 -23 53 -41 72 -47 94 -27 12 11
24 14 36 9 22 -10 29 -12 46 -14 8 0 19 -12 25 -26 15 -32 16 -99 2 -90 -5 3
-10 1 -10 -4 0 -6 13 -11 29 -11 25 0 29 5 34 32 3 22 0 37 -9 44 -8 6 -14 18
-14 27 0 9 -5 19 -10 22 -6 4 -7 13 -2 22 10 17 3 65 -8 58 -4 -3 -10 6 -12
20 -3 14 -1 25 3 25 5 0 9 -4 9 -9 0 -5 9 -7 19 -4 13 3 23 -2 30 -16 7 -12
18 -21 26 -21 8 0 15 -7 15 -15 0 -8 -4 -15 -10 -15 -5 0 -10 5 -10 11 0 5 -5
7 -10 4 -6 -4 -8 -10 -5 -15 3 -4 -1 -11 -7 -14 -7 -2 4 -3 24 -1 30 3 40 -1
53 -21 18 -27 55 -33 55 -8 0 19 -31 74 -42 74 -4 0 -8 4 -8 10 0 5 18 9 40 8
26 -1 47 5 60 17 11 10 20 15 20 10 0 -16 -45 -46 -62 -42 -10 3 -18 1 -18 -4
0 -5 9 -9 20 -9 13 0 18 -5 14 -15 -4 -11 -2 -13 9 -9 8 3 17 15 20 26 4 12
10 17 17 13 9 -6 9 -10 -1 -16 -9 -6 -2 -9 23 -9 20 0 39 6 41 13 4 9 7 9 14
0 9 -12 83 -16 83 -4 -1 19 -19 31 -36 24 -19 -7 -19 -6 0 12 17 17 17 20 2
30 -21 16 -20 20 3 22 13 1 21 -6 23 -20 2 -14 9 -20 18 -18 17 5 33 4 75 -3
16 -3 32 0 36 6 4 7 9 7 13 -1 4 -6 2 -11 -4 -11 -6 0 -8 -4 -5 -10 3 -5 3
-10 -2 -11 -4 0 -17 -2 -27 -4 -11 -2 -26 4 -33 13 -12 16 -12 15 -6 -2 5 -15
3 -17 -7 -11 -10 6 -12 4 -7 -9 4 -10 7 -20 7 -22 0 -2 7 -4 15 -4 8 0 15 -4
15 -10 0 -5 7 -7 15 -4 8 4 15 11 15 16 0 6 -7 8 -15 4 -16 -6 -21 9 -6 18 12
8 34 -20 27 -33 -7 -11 62 -57 71 -47 10 9 -19 37 -34 32 -8 -3 -13 2 -13 12
0 10 -5 23 -12 30 -8 8 -5 10 16 6 17 -3 33 1 43 11 14 14 14 18 -3 36 -17 19
-17 20 5 42 15 14 22 16 19 7 -3 -8 3 -23 13 -33 17 -18 17 -20 -2 -40 -10
-11 -19 -24 -19 -29 0 -14 37 -68 43 -62 5 6 29 -32 33 -52 6 -34 17 -52 34
-57 11 -3 18 -1 14 4 -3 5 1 9 9 9 8 0 18 -7 21 -16 4 -9 9 -14 13 -11 3 4 0
13 -7 22 -7 8 -10 21 -7 29 3 8 -1 20 -9 26 -8 7 -15 9 -16 4 0 -5 -2 -13 -3
-19 -2 -5 -3 -16 -4 -23 0 -7 -5 -11 -11 -7 -5 3 -7 12 -4 20 3 8 -1 22 -10
30 -21 21 -22 59 -1 51 8 -3 15 -1 15 4 0 6 -4 10 -10 10 -5 0 -10 5 -10 10 0
6 6 10 14 10 10 0 14 10 14 30 -1 23 -7 32 -25 36 -32 8 -29 26 3 20 20 -4 24
-2 20 10 -3 9 -6 20 -6 25 0 5 -15 15 -32 23 -39 18 -104 71 -73 59 11 -4 35
-17 54 -30 19 -13 38 -23 42 -23 5 0 18 -19 30 -43 14 -27 24 -37 27 -28 3 8
0 17 -6 19 -7 2 -12 9 -12 16 0 7 -11 27 -25 46 -14 19 -25 44 -25 56 0 13 -4
26 -10 29 -5 3 -10 11 -10 16 0 19 30 -19 30 -38 1 -19 29 -75 30 -58 0 6 14
-12 30 -40 l30 -50 -27 -11 c-16 -7 -21 -14 -14 -18 6 -4 11 -4 11 -1 0 3 10
-1 21 -9 12 -8 29 -12 38 -8 14 5 14 4 2 -11 -11 -15 -11 -17 2 -17 8 0 20 6
26 14 10 12 8 19 -7 34 -11 11 -26 22 -33 24 -11 4 -11 8 -2 18 10 11 14 10
19 -4 5 -14 9 -14 23 -4 14 11 14 11 4 -2 -10 -13 -8 -18 8 -28 16 -10 19 -20
14 -42 -4 -17 -2 -31 5 -35 8 -5 11 5 9 33 -2 23 1 45 6 49 4 4 5 2 1 -5 -5
-8 4 -17 26 -27 18 -8 26 -15 18 -15 -8 0 0 -7 19 -15 18 -8 37 -13 41 -10 5
3 10 -1 13 -7 2 -7 8 -10 12 -6 4 4 2 14 -5 23 -7 9 -8 15 -2 15 6 0 13 8 15
18 3 12 5 10 6 -7 1 -25 13 -22 17 4 1 9 -8 18 -22 21 -14 4 -23 9 -20 12 3 3
-3 11 -13 18 -10 7 -21 26 -24 41 -5 27 -8 28 -56 25 -34 -3 -51 -8 -51 -17 0
-8 -5 -17 -10 -20 -12 -8 -40 12 -40 28 0 7 4 7 12 -1 16 -16 28 -15 28 3 0 8
5 15 11 15 5 0 7 5 3 12 -5 8 4 9 32 4 80 -14 95 -15 89 -6 -4 6 -2 10 4 10 5
0 13 -4 16 -10 3 -5 1 -10 -4 -10 -16 0 -13 -37 5 -65 10 -15 26 -25 39 -25
35 0 55 -10 55 -29 1 -11 5 -9 14 8 9 16 15 20 21 12 4 -7 0 -20 -9 -30 -16
-17 -15 -18 9 -13 16 3 24 10 23 21 -2 10 3 15 12 13 9 -2 5 6 -10 20 l-25 23
43 3 c28 2 40 7 36 14 -5 7 -1 9 9 5 10 -3 17 -2 17 2 0 14 -27 20 -38 9 -6
-6 -15 -7 -21 -4 -20 13 -11 24 18 22 28 -1 62 -22 59 -34 -3 -10 22 -54 45
-79 19 -21 19 -23 2 -29 -13 -5 -29 5 -61 39 -24 26 -45 43 -47 39 -8 -13 -5
-62 4 -62 5 0 9 -10 9 -21 0 -12 11 -32 26 -45 14 -13 20 -24 14 -24 -6 0 -8
-5 -5 -10 4 -6 11 -8 16 -5 5 4 17 1 26 -5 17 -11 17 -11 1 -6 -10 3 -18 2
-18 -3 0 -14 26 -31 35 -23 5 4 6 2 2 -3 -9 -18 7 -35 34 -35 70 1 86 3 85 14
0 6 4 11 9 11 6 0 9 -4 7 -11 -1 -7 19 -11 58 -11 55 -1 60 1 60 21 0 31 -14
47 -43 50 -15 2 -24 0 -22 -5 3 -4 0 -11 -6 -15 -8 -4 -7 -9 2 -15 8 -5 10 -9
4 -9 -20 0 -38 17 -26 25 9 5 9 10 0 21 -9 11 -8 14 2 14 8 0 2 11 -14 25 -15
14 -27 30 -27 36 0 6 -5 7 -10 4 -6 -3 -10 0 -10 8 0 8 -10 30 -23 48 -13 19
-22 41 -19 49 3 13 2 13 -7 0 -8 -12 -13 -12 -22 -3 -10 10 -9 14 4 19 9 3 22
4 29 2 7 -3 19 2 27 10 13 13 12 17 -10 32 -13 10 -34 26 -45 37 -12 10 -36
29 -55 43 -18 14 -42 35 -53 48 -11 12 -26 20 -33 18 -23 -9 -26 17 -3 36 26
21 4 24 -24 3 -18 -14 -18 -16 -3 -33 18 -20 14 -34 -8 -26 -7 3 -16 1 -19 -4
-3 -5 7 -12 23 -14 21 -3 28 -1 24 9 -3 7 0 13 6 13 13 0 14 -20 2 -39 -5 -8
-14 -10 -21 -6 -8 5 -11 4 -7 -2 4 -6 0 -16 -8 -23 -18 -15 -11 -28 21 -40 24
-9 33 -30 14 -30 -5 0 -10 5 -10 10 0 6 -6 10 -14 10 -8 0 -22 10 -32 23 -17
24 -17 26 -3 -33 2 -8 -2 -14 -8 -13 -19 4 -16 -14 5 -27 15 -10 15 -11 -3 -5
-11 4 -24 7 -30 8 -13 3 -45 42 -45 57 0 6 5 8 10 5 6 -3 10 3 10 15 0 12 4
18 10 15 6 -4 8 -16 5 -28 -5 -19 -4 -19 9 2 12 22 12 28 -2 49 -12 18 -12 26
-3 31 6 4 13 17 16 29 3 19 1 21 -15 12 -24 -13 -30 -13 -30 1 0 13 -20 34
-40 42 -12 4 -11 6 3 6 10 1 25 -6 33 -14 9 -8 25 -15 37 -15 13 0 17 3 10 8
-8 5 -8 15 2 40 15 33 33 39 66 22 25 -14 24 -6 -3 20 -12 11 -17 20 -10 20 6
0 14 -4 17 -10 8 -13 25 -13 25 -1 0 5 -9 13 -20 16 -16 5 -19 12 -14 27 4 14
2 18 -5 14 -6 -4 -11 -2 -11 4 0 6 12 9 26 8 21 -2 27 2 30 19 2 13 0 23 -5
23 -5 0 -12 7 -15 15 -4 11 0 15 11 13 9 -2 18 3 21 11 3 10 0 12 -11 8 -9 -3
-21 0 -27 8 -6 8 -18 11 -26 8 -8 -3 -14 -1 -14 4 0 10 58 37 78 36 6 -1 12 8
12 18 0 21 -25 26 -34 7 -5 -10 -7 -10 -12 0 -3 6 -14 12 -24 12 -9 0 -24 7
-31 17 -13 15 -11 16 22 9 19 -3 50 -1 67 5 25 8 36 8 47 -1 8 -7 12 -16 9
-21 -3 -5 2 -9 10 -9 9 0 16 -4 16 -10 0 -5 7 -10 15 -10 18 0 19 -12 3 -28
-14 -14 2 -30 70 -75 34 -22 52 -27 94 -26 l51 2 -26 22 c-31 24 -34 35 -10
35 14 0 14 3 -5 20 -12 11 -29 20 -38 20 -16 0 -16 -1 -1 -18 10 -10 17 -24
17 -30 0 -24 -26 -11 -80 40 -30 29 -61 51 -67 50 -7 -2 -13 1 -13 6 0 16 30
23 51 12 11 -7 19 -7 19 -1 0 11 -59 26 -67 17 -4 -3 -15 1 -25 10 -14 13 -15
20 -7 31 9 10 15 10 25 2 8 -6 21 -9 29 -5 8 3 24 -4 35 -16 11 -12 22 -19 25
-17 7 8 -64 89 -77 89 -6 0 -3 -9 7 -20 10 -11 13 -20 7 -20 -6 0 -13 4 -17
10 -3 6 -15 6 -29 0 -21 -7 -25 -5 -28 15 -3 13 0 29 6 36 8 9 3 10 -21 6 -29
-6 -33 -4 -43 28 -6 19 -9 44 -5 55 6 18 4 19 -20 10 -38 -14 -40 -14 -59 28
-24 50 -29 92 -11 92 9 0 12 -6 9 -17 -5 -17 -5 -17 8 -1 13 15 17 12 41 -27
20 -31 33 -42 46 -38 14 3 21 -3 29 -25 8 -25 14 -29 35 -25 24 5 26 2 29 -33
3 -36 6 -39 35 -42 30 -3 31 -1 30 30 -2 31 -16 44 -62 61 -15 6 26 47 47 47
10 0 18 -7 18 -15 0 -23 41 -75 59 -75 13 1 13 2 -1 11 -16 9 -16 12 -3 33 8
12 13 25 10 28 -13 13 48 18 62 6 9 -7 24 -12 34 -10 9 2 20 -2 24 -8 3 -5 27
-10 52 -10 l46 0 -44 29 c-24 16 -57 43 -72 59 -26 27 -27 31 -13 45 23 23 20
27 -16 16 -27 -7 -35 -6 -46 8 -7 10 -23 17 -35 15 -22 -3 -22 -2 -2 13 11 9
34 15 51 13 18 -1 39 4 48 11 13 11 19 11 31 1 12 -10 15 -10 15 2 0 10 17 20
45 28 25 7 45 17 45 21 0 5 12 9 26 9 17 0 23 -4 18 -12 -4 -7 1 -6 12 3 10 9
35 20 54 24 88 17 113 26 101 38 -6 6 -11 19 -11 29 0 20 5 20 102 2 15 -3 29
0 34 7 4 8 3 9 -4 5 -7 -4 -12 -3 -12 2 0 12 47 25 60 17 6 -4 10 -2 10 3 0
12 -29 24 -40 17 -4 -3 -11 2 -14 11 -6 16 29 84 43 84 4 0 7 10 8 21 1 12 8
29 16 38 24 27 48 81 41 92 -7 12 -45 -47 -109 -168 -10 -18 -25 -33 -35 -33
-10 0 -23 -7 -30 -15 -7 -9 -29 -15 -53 -15 -64 0 -158 -22 -153 -36 3 -7 -7
-14 -24 -16 -16 -3 -31 0 -33 5 -1 5 -75 -7 -162 -27 -88 -20 -434 -99 -770
-175 -335 -76 -611 -138 -613 -136 -2 2 1 11 7 22 15 29 91 227 91 238 0 6 -3
5 -8 -1 -4 -6 -17 -14 -28 -18 -23 -7 -23 -7 -81 319 -16 96 -19 101 -59 138
-23 21 -45 39 -47 39 -3 0 -27 20 -54 45 -26 25 -113 94 -193 154 -180 134
-163 122 -186 136 -10 6 -18 16 -17 22 4 15 4 15 -52 -13 l-49 -23 -37 51 -37
51 54 3 c71 4 70 22 -1 22 -40 0 -55 4 -53 13 2 6 -2 12 -7 12 -6 0 -9 -4 -7
-9 2 -5 -16 8 -40 29 -55 49 -66 60 -51 51 6 -3 13 -3 16 1 2 5 2 3 1 -4 -3
-14 24 -26 38 -16 7 3 8 1 4 -6 -4 -6 -2 -18 4 -26 18 -22 38 4 38 48 0 40
-15 58 -29 36 -6 -10 -11 -6 -20 19 -6 17 -13 32 -16 32 -8 0 -42 -45 -43 -56
0 -23 -29 -36 -57 -28 -27 8 -27 8 12 14 l40 7 -52 2 -52 1 -11 43 c-17 65
-19 69 -32 61 -9 -6 -9 -9 0 -12 19 -6 14 -50 -8 -72 -21 -21 -50 -27 -50 -9
0 5 5 7 10 4 13 -8 13 1 -1 27 -8 15 -8 23 1 32 9 8 11 7 9 -4 -3 -20 11 -50
23 -50 7 0 8 17 5 45 -7 51 -8 50 66 60 43 6 49 4 54 -14 3 -14 13 -21 29 -21
12 0 25 -4 28 -8 3 -5 30 -7 61 -4 45 4 60 1 77 -14 20 -18 21 -18 15 -1 -4
10 -7 24 -7 32 0 17 -46 25 -61 11 -8 -8 -10 -7 -7 4 3 9 20 16 46 18 23 2 42
8 42 13 0 5 11 14 25 19 28 10 33 28 11 36 -8 3 -17 15 -20 27 -3 12 -22 33
-41 46 -41 27 -63 60 -47 70 16 10 18 46 2 62 -12 14 -16 14 -31 0 -13 -11
-15 -19 -8 -33 19 -35 -8 -18 -55 35 -26 28 -57 62 -69 75 -12 12 -16 22 -9
22 6 0 12 -4 12 -10 0 -5 5 -10 10 -10 6 0 10 7 10 15 0 8 -5 15 -11 15 -5 0
-7 5 -3 11 4 7 21 9 41 6 29 -5 36 -3 40 14 3 10 16 22 30 25 19 5 23 12 21
33 -2 20 -11 28 -35 36 l-33 9 -2 106 c-2 58 -3 130 -3 162 0 31 -3 54 -7 51
-5 -2 -8 2 -8 10 0 14 -50 31 -60 20 -3 -3 -4 -83 -4 -178 1 -142 -1 -175 -13
-179 -8 -3 -11 -1 -8 4 14 22 -9 52 -56 74 -48 24 -63 19 -34 -10 11 -11 13
-26 9 -53 -4 -24 -2 -41 5 -46 8 -5 10 1 5 19 -5 20 -2 26 11 26 14 0 16 -6
10 -27 -8 -32 -22 -44 -49 -41 -15 2 -24 18 -37 71 -14 55 -14 66 -3 56 11 -9
14 -8 14 4 0 9 -8 18 -17 21 -13 4 -27 39 -51 123 -33 122 -40 177 -21 188 6
4 8 22 4 45 -6 35 -5 39 14 37 25 -2 56 -32 66 -64 5 -18 2 -23 -12 -23 -15 0
-16 -2 -3 -10 19 -12 67 -13 74 -1 4 5 -3 7 -14 4 -11 -3 -20 0 -20 6 0 14
161 15 249 1 56 -10 65 -9 76 7 12 17 14 16 26 -10 9 -20 19 -27 33 -25 18 3
21 9 19 41 l-2 37 52 0 c29 0 48 -4 42 -8 -14 -10 -85 -147 -85 -163 0 -8 8 0
19 16 10 17 30 41 44 54 14 13 23 29 20 37 -4 10 3 14 21 14 18 0 26 -5 27
-17 0 -15 2 -15 8 2 5 11 7 37 6 58 -2 37 -2 37 35 37 35 0 38 2 44 35 4 20 4
40 1 45 -3 5 1 20 10 34 19 29 13 34 -49 42 -59 8 -61 -9 -3 -23 l42 -11 -64
0 c-37 1 -87 9 -117 19 -30 11 -62 19 -73 19 -11 0 -23 5 -26 10 -3 6 2 10 11
10 46 0 -4 9 -136 25 -80 10 -154 24 -165 31 -13 9 -49 14 -105 13 -80 0 -88
-2 -135 -35z m-127 -573 c-3 -214 -7 -281 -18 -298 -11 -16 -17 -19 -27 -11
-14 11 -17 3 -14 -37 2 -19 1 -19 -12 -3 -8 10 -17 14 -22 10 -4 -4 -4 130 0
298 7 333 7 331 66 322 l31 -5 -4 -276z m-102 27 c-5 -128 -7 -261 -6 -296 1
-43 -3 -67 -13 -77 -13 -13 -16 -12 -22 3 -6 15 -8 15 -15 -3 -5 -15 -9 -7
-15 33 -7 50 -2 197 12 407 7 90 8 95 14 50 5 -46 6 -44 7 26 2 79 5 89 30 89
13 0 14 -30 8 -232z m10 -1113 c24 -4 25 -3 9 4 l-20 10 20 0 c32 1 65 -10 59
-20 -3 -5 2 -9 10 -9 9 0 16 -8 16 -17 0 -12 -3 -14 -8 -7 -9 14 -52 0 -52
-16 0 -6 5 -8 11 -4 6 3 15 1 19 -5 6 -10 131 -38 197 -43 12 -1 19 -6 16 -11
-2 -4 18 -5 46 -1 62 8 105 -1 97 -21 -3 -8 -1 -15 4 -15 6 0 10 7 10 15 0 8
5 15 10 15 7 0 7 -7 0 -20 -10 -19 -9 -20 32 -15 33 4 38 3 23 -5 -15 -7 -7
-8 30 -4 28 3 59 8 70 10 16 4 15 2 -5 -10 -16 -10 -20 -16 -10 -17 8 0 4 -4
-10 -8 -14 -5 -33 -4 -43 1 -22 11 -35 2 -20 -13 6 -6 9 -17 7 -24 -6 -15 45
-30 58 -17 6 6 25 4 51 -6 31 -13 41 -14 45 -4 3 9 7 10 17 2 9 -7 11 -24 8
-50 -4 -26 -2 -40 6 -40 6 0 11 8 11 18 0 26 11 34 27 21 7 -6 13 -8 13 -4 0
4 7 2 15 -5 10 -8 15 -30 15 -61 0 -42 -3 -49 -20 -49 -11 0 -20 -4 -20 -9 0
-4 11 -6 24 -4 19 4 25 0 28 -18 4 -31 24 -35 31 -7 5 19 8 20 19 9 10 -11 10
-14 1 -18 -15 -6 -17 -33 -3 -33 6 0 10 5 10 10 0 6 9 10 20 10 22 0 27 -15 8
-23 -8 -3 -7 -6 4 -6 9 -1 20 -6 24 -13 5 -8 -4 -10 -33 -6 -55 8 -62 1 -53
-47 4 -22 8 -34 9 -27 1 17 43 12 49 -5 2 -8 -6 -13 -22 -13 -35 0 -43 -20
-17 -41 27 -22 17 -28 -42 -25 -49 3 -55 -2 -35 -22 9 -9 9 -12 0 -12 -7 0
-12 5 -12 11 0 6 -7 8 -16 5 -8 -3 -23 -2 -33 4 -22 11 -63 2 -58 -14 2 -6 17
-10 32 -8 16 2 40 0 54 -3 20 -5 22 -8 10 -16 -10 -6 -11 -9 -1 -9 7 0 12 -8
11 -17 -4 -41 0 -45 34 -38 17 3 55 8 82 10 l50 3 -49 -7 c-29 -4 -54 -15 -62
-26 -8 -10 -14 -13 -14 -7 0 7 -4 12 -9 12 -5 0 -7 -9 -4 -20 8 -31 -4 -23
-22 14 -15 31 -18 33 -40 22 -13 -6 -20 -13 -15 -16 4 -3 2 -11 -6 -17 -8 -8
-15 -9 -19 -3 -3 6 -2 10 3 10 6 0 8 9 5 19 -6 23 -43 60 -43 43 0 -7 5 -12
10 -12 6 0 10 -4 10 -10 0 -5 -7 -7 -15 -4 -17 7 -21 -3 -28 -64 -3 -24 -1
-40 4 -36 5 3 9 0 9 -5 0 -18 -19 -12 -30 8 -12 24 -13 42 -1 22 6 -9 9 2 8
33 0 32 -4 43 -11 36 -5 -5 -14 -10 -20 -10 -5 0 -3 6 6 13 8 6 18 19 21 28 4
12 -1 14 -24 11 -24 -4 -27 -7 -18 -18 10 -12 9 -13 -5 -8 -21 8 -20 20 2 33
9 6 13 10 7 11 -17 0 -32 -14 -41 -40 -9 -24 -11 -25 -44 -13 -19 6 -28 12
-19 12 11 1 19 14 24 39 10 49 14 252 5 247 -4 -3 -10 4 -13 15 -3 11 -1 20 4
20 5 0 9 -4 9 -10 0 -5 4 -10 9 -10 5 0 8 8 7 17 -1 12 9 20 29 24 l30 7 -32
1 c-18 0 -33 -4 -33 -10 0 -6 -6 -9 -12 -6 -7 2 -18 -3 -25 -12 -8 -11 -12
-12 -13 -3 0 6 -6 12 -14 12 -7 0 -39 11 -70 25 l-56 25 -4 -23 c-14 -66 -26
-219 -22 -267 2 -30 5 -60 5 -67 1 -7 7 -10 14 -7 8 3 20 -2 27 -11 7 -8 19
-15 27 -15 8 0 11 -5 8 -11 -4 -6 -14 -8 -22 -5 -11 5 -13 2 -9 -9 3 -9 2 -13
-4 -10 -6 3 -10 16 -11 28 0 20 -1 21 -8 3 -10 -25 -3 -62 15 -77 8 -6 14 -17
14 -23 -1 -16 -40 33 -40 50 0 8 -5 14 -12 14 -9 0 -9 3 0 12 14 14 16 38 3
38 -5 0 -11 -9 -13 -20 -4 -30 -23 -20 -23 12 0 20 -3 24 -12 16 -10 -8 -13
-6 -13 5 0 8 6 17 13 20 9 4 9 7 -1 18 -11 12 -16 11 -28 -5 -17 -23 -19 -40
-3 -30 6 3 4 -7 -5 -24 -8 -16 -12 -33 -8 -37 4 -5 2 -5 -5 -1 -9 5 -9 14 -3
31 7 20 6 25 -11 30 -14 5 -18 12 -14 25 3 10 1 21 -5 25 -5 3 -10 3 -11 -2
-7 -59 -7 -86 1 -73 8 12 10 13 10 1 0 -8 8 -23 17 -33 15 -17 15 -20 0 -35
-15 -15 -19 -14 -52 11 -19 15 -33 32 -30 37 4 5 -1 9 -10 9 -28 0 -55 19 -49
35 8 20 26 19 22 -1 -2 -10 2 -19 9 -21 7 -3 11 4 10 16 -1 12 -5 21 -10 21
-4 0 -5 5 -1 12 4 7 3 8 -4 4 -7 -4 -12 -2 -12 3 0 16 -19 13 -36 -4 -9 -8
-12 -15 -7 -15 5 0 14 5 21 12 14 14 16 0 3 -21 -7 -11 -13 -10 -35 4 -29 20
-31 25 -13 44 10 11 10 13 0 7 -9 -5 -13 0 -13 13 0 12 -4 21 -9 21 -14 0 -20
-37 -7 -51 8 -9 6 -9 -7 0 -11 9 -15 21 -11 34 4 13 2 17 -5 13 -6 -4 -11 -2
-11 4 0 6 -4 9 -8 6 -5 -3 -15 7 -22 22 -7 15 -16 35 -21 44 -5 10 -9 26 -10
35 0 14 -2 13 -9 -4 -5 -13 -11 -23 -12 -23 -2 0 -2 43 0 95 3 93 3 95 -22
107 l-26 11 0 144 c0 94 4 142 10 138 6 -3 10 3 10 14 0 12 5 21 10 21 6 0 10
5 10 11 0 6 -7 9 -15 5 -8 -3 -15 -3 -15 0 0 12 127 64 146 60 12 -3 34 -8 50
-11z m2110 -1057 c4 -7 3 -8 -5 -4 -6 4 0 -10 15 -31 27 -41 55 -57 66 -39 4
6 10 7 14 3 4 -3 1 -14 -7 -24 -8 -9 -9 -14 -2 -10 6 4 14 3 18 -3 3 -5 18
-11 33 -11 22 -1 23 -3 6 -6 -19 -4 -21 -8 -14 -38 7 -32 6 -35 -23 -45 -38
-13 -48 -4 -50 44 -2 36 -2 37 -38 31 -39 -7 -47 3 -75 92 -12 40 -12 42 9 46
40 8 46 7 53 -5z m-381 -217 c12 -42 22 -58 31 -54 8 3 12 9 9 13 -6 10 30 20
43 11 5 -3 16 -25 23 -49 11 -37 10 -45 -2 -53 -20 -13 -29 -11 -29 6 0 8 -4
15 -9 15 -5 0 -7 -9 -4 -20 3 -11 1 -20 -5 -20 -12 0 -24 31 -20 51 3 15 -32
18 -68 6 -20 -7 -24 -1 -47 67 -28 82 -27 82 34 85 23 1 28 -5 44 -58z m-601
-81 c8 -25 17 -59 21 -77 6 -30 4 -32 -32 -42 -53 -15 -63 -14 -63 7 0 10 -9
44 -20 76 -12 32 -20 59 -18 60 2 1 17 7 33 12 52 19 64 13 79 -36z"/>
<path d="M2239 2014 c0 -2 0 -35 0 -74 0 -137 -5 -125 54 -150 55 -24 97 -34
97 -22 0 4 4 43 10 87 13 106 4 137 -41 146 -53 10 -119 18 -120 13z"/>
<path d="M3235 3551 l-70 -6 0 -32 c0 -18 0 -33 1 -33 1 0 15 7 30 15 32 16
105 32 180 38 46 3 51 1 62 -22 19 -39 15 -42 -35 -39 l-48 3 -3 -135 c-4
-181 -3 -182 56 -178 l47 3 3 60 c1 33 8 70 14 83 9 17 9 25 0 34 -7 7 -12 46
-12 99 0 48 -3 94 -6 103 -7 17 -69 19 -219 7z"/>
<path d="M5737 3177 c-4 -11 -4 -23 -1 -29 3 -5 0 -9 -7 -7 -24 3 -43 -1 -36
-8 4 -3 -1 -11 -10 -18 -20 -15 -92 -3 -104 16 -7 12 -9 12 -9 0 0 -11 -4 -9
-14 4 -13 19 -15 17 -21 -18 -4 -20 -10 -37 -14 -38 -3 0 -18 -2 -33 -4 -21
-3 -26 0 -21 13 3 11 -3 8 -15 -7 -11 -14 -24 -21 -31 -16 -9 5 -7 11 6 21 21
16 5 18 -31 4 -22 -8 -26 -7 -27 8 0 10 -3 12 -6 5 -6 -15 -69 -17 -78 -3 -10
16 -35 12 -29 -4 3 -8 -3 -17 -14 -20 -11 -4 -22 -16 -25 -26 -3 -13 -13 -20
-29 -19 -12 0 -17 3 -10 6 14 6 16 43 2 43 -5 0 -10 -4 -10 -10 0 -5 -7 -10
-15 -10 -8 0 -15 -4 -15 -9 0 -5 -11 -8 -24 -8 -18 0 -23 4 -18 16 5 14 3 14
-12 -1 -9 -10 -14 -22 -11 -28 12 -20 -25 -10 -46 13 -21 22 -21 22 -15 1 5
-17 1 -23 -16 -27 -13 -4 -26 -1 -30 6 -4 7 -8 8 -8 2 0 -5 4 -16 9 -24 9 -14
20 -14 146 8 33 6 79 8 103 5 27 -4 47 -2 57 6 9 8 77 16 182 21 241 13 251
14 256 47 l4 27 2 -29 c1 -28 2 -29 47 -22 26 3 53 6 60 6 10 0 14 14 14 45 0
33 -4 45 -15 45 -8 0 -15 7 -15 15 0 8 -4 15 -10 15 -5 0 -7 -6 -4 -13 3 -8
-5 -13 -20 -15 -16 -1 -26 4 -28 16 -3 16 -4 16 -11 -1z"/>
<path d="M3107 2943 c5 -39 4 -43 -16 -43 -12 0 -21 -6 -21 -15 0 -8 5 -15 10
-15 6 0 10 -14 10 -31 0 -17 4 -28 10 -24 6 3 10 2 10 -2 0 -5 -9 -14 -21 -21
-20 -13 -21 -30 -2 -96 3 -12 1 -16 -6 -12 -15 9 -15 -80 0 -123 8 -23 17 -31
34 -31 53 0 36 -59 -18 -61 l-32 -1 30 -7 c17 -3 30 -9 30 -13 0 -4 -15 -22
-34 -42 l-33 -34 28 -54 c25 -46 34 -53 62 -56 24 -2 36 -10 44 -28 12 -25 21
-27 81 -18 32 6 37 10 36 33 -1 15 -3 19 -6 10 -3 -14 -42 -29 -75 -29 -6 0
-7 26 -3 65 l7 65 -46 44 c-25 25 -46 47 -46 50 0 13 89 5 104 -9 21 -22 27
-19 22 13 -2 15 -5 35 -5 45 -1 10 -9 17 -21 17 -11 0 -20 5 -20 10 0 6 -7 10
-15 10 -8 0 -15 5 -15 11 0 5 -4 8 -9 5 -17 -11 -41 6 -41 29 0 21 3 22 46 17
l47 -5 -7 29 c-4 16 -8 44 -11 62 -5 44 -10 48 -45 35 -17 -6 -32 -8 -34 -4
-3 4 -8 58 -12 121 -3 63 -10 122 -15 130 -4 8 -5 -4 -2 -27z"/>
<path d="M3402 2901 c-8 -4 -16 -27 -19 -50 -5 -33 -10 -41 -27 -42 -12 0 0
-7 27 -16 46 -16 65 -43 29 -43 -25 0 -44 -23 -76 -94 -31 -69 -30 -66 -8 -66
10 0 30 21 50 55 42 69 58 85 88 85 13 0 24 5 24 10 0 6 -5 10 -11 10 -6 0 -9
9 -6 20 4 17 0 20 -23 20 -31 0 -38 17 -31 78 3 26 8 32 26 32 14 0 25 -7 28
-17 4 -14 5 -12 6 5 1 18 -4 22 -31 22 -18 0 -39 -4 -46 -9z"/>
<path d="M3978 2578 c-35 -54 -26 -108 18 -108 21 0 17 -15 -7 -32 l-22 -14
24 -37 c13 -20 34 -42 47 -48 26 -15 20 -22 -30 -39 -21 -6 -40 -15 -43 -19
-2 -5 3 -27 12 -50 l16 -41 61 1 c34 1 86 4 116 9 51 7 52 7 15 9 -36 1 -43 6
-77 55 -40 57 -38 66 18 66 20 0 24 5 24 29 0 16 2 35 5 43 2 7 -17 28 -45 48
-28 19 -50 38 -50 43 0 4 13 7 29 7 17 0 33 5 36 10 3 6 1 10 -5 10 -6 0 -8 5
-5 10 3 6 -15 20 -42 32 l-48 21 30 7 c27 7 25 8 -16 9 -38 1 -49 -3 -61 -21z"/>
<path d="M4218 2555 l-28 -46 26 -9 c22 -9 24 -13 14 -25 -7 -9 -11 -17 -9
-19 2 -2 24 -17 48 -34 l43 -31 -36 -18 c-21 -10 -36 -24 -36 -35 0 -17 52
-85 78 -101 7 -5 10 -12 8 -16 -3 -4 27 -6 67 -4 80 5 97 16 97 66 0 26 -3 29
-25 23 -21 -5 -34 2 -75 40 -28 26 -50 51 -50 55 0 5 14 9 31 9 29 0 30 2 27
38 -3 33 -8 40 -51 63 -46 25 -52 39 -15 39 10 0 18 4 18 9 0 15 -24 29 -65
35 -39 7 -41 6 -67 -39z"/>
<path d="M3743 2578 c-6 -7 -19 -36 -28 -65 l-17 -52 27 -25 26 -24 -30 -18
c-40 -24 -42 -31 -18 -85 23 -50 62 -79 108 -79 17 0 32 -6 35 -15 4 -10 20
-15 44 -15 35 0 38 2 44 38 3 20 6 52 6 71 0 32 -1 33 -33 27 -29 -5 -37 -1
-81 43 l-49 50 27 7 c14 3 36 4 47 1 18 -5 20 -2 13 26 -9 42 -7 40 -53 63
-50 24 -52 34 -5 34 24 0 34 4 32 13 -6 17 -82 21 -95 5z"/>
<path d="M3455 2531 c-14 -28 -25 -56 -25 -62 0 -7 -7 -20 -15 -29 -14 -16
-14 -21 6 -54 24 -41 24 -40 -23 -66 -39 -21 -41 -49 -8 -112 36 -69 41 -72
132 -65 45 4 82 8 83 9 1 2 5 22 9 46 l6 42 -43 0 c-39 0 -45 4 -85 54 -23 30
-42 57 -42 60 0 14 85 5 102 -11 17 -15 18 -15 19 13 0 16 3 41 5 56 4 22 -2
30 -46 57 -28 17 -48 36 -45 41 8 13 51 13 74 0 18 -9 20 1 12 41 0 4 -13 10
-28 13 -16 4 -36 9 -45 12 -13 4 -24 -8 -43 -45z"/>
<path d="M4527 2443 c-26 -13 -47 -29 -47 -36 0 -17 69 -91 98 -106 14 -8 39
-10 63 -6 31 5 40 3 45 -9 12 -31 34 -18 34 22 0 20 3 48 7 61 6 22 4 23 -22
19 -21 -5 -38 3 -79 37 l-52 42 -47 -24z"/>
<path d="M4818 2309 c-26 -30 -46 -54 -45 -55 1 -1 69 4 150 12 144 14 149 13
188 -7 23 -11 43 -19 45 -16 7 7 -220 104 -264 113 -25 5 -34 -1 -74 -47z"/>
<path d="M5650 2000 c0 -6 -11 -10 -25 -10 -28 0 -31 -16 -12 -65 10 -24 18
-30 42 -30 23 -1 31 -6 33 -23 2 -12 8 -22 13 -22 6 0 7 5 4 10 -3 6 -1 10 4
10 6 0 11 -4 11 -10 0 -5 6 -7 13 -4 7 2 17 -6 23 -18 6 -13 9 -17 7 -10 -1 6
6 12 17 12 25 0 32 13 24 44 -4 16 -11 23 -20 19 -10 -4 -14 3 -14 21 0 14 -5
26 -11 26 -5 0 -7 5 -4 11 4 5 -7 15 -24 22 -17 6 -31 14 -31 17 0 3 -11 7
-25 8 -14 1 -25 -3 -25 -8z"/>
<path d="M4719 1903 c-2 -20 2 -101 8 -128 8 -46 -8 -22 -37 53 -25 63 -28 67
-55 64 -17 -2 -31 -5 -33 -7 -3 -2 42 -206 54 -247 6 -20 44 -25 44 -5 0 6 -7
39 -14 72 -8 33 -13 61 -11 63 1 2 15 -29 30 -67 16 -39 34 -71 42 -71 15 0
16 3 14 90 l0 65 18 -67 c20 -77 22 -80 41 -68 14 9 15 4 -27 193 -14 64 -16
67 -44 67 -16 0 -29 -3 -30 -7z"/>
<path d="M4537 1883 l-27 -4 5 -82 6 -82 -32 78 c-26 62 -36 77 -53 77 -47 0
-49 -10 -26 -116 39 -182 39 -181 65 -177 23 5 23 5 9 66 -20 86 -12 93 16 14
17 -49 28 -67 42 -67 16 0 18 10 19 78 l1 77 15 -73 c14 -67 17 -72 37 -66 11
4 22 7 23 8 5 4 -61 276 -66 275 -3 -1 -18 -4 -34 -6z"/>
<path d="M4266 1842 c-3 -5 -8 -75 -12 -155 -7 -140 -6 -147 12 -147 37 0 43
14 46 100 l3 85 35 -83 c32 -78 36 -83 60 -77 14 4 26 8 28 10 2 2 -25 64 -59
139 -53 118 -65 136 -85 136 -12 0 -25 -4 -28 -8z"/>
<path d="M5269 1023 c-1 -4 -1 -16 0 -25 1 -10 -3 -18 -10 -18 -7 0 1 -11 17
-25 16 -14 24 -25 18 -25 -6 0 -10 -10 -8 -22 1 -13 3 -26 3 -31 1 -4 17 -15
36 -24 19 -9 35 -22 35 -29 0 -21 29 -39 42 -26 9 9 9 12 -1 12 -7 0 -9 4 -6
10 3 6 -1 7 -9 4 -9 -3 -16 -2 -16 3 0 5 17 14 38 19 39 10 48 27 16 33 -10 2
-21 6 -24 10 -3 4 -24 13 -47 19 -24 7 -43 17 -43 22 0 13 27 13 32 1 3 -10
36 -14 78 -11 l25 1 -23 9 c-12 5 -41 26 -63 47 -23 21 -46 38 -53 38 -6 0
-17 4 -23 8 -7 5 -14 5 -14 0z"/>
<path d="M5568 788 c-3 -30 2 -37 52 -71 30 -21 60 -44 65 -51 15 -19 45 -28
103 -33 65 -5 68 9 7 36 -25 11 -48 27 -51 35 -3 9 -9 14 -14 11 -4 -2 -37 20
-73 50 -37 30 -71 55 -76 55 -5 0 -11 -15 -13 -32z"/>
<path d="M4810 730 c-12 -8 -11 -10 8 -10 16 0 22 -6 22 -22 0 -17 -3 -19 -12
-10 -9 9 -14 7 -24 -6 -11 -15 -4 -23 53 -65 37 -26 73 -45 82 -43 9 3 31 7
49 11 19 4 32 13 32 21 0 9 -4 13 -9 10 -5 -4 -11 -3 -13 1 -1 5 -23 21 -48
38 -25 16 -52 37 -60 46 -13 14 -53 39 -62 39 -2 0 -10 -5 -18 -10z"/>
<path d="M336 644 c-9 -8 -16 -19 -16 -23 0 -4 -16 -5 -35 -3 -27 3 -35 1 -35
-12 0 -9 -5 -16 -11 -16 -8 0 -7 -6 2 -17 10 -11 10 -14 2 -9 -7 4 -14 4 -14
-1 -6 -34 -5 -52 2 -48 11 7 15 -13 11 -52 -3 -20 -11 -37 -21 -41 -9 -3 -19
-10 -22 -15 -3 -5 -9 -1 -12 8 -4 9 -3 13 3 10 6 -3 10 2 10 12 0 15 2 16 10
3 5 -8 10 -10 10 -5 0 6 -5 17 -10 25 -9 13 -11 13 -21 0 -8 -12 -9 -11 -5 5
3 11 1 27 -4 35 -8 12 -10 9 -10 -12 0 -15 -5 -30 -10 -33 -6 -3 -8 -17 -6
-31 3 -13 0 -24 -5 -24 -5 0 -9 6 -9 13 -1 8 -4 7 -13 -3 -13 -16 -57 -22 -57
-8 0 5 -5 6 -11 2 -6 -3 -9 -17 -6 -30 2 -13 1 -24 -3 -24 -3 0 -12 -16 -20
-35 -8 -19 -17 -35 -20 -35 -4 0 -7 -7 -7 -15 0 -22 16 -7 32 31 8 19 21 34
29 34 8 0 25 10 37 23 12 12 19 15 15 7 -4 -8 2 -4 13 10 18 22 26 21 22 -4
-1 -4 9 -6 21 -3 13 3 51 11 85 18 58 11 64 14 75 45 8 23 15 30 20 21 5 -8 8
-7 8 5 0 9 -8 19 -17 21 -15 4 -15 6 5 12 12 4 22 15 22 26 0 26 -16 24 -23
-2 -4 -16 -11 -20 -26 -16 -17 4 -21 0 -21 -20 0 -13 4 -21 10 -18 12 8 13 -5
1 -24 -5 -7 -13 -11 -19 -7 -5 3 -12 0 -15 -8 -3 -7 -16 -16 -29 -19 -22 -6
-22 -5 -4 8 15 11 19 27 19 71 0 39 3 51 9 40 14 -24 31 -20 18 5 -7 11 -9 27
-6 34 3 8 1 17 -4 20 -13 8 -13 25 -1 25 15 0 41 -59 30 -66 -6 -3 -8 -11 -6
-17 4 -12 37 -19 37 -7 0 5 3 17 6 27 5 16 4 16 -12 -2 -14 -17 -16 -17 -11
-2 4 10 2 26 -5 36 -9 14 -7 24 8 44 10 15 25 27 32 27 14 0 17 20 3 20 -5 0
-17 -7 -25 -16z"/>
<path d="M5190 631 c0 -17 -4 -32 -9 -36 -14 -8 22 -65 63 -99 31 -25 33 -30
20 -43 -13 -14 -17 -13 -29 3 -9 12 -14 14 -15 6 0 -7 -4 -10 -10 -7 -5 3 -10
-1 -10 -9 0 -9 -4 -16 -9 -16 -5 0 -7 -9 -4 -20 6 -24 -14 -26 -69 -6 -30 11
-38 11 -42 0 -3 -7 2 -18 10 -24 11 -10 14 -9 14 4 0 10 5 14 10 11 6 -4 8
-15 5 -25 -4 -12 0 -20 12 -24 21 -7 26 -73 4 -68 -8 1 -6 -7 6 -22 10 -14 24
-26 31 -26 6 0 12 -4 12 -9 0 -5 18 -23 39 -40 36 -29 43 -31 80 -22 31 7 43
5 52 -5 6 -8 16 -14 21 -14 6 0 6 6 -1 14 -6 7 -9 20 -6 28 4 11 -14 27 -62
56 -59 34 -173 131 -173 146 0 16 82 -13 125 -43 42 -31 57 -36 100 -34 27 0
52 -2 55 -6 14 -19 92 -73 97 -67 4 4 -11 21 -32 39 -22 17 -47 39 -55 47 -9
9 -37 31 -63 49 -45 33 -58 51 -37 51 6 0 3 11 -6 25 -19 29 -28 85 -14 85 14
0 25 -23 12 -28 -12 -4 -5 -32 8 -32 5 0 21 5 36 10 l27 11 -39 34 c-22 19
-45 32 -52 30 -19 -7 -90 76 -84 98 1 4 -2 7 -8 7 -5 0 -10 -13 -10 -29z"/>
<path d="M4782 594 c2 -10 -4 -19 -12 -21 -12 -4 -12 -3 -1 5 9 7 5 9 -15 9
-16 0 -24 -2 -17 -4 7 -2 9 -11 6 -19 -3 -8 0 -14 7 -14 6 0 8 -5 5 -10 -7
-12 29 -62 39 -53 3 3 6 2 6 -3 0 -21 81 -47 127 -40 25 3 49 9 54 12 12 7
-19 44 -36 44 -7 0 -15 7 -18 15 -4 8 -21 21 -39 29 -18 8 -46 26 -62 40 -33
30 -48 33 -44 10z"/>
<path d="M5550 250 c-8 -5 -7 -9 4 -13 9 -4 16 -14 16 -24 0 -15 -2 -16 -10
-3 -9 13 -10 13 -11 0 -5 -68 8 -93 55 -104 22 -5 27 -4 23 7 -3 7 1 14 9 14
9 0 12 -8 8 -24 -5 -18 -1 -25 17 -32 13 -5 33 -18 45 -29 25 -24 72 -35 108
-26 27 6 27 6 7 25 -11 11 -25 19 -30 19 -6 0 -13 11 -17 24 -4 17 -14 26 -32
28 -14 2 -28 9 -30 17 -3 9 0 12 9 9 53 -22 55 -22 30 2 -15 14 -37 24 -56 24
-24 1 -31 5 -27 15 4 11 1 13 -12 8 -14 -5 -17 -3 -12 8 4 10 -1 15 -15 15
-11 0 -18 3 -15 8 7 12 -50 41 -64 32z"/>
<path d="M3799 190 c-9 -5 -27 -7 -40 -5 -25 5 -39 -9 -39 -38 0 -23 29 -34
41 -16 5 9 9 10 9 2 0 -16 -28 -43 -45 -43 -7 0 -20 -11 -29 -25 -14 -21 -19
-23 -35 -13 -10 6 -27 25 -37 42 -10 17 -19 25 -22 18 -2 -7 6 -22 17 -35 12
-12 27 -30 34 -39 12 -16 49 -22 115 -19 25 1 32 5 32 20 0 24 -20 38 -30 21
-5 -7 -7 -2 -7 14 0 31 14 44 23 22 3 -9 10 -13 15 -10 5 3 9 -1 9 -9 0 -16
50 -11 61 6 4 5 10 -1 14 -14 7 -22 28 -49 39 -49 2 0 7 8 9 17 4 16 5 16 6 1
1 -19 26 -29 56 -23 11 2 25 4 31 4 15 1 13 33 -3 49 -11 11 -13 10 -14 -10
-1 -20 -2 -21 -6 -3 -3 11 -9 24 -14 30 -12 12 -11 28 1 20 6 -3 10 1 10 10 0
11 -5 15 -15 11 -8 -3 -15 -1 -15 5 0 16 -36 59 -44 52 -10 -10 -7 -25 4 -18
6 3 10 2 10 -4 0 -12 -28 -27 -50 -26 -21 1 -68 34 -72 50 -2 10 -8 11 -19 5z"/>
<path d="M5090 181 c0 -12 6 -21 14 -21 8 0 16 -16 19 -42 5 -34 2 -46 -14
-61 -31 -29 -22 -52 16 -36 11 4 14 8 8 8 -13 1 -19 31 -7 31 4 0 16 -10 28
-22 19 -21 29 -23 96 -20 68 4 73 5 55 18 -42 31 -79 59 -89 70 -6 5 -19 13
-28 17 -10 3 -18 13 -18 21 0 16 -27 30 -54 27 -10 -2 -15 2 -12 7 4 6 2 13
-4 17 -5 3 -10 -3 -10 -14z"/>
</g>
</svg>
