<?xml version="1.0" standalone="no"?>
<!DOCTYPE svg PUBLIC "-//W3C//DTD SVG 20010904//EN"
 "http://www.w3.org/TR/2001/REC-SVG-20010904/DTD/svg10.dtd">
<svg version="1.0" xmlns="http://www.w3.org/2000/svg"
 width="583.000000pt" height="433.000000pt" viewBox="0 0 583.000000 433.000000"
 preserveAspectRatio="xMidYMid meet">
<metadata>
Created by potrace 1.15, written by Peter Selinger 2001-2017
</metadata>
<g transform="translate(0.000000,433.000000) scale(0.100000,-0.100000)"
fill="#000000" stroke="none">
<path d="M1248 2153 c-36 -4 -38 -6 -38 -40 l0 -36 137 6 c116 6 134 5 118 -6
-20 -15 -7 -31 14 -18 9 6 11 16 5 32 -4 13 -8 28 -9 34 0 5 -8 11 -17 13 -11
2 -17 -2 -15 -10 2 -7 -1 -3 -6 8 -9 19 -18 22 -81 21 -39 0 -88 -2 -108 -4z"/>
<path d="M1100 2144 c-30 -4 -637 -37 -664 -36 -14 1 -17 -4 -12 -21 3 -12 6
-30 6 -40 0 -18 7 -18 103 -13 310 20 595 36 620 36 25 0 27 3 27 40 0 43 -2
44 -80 34z"/>
<path d="M940 982 c-131 -18 -156 -31 -110 -59 20 -11 31 -26 32 -43 1 -14 2
-36 3 -50 3 -45 5 -49 25 -55 25 -8 61 22 40 35 -7 4 -10 13 -6 18 10 17 36 2
36 -19 0 -11 7 -19 16 -19 8 0 12 -4 9 -10 -3 -5 3 -10 14 -10 29 0 51 38 51
90 0 34 8 59 30 93 l30 47 -28 -1 c-15 -1 -79 -9 -142 -17z"/>
</g>
</svg>
