<?xml version="1.0" standalone="no"?>
<!DOCTYPE svg PUBLIC "-//W3C//DTD SVG 20010904//EN"
 "http://www.w3.org/TR/2001/REC-SVG-20010904/DTD/svg10.dtd">
<svg version="1.0" xmlns="http://www.w3.org/2000/svg"
 width="580.000000pt" height="433.000000pt" viewBox="0 0 580.000000 433.000000"
 preserveAspectRatio="xMidYMid meet">
<metadata>
Created by potrace 1.15, written by Peter Selinger 2001-2017
</metadata>
<g transform="translate(0.000000,433.000000) scale(0.100000,-0.100000)"
fill="#000000" stroke="none">
<path d="M3058 2743 c-31 -17 -53 -23 -65 -18 -15 7 -13 9 12 15 17 4 23 9 15
10 -8 1 -19 1 -25 0 -5 -2 -19 -4 -30 -5 -11 -1 -38 -5 -59 -10 -36 -7 -38 -9
-21 -21 16 -12 16 -14 3 -14 -9 0 -20 5 -23 10 -8 13 -35 13 -35 1 0 -5 8 -12
18 -15 9 -3 -2 -3 -25 -1 -26 3 -77 -3 -127 -16 -73 -18 -83 -23 -79 -40 3
-12 0 -19 -8 -19 -8 0 -25 -3 -38 -7 -20 -5 -23 -3 -18 11 7 19 8 19 -153 -24
-58 -15 -130 -33 -160 -40 -30 -7 -61 -19 -67 -28 -8 -10 -13 -11 -13 -4 0 7
-4 12 -10 12 -12 0 -9 -22 5 -32 6 -4 -2 -8 -17 -8 -18 0 -28 5 -28 15 0 8 -4
15 -10 15 -5 0 -10 -5 -10 -11 0 -5 -4 -8 -8 -5 -8 5 -153 -29 -187 -44 -11
-5 -56 -16 -100 -24 -127 -25 -140 -30 -143 -54 -4 -25 -22 -30 -22 -7 0 20
-10 19 -113 -9 -48 -13 -88 -24 -90 -24 -10 1 -94 -26 -103 -33 -6 -5 -13 -6
-16 -4 -3 3 -81 14 -174 25 -216 24 -519 59 -609 70 -38 4 -139 16 -224 26
l-154 18 -19 -24 c-29 -36 -71 -110 -66 -116 3 -2 68 -11 144 -20 149 -16 221
-32 151 -33 -21 -1 -81 4 -133 11 -90 11 -96 10 -123 -10 -22 -16 -31 -18 -41
-9 -10 10 -12 7 -7 -10 5 -22 -16 -61 -40 -76 -11 -7 -14 -51 -12 -218 1 -128
5 -206 11 -203 5 3 7 12 4 20 -9 23 6 16 38 -20 l31 -33 -42 -37 -43 -37 1
-84 c1 -96 3 -97 72 -30 25 24 57 51 72 61 27 17 27 17 53 -15 l25 -33 14 27
c13 23 12 29 -3 52 -16 26 -16 27 7 44 13 10 38 32 56 50 19 19 38 29 47 26
17 -7 85 54 106 95 7 15 21 30 32 34 10 3 18 9 18 13 0 12 39 51 95 95 28 22
54 43 59 47 10 9 -24 88 -39 90 -15 1 -127 131 -120 138 4 3 28 -17 55 -45 30
-32 51 -47 54 -39 2 7 -2 23 -11 34 -22 32 -5 41 18 11 11 -14 45 -51 76 -83
41 -44 58 -55 64 -46 6 11 11 11 21 1 15 -15 32 -16 22 -1 -4 8 3 9 26 4 20
-4 30 -3 27 2 -10 16 36 32 57 21 9 -5 38 -12 64 -15 26 -3 50 -9 53 -15 4 -6
8 -5 11 3 4 12 8 12 20 1 10 -8 19 -9 22 -3 3 5 0 12 -6 14 -7 3 -1 6 15 6 18
1 27 6 28 19 0 12 3 10 10 -8 7 -16 8 -95 2 -225 -12 -293 -20 -257 83 -384
61 -77 92 -107 100 -101 12 11 18 160 6 160 -10 0 -32 50 -31 69 0 14 1 14 6
1 3 -8 14 -26 24 -39 19 -24 19 -23 19 60 1 105 9 311 16 407 l6 73 46 -3 c28
-2 47 -8 47 -15 0 -6 3 -15 8 -19 4 -4 7 0 7 9 0 10 7 17 15 17 19 0 20 19 1
26 -14 5 -10 50 6 60 9 6 142 -7 339 -32 63 -8 137 -14 165 -12 39 2 26 6 -66
16 -245 29 -364 52 -267 52 20 0 39 5 43 11 4 7 0 9 -12 6 -48 -14 -153 -19
-170 -7 -18 11 -18 11 0 5 12 -3 26 2 38 15 10 11 29 20 43 20 13 0 25 4 27
10 2 5 15 11 31 12 15 1 27 6 27 11 0 4 6 7 13 6 6 -1 19 0 27 4 47 17 86 27
112 27 16 0 39 5 51 12 27 14 95 12 115 -4 13 -11 15 -10 9 5 -4 10 -2 17 6
17 7 0 17 8 24 19 6 10 29 22 50 26 21 4 43 11 50 17 7 5 16 7 20 5 9 -6 101
13 161 32 18 5 40 7 48 4 8 -3 14 -1 14 5 0 18 27 21 55 6 15 -8 30 -12 33 -9
3 3 2 5 -3 5 -4 0 9 14 30 30 21 17 42 30 46 30 5 0 9 7 9 15 0 12 4 14 19 5
13 -6 22 -7 26 0 3 5 12 7 19 4 8 -3 17 0 21 5 3 6 11 9 16 6 5 -4 14 -3 21 1
7 5 29 7 49 5 20 -1 40 2 43 7 3 5 34 10 68 11 35 1 71 4 80 7 10 3 18 1 18
-5 0 -5 -12 -11 -27 -13 l-28 -3 32 -15 c21 -9 33 -23 36 -40 l4 -25 2 27 c1
24 3 25 26 15 14 -7 28 -20 31 -29 5 -17 25 -26 23 -10 -4 26 3 28 58 21 32
-4 60 -4 63 0 3 5 16 7 30 6 19 -2 36 9 67 44 48 52 50 58 26 64 -17 4 -17 5
0 6 9 0 17 6 17 11 0 6 5 10 11 10 8 0 8 -5 -1 -15 -7 -8 -8 -15 -4 -15 9 0
34 33 45 60 4 8 1 18 -5 22 -21 14 -28 8 -22 -18 6 -24 6 -25 -9 -11 -9 9 -32
19 -51 23 -24 4 -32 9 -23 15 15 9 -8 15 -81 22 -35 4 -55 -1 -92 -20z"/>
<path d="M3370 2659 c0 -5 -4 -8 -8 -5 -5 3 -32 -21 -60 -53 l-51 -59 32 -7
c18 -4 48 -8 67 -9 55 -5 80 -15 73 -32 -6 -17 32 -20 43 -2 5 8 2 9 -9 5 -11
-4 -17 -1 -17 8 0 8 4 15 9 15 14 0 1 69 -22 113 -12 23 -26 37 -38 37 -10 0
-19 -5 -19 -11z"/>
<path d="M3142 2418 l-41 -41 60 -119 c32 -65 63 -118 67 -118 7 0 30 39 100
164 13 22 30 51 38 64 8 13 14 33 12 45 -2 17 -11 22 -47 24 -24 2 -60 7 -80
13 -56 16 -66 13 -109 -32z"/>
<path d="M2800 2408 c0 -7 -39 -76 -85 -153 -58 -96 -81 -142 -72 -146 7 -4
46 -10 88 -14 l76 -7 7 55 c9 73 5 277 -6 277 -4 0 -8 -6 -8 -12z"/>
<path d="M3321 2242 c-39 -65 -71 -125 -71 -133 1 -26 39 -99 52 -99 7 0 23
-15 36 -33 13 -17 34 -47 47 -65 12 -18 26 -29 29 -24 7 12 9 289 2 301 -4 5
-4 46 0 90 5 67 3 81 -9 81 -8 0 -46 -53 -86 -118z"/>
<path d="M3057 2322 c-15 -16 -17 -49 -17 -251 0 -128 4 -230 9 -227 16 10
151 245 151 263 0 21 -109 233 -120 233 -4 0 -14 -8 -23 -18z"/>
<path d="M1521 2059 c21 -18 21 -20 4 -14 -81 28 -64 15 100 -80 55 -31 147
-86 205 -120 140 -83 216 -125 225 -125 5 0 -73 48 -171 106 -98 58 -209 124
-246 146 -93 55 -102 68 -47 68 24 0 71 -4 104 -9 33 -5 94 -12 135 -15 41 -4
89 -8 105 -11 69 -10 234 -27 503 -51 37 -3 65 -11 68 -18 3 -7 -13 -44 -35
-82 -22 -38 -38 -70 -37 -72 3 -2 171 59 309 113 28 11 19 34 -15 40 -18 3
-116 14 -218 25 -102 11 -243 27 -315 35 -71 9 -191 22 -265 30 -165 19 -365
43 -404 50 l-28 5 23 -21z"/>
<path d="M3198 2033 c-14 -21 -39 -65 -58 -98 -18 -33 -42 -71 -52 -84 -25
-33 -23 -60 5 -65 12 -3 72 -10 132 -16 61 -6 120 -13 133 -16 12 -2 22 0 22
4 0 9 -144 300 -153 309 -3 3 -16 -12 -29 -34z"/>
<path d="M667 2007 c-17 -27 -14 -39 9 -30 8 3 14 0 14 -7 0 -7 8 -20 18 -29
10 -9 39 -44 66 -78 26 -35 51 -63 57 -63 14 0 11 -33 -6 -57 -10 -14 -13 -32
-9 -48 5 -21 3 -25 -12 -23 -11 2 -21 -1 -24 -6 -3 -5 -18 -23 -34 -40 -16
-17 -62 -74 -102 -126 -60 -76 -74 -102 -74 -130 0 -19 -4 -98 -9 -175 -6 -77
-13 -208 -16 -291 l-7 -152 84 -7 c45 -3 90 -8 99 -11 19 -5 28 61 31 246 1
63 5 133 8 155 l6 40 8 -50 c7 -41 12 -51 29 -52 29 -3 39 -24 19 -40 -15 -11
-14 -12 10 -13 25 0 28 3 26 33 -1 17 0 39 3 47 2 8 -2 15 -8 16 -7 1 -16 2
-20 3 -3 0 2 10 12 21 10 11 13 20 7 20 -19 0 1 122 23 140 8 6 17 24 20 40 4
17 19 37 38 49 26 16 28 21 15 26 -9 4 -26 1 -38 -5 -36 -19 -33 -4 5 28 32
26 35 31 20 39 -16 9 -17 37 -2 73 14 33 34 140 27 140 -5 0 -32 32 -60 70
-29 39 -60 76 -69 83 -9 6 -32 35 -51 62 -36 53 -38 54 -74 98 l-23 28 -16
-24z"/>
<path d="M1457 1749 c-4 -100 -7 -211 -7 -246 l0 -63 34 0 c31 0 162 43 178
58 4 4 -15 54 -43 111 -28 57 -71 149 -95 205 -25 55 -49 105 -53 109 -4 4
-11 -74 -14 -174z"/>
<path d="M4782 1870 l-34 -18 46 -7 c49 -8 60 -21 24 -28 -15 -3 -10 -5 14 -6
20 0 42 -3 50 -4 7 -2 10 -2 6 0 -14 8 -8 23 8 23 12 0 15 -7 12 -25 -4 -20
-1 -25 16 -26 17 -1 18 -2 3 -6 -10 -3 -25 1 -34 9 -14 11 -16 11 -11 -2 2 -8
17 -16 31 -18 15 -2 27 -8 27 -14 0 -6 10 -8 23 -4 13 3 64 -1 113 -9 161 -25
230 -29 237 -13 7 21 -5 36 -28 34 -11 0 -66 3 -123 7 -87 7 -101 11 -91 23 6
8 16 14 22 14 5 0 16 8 23 18 10 14 15 15 25 5 7 -7 25 -13 40 -13 15 0 40 -5
56 -11 15 -6 49 -11 76 -10 35 2 47 -2 47 -13 0 -8 3 -21 6 -30 4 -11 -2 -19
-21 -26 -31 -12 -26 -26 15 -35 40 -9 29 -32 -24 -45 -22 -6 -48 -13 -56 -15
-15 -5 -23 -75 -9 -75 4 0 25 18 47 40 43 43 67 52 59 21 -3 -14 -1 -18 9 -14
8 3 14 9 14 14 0 5 5 9 11 9 7 0 5 -10 -6 -26 -9 -14 -15 -28 -12 -30 2 -2 39
7 83 20 43 13 103 29 131 36 29 6 51 15 48 19 -2 5 -44 11 -92 15 -47 3 -89 9
-92 11 -13 14 17 14 120 0 63 -8 135 -15 162 -15 l47 0 0 54 0 55 -47 6 c-27
3 -75 10 -108 15 -81 13 -206 28 -285 35 -35 3 -81 10 -101 14 -21 5 -48 6
-61 4 -13 -3 -49 0 -79 5 -39 8 -56 7 -61 -1 -4 -7 -22 -12 -40 -12 -30 0 -33
-3 -32 -28 1 -31 -3 -32 -30 -12 -20 15 -20 15 0 16 14 0 12 4 -11 14 -16 8
-26 14 -20 15 5 0 -1 7 -13 16 -13 9 -26 13 -29 10 -4 -3 -12 3 -20 14 -17 24
-38 25 -81 0z"/>
<path d="M2746 1843 c5 -14 4 -15 -4 -4 -11 15 -8 16 -284 -91 -43 -16 -78
-35 -78 -42 0 -7 -14 -34 -31 -60 -16 -27 -28 -54 -25 -61 2 -7 33 -28 68 -48
34 -20 56 -37 48 -37 -12 0 -11 -4 4 -15 11 -8 25 -15 30 -15 6 0 4 5 -4 10
-9 6 -10 10 -3 10 6 0 15 -5 18 -10 4 -6 21 -17 38 -25 25 -12 26 -14 7 -9
-19 4 -22 3 -10 -5 8 -6 23 -11 33 -11 10 0 16 -4 13 -9 -8 -12 21 -23 67 -27
21 -1 50 -5 64 -9 23 -5 25 -4 18 17 -4 13 -8 37 -9 54 -3 42 -15 61 -28 43
-7 -10 -8 -9 -4 5 6 19 -24 77 -92 179 -14 20 -23 39 -21 42 3 2 14 -11 25
-28 99 -154 170 -252 183 -253 24 -3 26 -5 12 -13 -12 -8 -11 -14 5 -38 l19
-28 5 240 c5 233 4 240 -15 247 -39 12 -55 9 -49 -9z"/>
<path d="M3650 1501 c0 -286 -2 -279 85 -240 11 4 55 22 98 39 43 17 96 39
118 50 40 21 41 29 13 75 -6 11 -15 33 -18 48 -4 16 -11 25 -17 21 -8 -4 -9 1
-4 16 5 17 4 21 -5 15 -9 -5 -11 -4 -6 4 4 6 3 18 -4 26 -6 7 -12 26 -12 42
-1 25 -14 36 -104 91 -57 34 -112 62 -124 62 -20 0 -20 -5 -20 -249z"/>
<path d="M4884 1613 c3 -71 9 -212 12 -315 3 -104 9 -188 13 -188 4 0 24 21
46 47 21 26 32 44 23 40 -12 -4 -15 -2 -11 8 3 8 10 12 15 9 7 -4 9 76 7 234
-4 229 0 275 21 242 6 -8 10 -11 10 -7 0 5 7 1 16 -7 8 -9 24 -17 35 -17 10
-1 25 -2 32 -3 6 -1 14 -3 17 -6 20 -20 51 -29 77 -20 15 5 35 8 43 7 8 -1 40
7 70 18 44 15 50 20 30 22 -14 2 -47 7 -75 13 -27 5 -88 12 -135 15 -47 4
-113 13 -148 21 -111 25 -104 33 -98 -113z"/>
<path d="M3053 1680 c9 -6 17 -16 17 -23 0 -10 82 -172 142 -280 l16 -28 50
83 c27 46 66 113 86 150 42 79 51 72 -110 88 -56 5 -128 12 -160 15 -45 5 -55
4 -41 -5z"/>
<path d="M3037 1479 c-10 -216 -9 -439 2 -439 12 0 161 257 161 277 0 12 -140
292 -155 311 -1 1 -5 -66 -8 -149z"/>
<path d="M4744 1622 c3 -5 -24 -62 -61 -128 -36 -65 -78 -144 -94 -175 l-28
-56 72 -45 c40 -25 82 -51 95 -57 24 -13 30 -3 10 17 -7 7 -13 16 -13 20 -2
20 -18 52 -26 52 -5 0 -9 5 -9 12 0 7 21 -8 46 -32 l47 -45 -7 154 c-3 85 -6
185 -6 223 0 55 -3 68 -16 68 -8 0 -13 -4 -10 -8z"/>
<path d="M3367 1531 c-59 -95 -103 -175 -109 -199 -4 -14 1 -31 14 -47 16 -21
23 -23 35 -14 12 11 13 8 7 -14 -5 -22 4 -44 42 -107 27 -44 52 -80 55 -80 3
0 6 102 6 228 0 125 3 242 5 260 8 50 -15 40 -55 -27z"/>
<path d="M2249 1477 c-104 -180 -97 -162 -71 -164 9 -1 24 -3 32 -5 10 -2 16
6 18 25 4 30 17 34 42 12 20 -18 50 -10 50 12 0 11 7 13 24 9 30 -7 56 2 56
20 0 11 16 14 67 14 l68 0 -35 23 c-19 13 -74 47 -122 75 l-88 51 -41 -72z"/>
<path d="M1094 1494 c1 -16 5 -34 9 -41 4 -7 3 -153 -3 -325 -12 -382 -13
-518 -1 -500 5 8 17 12 27 10 11 -2 24 2 29 9 6 7 23 14 40 16 21 3 30 9 31
23 0 10 2 30 3 44 2 25 2 25 16 -5 7 -16 16 -39 19 -49 12 -37 16 -7 22 150
11 317 11 439 1 459 -16 31 -70 90 -80 87 -5 -1 -6 2 -2 8 3 5 -13 29 -37 52
-24 24 -50 54 -59 67 l-17 23 2 -28z"/>
<path d="M1640 1446 c-126 -45 -130 -47 -130 -67 0 -15 8 -19 38 -20 20 0 51
-2 67 -5 79 -10 91 -11 107 -5 15 5 15 10 -4 54 -18 41 -19 50 -7 58 24 15 -3
9 -71 -15z"/>
<path d="M330 1344 c-47 -56 -85 -109 -85 -116 0 -7 -8 -16 -17 -20 -22 -9
-24 -38 -2 -38 10 0 14 -6 10 -15 -3 -8 -2 -15 2 -15 4 0 9 -28 10 -62 7 -146
11 -201 15 -204 2 -3 10 17 17 43 7 26 17 53 22 59 5 7 8 16 6 20 -3 10 14 81
41 169 39 125 75 275 69 280 -2 1 -41 -44 -88 -101z"/>
<path d="M2440 1368 c0 -9 -17 -20 -41 -27 -39 -12 -41 -14 -35 -43 3 -17 6
-37 6 -44 0 -8 6 -11 15 -8 9 4 15 0 15 -10 0 -24 24 -19 35 6 6 13 21 28 34
35 14 6 30 22 37 35 12 21 13 18 14 -34 0 -56 0 -56 -37 -69 -21 -7 -44 -12
-50 -11 -20 4 -15 -8 9 -28 26 -21 41 -16 33 10 -5 17 0 18 77 14 46 -3 100
-6 121 -8 20 -2 37 0 37 5 0 5 -6 9 -14 9 -11 0 -12 8 -5 40 5 22 9 43 8 47
-3 21 4 30 34 47 l32 18 -27 -25 c-18 -18 -25 -33 -21 -47 6 -21 18 -26 28
-11 3 6 -2 14 -11 19 -12 7 -13 11 -5 17 7 4 15 5 17 2 3 -3 15 4 26 15 28 28
14 34 -96 42 -50 4 -120 9 -155 13 -53 5 -62 3 -55 -8 7 -12 5 -12 -9 0 -15
11 -17 11 -17 -1z"/>
<path d="M3960 1314 c-19 -9 -85 -36 -146 -61 -84 -34 -111 -49 -110 -61 2
-10 11 -18 22 -20 48 -7 340 -29 345 -26 3 2 1 19 -5 38 -6 19 -14 32 -18 30
-4 -3 -5 1 -2 9 6 15 -31 107 -43 106 -4 0 -24 -7 -43 -15z"/>
<path d="M2325 1312 c-5 -4 -45 -19 -88 -32 l-77 -24 2 -34 c2 -24 8 -36 20
-40 10 -2 18 -11 18 -18 0 -23 26 -16 40 11 7 13 17 22 22 19 4 -3 8 -1 8 5 0
6 6 8 13 5 7 -2 23 4 36 15 18 15 22 28 19 61 -2 26 -7 38 -13 32z"/>
<path d="M4420 1295 c0 -3 25 -19 55 -36 30 -17 55 -35 55 -40 0 -5 -11 -31
-25 -58 l-24 -49 28 -5 c15 -3 64 -9 107 -12 43 -3 89 -8 102 -11 16 -3 22 0
22 14 0 19 -92 81 -220 148 -30 16 -61 35 -68 41 -13 13 -32 17 -32 8z"/>
<path d="M3206 1257 c-11 -18 -28 -50 -39 -72 -10 -22 -35 -63 -53 -92 -19
-28 -37 -65 -40 -81 l-6 -30 88 -6 c49 -4 119 -9 157 -12 37 -3 67 -1 67 4 0
5 -35 79 -78 165 l-78 155 -18 -31z"/>
<path d="M5135 1246 c-34 -42 -38 -53 -36 -94 1 -25 7 -52 12 -58 7 -8 6 -14
-1 -19 -7 -4 -9 -46 -5 -123 17 -405 17 -439 -5 -445 -11 -3 -23 -1 -26 4 -3
6 -35 9 -70 8 -35 -1 -67 1 -71 4 -3 4 6 7 20 7 15 0 28 5 28 10 1 6 3 15 4
20 1 6 3 28 4 51 0 24 5 38 11 34 11 -7 14 8 4 17 -3 4 -5 98 -4 210 0 127 -3
199 -9 193 -5 -6 -26 -30 -46 -54 l-36 -45 5 -240 c3 -133 8 -254 12 -271 3
-16 6 -38 7 -47 1 -10 5 -18 11 -18 5 0 22 -16 39 -35 16 -19 33 -32 38 -29 5
3 9 2 8 -3 -5 -28 40 -85 63 -81 7 2 12 -3 10 -10 -1 -7 5 -26 13 -42 8 -16
15 -47 15 -70 0 -25 4 -39 10 -35 6 3 10 -3 10 -14 0 -10 -6 -22 -12 -24 -7
-3 22 -6 66 -6 69 -1 77 1 66 14 -7 8 -9 15 -4 15 5 0 7 35 6 77 -3 70 -7 83
-38 126 -19 26 -34 50 -34 55 -1 11 -34 46 -55 58 -33 18 -30 50 4 65 17 8 31
21 31 29 1 13 2 13 13 -1 7 -9 25 -19 41 -23 23 -6 27 -4 23 8 -4 9 -3 15 1
15 22 -4 39 3 39 14 0 6 4 20 8 29 5 13 2 18 -9 18 -9 0 -16 5 -16 10 0 6 4
10 10 10 6 0 6 9 1 23 -5 12 -9 56 -10 97 -1 66 2 83 29 135 17 34 26 61 20
63 -5 2 -8 8 -4 13 3 5 0 9 -7 9 -8 0 -9 10 -5 30 3 19 2 29 -4 25 -6 -3 -10
-1 -10 4 0 6 4 11 10 11 5 0 7 6 4 13 -4 10 -16 12 -52 6 -74 -12 -82 -9 -22
10 34 11 54 23 52 31 -2 7 -19 47 -38 89 -19 42 -45 98 -58 125 l-22 49 -39
-47z"/>
<path d="M1472 1228 c27 -8 40 -19 48 -42 7 -17 16 -40 21 -51 4 -11 25 -63
45 -115 51 -135 83 -219 99 -260 7 -19 24 -64 37 -100 14 -36 29 -74 35 -85 6
-11 23 -55 38 -97 28 -82 63 -130 52 -73 -3 17 -15 56 -27 88 l-23 57 67 87
c36 48 66 93 66 100 0 7 4 13 9 13 12 0 51 -98 51 -128 l0 -25 25 23 c13 12
37 41 52 64 15 22 30 43 33 46 12 10 50 68 50 75 0 4 -12 4 -27 0 -23 -5 -25
-4 -14 9 7 8 18 13 25 10 22 -9 62 13 63 35 2 25 -4 26 -151 6 -60 -8 -114
-20 -120 -26 -8 -9 3 -10 46 -6 36 3 60 1 64 -5 5 -7 -22 -9 -87 -4 -116 8
-149 7 -163 -1 -6 -4 -17 -8 -26 -8 -8 -1 -26 -5 -40 -8 -14 -4 -20 -4 -14 -2
6 3 9 17 6 32 -3 17 1 30 11 38 13 9 19 42 27 141 6 71 12 141 13 156 2 16 -2
29 -10 32 -8 3 -67 10 -131 16 -64 6 -133 12 -152 14 l-35 4 37 -10z"/>
<path d="M1436 1164 c-3 -27 -8 -153 -12 -281 l-6 -231 75 -7 c50 -5 87 -3
112 5 42 14 53 8 34 -18 -74 -101 -99 -144 -99 -170 0 -45 10 -44 49 6 83 106
85 110 73 156 -10 42 -49 148 -75 208 -25 55 -64 157 -105 272 l-40 109 -6
-49z"/>
<path d="M1955 1175 c-16 -7 -56 -24 -87 -36 l-58 -23 0 -67 c0 -61 2 -68 22
-75 12 -3 28 -13 36 -20 21 -22 32 -17 32 15 0 20 -6 31 -17 33 -12 3 -3 11
29 26 55 26 58 26 58 9 0 -7 9 -18 20 -25 18 -11 20 -10 20 15 0 21 -3 24 -10
13 -5 -8 -13 -11 -17 -6 -4 4 0 13 9 20 13 9 18 30 20 72 3 66 -5 73 -57 49z"/>
<path d="M2482 1120 c-37 -9 -54 -20 -29 -20 10 0 17 -5 17 -11 0 -5 4 -8 9
-5 4 3 6 -7 4 -22 -4 -22 -2 -24 7 -12 9 11 13 12 17 3 3 -9 27 -13 68 -13 35
0 66 -4 69 -8 13 -21 -14 -30 -83 -28 -51 0 -76 -3 -79 -12 -6 -18 -26 -15
-46 7 -15 17 -22 17 -74 6 -76 -17 -122 -35 -122 -47 0 -7 5 -6 14 1 11 9 48
10 95 2 2 -1 -4 -11 -15 -23 -10 -12 -13 -18 -5 -13 11 6 13 4 8 -8 -4 -10 0
-17 11 -20 9 -2 1 -4 -18 -4 -68 0 -90 -3 -90 -14 0 -7 11 -9 30 -6 28 6 29 5
24 -21 -3 -16 3 -46 15 -74 11 -27 16 -48 11 -48 -6 0 -10 4 -10 9 0 5 -9 31
-20 57 -20 46 -21 47 -36 26 -17 -25 -23 -264 -6 -285 8 -10 9 -47 3 -107 -1
-13 -2 -13 -11 0 -7 10 -10 -14 -10 -78 0 -60 4 -91 10 -87 9 6 14 -8 11 -27
-3 -19 28 -6 35 15 4 12 27 65 52 117 24 52 44 106 44 120 0 14 5 28 10 31 6
4 6 13 -1 25 -11 20 -71 163 -71 170 0 2 5 4 10 4 6 0 10 -5 10 -10 0 -6 18
-49 39 -98 l40 -87 16 40 c9 22 34 77 56 121 35 73 38 85 28 108 -9 20 -15 23
-22 14 -6 -9 -7 -8 -3 5 8 24 -4 78 -16 71 -14 -9 -99 6 -93 16 3 4 20 3 39
-2 29 -9 36 -8 55 11 11 11 28 21 36 21 20 0 37 -42 21 -52 -10 -7 -1 -12 17
-9 4 0 7 -4 7 -9 0 -6 11 -10 24 -10 13 0 27 -6 29 -12 3 -7 6 -3 6 10 1 18
-4 22 -28 22 -24 0 -31 6 -40 31 -14 40 -14 39 3 39 7 0 19 -13 26 -30 14 -33
40 -41 40 -12 0 10 5 23 12 30 9 9 7 13 -6 18 -14 5 -15 9 -4 15 7 5 16 9 21
9 4 0 7 -53 8 -117 0 -73 6 -131 14 -153 7 -19 14 -30 14 -25 1 6 6 3 12 -5 8
-11 9 -9 4 10 -4 14 -11 29 -16 34 -5 6 -9 21 -9 35 l0 26 26 -30 c23 -27 25
-28 21 -7 -3 12 -1 20 3 17 5 -3 14 13 20 35 6 22 15 38 20 35 9 -6 7 -14 -25
-91 -17 -41 -16 -42 8 -80 13 -22 27 -49 31 -61 4 -13 11 -23 16 -23 11 0 -5
47 -22 67 -6 7 -7 13 -2 13 5 0 3 4 -4 9 -10 6 -7 10 12 15 24 6 26 11 26 61
0 30 -4 55 -10 55 -5 0 -10 7 -10 15 0 8 4 15 10 15 5 0 9 35 8 83 -1 77 -3
83 -23 85 -14 1 -26 -9 -39 -33 -11 -19 -21 -33 -24 -31 -2 3 3 15 11 27 9 11
13 27 10 34 -3 8 4 15 18 17 17 2 25 13 32 38 5 19 14 41 20 49 9 12 9 13 0 7
-7 -4 -41 0 -74 9 -47 12 -65 13 -76 4 -10 -9 -19 -9 -38 1 -13 7 -37 10 -53
7 -16 -3 -33 -2 -38 2 -5 4 -24 5 -42 1z"/>
<path d="M3651 901 l-1 -151 48 0 c47 0 48 1 122 86 41 47 98 109 127 138 l52
53 -57 2 c-31 1 -90 -5 -131 -14 -41 -8 -76 -13 -78 -11 -3 2 21 10 52 16 31
6 55 13 53 15 -2 1 -44 6 -94 9 l-92 7 -1 -150z"/>
<path d="M4075 1003 c-5 -10 -7 -22 -6 -28 2 -5 0 -7 -4 -3 -4 3 -14 -2 -23
-11 -9 -10 -39 -41 -66 -69 -28 -28 -47 -54 -44 -57 3 -3 48 5 99 18 52 14
107 27 122 31 17 4 25 11 21 18 -5 8 -2 9 9 5 20 -7 21 -1 6 42 -6 17 -18 31
-27 31 -26 0 0 18 33 23 20 3 14 5 -20 6 -27 1 -60 4 -71 7 -15 4 -24 0 -29
-13z"/>
<path d="M4490 977 c0 -13 66 -97 106 -134 13 -12 24 -29 24 -38 0 -8 4 -15 9
-15 5 0 12 -8 15 -18 3 -9 20 -33 37 -52 l32 -34 29 54 c31 59 32 55 3 -26
l-18 -52 31 -33 32 -34 -1 165 c0 91 3 173 6 183 5 11 2 17 -6 17 -25 0 -244
20 -271 25 -18 3 -28 0 -28 -8z"/>
<path d="M4406 958 c-17 -54 -15 -71 10 -113 14 -25 31 -45 37 -45 7 0 7 4 -1
12 -7 7 -12 16 -12 21 0 5 6 2 14 -6 9 -8 13 -24 10 -38 -4 -18 -3 -20 4 -10
8 11 13 8 27 -13 10 -14 23 -26 31 -26 8 0 11 -6 8 -15 -4 -8 10 -42 30 -76
20 -33 36 -63 36 -67 1 -12 40 -55 46 -50 3 3 7 23 8 44 2 22 4 41 5 43 1 2
10 -4 21 -14 13 -12 18 -25 14 -40 -3 -13 0 -26 6 -30 9 -5 10 -1 6 16 -5 21
-5 21 3 4 5 -11 12 -29 16 -39 5 -18 7 -18 22 -3 15 15 11 22 -47 99 -35 45
-67 87 -72 93 -4 5 -31 39 -58 75 -28 36 -67 85 -88 109 -20 24 -41 52 -46 62
-10 22 -25 25 -30 7z"/>
<path d="M3060 868 c0 -5 5 -6 11 -2 7 4 9 0 5 -14 -5 -14 7 -47 38 -104 24
-46 55 -104 69 -130 14 -26 27 -44 31 -41 3 3 -7 29 -23 57 -16 28 -32 62 -36
76 -8 25 -8 25 14 6 12 -11 35 -44 52 -73 17 -29 32 -53 34 -53 10 0 31 56 28
72 -3 10 5 27 16 40 12 12 21 18 21 12 0 -5 4 -3 9 5 5 8 3 24 -5 40 -16 31
-17 41 -4 41 5 0 13 -12 16 -26 l7 -26 17 28 c10 16 20 40 22 54 3 25 2 25
-92 32 -208 14 -230 15 -230 6z"/>
<path d="M141 726 c-36 -57 -63 -108 -61 -112 2 -5 13 -8 24 -7 15 1 16 0 4
-3 -10 -3 -18 -9 -18 -14 0 -5 -9 -11 -19 -15 -22 -7 -33 -49 -18 -64 6 -6 8
-11 3 -11 -4 0 -1 -7 7 -15 10 -9 31 -13 63 -11 47 2 49 4 55 37 5 29 7 30 8
7 l1 -26 39 21 c38 21 40 24 47 85 3 35 4 66 1 69 -4 3 -22 -2 -42 -11 -20
-10 -45 -19 -56 -21 -12 -2 -27 -9 -35 -16 -10 -8 -14 -8 -14 0 0 6 5 11 11
11 6 0 9 9 6 20 -3 13 -1 18 6 13 7 -4 8 0 3 13 -4 10 -4 15 0 12 17 -18 42
14 48 62 4 28 9 57 12 65 4 8 2 15 -2 15 -5 -1 -38 -47 -73 -104z"/>
<path d="M5482 750 c0 -47 3 -142 6 -212 l7 -126 -38 -4 c-21 -2 -40 -1 -42 2
-5 8 -166 -10 -190 -21 -14 -6 -2 -7 35 -4 66 7 90 0 90 -25 0 -11 4 -21 10
-25 5 -3 7 -12 3 -20 -3 -8 0 -15 6 -15 6 0 11 -9 11 -19 0 -10 9 -29 20 -42
28 -34 26 -7 -6 70 -14 35 -23 65 -20 68 7 8 57 -84 58 -109 3 -53 -3 -77 -19
-81 -17 -4 -17 -5 0 -6 11 -1 17 -9 17 -26 0 -21 5 -25 30 -25 17 0 30 5 30
10 0 6 10 10 23 10 29 0 42 10 44 35 2 34 31 100 42 97 16 -3 13 34 -10 123
-11 44 -37 150 -59 236 -21 86 -40 165 -43 175 -3 11 -5 -19 -5 -66z"/>
<path d="M3030 811 c0 -6 4 -13 10 -16 6 -4 5 -13 -3 -26 -10 -17 -9 -22 6
-33 24 -18 26 -216 2 -216 -14 0 -16 -22 -14 -155 1 -150 5 -169 30 -123 8 14
8 18 0 14 -7 -5 -9 -1 -5 8 3 9 10 14 14 11 12 -7 62 83 54 97 -5 7 -3 8 6 3
10 -6 12 -3 8 13 -4 13 -2 19 6 16 11 -3 56 74 56 98 1 23 -114 236 -124 231
-5 -4 -6 -1 -2 5 3 6 -3 27 -15 46 -21 37 -29 44 -29 27z"/>
<path d="M3396 774 c-3 -9 -4 -20 -1 -24 3 -5 0 -12 -6 -16 -8 -5 -9 -3 -4 7
5 8 4 11 0 6 -5 -4 -10 -18 -12 -30 -2 -12 -8 -24 -13 -25 -6 -2 -15 -13 -21
-24 -9 -16 -8 -19 3 -12 7 4 -2 -9 -19 -29 -31 -36 -44 -65 -23 -52 5 3 7 0 4
-9 -3 -8 -12 -12 -21 -9 -13 5 -13 3 -2 -15 11 -17 10 -24 -5 -46 -12 -19 -14
-31 -7 -44 8 -15 11 -13 21 12 l11 29 16 -24 c9 -13 22 -27 27 -31 6 -4 7 -8
3 -8 -10 0 41 -96 58 -110 10 -8 12 18 9 112 -2 68 -3 128 -3 133 -1 39 8 169
14 194 5 24 3 31 -8 31 -8 0 -18 -7 -21 -16z"/>
<path d="M4273 753 c-38 -49 -93 -130 -93 -137 0 -3 13 -6 29 -6 l29 0 -5 -73
-6 -73 33 -2 c18 -1 38 2 46 8 10 9 17 5 30 -14 9 -15 22 -26 28 -25 24 3 36
-2 36 -14 0 -7 17 -20 38 -29 34 -16 35 -18 15 -24 -27 -8 -31 -44 -5 -45 10
0 12 -3 5 -6 -7 -2 -13 -11 -13 -19 0 -8 -9 -14 -19 -14 -12 0 -38 -23 -65
-57 l-45 -58 42 -12 c23 -7 67 -15 98 -19 46 -4 57 -2 62 10 4 10 19 16 42 16
28 0 35 4 35 20 0 10 8 23 18 29 16 9 16 11 -3 28 -17 16 -19 29 -17 87 3 56
6 65 18 55 8 -6 14 -15 14 -19 0 -10 69 -85 74 -79 2 2 9 14 15 26 10 20 6 32
-28 90 -22 38 -57 99 -78 138 -26 48 -39 64 -41 51 -4 -17 -11 -18 -74 -13
-51 4 -74 11 -84 24 -17 22 -19 57 -2 47 7 -4 8 -3 4 5 -4 6 -12 9 -17 6 -5
-4 -9 2 -9 12 0 16 -65 123 -74 123 -3 0 -17 -17 -33 -37z"/>
<path d="M370 727 c0 -8 -17 -19 -37 -26 l-38 -13 1 -61 c1 -89 1 -91 20 -73
8 9 18 16 22 17 27 3 45 9 57 19 17 14 21 35 5 25 -14 -9 -12 4 3 19 7 7 18
11 25 8 7 -2 12 6 12 23 0 14 4 24 9 20 9 -5 5 -80 -5 -97 -3 -4 -14 -8 -25
-8 -11 0 -18 -4 -15 -8 3 -5 70 -12 148 -15 107 -5 146 -10 154 -21 20 -28 31
0 33 86 l2 86 -38 6 c-21 3 -76 8 -123 11 -47 3 -106 8 -133 11 -39 5 -46 3
-41 -9 3 -8 1 -18 -5 -22 -7 -3 -11 2 -11 14 0 12 -4 21 -10 21 -5 0 -10 -6
-10 -13z"/>
<path d="M2119 640 c-36 -52 -80 -116 -98 -141 -31 -43 -33 -51 -37 -152 l-5
-107 53 -2 c29 -1 75 -3 101 -4 l49 -2 -2 87 c0 47 2 151 6 231 3 80 5 154 3
165 -3 15 -20 -3 -70 -75z"/>
<path d="M2530 713 c0 -12 -4 -24 -9 -27 -5 -3 -12 -18 -16 -33 -3 -16 -13
-36 -22 -45 -8 -9 -16 -28 -17 -42 0 -13 -5 -24 -10 -23 -16 3 -18 -30 -3 -44
7 -8 14 -33 14 -57 0 -24 6 -49 12 -55 10 -9 11 -5 5 17 -6 25 -4 28 10 23 18
-7 20 1 6 37 -7 20 -6 26 3 26 12 0 47 -80 47 -107 0 -7 -7 -13 -16 -13 -11 0
-14 6 -9 20 4 11 2 20 -4 20 -20 0 -12 -47 8 -53 16 -4 19 -12 16 -37 -3 -18
-7 -35 -10 -39 -4 -3 -5 7 -3 24 2 21 -2 30 -14 33 -10 2 -18 -2 -18 -8 0 -7
7 -9 16 -6 11 4 14 1 9 -13 -3 -10 0 -31 6 -47 11 -29 11 -29 20 -6 12 31 16
28 11 -8 -3 -23 0 -30 12 -30 9 0 16 1 16 3 1 1 3 83 6 181 5 176 4 186 -27
248 -5 10 -9 24 -9 31 0 7 -7 22 -15 33 -14 19 -14 19 -15 -3z"/>
<path d="M3739 623 c-91 -97 -91 -97 -83 -149 4 -26 10 -41 14 -34 5 8 14 3
29 -16 11 -14 21 -31 21 -35 0 -5 7 -9 15 -9 8 0 15 -4 15 -9 0 -5 7 -8 15 -7
9 1 15 5 15 9 0 4 0 16 0 27 0 11 -4 20 -10 20 -5 0 -10 -7 -10 -16 0 -14 -3
-14 -15 -4 -8 7 -15 17 -15 23 0 6 3 7 7 4 3 -4 11 -3 18 3 6 5 29 11 50 14
22 2 42 6 45 7 3 1 10 3 15 4 6 2 15 4 20 5 6 1 17 3 25 4 10 1 17 15 20 41 7
50 2 75 -16 75 -20 0 -17 9 9 31 13 11 38 18 61 19 22 0 36 3 32 7 -9 10 -75
4 -97 -8 -10 -5 -54 -13 -98 -17 -75 -7 -79 -7 -70 11 6 10 18 21 27 25 14 6
29 32 19 32 -2 0 -28 -26 -58 -57z"/>
<path d="M1190 626 c0 -8 -6 -17 -12 -19 -10 -4 -9 -8 2 -16 8 -6 10 -11 4
-11 -6 0 -10 -15 -8 -37 2 -21 3 -47 4 -58 0 -16 2 -17 9 -6 5 8 7 21 4 30 -3
11 -1 10 7 -3 10 -15 14 -16 22 -5 8 12 10 12 15 0 4 -9 10 -3 19 19 18 42 18
55 -2 75 -24 24 -11 28 14 5 17 -16 22 -32 22 -70 0 -50 -8 -58 -52 -51 -4 0
-18 -5 -31 -12 l-25 -13 21 -24 20 -25 -6 24 -6 24 135 -6 c86 -5 134 -3 134
3 0 6 -7 10 -15 10 -11 0 -12 5 -5 26 6 14 10 41 10 59 0 28 6 37 30 50 40 21
48 19 18 -4 -18 -15 -25 -30 -26 -58 l-1 -38 15 25 c14 24 15 23 11 -27 -2
-29 0 -53 4 -53 5 0 9 27 9 60 0 48 4 64 21 81 12 12 17 25 13 29 -5 5 -78 13
-162 19 -199 14 -212 14 -212 -3z"/>
<path d="M1050 569 l-35 -10 3 -64 c2 -36 7 -65 11 -65 29 0 71 24 71 41 0 10
5 19 10 19 6 0 9 -5 8 -11 -2 -6 2 -13 9 -16 7 -3 12 7 13 24 0 15 1 42 3 58
2 27 -1 30 -28 32 -16 1 -46 -3 -65 -8z"/>
<path d="M915 523 c-52 -20 -116 -33 -109 -22 3 5 -8 9 -24 9 -22 0 -29 -4
-28 -17 1 -14 -8 -19 -41 -21 -24 -2 -43 1 -43 6 0 6 -10 10 -22 10 -13 0 -34
2 -47 6 -14 3 -30 1 -38 -5 -10 -9 -13 -7 -14 7 0 11 -3 14 -6 7 -3 -8 -14
-11 -30 -7 -18 5 -24 3 -19 -5 5 -7 0 -11 -13 -11 -12 0 -21 4 -21 9 0 5 -12
7 -27 5 -16 -3 -33 -5 -38 -6 -6 -1 -10 -13 -10 -27 0 -16 -5 -25 -12 -23 -7
1 -13 -6 -13 -17 0 -14 -10 -21 -35 -25 -34 -7 -35 -9 -34 -49 0 -23 3 -36 6
-29 2 6 14 12 26 11 21 0 21 -1 2 -9 -15 -6 -7 -9 30 -10 28 0 114 -3 193 -7
l142 -6 0 37 c0 36 12 47 26 24 4 -6 2 -14 -4 -16 -7 -2 -9 -9 -5 -15 8 -13 5
-281 -3 -309 -5 -16 2 -18 45 -18 27 0 53 5 56 10 8 13 45 13 45 0 0 -6 41
-10 104 -10 l103 0 7 53 c9 75 7 209 -2 203 -8 -5 -189 -46 -202 -46 -3 0 -6
19 -7 43 -1 33 1 38 9 26 10 -14 13 -14 30 3 10 10 18 33 18 51 1 38 17 61 48
69 16 5 22 2 22 -10 0 -39 8 0 15 71 7 76 6 77 -17 76 -12 0 -41 -7 -63 -16z"/>
<path d="M3217 463 c-4 -3 0 -17 8 -30 15 -23 15 -23 -9 -19 -22 4 -25 1 -24
-24 1 -16 5 -27 9 -24 5 3 6 -2 3 -10 -9 -24 -24 -19 -24 7 -1 20 -2 20 -11 4
-5 -9 -7 -22 -3 -29 4 -6 3 -8 -4 -4 -6 3 -14 -4 -18 -16 -4 -13 -15 -33 -25
-46 -10 -13 -15 -30 -12 -39 4 -11 2 -14 -5 -9 -7 4 -17 -6 -27 -23 -9 -19
-11 -32 -5 -36 6 -3 10 4 10 17 0 19 2 20 11 8 8 -11 9 -9 3 10 -6 22 -5 23
10 11 14 -12 16 -10 16 13 0 14 4 26 9 26 10 0 -6 -68 -20 -86 -10 -13 60 -24
149 -24 49 0 52 1 52 25 0 18 5 25 18 25 10 0 21 3 24 6 9 8 -34 104 -46 104
-6 0 -12 10 -13 23 -2 29 -67 149 -76 140z"/>
<path d="M2388 407 c-10 -23 -18 -47 -18 -54 0 -6 -3 -13 -7 -15 -12 -5 -53
-84 -53 -102 0 -25 57 -21 71 5 8 15 8 19 0 15 -7 -5 -11 2 -11 18 0 13 -3 33
-6 43 -3 10 6 0 20 -22 14 -22 24 -45 22 -52 -6 -15 17 -21 64 -18 26 1 36 7
37 21 2 10 0 13 -3 7 -3 -7 -15 -13 -27 -12 -15 0 -17 2 -7 6 18 7 30 23 30
42 0 10 -3 11 -14 2 -11 -9 -16 -5 -25 20 -6 18 -11 45 -11 60 0 38 -17 79
-32 79 -7 0 -21 -19 -30 -43z"/>
<path d="M130 386 c0 -18 -16 -28 -44 -31 -12 -2 -36 -9 -54 -16 -26 -11 -32
-19 -30 -39 2 -14 10 -28 18 -32 12 -5 12 -7 -2 -7 -12 -1 -18 -9 -18 -25 0
-19 4 -23 20 -19 13 3 20 14 20 29 0 39 15 27 18 -13 1 -21 9 -41 17 -46 8 -4
15 -15 15 -23 0 -8 -5 -12 -10 -9 -6 4 -8 11 -5 16 3 5 -1 6 -9 3 -20 -8 -9
-34 14 -34 13 0 20 9 22 28 3 23 7 27 31 25 15 -1 25 2 22 7 -5 8 17 20 36 20
14 0 10 -53 -6 -74 -14 -19 -15 -18 -16 10 -1 16 -3 22 -6 12 -2 -10 -9 -18
-14 -18 -5 0 -9 -11 -9 -25 0 -19 5 -25 21 -25 12 0 18 4 13 11 -4 7 -1 10 7
7 8 -3 14 -11 15 -19 3 -45 5 -52 9 -47 3 3 8 43 12 89 3 46 11 91 18 99 6 8
12 39 13 68 1 43 -2 52 -17 52 -9 0 -26 -7 -37 -15 -22 -17 -54 -20 -54 -5 0
6 7 13 15 16 20 8 19 30 -1 38 -22 8 -24 8 -24 -8z"/>
<path d="M4078 385 c-2 -3 -20 -7 -39 -9 -19 -2 -37 -4 -41 -5 -5 0 -8 -10 -8
-20 0 -11 -9 -23 -20 -26 -17 -5 -20 -15 -20 -65 0 -32 3 -66 6 -75 10 -25 50
-37 142 -41 99 -4 122 10 122 76 0 22 4 40 8 40 4 0 9 12 10 26 2 24 0 26 -28
20 -29 -5 -43 8 -17 17 22 8 -103 20 -144 13 -27 -4 -38 -3 -34 4 3 5 0 11 -7
11 -7 1 3 5 22 8 20 4 39 2 43 -4 6 -7 10 -6 14 3 2 6 11 12 19 12 8 0 14 5
14 10 0 10 -33 14 -42 5z"/>
<path d="M3654 305 c0 -36 3 -65 7 -65 4 0 9 -17 11 -37 l3 -38 75 -2 c41 -2
70 1 65 5 -6 4 -24 27 -40 52 -37 56 -108 149 -115 150 -3 0 -5 -29 -6 -65z"/>
<path d="M1198 344 c-4 -6 -5 -23 -3 -37 4 -18 0 -29 -12 -36 -16 -9 -15 -11
10 -20 15 -6 27 -13 27 -16 0 -3 -16 2 -36 10 -20 8 -39 15 -43 15 -3 0 1 5 9
10 9 6 10 10 3 10 -30 0 -38 -11 -35 -50 l4 -40 58 0 c32 0 65 -3 74 -6 10 -4
16 -1 16 9 0 11 13 18 38 22 20 4 44 9 52 12 8 4 17 7 20 8 3 0 29 7 58 14 28
7 52 17 52 22 0 5 10 9 22 9 14 0 18 4 13 9 -9 9 -142 19 -262 20 -46 1 -52 4
-55 24 -2 13 -6 17 -10 11z"/>
<path d="M315 291 c23 -5 31 -13 36 -36 5 -21 7 -24 8 -9 0 12 9 24 19 28 9 3
22 8 27 11 6 3 12 -6 13 -20 1 -21 -3 -25 -24 -25 -14 0 -23 -4 -19 -10 3 -6
0 -13 -8 -16 -13 -5 -12 -13 4 -59 10 -30 19 -61 19 -70 0 -11 11 -15 43 -15
38 0 44 -3 54 -27 l11 -28 1 31 c1 28 4 31 26 27 20 -4 27 0 36 23 28 68 52
115 56 111 2 -2 -5 -28 -17 -56 -11 -29 -18 -56 -15 -61 3 -5 -1 -11 -7 -14
-7 -3 -4 -5 7 -3 23 2 45 -10 45 -24 0 -6 -4 -8 -9 -5 -5 3 -11 -5 -13 -19 -5
-23 -2 -25 28 -25 34 0 34 0 35 48 0 26 3 77 5 113 5 65 5 67 -20 71 -15 3
-26 1 -26 -5 0 -8 -4 -7 -11 0 -18 18 1 36 32 29 21 -4 29 -2 29 9 0 8 -13 16
-32 19 -51 8 -367 15 -333 7z"/>
<path d="M1174 148 c3 -13 6 -27 6 -31 0 -5 18 -6 40 -2 37 6 40 5 40 -15 0
-19 -4 -22 -35 -18 -19 2 -35 3 -35 2 0 -14 25 -64 32 -64 5 0 7 -4 4 -8 -2
-4 6 -9 20 -10 13 -1 24 4 24 11 0 6 15 13 33 15 85 7 102 22 24 22 -60 0 -58
-4 -48 63 0 5 35 7 76 6 41 -1 78 1 82 4 3 4 -33 7 -81 7 -83 0 -87 1 -81 20
6 18 2 20 -50 20 -55 0 -57 -1 -51 -22z"/>
<path d="M1554 59 c-6 -11 2 -24 15 -24 4 0 15 -8 25 -18 16 -15 44 -17 297
-17 243 0 280 2 286 15 3 9 4 18 2 20 -2 2 -87 6 -189 9 -243 8 -380 15 -407
20 -13 3 -25 0 -29 -5z"/>
</g>
</svg>
