<?xml version="1.0" standalone="no"?>
<!DOCTYPE svg PUBLIC "-//W3C//DTD SVG 20010904//EN"
 "http://www.w3.org/TR/2001/REC-SVG-20010904/DTD/svg10.dtd">
<svg version="1.0" xmlns="http://www.w3.org/2000/svg"
 width="592.000000pt" height="433.000000pt" viewBox="0 0 592.000000 433.000000"
 preserveAspectRatio="xMidYMid meet">
<metadata>
Created by potrace 1.15, written by Peter Selinger 2001-2017
</metadata>
<g transform="translate(0.000000,433.000000) scale(0.100000,-0.100000)"
fill="#000000" stroke="none">
<path d="M4132 3145 c-16 -12 -27 -13 -41 -6 -14 8 -21 7 -24 -2 -4 -9 -8 -8
-16 3 -6 9 -11 10 -11 3 0 -6 -9 -9 -22 -5 -16 4 -19 2 -13 -8 5 -8 4 -11 -3
-6 -12 7 -62 -38 -62 -58 0 -20 -39 -56 -61 -56 -11 0 -22 7 -25 15 -11 27
-29 16 -46 -29 -20 -53 -11 -64 45 -60 26 2 37 -1 37 -11 0 -8 7 -11 20 -8 12
3 20 0 20 -7 0 -10 4 -10 18 1 10 9 35 14 60 13 23 0 45 3 48 7 3 5 0 9 -6 9
-6 0 -8 5 -5 10 4 6 12 7 18 3 7 -4 16 -8 21 -8 5 0 14 -13 19 -29 8 -23 6
-31 -7 -38 -18 -10 -22 -28 -5 -28 5 0 7 5 4 10 -3 6 0 10 8 10 20 0 3 -88
-20 -106 -23 -17 -33 -17 -33 0 0 7 -9 16 -21 19 -14 4 -18 10 -13 19 4 7 4
10 -1 6 -4 -4 -14 -3 -22 3 -18 15 -17 -2 3 -29 8 -12 21 -19 27 -16 7 4 9 3
4 -1 -4 -5 -1 -15 6 -24 14 -17 31 -66 42 -120 4 -18 10 -29 14 -24 3 6 16 13
29 17 13 5 22 15 22 27 0 11 -4 18 -8 15 -11 -7 -30 7 -32 24 -1 8 -1 29 0 45
2 30 2 30 10 5 6 -18 8 -20 9 -7 1 10 6 15 11 12 6 -3 10 -1 10 5 0 6 5 8 10
5 6 -4 10 -12 9 -18 -3 -29 2 -57 11 -57 6 0 10 11 10 24 0 13 3 31 6 40 5 14
8 14 21 1 12 -13 17 -13 39 1 13 9 27 14 31 10 3 -3 1 -6 -5 -6 -7 0 -12 -7
-12 -16 0 -21 34 -14 38 8 4 23 -37 45 -49 27 -7 -11 -9 -10 -9 3 0 9 -9 20
-20 23 -14 5 -19 12 -15 24 3 11 0 18 -9 18 -9 0 -13 -4 -10 -9 3 -4 0 -8 -6
-8 -7 0 -14 9 -17 20 -3 11 -9 20 -14 20 -5 0 -12 15 -17 32 -7 29 -4 36 25
65 18 18 27 33 21 33 -6 0 -17 -8 -25 -17 -14 -17 -14 -17 -9 0 3 10 6 25 6
33 0 8 5 14 11 14 5 0 8 -3 6 -7 -3 -5 8 -9 24 -10 15 -1 31 3 35 9 5 8 2 9
-9 5 -11 -4 -17 -1 -17 8 0 8 -9 15 -21 15 -11 0 -18 4 -15 9 4 5 -3 7 -13 4
-12 -3 -17 -11 -14 -19 3 -8 1 -14 -4 -14 -19 0 -23 14 -7 31 13 14 13 22 4
39 -7 13 -8 20 -2 16 6 -3 13 0 16 6 4 9 5 8 5 -2 -2 -31 1 -39 15 -34 8 3 17
1 21 -5 4 -7 22 -9 47 -4 26 4 39 2 35 -4 -4 -6 6 -9 23 -8 16 1 27 -2 24 -7
-3 -4 -18 -8 -33 -8 -18 0 -28 -5 -28 -15 0 -8 8 -15 18 -15 10 0 24 -7 33
-15 8 -8 20 -15 26 -15 17 0 45 -30 28 -30 -7 0 -4 -6 7 -12 11 -6 26 -18 33
-26 7 -10 12 -11 12 -4 0 9 4 9 19 1 19 -13 51 -6 51 9 0 5 -13 15 -29 22 -34
14 -47 38 -26 47 10 3 13 12 9 25 -4 14 -2 18 5 14 6 -4 11 0 11 9 0 13 -57
45 -124 69 -10 3 -16 12 -13 20 4 9 -4 17 -21 22 -40 11 -92 12 -92 2 0 -5 -7
-2 -16 6 -19 20 -24 20 -52 1z"/>
<path d="M213 2893 c-13 -3 -20 -10 -17 -18 6 -16 -23 -24 -51 -14 -12 4 -25
1 -33 -7 -10 -11 -8 -15 8 -24 11 -6 19 -16 17 -23 -1 -7 4 -11 12 -9 8 2 18
-3 22 -10 6 -9 13 -8 31 7 13 11 20 16 16 11 -4 -5 -3 -17 3 -27 6 -12 6 -19
0 -19 -5 0 -12 6 -14 13 -3 7 -6 5 -6 -5 -1 -13 7 -18 29 -18 17 0 30 -5 30
-10 0 -9 -20 -8 -72 6 -9 3 -19 0 -23 -6 -4 -6 4 -10 19 -10 14 0 26 -4 26
-10 0 -5 -7 -10 -15 -10 -13 0 -15 -7 -10 -34 10 -51 -1 -75 -30 -70 -22 4
-25 0 -26 -23 l-1 -28 -7 25 c-8 26 -37 30 -54 7 -5 -7 -7 -3 -4 11 3 13 0 22
-6 22 -7 0 -22 3 -35 6 -23 7 -23 6 -20 -92 l3 -99 83 -2 83 -1 -3 36 c-3 33
-6 37 -30 37 -29 -1 -37 9 -15 17 11 5 63 3 112 -4 14 -2 21 4 23 20 3 21 7
22 119 22 106 0 115 -1 120 -20 4 -13 14 -20 30 -20 16 0 27 -7 30 -20 3 -11
13 -20 22 -21 59 -3 79 -19 23 -19 -31 0 -42 -4 -42 -15 0 -18 50 -21 67 -4 8
8 13 7 18 -2 6 -8 4 -10 -4 -4 -16 9 -12 -42 4 -64 7 -11 7 -13 -2 -7 -7 4
-13 3 -13 -3 0 -5 16 -8 35 -7 36 3 62 16 32 16 -11 0 -15 8 -13 33 2 26 7 32
24 31 12 0 22 5 22 13 0 7 -10 14 -22 14 -18 1 -19 2 -5 6 9 2 15 9 12 14 -3
5 0 6 8 3 8 -3 38 -6 66 -8 27 -1 53 -5 56 -8 4 -3 -19 -5 -49 -4 -48 2 -56 0
-56 -16 0 -19 -1 -19 118 -22 45 -1 72 2 72 8 0 6 4 5 9 -3 5 -7 13 -11 19 -7
6 3 13 2 16 -3 3 -5 -1 -11 -9 -15 -8 -3 -15 -14 -15 -25 0 -14 -5 -19 -15
-15 -8 3 -35 -8 -60 -25 -93 -62 -67 -59 -488 -57 l-387 2 0 -54 c0 -31 5 -60
12 -66 10 -8 12 -79 9 -311 -3 -173 -7 -275 -11 -240 l-7 60 -1 -77 c-1 -45 2
-78 8 -78 5 0 7 8 3 18 -6 16 -5 16 14 0 21 -19 43 -24 43 -9 0 5 -6 12 -12
14 -12 5 105 11 222 12 36 0 59 5 68 15 10 13 11 13 6 -3 -5 -15 -1 -16 37
-11 24 4 53 6 64 6 18 -1 20 4 17 38 l-4 40 -69 0 c-55 0 -69 3 -69 15 0 8 -4
15 -10 15 -28 0 -18 173 12 191 6 4 33 6 59 4 28 -3 51 0 55 6 15 24 24 -20
24 -116 0 -64 3 -96 10 -89 5 5 10 106 12 237 1 125 5 232 8 238 4 6 32 11 63
12 30 1 53 -1 51 -4 -3 -6 32 -5 136 5 l25 2 -2 -112 -2 -111 27 4 c15 3 37 9
49 15 30 15 211 6 248 -13 18 -9 30 -22 30 -34 0 -11 4 -23 8 -26 5 -4 -33 -5
-85 -4 -51 1 -68 1 -38 -1 106 -7 117 -11 115 -42 -1 -15 -4 -33 -8 -39 -4 -6
-3 -14 3 -18 5 -3 10 -24 10 -45 0 -21 5 -42 10 -45 15 -9 12 -25 -6 -25 -13
0 -15 -14 -13 -87 l2 -88 -49 -6 c-40 -6 -54 -3 -74 12 -87 67 -205 51 -287
-37 -15 -16 -30 -28 -35 -27 -4 2 -7 -7 -5 -19 2 -17 -5 -23 -33 -30 -19 -4
-50 -5 -68 -2 -19 3 -32 1 -32 -6 0 -5 20 -10 45 -10 31 0 45 -4 45 -14 0 -7
11 -29 23 -48 l24 -34 -26 -12 c-33 -14 -86 -17 -128 -8 -19 4 -33 4 -33 -2 0
-5 -23 -3 -52 5 -41 10 -97 12 -245 7 -175 -6 -193 -9 -193 -25 0 -9 6 -20 13
-22 9 -4 9 -6 -1 -6 -10 -1 -13 -31 -11 -132 l1 -131 67 6 c77 8 154 12 381
21 91 3 190 8 220 10 30 2 132 7 225 10 94 3 233 10 310 15 77 5 355 11 618
12 263 1 481 6 483 10 3 4 0 8 -7 8 -7 0 -10 2 -7 5 9 9 38 -6 32 -17 -7 -11
188 -10 391 3 77 4 210 11 295 14 160 7 261 13 270 15 3 1 21 1 41 0 21 -1 40
3 43 8 3 5 128 10 297 11 160 1 295 4 299 6 4 3 229 7 500 10 271 3 497 8 503
12 6 4 7 1 2 -7 -6 -10 17 -11 111 -5 66 4 124 11 129 17 6 6 3 7 -10 3 -15
-5 -17 -4 -6 3 9 6 23 7 37 2 36 -14 104 -20 104 -9 0 11 79 7 98 -4 6 -5 12
-4 12 2 0 6 39 10 103 10 56 0 119 2 140 6 20 4 60 2 89 -5 29 -6 62 -14 73
-16 16 -4 15 -2 -5 11 -24 14 -23 15 28 9 l52 -7 -1 112 c0 77 -4 111 -12 111
-8 0 -7 4 2 9 9 6 -2 10 -34 13 -26 2 -49 0 -51 -4 -3 -5 -26 -7 -52 -7 -46 2
-46 2 -12 9 46 10 -248 12 -453 3 -86 -3 -155 -9 -152 -11 3 -3 69 -5 148 -3
78 1 140 0 137 -2 -3 -3 -117 -7 -255 -10 -137 -2 -218 -1 -180 3 39 3 68 8
65 9 -17 8 -244 11 -235 3 6 -6 19 -12 30 -15 11 -3 -2 -5 -28 -6 -30 -1 -46
3 -42 9 10 16 -71 12 -85 -4 -6 -8 -18 -12 -26 -9 -8 3 -14 0 -14 -7 0 -7 -8
-10 -20 -7 -11 3 -20 1 -20 -5 0 -6 15 -8 38 -5 20 3 53 8 72 11 19 3 26 3 15
0 -40 -10 -75 -27 -75 -35 0 -12 2 -12 39 7 17 9 38 13 46 10 8 -3 15 -1 15 4
0 5 8 9 18 9 223 9 312 9 307 1 -4 -6 10 -11 32 -12 21 0 -6 -4 -60 -8 -68 -4
-102 -11 -108 -21 -8 -11 -9 -10 -7 6 2 15 -2 19 -17 18 -11 -2 -63 -6 -115
-9 -52 -4 -106 -10 -118 -15 -13 -5 -29 -6 -34 -2 -6 3 -29 5 -50 5 -31 -2
-47 -10 -74 -37 -34 -35 -67 -45 -80 -23 -4 6 -3 8 3 5 6 -4 20 1 31 11 11 9
29 22 39 29 14 10 -8 12 -112 11 -159 -1 -225 -7 -225 -22 0 -12 -45 -36 -67
-36 -7 0 -10 7 -7 15 4 8 14 15 24 15 11 0 22 4 25 10 6 10 -192 7 -605 -8
-158 -6 -190 -10 -170 -19 16 -8 19 -12 9 -12 -30 -2 -81 12 -71 18 6 3 -48 6
-119 6 -71 0 -129 -3 -129 -7 0 -4 -12 -9 -27 -11 -16 -2 4 -3 42 -1 39 2 86
0 105 -4 l35 -8 -45 -9 c-41 -8 -42 -9 -14 -12 39 -5 88 13 78 29 -4 7 -3 8 4
4 6 -4 8 -14 5 -22 -5 -13 -2 -15 18 -8 13 4 103 10 199 14 148 6 158 7 66 8
-60 1 -106 5 -103 9 13 12 211 3 239 -12 18 -8 50 -12 86 -10 31 2 46 1 32 -2
-14 -3 -28 -9 -31 -14 -3 -6 -24 -6 -54 1 -35 8 -80 8 -162 0 -62 -6 -141 -11
-175 -11 -119 0 -253 -11 -265 -21 -9 -7 -13 -7 -13 0 0 7 -10 8 -29 2 -17 -4
-48 -6 -70 -3 -22 3 -48 2 -58 -2 -10 -4 -71 -8 -136 -9 -70 -2 -121 -7 -125
-13 -4 -6 -49 -10 -112 -10 -67 0 -92 3 -70 7 31 7 28 7 -20 8 -41 0 -50 -2
-35 -8 15 -7 10 -9 -25 -9 -158 3 -240 -2 -238 -13 2 -7 -13 -12 -37 -14 -27
-1 -33 0 -20 5 14 6 2 10 -41 15 -65 7 -98 1 -87 -17 4 -7 0 -8 -11 -4 -10 4
-20 7 -22 7 -3 0 -2 5 1 10 4 6 -8 10 -27 11 -45 1 -97 6 -133 13 -25 5 -26 4
-5 -2 20 -7 13 -10 -39 -15 -96 -10 -203 -9 -196 3 3 6 18 10 33 10 26 1 26 1
7 16 -16 12 -17 17 -7 23 10 6 8 10 -10 14 -33 9 -58 7 -28 -3 21 -7 19 -8
-17 -9 -23 -1 -45 -5 -48 -11 -4 -6 1 -7 12 -4 15 5 16 4 3 -5 -19 -14 -53
-14 -45 -1 4 6 -12 10 -40 10 -41 0 -45 -2 -31 -15 9 -9 33 -15 65 -15 27 0
52 -4 55 -8 2 -4 -23 -6 -57 -5 -165 8 -277 7 -273 -2 4 -11 -64 -12 -82 -1
-7 4 -12 2 -12 -4 0 -13 -738 -12 -745 0 -3 4 57 10 133 14 88 5 148 13 167
22 16 8 31 11 33 5 2 -5 21 -7 42 -4 26 4 40 2 40 -6 0 -6 7 -11 16 -11 8 0
12 5 9 10 -4 6 21 11 67 12 40 1 84 2 98 2 33 2 45 -5 29 -15 -10 -6 -8 -9 9
-9 13 0 21 4 17 9 -3 5 -1 12 5 16 5 3 10 1 10 -4 0 -6 15 -10 33 -10 l32 1
-30 8 c-23 6 -14 8 35 8 50 0 58 -2 35 -8 -21 -5 -7 -7 47 -7 58 1 74 4 67 13
-7 8 -6 14 3 17 11 4 11 6 0 6 -7 1 -24 -6 -37 -15 -13 -9 -29 -13 -36 -9 -8
6 -8 10 2 16 8 4 -58 7 -146 7 -101 -1 -163 -6 -167 -12 -5 -7 -8 -7 -8 2 0
13 -46 17 -54 4 -4 -7 -18 -8 -96 -3 -32 2 -33 3 -12 12 13 5 35 6 49 3 16 -4
24 -3 20 3 -4 6 63 10 186 11 106 0 192 1 192 2 0 2 156 9 312 14 78 2 147 7
152 11 6 3 15 4 20 0 9 -5 59 -5 259 -1 23 0 42 4 42 8 0 3 8 8 18 10 9 2 -13
4 -50 4 -36 -1 -65 -3 -63 -6 2 -3 -12 -4 -30 -2 -24 3 -32 8 -28 18 3 8 1 14
-5 14 -6 0 -12 -5 -14 -11 -2 -5 -25 -12 -50 -13 -26 -2 -45 1 -42 5 3 5 24
10 47 10 l42 2 -40 7 c-37 7 -35 7 22 9 34 0 64 -3 67 -8 9 -14 253 -11 340 5
43 8 82 12 86 9 4 -3 48 2 96 11 59 10 123 13 189 10 55 -3 104 -1 110 3 5 4
21 5 35 1 22 -6 20 -8 -17 -14 -78 -14 -53 -21 65 -19 75 2 116 6 114 13 -1 6
27 10 75 11 43 0 92 3 108 5 23 3 26 2 15 -6 -10 -7 24 -10 113 -10 83 0 126
-4 122 -10 -3 -5 -1 -10 4 -10 6 0 11 5 11 10 0 6 8 10 18 10 9 0 23 4 30 9 7
4 -12 7 -45 5 l-58 -3 55 10 c30 5 154 13 275 18 216 8 255 13 255 33 0 13
133 0 141 -14 4 -7 67 -11 160 -12 157 -1 234 7 224 25 -4 5 1 9 9 9 9 0 16
-7 16 -16 0 -36 185 4 317 68 28 14 27 15 -15 21 -18 3 -44 12 -56 21 -13 8
-52 17 -87 20 -35 4 -59 4 -52 0 13 -6 6 -35 -11 -46 -6 -4 -41 -8 -77 -8
l-67 0 -7 33 c-4 17 -7 38 -6 46 5 30 -29 96 -56 109 -82 38 -180 22 -217 -36
-19 -28 -46 -123 -46 -159 0 -2 -7 -3 -15 -3 -8 0 -15 -9 -15 -20 0 -21 -7
-25 -28 -12 -20 13 -4 100 19 107 20 7 28 55 9 55 -5 0 -10 9 -10 20 0 11 5
20 12 20 9 0 9 3 0 12 -7 7 -12 22 -12 34 0 16 8 23 31 28 21 4 28 10 23 18
-4 7 -4 10 1 6 10 -9 45 9 45 23 0 7 -10 9 -27 4 -24 -6 -25 -5 -12 11 12 16
12 17 -3 11 -14 -5 -18 -1 -18 14 0 11 5 17 10 14 5 -3 11 1 11 9 3 29 4 34
11 42 4 4 10 -1 14 -10 14 -36 22 -11 26 82 5 92 -3 129 -23 116 -5 -3 -9 -22
-9 -43 0 -30 -4 -40 -20 -44 -29 -8 -54 1 -69 25 -7 12 -8 17 -1 13 7 -4 10 6
9 32 -2 57 -19 105 -34 99 -8 -3 -30 -8 -50 -12 -26 -5 -39 -14 -46 -31 -16
-43 -11 -60 17 -60 36 0 48 -16 51 -68 3 -44 2 -45 -28 -45 -18 0 -28 4 -24
10 10 16 -5 50 -21 50 -11 0 -14 -16 -14 -70 l0 -70 45 -12 c44 -12 45 -14 39
-43 -8 -38 -43 -97 -54 -90 -5 3 -2 19 7 35 9 19 12 41 8 60 -6 27 -8 28 -31
18 -13 -6 -24 -19 -24 -29 0 -10 -4 -21 -10 -24 -5 -3 -10 1 -10 10 0 11 -5
15 -14 12 -8 -3 -17 -1 -20 6 -2 7 -5 8 -5 2 -1 -6 -40 -8 -106 -5 -79 4 -105
2 -105 -7 0 -19 -31 -3 -40 21 -7 17 -9 14 -9 -16 -1 -36 -3 -38 -32 -38 -23
0 -30 4 -26 14 4 10 -2 18 -16 22 -12 4 -23 2 -25 -5 -2 -6 -8 -9 -12 -6 -14
9 -189 12 -192 3 -2 -4 -10 -3 -18 2 -9 6 -17 32 -21 72 l-6 63 -1 -85 c-2
-84 -3 -86 -27 -88 -14 -1 -25 4 -25 11 0 6 -10 13 -22 14 -138 14 -214 17
-216 11 -8 -17 -32 -7 -46 20 l-15 27 -1 -42 c0 -39 -2 -43 -24 -43 -13 0 -26
4 -28 10 -4 12 -212 31 -216 20 -2 -4 -12 -6 -23 -3 -20 6 -26 22 -32 88 -3
31 -4 27 -5 -17 -1 -32 -6 -58 -12 -58 -10 0 -25 67 -23 107 0 13 -5 19 -13
16 -7 -2 -14 4 -17 14 -3 12 -5 8 -7 -12 -1 -16 -1 -34 1 -40 1 -5 6 -53 9
-105 4 -52 10 -104 14 -115 l8 -20 -12 20 c-7 11 -19 25 -27 32 -9 7 -18 26
-22 43 -6 32 -7 32 -69 34 -41 1 -62 -3 -62 -11 0 -6 -5 -13 -12 -15 -6 -2
-12 -23 -13 -46 0 -23 -4 -44 -8 -48 -10 -10 -9 -54 1 -54 4 0 13 20 20 45 14
54 42 63 42 14 0 -34 -27 -74 -50 -74 -8 0 -16 -9 -18 -21 -3 -19 1 -20 60
-17 129 7 137 13 138 81 0 13 4 20 10 17 6 -3 10 -17 10 -31 0 -13 5 -24 10
-24 20 0 9 -19 -12 -23 -13 -2 9 -3 48 -2 69 2 72 1 70 -21 -1 -24 5 -24 -248
-40 -79 -5 -98 -9 -98 -21 0 -13 -3 -13 -15 -3 -8 7 -23 10 -34 7 -14 -3 -21
3 -29 29 -9 31 -8 34 11 35 12 1 27 1 32 0 10 -1 55 172 55 207 0 9 -18 12
-64 11 -56 -2 -65 -5 -71 -23 -6 -18 -8 -19 -12 -3 -4 14 -16 17 -63 17 -32 0
-62 4 -65 10 -4 6 1 7 12 3 15 -5 16 -4 7 8 -7 8 -15 32 -19 55 l-6 41 38 6
c21 4 50 7 66 7 15 0 27 3 27 8 0 4 -31 6 -69 4 l-69 -4 -4 -69 c-2 -40 1 -70
7 -72 5 -2 2 -11 -8 -21 -16 -17 -17 -16 -17 3 0 20 -5 21 -73 19 -77 -2 -74
-1 -78 -55 -1 -10 2 -44 6 -75 7 -56 7 -58 -15 -58 -21 0 -22 2 -15 63 3 34 9
70 11 80 3 10 0 17 -8 17 -10 0 -9 3 2 10 11 7 -5 10 -52 10 l-68 0 0 60 0 60
59 0 c33 0 63 5 66 10 4 6 -21 10 -67 10 l-73 0 3 -80 c3 -63 1 -83 -12 -95
-9 -9 -16 -12 -16 -6 0 7 -26 12 -62 13 l-63 1 65 7 65 7 -67 1 -68 2 0 60 c0
59 1 60 28 60 40 0 102 12 102 19 0 3 -33 5 -72 3 l-73 -3 3 -85 c2 -55 0 -84
-7 -84 -6 0 -11 -6 -11 -12 0 -7 -9 -24 -19 -37 l-18 -24 -7 62 c-3 33 -9 89
-12 122 -5 44 -4 60 4 55 18 -11 26 63 13 113 -11 40 -10 46 9 66 27 28 12 39
-26 20 -17 -8 -63 -14 -109 -15 -141 -2 -155 -1 -155 15 0 12 22 14 128 12
l127 -2 1 75 c1 41 0 64 -3 50 -2 -14 -9 -37 -15 -52 -8 -22 -13 -25 -23 -15
-13 14 -87 141 -98 170 -5 14 -20 17 -89 19 -46 0 -98 1 -116 0 l-33 -1 3 57
3 57 188 0 c143 0 187 3 187 12 0 7 -7 13 -15 13 -20 0 -19 17 2 29 14 7 17
21 15 68 -1 32 -7 59 -12 61 -5 2 -6 10 -3 19 10 25 -20 10 -32 -15 -5 -12
-13 -22 -17 -22 -5 0 -8 -7 -8 -15 0 -8 -6 -15 -13 -15 -7 0 -13 -9 -14 -20
-1 -11 4 -20 10 -19 7 1 23 1 36 0 23 -1 23 -2 8 -19 -10 -10 -16 -21 -15 -23
2 -2 -2 1 -8 8 -16 18 -24 16 -24 -6 0 -12 8 -21 23 -24 12 -2 -16 -4 -63 -4
-46 0 -79 2 -72 5 7 2 12 8 12 13 0 6 -5 7 -10 4 -5 -3 -10 1 -10 9 0 9 -7 16
-15 16 -20 0 -19 14 2 31 15 12 16 12 10 -4 -6 -15 -1 -17 33 -15 35 3 39 6
33 23 -5 18 -4 18 11 6 21 -17 25 -13 31 33 5 34 3 36 -22 36 -21 0 -24 -3
-15 -12 16 -16 16 -42 0 -31 -7 4 -21 6 -30 5 -10 -2 -18 3 -18 10 0 10 -2 10
-9 -1 -12 -19 -41 -23 -34 -5 3 8 -1 14 -11 14 -19 0 -21 -21 -4 -38 9 -9 8
-12 -6 -12 -16 0 -16 -2 -5 -16 10 -13 10 -17 -2 -25 -8 -5 -17 -9 -20 -9 -11
0 -18 40 -8 46 24 15 6 25 -33 19 -62 -9 -101 -6 -110 8 -6 9 -8 9 -8 -1 0 -7
10 -16 22 -21 15 -5 17 -9 7 -13 -8 -3 -24 6 -37 18 -17 18 -19 24 -7 24 8 0
15 5 15 10 0 7 6 7 18 2 9 -5 24 -8 33 -7 15 3 63 48 104 99 11 14 25 25 31
26 17 0 45 36 37 45 -5 4 0 5 9 2 12 -4 21 1 28 13 15 28 39 26 34 -2 -5 -23
-4 -23 5 -2 15 34 26 35 26 3 1 -16 -2 -29 -5 -30 -33 -5 -48 -4 -44 3 7 11
-3 10 -28 -4 -39 -23 -46 -33 -46 -76 -1 -46 11 -54 28 -21 11 20 12 20 31 3
10 -9 19 -13 20 -8 0 5 2 16 4 25 2 12 -3 15 -19 11 -21 -5 -21 -5 -2 16 21
24 42 28 48 10 8 -22 34 14 42 56 6 30 10 36 19 26 9 -10 9 -14 0 -17 -8 -3
-13 -22 -13 -44 0 -34 -4 -41 -27 -50 -26 -10 -27 -11 -9 -21 15 -8 21 -8 24
0 2 7 8 10 13 6 5 -3 9 6 9 20 0 18 5 26 18 26 13 0 14 -2 4 -9 -10 -6 -8 -10
9 -14 13 -4 25 -4 28 -2 2 3 -1 5 -8 5 -7 0 -9 5 -6 10 4 6 11 7 17 4 7 -4 8
-2 4 5 -4 6 -12 9 -17 6 -15 -10 -10 7 8 27 16 18 16 18 -2 12 -13 -5 -16 -4
-11 4 4 7 2 12 -3 12 -6 0 -11 7 -11 15 0 8 4 15 9 15 10 0 25 36 26 60 0 14
22 21 70 21 10 0 25 5 32 11 10 8 17 8 25 0 7 -7 9 -12 4 -12 -4 0 0 -7 8 -16
9 -8 20 -13 25 -9 13 8 32 -30 33 -66 1 -27 4 -29 40 -29 29 0 37 3 32 12 -12
19 -15 78 -4 78 6 0 10 -7 10 -16 0 -8 5 -12 10 -9 9 6 14 -14 11 -42 -1 -7 6
-13 16 -14 10 0 28 -2 41 -5 23 -4 31 11 10 19 -8 3 -6 6 5 6 9 1 17 -5 17
-13 0 -8 9 -13 23 -12 12 1 21 7 20 14 -2 7 4 12 12 12 8 0 15 -8 16 -17 0
-11 3 -13 6 -5 2 6 11 12 19 12 9 0 12 -4 9 -10 -9 -14 309 -13 338 1 20 9 20
9 5 -4 -17 -13 -25 -37 -13 -37 4 0 19 7 35 15 25 13 30 13 30 2 0 -8 9 -22
20 -32 26 -24 26 -55 0 -55 -11 0 -20 -4 -20 -9 0 -5 -12 -11 -28 -13 -20 -2
-28 -9 -30 -28 -2 -20 2 -26 20 -28 13 -1 37 -6 53 -11 27 -8 25 -9 -22 -10
-35 -1 -53 -5 -53 -13 0 -9 -4 -8 -10 2 -8 13 -10 13 -10 -1 0 -9 10 -21 23
-27 12 -6 16 -11 10 -11 -7 -1 -13 -6 -13 -12 0 -5 6 -7 13 -4 6 4 4 0 -5 -8
-16 -13 -18 -37 -17 -258 0 -134 3 -237 6 -229 13 35 25 41 40 20 16 -23 88
-29 96 -7 3 6 6 0 6 -15 1 -24 5 -28 30 -28 34 0 44 25 32 80 -6 29 -11 35
-33 35 -15 0 -30 4 -35 8 -4 5 12 8 37 7 80 -3 90 -1 90 19 0 27 -20 40 -58
37 -17 -1 -32 1 -32 4 0 4 -10 6 -22 6 -19 -1 -24 -8 -28 -44 -7 -63 -25 -56
-28 11 -3 55 -4 58 -33 64 l-29 6 0 114 c0 84 -3 112 -12 107 -6 -4 -8 -3 -5
3 4 6 18 13 32 15 24 5 25 3 26 -51 l1 -56 10 50 c5 28 10 71 11 97 1 27 5 48
10 48 4 0 7 7 7 16 0 9 5 12 13 8 9 -6 10 -4 0 7 -8 8 -13 43 -13 96 l0 83 48
1 c26 1 59 2 75 3 l27 2 1 -106 c1 -58 0 -113 -1 -123 -1 -10 4 -26 12 -35 9
-11 10 -14 1 -8 -22 12 -14 -2 17 -34 16 -16 35 -28 42 -25 7 3 20 0 28 -5 13
-9 13 -11 0 -20 -12 -8 -11 -10 7 -10 21 0 22 -3 17 -67 -2 -38 -1 -100 4
-140 8 -70 7 -72 -15 -78 -13 -3 -22 -9 -19 -13 2 -4 -14 -6 -37 -5 -23 1 -34
0 -24 -3 9 -3 15 -10 12 -15 -4 -5 80 -9 209 -9 166 0 216 3 216 13 0 9 2 9 9
-1 4 -8 11 -13 15 -13 24 3 88 0 84 -4 -3 -4 -123 -6 -267 -5 -240 0 -260 -1
-254 -16 6 -16 52 -17 626 -11 616 6 636 7 637 37 0 3 -109 5 -242 4 -161 0
-184 1 -69 3 172 3 174 4 156 23 -10 11 -22 20 -28 20 -5 0 -37 14 -71 31 -57
29 -64 31 -104 20 -39 -10 -52 -8 -127 18 -46 17 -85 27 -87 22 -4 -11 -132
-71 -151 -71 -9 0 -35 7 -57 16 -36 15 -41 15 -56 0 -9 -10 -19 -14 -22 -11
-4 3 0 10 8 15 26 16 2 11 -43 -10 -32 -14 -59 -18 -110 -16 -37 2 -70 5 -72
8 -3 3 -1 16 4 29 7 16 10 19 10 7 1 -12 13 -19 45 -23 25 -4 51 -5 58 -2 7 3
3 6 -9 6 -13 1 -23 7 -23 15 0 8 -3 16 -7 19 -5 2 -3 2 4 1 6 -2 14 4 17 13 5
12 1 14 -18 11 -18 -4 -26 0 -29 14 -6 22 34 63 61 63 11 0 20 14 28 40 6 22
13 38 17 35 3 -3 9 -1 13 3 4 4 -5 7 -22 5 -28 -2 -29 -4 -27 -42 2 -23 0 -36
-3 -29 -3 7 -11 10 -18 7 -7 -3 -13 1 -13 8 0 20 -34 68 -47 67 -7 0 -6 -2 2
-6 24 -9 6 -43 -23 -43 -11 0 0 60 12 64 22 9 15 23 -9 20 -64 -9 -109 -12
-104 -7 3 3 1 15 -5 26 -6 10 -11 35 -11 53 0 19 -5 34 -11 34 -6 0 -2 7 9 15
18 14 18 14 -5 10 -22 -4 -22 -3 -7 14 19 21 21 37 4 44 -9 4 -10 8 -2 14 6 4
14 40 17 78 11 117 7 110 70 113 32 2 57 7 57 11 0 5 -11 6 -25 3 -34 -6 -100
7 -89 18 5 5 34 11 64 13 52 3 52 3 -15 5 l-70 2 -2 -72 c-1 -41 -7 -74 -13
-76 -8 -3 -8 -8 0 -17 9 -11 3 -13 -35 -11 -25 2 -47 5 -50 7 -10 11 9 59 24
60 10 0 7 4 -9 12 -14 6 -27 14 -30 17 -10 10 -30 10 -30 0 0 -13 -41 -13 -75
0 -15 6 -60 12 -101 15 -71 5 -85 11 -129 53 -8 6 -18 12 -24 12 -6 0 -32 10
-57 21 l-46 22 -40 -22 c-22 -11 -46 -21 -54 -21 -7 0 -11 -6 -8 -14 3 -9 -6
-17 -25 -24 -34 -12 -46 -3 -36 28 7 23 -15 36 -42 26 -15 -6 -15 -8 -3 -16 8
-5 11 -12 8 -15 -10 -10 -28 4 -28 21 0 8 -5 14 -10 14 -6 0 -8 -11 -4 -25 7
-28 2 -30 -27 -14 -11 5 -17 15 -13 21 4 6 -1 8 -14 4 -13 -4 -22 -1 -26 9 -3
8 -13 15 -23 15 -16 0 -16 2 -3 11 12 9 12 10 -4 5 -11 -4 -39 3 -65 16 -92
46 -297 15 -363 -55 -16 -15 -28 -32 -28 -38 0 -5 -7 -9 -15 -9 -8 0 -15 -4
-15 -9 0 -5 -9 -13 -20 -16 -11 -4 -32 -18 -46 -32 -22 -22 -34 -25 -100 -27
-41 0 -74 -5 -74 -11 0 -5 -5 -4 -11 2 -7 7 -20 8 -34 3 -13 -5 -41 -4 -65 1
-24 6 -50 7 -59 3 -14 -6 -120 -16 -163 -15 -10 0 -18 -5 -18 -12 0 -6 -6 -2
-14 8 -12 18 -21 20 -82 14 -38 -4 -76 -8 -84 -10 -34 -5 -86 3 -105 17 -17
12 -18 17 -7 35 11 17 11 20 0 13 -11 -6 -11 -5 0 9 8 9 11 20 8 26 -4 5 8 8
26 7 18 -1 41 2 51 6 16 8 16 11 2 38 -19 36 -19 44 -1 37 8 -3 20 1 27 9 13
16 14 16 -21 31 -18 9 -20 12 -7 12 9 1 17 7 17 15 0 9 -19 18 -50 25 -28 6
-52 10 -53 10 -1 -1 -12 -4 -24 -6z m3108 -1295 c16 -18 29 -36 29 -40 0 -4
71 -8 158 -8 86 0 189 -2 227 -4 39 -2 72 -1 75 3 12 15 53 45 46 33 -4 -7 -1
-14 7 -18 7 -2 14 -11 14 -19 0 -8 -5 -11 -10 -8 -5 3 -19 -5 -31 -18 -28 -32
-54 -35 -75 -10 -25 29 -59 27 -66 -2 -4 -13 -5 -27 -4 -33 6 -32 -4 -51 -31
-61 -27 -10 -30 -9 -31 10 -1 19 -2 19 -6 4 -4 -16 -13 -18 -59 -15 -30 1 -56
-1 -58 -7 -3 -5 -5 -2 -5 7 -1 9 5 19 12 21 7 3 5 6 -5 6 -10 1 -18 -6 -18
-14 0 -12 -9 -15 -34 -13 -30 2 -35 6 -41 35 -3 18 -15 37 -25 43 -18 9 -20 7
-20 -18 0 -31 -29 -81 -30 -50 0 9 -6 19 -12 21 -9 4 -8 6 2 6 10 1 20 17 26
40 11 38 10 41 -25 75 l-36 35 -115 -1 c-63 -1 -196 -3 -295 -5 l-180 -5 -32
-50 c-25 -38 -33 -61 -33 -97 0 -62 -7 -71 -50 -61 -19 4 -27 8 -17 9 28 2 20
31 -9 31 -30 0 -28 20 3 34 17 8 20 16 15 45 -5 31 -3 34 16 29 16 -5 26 4 50
41 l29 47 249 3 c136 1 250 4 253 6 2 3 29 5 58 5 48 0 57 -4 84 -32z m-96
-53 c26 -10 37 -22 41 -45 4 -16 11 -30 17 -30 7 0 7 -4 -1 -12 -8 -8 -8 -15
-1 -24 7 -9 5 -21 -8 -40 -10 -16 -13 -25 -7 -22 6 4 11 0 11 -8 0 -9 -6 -13
-14 -9 -11 4 -13 -1 -8 -18 5 -16 4 -18 -4 -8 -7 11 -13 12 -23 4 -26 -22 -78
-26 -98 -8 -10 9 -24 17 -32 19 -23 3 -39 17 -49 43 -5 14 -12 23 -16 20 -3
-3 4 -22 15 -42 12 -19 17 -35 12 -35 -19 0 -50 65 -50 102 0 26 8 45 28 66
55 60 119 76 187 47z m-360 -5 c15 -6 29 -19 32 -29 3 -13 11 -18 21 -14 13 3
14 2 4 -4 -15 -11 -6 -43 11 -39 7 1 9 1 5 -1 -5 -3 -5 -15 -2 -28 6 -25 -7
-56 -37 -89 -11 -11 -19 -22 -19 -25 0 -5 -45 -6 -133 -2 -16 0 -25 5 -22 11
3 6 -1 7 -10 4 -21 -8 -49 59 -41 100 7 38 34 78 47 71 5 -3 6 0 4 8 -5 12 16
27 55 40 25 9 57 7 85 -3z m-881 -25 c90 -38 101 -161 19 -225 -24 -19 -36
-21 -96 -16 -74 5 -99 18 -90 44 4 13 3 14 -5 4 -7 -11 -12 -10 -26 3 -16 17
-23 75 -8 75 5 0 15 18 22 40 24 74 106 107 184 75z m2156 -7 c0 -9 4 -8 10 2
8 12 10 12 10 1 0 -10 9 -12 38 -7 30 4 41 2 55 -14 19 -23 23 -50 6 -50 -7 0
-9 -10 -6 -25 4 -25 4 -25 -16 -8 -20 18 -20 18 -4 -8 18 -28 14 -39 -14 -39
-10 0 -21 -4 -24 -10 -4 -6 1 -7 12 -4 13 4 14 3 5 -3 -7 -6 -36 -9 -65 -8
-70 3 -76 6 -47 15 17 5 19 8 8 9 -10 1 -18 6 -18 12 0 6 9 8 20 5 11 -3 28
-8 38 -11 23 -7 62 26 61 51 0 17 -1 17 -11 -3 -13 -26 -54 -38 -75 -21 -13
10 -19 8 -36 -12 -12 -15 -18 -18 -14 -8 4 11 -2 23 -16 34 -15 11 -18 18 -9
21 6 3 12 15 12 27 0 27 18 46 36 39 8 -3 14 1 14 11 0 9 7 16 15 16 8 0 15
-6 15 -12z m-3196 -65 c29 -22 33 -32 32 -100 -1 -46 -5 -55 -40 -89 -35 -34
-46 -38 -99 -42 -45 -4 -69 0 -93 13 -39 21 -63 69 -46 94 6 9 19 31 28 49 44
86 152 124 218 75z m718 -67 c20 -30 7 -34 -104 -35 -111 -1 -157 -6 -388 -35
-63 -9 -129 -15 -145 -16 -30 0 -31 2 -27 35 3 24 9 35 21 36 9 0 52 4 96 9
45 4 85 4 91 -1 14 -11 285 8 299 22 13 13 147 1 157 -15z"/>
<path d="M1888 1465 c-26 -15 -54 -73 -45 -98 2 -6 8 4 13 23 l8 35 6 -44 c6
-55 26 -69 68 -50 31 13 52 50 52 91 0 22 -44 41 -74 32 -11 -4 -18 -3 -14 1
4 5 25 11 45 15 l38 8 -35 0 c-19 1 -47 -5 -62 -13z"/>
<path d="M4350 2757 c0 -4 6 -10 14 -13 8 -3 12 -14 9 -27 -4 -16 -2 -18 5 -8
13 18 35 3 29 -20 -3 -12 0 -19 10 -19 9 0 12 6 9 18 -5 14 1 17 27 18 17 1
49 6 69 12 23 6 36 6 35 0 -1 -5 26 -25 61 -44 34 -19 62 -31 62 -25 0 5 9 13
20 16 13 4 20 15 20 31 0 15 6 24 15 24 8 0 15 5 15 10 0 6 8 10 17 10 9 0 13
3 10 7 -9 8 -118 13 -113 4 2 -3 -26 -6 -62 -6 -37 0 -70 -4 -74 -10 -5 -6
-11 -5 -17 4 -7 10 -12 8 -25 -10 -9 -13 -16 -19 -16 -14 0 6 -11 11 -25 11
-14 1 -25 -3 -25 -9 0 -6 -7 -1 -16 11 -9 13 -13 26 -10 29 3 4 6 1 6 -5 0 -7
7 -12 15 -12 17 0 21 19 5 21 -36 5 -70 3 -70 -4z"/>
<path d="M4822 2720 c3 -21 1 -27 -6 -20 -13 13 -26 13 -26 -1 0 -5 5 -7 10
-4 12 7 13 -15 2 -32 -4 -6 -28 -13 -52 -15 -32 -2 -45 -7 -45 -18 0 -9 7 -14
19 -12 15 3 17 -1 12 -22 -5 -22 -3 -26 16 -26 17 0 19 3 10 12 -17 17 -15 38
3 38 9 0 15 -10 15 -26 0 -46 25 -20 30 32 7 65 18 44 12 -23 l-4 -53 -61 -2
c-43 -1 -50 -3 -24 -5 20 -2 37 -8 37 -14 0 -5 7 -9 16 -9 8 0 12 5 9 10 -4 6
6 10 22 9 25 0 26 -1 8 -9 -14 -7 -1 -9 45 -8 36 0 73 3 83 5 20 5 24 53 4 53
-14 0 -57 -27 -70 -44 -5 -7 -6 -3 -3 7 3 10 6 32 6 48 0 18 5 29 14 29 9 0
13 9 12 24 -2 15 3 27 12 31 18 7 32 -11 27 -36 -2 -10 0 -21 5 -24 5 -3 8 2
6 12 -2 10 0 27 5 38 5 13 8 -7 8 -56 l1 -77 30 -4 c17 -3 30 -1 30 4 0 4 -11
8 -25 8 -23 0 -25 4 -25 45 0 43 1 45 25 41 14 -3 25 0 25 5 0 5 -11 9 -25 9
-31 0 -33 16 -2 26 12 4 25 12 29 18 4 6 8 -5 8 -26 0 -34 2 -36 30 -34 41 3
51 16 12 16 -21 0 -32 5 -32 14 0 17 18 31 28 21 3 -3 0 -10 -8 -15 -11 -7 -7
-10 16 -10 19 0 34 6 38 15 3 8 15 15 26 15 11 0 20 5 20 10 0 6 14 10 31 10
17 0 28 -4 24 -10 -4 -6 5 -10 21 -10 23 0 25 -2 14 -15 -12 -14 -9 -16 23
-13 32 2 34 4 25 21 -7 14 -7 18 1 12 7 -4 18 -2 24 4 9 7 21 6 40 -4 15 -8
27 -10 27 -4 0 5 14 9 30 9 31 0 35 -6 24 -34 -4 -12 -20 -16 -54 -16 -42 0
-49 3 -53 23 -3 17 -5 16 -6 -8 l-1 -30 79 1 c43 1 85 5 92 10 12 7 12 5 0 -9
-7 -9 -11 -23 -8 -31 3 -8 0 -17 -8 -20 -10 -3 -12 0 -9 12 5 14 4 15 -5 2
-17 -24 -13 -28 26 -27 35 2 62 27 29 27 -42 0 0 40 62 60 28 9 42 19 40 28
-4 23 -26 26 -31 5 -4 -16 -5 -15 -6 2 -1 17 -9 21 -38 23 -21 2 -65 6 -98 11
-33 4 -115 7 -183 6 -68 0 -125 2 -128 7 -3 4 -11 8 -17 8 -7 0 -6 -4 3 -10
12 -8 11 -10 -5 -10 -12 0 -27 6 -34 13 -11 10 -13 10 -7 0 6 -10 -13 -13 -81
-12 -48 0 -82 3 -75 6 6 2 10 9 6 14 -8 14 -24 11 -24 -6 0 -11 -10 -15 -37
-14 -21 0 -32 3 -25 6 23 9 12 23 -19 23 -29 0 -31 -2 -27 -30z"/>
<path d="M3147 2590 c-36 -31 -57 -38 -57 -19 0 19 -25 3 -26 -17 -1 -17 6
-19 57 -20 32 0 57 2 54 5 -5 9 18 36 34 39 9 2 11 -3 7 -13 -3 -9 -6 -19 -6
-21 0 -3 -4 -2 -10 1 -6 3 -7 -1 -4 -9 6 -17 34 -22 34 -7 0 15 147 23 172 10
26 -14 82 -13 110 2 13 7 23 7 31 1 8 -7 20 -6 37 3 23 13 18 14 -57 13 -56
-1 -80 -5 -76 -12 4 -6 -1 -5 -10 3 -14 11 -70 20 -164 25 -13 0 -23 6 -23 11
0 6 -5 3 -10 -5 -8 -13 -10 -13 -10 2 0 15 -27 38 -44 38 -3 0 -21 -13 -39
-30z"/>
<path d="M3060 2472 c0 -26 -3 -57 -6 -70 -6 -22 -4 -23 37 -21 24 1 230 -2
457 -6 319 -5 412 -4 412 5 0 7 7 10 16 6 12 -5 15 -2 10 11 -6 17 -5 17 8 1
13 -17 32 -26 23 -10 -3 4 13 7 35 8 28 0 45 6 54 19 8 10 14 13 14 7 0 -28
179 -9 201 21 10 14 88 21 112 10 79 -37 159 -40 221 -8 16 8 47 14 70 13 37
-1 37 -2 9 -5 -18 -2 -33 -8 -33 -12 0 -11 94 -1 98 10 2 5 11 9 20 8 13 0 13
-2 3 -6 -9 -4 -2 -10 19 -19 40 -17 67 -18 73 -1 4 8 8 9 14 1 5 -7 97 -12
283 -13 259 -2 278 -1 324 19 l48 20 73 -20 c54 -15 90 -19 136 -15 112 9 129
14 129 41 0 19 -5 24 -27 25 -16 0 -36 2 -45 4 -10 2 -20 -1 -24 -6 -3 -5 -14
-9 -25 -9 -13 0 -18 4 -13 12 5 8 -2 9 -27 4 -19 -4 -61 -7 -94 -6 -33 1 -122
2 -197 3 -76 1 -138 6 -138 10 0 4 -48 5 -107 2 -315 -15 -425 -16 -417 -3 6
10 5 11 -7 1 -11 -9 -132 -12 -459 -12 -245 -1 -481 -1 -525 -1 -122 0 -145
-6 -145 -36 0 -16 -5 -24 -12 -21 -7 2 -12 13 -10 23 2 18 2 18 -12 1 -16 -21
-73 -32 -110 -23 -36 9 -33 26 5 26 17 0 28 4 24 10 -3 6 -19 10 -36 10 -16 0
-28 3 -28 8 3 19 -2 25 -11 12 -6 -10 -10 -11 -10 -2 0 7 -14 12 -37 12 l-38
-1 30 -24 30 -25 -32 0 c-17 0 -35 -4 -38 -10 -3 -5 -13 -10 -21 -10 -8 0 -14
5 -14 10 0 6 10 10 21 10 18 0 19 2 9 15 -7 8 -25 15 -41 15 -20 0 -29 5 -29
16 0 11 -6 14 -22 8 -29 -8 -36 -16 -21 -21 7 -2 10 -10 7 -17 -3 -7 5 -18 18
-24 l23 -11 -25 -2 c-14 -1 -41 -3 -60 -5 -19 -1 -40 2 -46 7 -8 6 -14 5 -17
-5 -4 -11 -13 -12 -46 -3 -47 13 -48 15 -21 44 12 14 27 20 42 16 17 -3 19 -2
8 5 -8 5 -32 12 -52 15 l-38 6 0 -47z"/>
<path d="M4321 2349 c-1 -28 1 -64 4 -80 6 -24 12 -29 36 -29 17 0 28 4 25 9
-3 5 6 11 20 14 19 3 24 1 20 -10 -3 -8 -6 -17 -6 -19 0 -2 -37 -5 -82 -5
-140 -2 -64 -9 177 -17 l230 -7 3 -27 c4 -35 36 -38 62 -5 10 12 21 20 23 17
3 -3 2 -57 -1 -120 l-7 -115 -37 -3 c-51 -4 -49 -18 2 -17 37 0 40 -2 40 -26
0 -24 5 -27 46 -33 80 -11 86 -9 82 22 -3 25 -7 27 -58 32 l-55 5 -3 93 -3 92
56 0 c30 0 55 4 55 8 0 5 -16 7 -35 6 -33 -3 -35 -1 -35 26 0 23 5 30 20 30
14 0 18 -5 14 -17 -5 -17 -5 -17 6 0 13 20 36 23 43 5 4 -8 6 -7 6 3 1 25 32
33 38 10 4 -18 18 -19 254 -19 210 -1 249 1 249 14 0 12 -36 14 -229 14 -143
0 -232 4 -236 10 -4 7 145 11 437 12 l443 3 -450 5 c-247 3 -451 7 -452 8 -5
5 12 38 26 50 12 10 13 15 4 18 -7 3 -13 12 -13 20 0 17 -21 56 -35 66 -18 13
-26 -4 -11 -21 9 -10 13 -20 10 -24 -7 -7 -632 1 -653 9 -11 3 -10 8 4 24 18
19 17 20 -7 20 -22 0 -25 -4 -27 -51z"/>
<path d="M5540 2125 c0 -60 3 -75 15 -75 9 0 15 9 15 23 0 18 2 19 10 7 5 -8
10 -11 10 -7 0 4 9 3 19 -3 12 -6 22 -6 25 -1 4 5 0 12 -6 14 -7 3 -3 6 10 6
12 1 22 -3 22 -9 0 -5 20 -10 45 -10 26 0 45 5 45 11 0 7 28 10 85 8 l85 -4 0
58 0 57 -190 0 -190 0 0 -75z"/>
<path d="M4430 2076 c0 -18 7 -47 15 -62 19 -37 19 -54 -1 -54 -10 0 -14 -5
-10 -16 3 -8 2 -12 -4 -9 -6 4 -10 -14 -10 -44 0 -42 3 -51 18 -51 13 0 18 8
17 28 l0 27 125 3 c69 2 126 4 127 5 1 1 -1 48 -4 105 l-6 102 -133 0 -134 0
0 -34z"/>
<path d="M4250 1980 c0 -17 -3 -19 -19 -10 -11 5 -21 10 -24 10 -2 0 -5 -27
-6 -60 -1 -37 2 -60 8 -60 6 0 11 -5 11 -11 0 -5 -5 -7 -11 -3 -7 4 -10 -1 -7
-12 2 -15 16 -21 63 -27 109 -13 129 -18 116 -27 -10 -6 -10 -9 -1 -15 16 -10
30 13 30 50 0 21 -3 26 -9 16 -6 -9 -11 -10 -15 -2 -4 6 -18 11 -31 11 -18 0
-26 7 -31 25 -4 16 -14 25 -28 26 -19 1 -18 2 4 8 23 6 26 12 22 41 -3 19 -32
10 -32 -11 0 -11 -4 -17 -10 -14 -20 12 -11 45 13 46 12 0 31 4 42 9 15 6 9 8
-22 6 -32 -3 -40 -1 -36 10 3 8 -1 14 -11 14 -9 0 -16 -8 -16 -20z"/>
<path d="M5600 1965 c0 -27 4 -35 18 -35 9 0 39 -8 65 -17 34 -12 49 -24 53
-40 7 -26 42 -31 62 -11 14 14 16 14 80 16 l42 2 0 50 c0 41 -3 50 -17 51 -15
0 -15 2 2 9 12 5 -42 9 -142 9 l-163 1 0 -35z"/>
<path d="M5626 1870 c-11 -30 -14 -70 -5 -70 5 0 9 -7 9 -15 0 -8 -7 -15 -15
-15 -8 0 -15 5 -15 10 0 7 -73 11 -207 11 -355 1 -363 0 -363 -55 0 -23 -3
-27 -10 -16 -7 12 -13 11 -35 -10 l-25 -24 20 -21 c21 -23 26 -45 10 -45 -5 0
-14 8 -20 18 -8 13 -9 1 -4 -48 4 -36 8 -75 8 -86 1 -12 6 -19 13 -17 11 4 26
40 24 56 -2 12 16 8 28 -7 8 -10 9 -16 1 -21 -21 -13 -10 -24 15 -15 25 10
132 14 618 26 l247 6 0 49 c0 37 -4 49 -15 49 -8 0 -15 6 -15 13 -1 6 -20 34
-44 62 l-44 49 -86 -3 c-47 -1 -86 1 -86 6 1 27 60 54 60 27 0 -8 5 -14 10
-14 6 0 10 5 10 11 0 7 36 9 105 7 95 -3 105 -2 105 14 0 17 -11 18 -147 14
-82 -2 -119 -1 -83 3 39 3 60 9 52 14 -7 5 -21 5 -32 2 -29 -9 -60 3 -70 28
-6 17 -9 19 -14 7z"/>
<path d="M1740 1855 c10 -13 9 -15 -9 -15 -11 0 -21 -4 -21 -10 0 -5 -8 -10
-17 -10 -15 0 -16 2 -3 10 11 7 0 10 -37 10 -50 0 -84 -14 -40 -16 12 -1 47
-4 77 -8 58 -6 157 3 143 13 -19 14 -12 31 15 30 19 0 22 -2 11 -7 -12 -5 -14
-13 -8 -27 4 -11 8 -14 8 -7 1 7 6 10 11 7 6 -3 10 3 10 14 0 24 15 28 23 7 3
-8 1 -17 -6 -19 -7 -3 38 -5 98 -4 64 0 100 3 85 8 -14 4 3 5 38 2 46 -4 62
-3 62 7 0 10 4 9 17 -1 13 -11 17 -11 21 -1 3 9 8 10 16 3 8 -7 12 -5 12 9 0
14 -4 16 -17 10 -8 -5 -25 -6 -37 -3 -13 3 -22 1 -22 -6 0 -6 -5 -11 -11 -11
-5 0 -7 5 -3 11 4 7 -4 10 -22 8 -16 -2 -35 0 -42 5 -7 4 -19 2 -27 -4 -11 -9
-15 -9 -15 -1 0 8 -49 11 -161 11 -142 0 -160 -2 -149 -15z"/>
<path d="M947 1803 c2 -76 2 -75 13 -68 11 7 2 -23 -13 -42 -10 -13 15 -47 27
-36 3 4 6 1 6 -5 0 -16 37 -15 43 1 2 6 0 29 -5 51 -5 21 -6 47 -3 57 6 18 40
43 60 44 16 0 18 37 3 46 -7 5 -40 9 -73 9 l-60 0 2 -57z"/>
<path d="M4478 1685 c4 -22 9 -25 49 -25 36 0 44 3 39 15 -7 20 4 19 20 -2 12
-17 13 -16 14 6 0 40 7 20 14 -41 l7 -58 -45 6 c-28 4 -57 2 -76 -6 -27 -11
-30 -17 -30 -59 0 -31 3 -41 9 -32 7 12 17 12 53 3 23 -6 72 -13 108 -16 61
-4 63 -3 35 9 -28 13 -26 14 48 15 l77 0 -1 28 c0 15 -6 58 -12 97 -15 84 -11
82 -193 84 l-121 1 5 -25z"/>
<path d="M5790 880 c-12 -8 -10 -10 8 -10 13 0 20 -4 17 -10 -3 -5 3 -10 14
-10 12 0 21 -4 21 -8 0 -5 -39 -3 -86 3 -88 12 -144 9 -144 -6 0 -13 47 -11
55 1 5 7 11 8 18 1 7 -5 28 -11 47 -14 19 -2 -27 -4 -103 -4 -82 0 -133 3
-125 9 7 4 31 6 53 3 25 -4 35 -3 27 3 -7 5 -68 7 -135 5 -68 -2 -152 -4 -188
-4 l-64 -1 54 -9 c30 -5 57 -12 60 -14 2 -3 -47 -5 -110 -6 -63 0 -178 -1
-256 -3 -95 -1 -143 1 -143 8 0 6 -4 5 -8 -2 -5 -7 -27 -12 -53 -12 -24 1 -71
-1 -104 -4 -33 -2 -163 -5 -288 -6 -125 -2 -225 -5 -223 -8 3 -3 19 -5 36 -4
16 0 30 -4 30 -10 0 -6 -13 -8 -37 -3 -56 10 -191 13 -255 6 -36 -4 -62 -3
-69 3 -9 8 -10 7 -5 -1 5 -10 -27 -13 -146 -13 -283 0 -580 -17 -590 -34 -6
-8 -8 -8 -8 1 0 6 -9 9 -20 6 -11 -3 -20 0 -20 6 0 6 -4 11 -10 11 -5 0 -7 -6
-4 -13 3 -10 -4 -12 -28 -10 -93 9 -128 8 -113 -3 14 -10 13 -12 -5 -17 -11
-3 -18 -2 -15 3 5 8 -41 21 -48 13 -3 -2 -76 -6 -163 -8 -242 -7 -730 -27
-746 -31 -5 -1 -15 -2 -23 -3 -8 0 -15 -8 -15 -16 0 -8 -5 -15 -11 -15 -5 0
-7 -4 -4 -10 3 -5 2 -10 -4 -10 -5 0 -13 5 -16 10 -4 7 -11 8 -18 2 -7 -6 -46
-10 -87 -11 -41 -1 -82 -4 -92 -7 -12 -3 -18 0 -18 9 0 12 9 14 40 10 26 -4
40 -2 40 6 0 6 -18 11 -43 11 -23 0 -53 7 -65 16 -12 8 -22 11 -22 6 0 -6 7
-12 15 -16 8 -3 15 -15 15 -27 0 -12 -3 -19 -6 -16 -4 3 -16 1 -27 -5 -17 -9
-19 -8 -14 7 4 9 7 18 7 21 0 2 7 1 15 -2 8 -4 15 -1 15 5 0 6 -8 11 -18 11
-10 0 -23 5 -28 10 -8 8 -15 6 -23 -4 -10 -12 -9 -14 8 -9 12 3 21 1 21 -4 0
-5 -6 -10 -12 -10 -7 0 -20 -3 -28 -5 -8 -3 -12 -3 -8 -1 4 2 4 11 1 19 -7 19
-59 18 -67 -1 -4 -11 -11 -13 -28 -6 -35 13 -110 22 -104 13 2 -4 -30 -6 -72
-5 -54 2 -72 0 -62 -7 11 -7 7 -10 -20 -10 -23 0 -30 3 -22 9 20 12 -57 6 -91
-8 -37 -14 -40 -14 -34 3 4 11 0 13 -16 10 -12 -3 -40 -5 -62 -5 -22 -1 -43
-6 -47 -13 -6 -8 -8 -7 -8 2 0 6 -10 12 -22 11 -22 0 -22 -1 -3 -9 16 -7 17
-9 3 -9 -9 -1 -20 4 -23 9 -7 12 -67 13 -145 3 l-55 -8 40 -6 40 -6 -42 -2
c-24 0 -43 3 -43 8 0 14 -213 3 -221 -11 -4 -7 -14 -8 -25 -3 -24 11 -74 12
-74 3 0 -4 -12 -3 -27 3 -19 7 -28 6 -33 -2 -6 -8 -9 -8 -15 1 -4 6 -5 13 -2
16 8 8 99 20 180 23 15 1 27 5 27 11 0 5 -12 7 -27 5 -60 -11 -163 -11 -163
-1 0 8 -3 8 -8 0 -4 -6 -35 -10 -72 -10 -36 1 -89 -2 -117 -7 l-53 -9 0 -72
c0 -43 5 -77 12 -84 9 -9 9 -12 0 -12 -7 0 -12 -7 -12 -15 0 -8 5 -15 10 -15
6 0 10 5 10 10 0 6 8 10 18 10 14 0 15 -2 2 -10 -13 -8 -12 -10 3 -10 22 0 23
36 1 44 -9 4 -14 9 -11 13 10 9 37 -18 37 -37 0 -15 8 -17 58 -13 31 3 62 9
69 14 7 7 13 5 15 -3 4 -10 9 -10 23 2 11 9 16 10 11 3 -5 -9 -1 -13 13 -13
11 0 22 4 26 10 3 5 12 7 20 3 9 -3 15 1 15 8 1 10 4 9 14 -3 7 -10 16 -14 22
-8 5 5 37 5 73 1 47 -6 66 -4 76 6 15 14 29 18 22 5 -5 -7 148 -7 347 1 76 3
111 9 118 18 8 11 9 11 5 -2 -4 -13 1 -16 21 -15 15 1 33 5 40 9 7 5 12 4 12
-2 0 -14 37 -14 45 -1 3 6 11 10 16 10 6 0 7 -5 3 -12 -5 -8 -2 -9 10 -5 10 4
19 7 22 7 2 0 1 6 -2 14 -4 11 0 13 16 9 16 -4 18 -8 8 -14 -9 -6 -6 -9 10 -9
13 0 20 4 17 10 -4 6 7 10 24 10 17 0 31 -4 31 -10 0 -5 9 -10 20 -10 11 0 20
6 20 13 0 9 2 9 9 -1 8 -13 46 -13 69 1 6 5 17 5 23 1 6 -3 15 0 20 7 5 8 9 9
9 3 0 -6 14 -11 32 -12 23 -1 28 2 18 8 -12 8 -10 10 8 10 12 0 22 -4 22 -10
0 -5 7 -10 15 -10 8 0 15 5 15 10 0 6 12 10 28 11 l27 1 -25 8 c-20 7 -21 8
-5 9 11 0 28 -6 38 -13 18 -14 18 -14 0 -19 -10 -3 6 -5 34 -4 37 0 53 5 53
14 0 7 8 13 18 12 10 0 12 -3 5 -6 -7 -2 -13 -12 -13 -21 0 -14 2 -14 9 -3 7
11 9 11 14 0 3 -8 6 -3 6 11 1 18 4 21 10 11 6 -10 28 -12 85 -9 42 2 76 0 76
-4 0 -4 7 -5 15 -2 8 4 12 10 9 15 -3 5 0 9 5 9 6 0 11 6 11 14 0 9 9 12 28 9
22 -4 24 -2 12 7 -13 10 -13 11 0 7 23 -6 18 -30 -7 -32 -25 -2 -40 -12 -31
-21 4 -3 45 -5 93 -5 77 1 89 3 107 23 13 16 18 18 14 6 -2 -9 2 -19 10 -22
26 -10 31 -7 30 17 -1 16 5 23 21 25 17 3 23 -2 23 -15 0 -15 -2 -16 -10 -3
-8 13 -10 13 -10 -2 0 -9 3 -19 8 -21 13 -9 63 5 59 17 -2 6 -11 10 -21 8 -9
-2 -16 1 -16 6 0 11 51 23 63 15 4 -3 3 -11 -3 -18 -20 -24 -3 -35 32 -23 24
9 33 8 36 0 2 -7 7 -10 10 -8 7 3 64 8 272 22 106 7 120 11 120 34 0 23 16 35
23 17 3 -7 -1 -21 -9 -32 -22 -29 -17 -39 11 -21 14 9 25 13 25 9 0 -5 5 -1
10 7 8 13 13 13 41 -3 30 -17 58 -15 30 2 -9 6 -5 10 13 13 14 3 26 1 26 -4 0
-6 11 -7 25 -4 14 4 34 2 45 -4 14 -7 26 -8 39 0 14 7 27 7 44 -1 19 -8 32 -8
54 0 l28 11 -30 -5 c-25 -4 -27 -3 -12 5 9 6 15 15 12 21 -12 18 7 9 26 -13
13 -17 18 -19 19 -8 0 13 1 13 10 0 15 -24 12 -29 -15 -24 -34 6 -49 -4 -34
-22 13 -16 33 -19 24 -4 -4 7 3 9 19 6 14 -3 26 -1 26 4 0 4 15 7 33 5 37 -3
87 5 87 14 0 3 -28 6 -62 6 -59 0 -63 2 -66 24 -3 21 -1 23 20 18 12 -4 32 -7
43 -8 17 -1 16 -2 -5 -10 -22 -7 -20 -8 10 -5 19 2 43 7 53 11 10 4 17 4 16
-1 -1 -5 -1 -22 0 -39 1 -28 2 -28 18 -12 13 13 14 19 5 29 -19 19 -14 28 18
28 31 0 37 9 19 27 -8 8 -20 8 -41 1 -31 -11 -101 3 -113 21 -5 9 62 -3 72
-13 4 -3 17 1 30 9 19 13 26 13 43 3 11 -7 23 -21 26 -30 3 -10 14 -18 25 -18
25 0 24 14 -3 33 -13 9 -18 16 -12 16 6 1 22 -8 35 -20 20 -17 33 -20 74 -15
115 11 138 11 143 -2 3 -11 0 -12 -18 -2 -21 11 -22 10 -17 -9 3 -14 0 -21
-10 -21 -8 0 -11 5 -7 12 5 8 2 9 -9 5 -10 -4 -17 -2 -17 4 0 7 -10 4 -25 -5
-14 -9 -25 -12 -25 -6 0 13 -27 13 -35 0 -4 -6 1 -7 11 -3 12 4 15 3 10 -5
-10 -17 -34 -15 -38 3 -3 13 -6 13 -32 0 -32 -17 -50 -19 -42 -6 3 5 -4 8 -17
7 -16 -1 -24 -8 -25 -24 -1 -15 2 -21 10 -16 6 4 37 8 67 10 31 1 63 5 71 8
17 6 151 17 228 18 28 1 52 4 52 8 0 4 57 8 128 10 70 1 147 4 172 6 25 1 63
3 84 3 22 1 36 4 32 8 -4 4 -23 6 -42 5 -23 -2 -33 1 -29 8 3 6 -3 10 -17 10
-18 0 -20 -2 -8 -10 15 -10 -18 -12 -227 -16 -40 0 -73 2 -73 5 0 12 20 36 20
25 0 -14 119 -26 140 -14 11 7 4 10 -25 11 -35 1 -37 2 -15 9 20 7 16 8 -22 9
-27 1 -48 -3 -48 -9 0 -5 -5 -10 -11 -10 -6 0 -9 9 -6 20 5 18 0 20 -36 19
l-42 -2 35 -6 35 -7 -48 -8 c-27 -5 -66 -6 -88 -3 -22 3 -37 1 -33 -4 3 -5 2
-9 -3 -9 -14 0 -35 17 -33 26 1 4 -7 12 -17 16 -12 6 -9 7 10 3 15 -3 27 -1
27 5 0 5 -8 10 -17 11 -10 0 -49 7 -88 14 l-70 14 90 -2 c50 -1 119 2 154 7
56 7 63 6 58 -7 -7 -19 22 -32 37 -17 7 7 5 10 -7 10 -9 0 -17 5 -17 11 0 11
26 8 66 -8 14 -5 16 -3 11 13 -7 18 -6 18 7 1 12 -15 14 -16 20 -2 3 8 10 15
16 15 15 0 12 -27 -6 -44 -15 -16 -11 -41 6 -31 5 3 39 7 77 9 131 8 193 18
193 32 0 15 19 29 28 19 3 -3 0 -10 -8 -15 -25 -15 -7 -19 93 -21 85 -1 95 -3
80 -15 -17 -13 -17 -13 3 -14 23 0 48 22 37 33 -3 4 -3 7 1 7 4 0 14 -7 22
-15 19 -18 111 -15 107 3 -2 7 2 12 7 12 6 0 10 -5 10 -10 0 -11 231 -3 240 8
3 4 66 8 140 9 74 1 196 4 270 8 74 3 173 8 220 10 118 5 264 16 268 20 2 2
17 -1 34 -6 17 -4 36 -5 42 -2 6 4 20 7 31 8 69 4 65 0 65 66 0 34 -4 58 -9
54 -5 -3 -12 -1 -16 5 -3 5 2 10 11 10 28 0 10 10 -24 14 -18 2 -32 -1 -32 -6
0 -5 -9 -4 -19 2 -24 12 -22 12 -41 0z m-2284 -194 c2 -15 -47 -29 -70 -20 -8
3 -17 1 -21 -5 -3 -6 -11 -11 -16 -11 -6 0 -7 5 -4 10 4 6 -8 10 -29 10 -40 0
-44 -6 -18 -26 16 -13 16 -13 0 -14 -10 0 -18 5 -18 10 0 13 -202 12 -221 -2
-12 -8 -12 -9 1 -5 8 2 24 1 35 -4 14 -5 2 -8 -35 -8 -40 0 -49 3 -35 9 14 6
16 9 5 10 -34 4 -86 -3 -98 -13 -9 -7 -16 -7 -20 0 -14 20 -52 22 -62 2 -6
-10 -16 -19 -22 -19 -9 0 -9 3 0 12 15 15 15 28 1 28 -5 0 -7 -4 -4 -10 4 -6
-10 -10 -35 -10 -25 0 -39 4 -35 10 4 6 -4 5 -19 -1 -20 -10 -29 -9 -43 2 -11
9 -14 10 -9 2 4 -7 2 -13 -3 -13 -6 0 -11 -7 -11 -15 0 -8 -4 -15 -10 -15 -5
0 -10 6 -10 14 0 13 -43 27 -79 25 -12 0 -11 -2 4 -9 15 -6 8 -9 -28 -9 -29
-1 -46 -5 -42 -11 3 -5 -1 -10 -10 -10 -9 0 -13 4 -10 10 7 11 -58 14 -69 3
-11 -11 -85 -12 -92 -1 -4 6 -10 5 -15 -3 -6 -9 -12 -10 -16 -4 -12 15 -28 16
-76 5 -23 -5 -86 -10 -139 -11 -78 -1 -95 -4 -91 -15 4 -10 0 -12 -11 -8 -9 3
-16 10 -16 16 0 5 -3 7 -7 5 -5 -3 -69 -8 -143 -11 -74 -4 -145 -9 -158 -11
-12 -3 -34 -7 -48 -10 -16 -4 -23 -2 -19 5 3 5 -1 10 -9 10 -9 0 -16 -5 -16
-11 0 -8 -4 -8 -13 -1 -8 7 -35 8 -76 3 -35 -4 -87 -7 -115 -6 -28 1 -54 -4
-58 -9 -6 -8 -10 -7 -16 1 -8 13 -135 6 -127 -8 3 -4 -12 -3 -32 3 -20 5 -63
8 -95 6 -32 -2 -58 -1 -58 4 0 4 17 8 38 9 20 0 58 1 84 2 27 2 48 -1 48 -6 0
-5 6 -5 13 2 8 6 62 12 124 13 62 1 110 5 108 8 -2 3 27 5 63 4 37 -1 96 2
132 6 36 4 70 3 77 -2 7 -5 14 -5 18 2 3 6 45 10 98 11 51 0 113 4 139 8 32 5
49 4 52 -3 3 -7 7 -8 13 -1 10 12 93 16 93 4 0 -4 6 -6 13 -4 14 6 84 12 202
20 44 3 104 7 133 10 38 4 52 2 52 -7 0 -9 4 -8 11 2 8 11 12 12 16 3 2 -7 14
-13 26 -12 21 0 21 1 2 9 -17 7 -16 9 10 10 17 2 55 4 85 6 53 4 92 6 400 19
80 3 186 10 237 15 116 13 136 12 128 0 -3 -5 -1 -10 4 -10 6 0 11 4 11 9 0 9
40 20 49 14 3 -2 6 -10 7 -17z"/>
<path d="M130 845 c0 -10 -11 -15 -37 -16 -31 -2 -33 -3 -10 -6 15 -2 27 -9
27 -14 0 -12 -17 -11 -42 2 -15 8 -22 8 -28 0 -3 -7 -14 -9 -23 -5 -14 5 -17
0 -17 -23 l0 -30 98 3 c144 4 161 4 230 10 34 3 60 10 57 15 -4 5 -1 9 4 9 6
0 11 -4 11 -9 0 -5 11 -8 25 -8 14 0 24 2 21 4 -3 3 2 12 10 21 14 14 14 16
-1 24 -9 6 -24 6 -33 2 -14 -6 -13 -8 8 -14 l25 -8 -27 -1 c-22 -1 -28 4 -28
19 0 11 -5 20 -11 20 -5 0 -8 -4 -4 -9 9 -15 -14 -24 -29 -11 -11 8 -15 8 -19
-2 -4 -10 -8 -10 -16 2 -9 13 -11 12 -11 -3 0 -10 -4 -16 -9 -12 -6 3 -14 -2
-19 -10 -7 -13 -14 -14 -35 -6 -22 8 -34 7 -62 -9 -31 -18 -35 -18 -35 -3 0 9
3 13 7 10 3 -4 15 0 24 9 14 12 30 15 59 11 23 -3 38 -1 34 4 -3 5 2 9 10 9 9
0 16 5 16 11 0 6 -7 8 -16 5 -9 -3 -33 -9 -55 -12 -33 -6 -39 -4 -39 11 0 12
-6 16 -20 12 -11 -3 -20 -1 -20 4 0 5 -4 9 -10 9 -5 0 -10 -7 -10 -15z"/>
<path d="M5123 611 c3 -11 1 -21 -3 -21 -5 0 -11 8 -13 18 -3 11 -5 8 -6 -9
-1 -27 26 -37 42 -15 5 6 6 0 3 -15 -5 -24 -2 -27 27 -32 17 -2 38 0 45 5 7 6
29 8 50 5 20 -3 31 -3 24 0 -6 2 -10 8 -8 12 3 4 -15 6 -40 5 -26 -2 -44 1
-44 8 0 7 19 8 63 3 126 -17 417 -6 417 15 0 5 9 6 20 3 11 -3 20 0 20 6 0 7
-23 11 -62 10 -40 0 -56 -3 -44 -8 18 -7 18 -8 -5 -14 -35 -10 -39 -9 -39 9 0
13 -10 15 -66 8 -49 -5 -65 -4 -60 5 4 6 2 11 -4 11 -7 0 -9 -8 -5 -21 6 -18
4 -19 -12 -10 -11 5 -41 8 -66 6 -37 -4 -47 -1 -47 10 0 8 -4 15 -10 15 -5 0
-10 -5 -10 -11 0 -6 -7 -8 -16 -5 -8 3 -24 1 -35 -4 -15 -9 -21 -7 -26 5 -4
13 -8 14 -14 4 -9 -15 -39 -21 -39 -8 0 4 -10 13 -21 20 -20 10 -21 9 -16 -10z"/>
<path d="M1018 462 c-10 -2 -18 -8 -18 -13 0 -5 3 -8 8 -7 4 0 14 -1 22 -5 8
-3 22 -8 30 -10 8 -3 1 -6 -16 -6 -19 -1 -38 7 -49 19 -22 24 -45 26 -45 4 0
-8 5 -12 10 -9 6 3 10 2 10 -4 0 -5 -9 -9 -19 -8 -12 1 -17 6 -13 16 4 10 1
13 -10 9 -9 -4 -21 -1 -28 5 -10 9 -11 9 -6 0 4 -8 1 -13 -8 -13 -9 0 -16 -4
-16 -9 0 -4 12 -6 28 -3 15 2 24 1 20 -3 -4 -4 -31 -9 -60 -10 l-53 -3 30 15
c19 11 25 18 16 21 -7 2 -17 -2 -22 -9 -8 -12 -11 -12 -19 1 -9 13 -11 13 -20
0 -6 -10 -10 -11 -10 -2 0 24 -57 13 -80 -15 -15 -20 -18 -22 -11 -6 6 12 11
24 11 27 0 2 -28 2 -62 0 -243 -19 -357 -22 -386 -12 -15 5 -21 4 -17 -2 5 -9
-119 -16 -206 -12 -17 1 -26 -4 -26 -13 0 -8 5 -15 11 -15 6 0 6 -4 -1 -11
-14 -14 -6 -39 12 -39 17 0 27 28 12 33 -7 2 -8 8 -4 13 4 4 23 0 42 -10 18
-10 39 -16 47 -13 8 3 4 8 -12 15 -26 11 -24 12 23 16 36 2 42 -7 20 -30 -17
-17 -17 -18 0 -11 10 4 23 7 29 7 6 0 8 7 4 15 -3 8 -1 15 4 15 6 0 10 -4 10
-8 0 -11 40 -13 60 -2 11 6 21 5 28 -2 7 -7 15 -8 19 -4 4 4 1 12 -7 17 -11 8
-8 9 12 5 16 -4 28 -1 31 7 4 9 6 9 6 0 1 -9 18 -13 52 -13 31 0 48 -4 44 -10
-4 -6 -11 -8 -16 -5 -5 4 -9 1 -9 -4 0 -6 9 -11 20 -11 11 0 20 5 20 11 0 6 7
9 15 5 8 -3 15 -1 15 4 0 6 7 10 16 10 13 0 14 -3 5 -13 -6 -8 -8 -17 -4 -20
3 -4 -8 -7 -25 -7 -19 0 -32 -5 -32 -12 0 -8 12 -13 29 -13 16 0 27 4 23 9 -3
5 3 6 12 3 14 -6 17 -3 12 8 -3 10 1 18 11 22 9 4 19 1 21 -5 2 -7 9 -9 15 -5
7 4 23 9 37 10 110 9 121 9 116 -4 -3 -7 -1 -13 4 -13 5 0 11 8 13 18 4 16 5
16 6 0 2 -26 21 -22 22 5 1 21 1 21 9 -3 4 -14 8 -19 9 -12 1 7 6 10 11 7 6
-4 8 -10 5 -15 -3 -4 4 -10 14 -13 14 -3 18 -1 14 10 -5 12 -1 14 15 8 12 -3
22 -2 22 3 0 6 9 8 20 5 13 -4 20 0 20 9 0 8 12 20 26 27 24 10 25 10 19 -11
-5 -17 -4 -19 3 -9 6 8 21 15 34 15 12 1 29 6 37 10 11 7 13 4 9 -11 -3 -12
-2 -27 3 -34 6 -10 9 -6 9 14 0 24 4 27 35 27 29 0 35 4 35 21 0 11 5 17 10
14 6 -3 10 3 10 14 0 12 -4 21 -10 21 -5 0 -10 -4 -10 -9 0 -5 -9 -11 -20 -14
-11 -3 -20 -2 -20 3 0 9 -39 17 -62 12z"/>
<path d="M1160 453 c0 -7 7 -10 15 -7 8 4 15 1 15 -5 0 -6 -14 -14 -30 -18
-21 -4 -29 -11 -28 -22 2 -9 -3 -15 -11 -13 -9 2 -12 -5 -9 -23 4 -17 1 -25
-8 -25 -8 0 -14 5 -14 10 0 6 -4 10 -9 10 -5 0 -8 -8 -7 -17 3 -19 46 -32 46
-14 0 6 8 8 18 5 16 -5 16 -5 0 9 -26 20 -22 30 8 23 22 -6 24 -5 15 13 -16
29 -14 32 15 25 21 -5 25 -4 19 6 -6 9 -4 11 5 5 7 -4 16 -2 22 6 7 10 8 8 3
-8 -5 -20 -3 -21 36 -16 38 6 41 4 35 -15 -6 -17 -3 -19 14 -15 11 3 20 14 20
24 0 16 6 18 48 14 34 -4 41 -3 27 4 -18 9 -18 10 6 10 16 1 26 -4 26 -14 0
-8 -9 -15 -19 -15 -11 0 -17 -3 -15 -7 3 -5 30 -6 61 -5 48 3 56 7 56 24 0 10
5 16 10 13 6 -3 10 -15 10 -26 0 -17 3 -18 20 -9 11 6 20 17 20 24 0 11 12 13
46 10 29 -3 43 -1 39 6 -3 5 1 10 9 10 20 0 30 -17 14 -23 -9 -4 -10 -6 -1 -6
6 -1 15 4 18 9 3 6 17 10 30 10 17 0 25 -7 28 -22 4 -23 4 -23 6 0 1 16 -6 26
-19 29 -11 3 -20 11 -20 18 0 10 -9 11 -35 5 -29 -7 -35 -5 -35 9 0 10 -3 12
-8 5 -4 -7 -20 -12 -37 -12 -16 1 -43 0 -60 -1 -16 -2 -57 0 -89 3 -36 3 -54
1 -46 -4 24 -15 4 -23 -22 -9 -12 7 -32 14 -42 16 -11 2 -22 6 -25 8 -3 3 -10
-7 -17 -22 l-12 -28 -1 25 c-1 24 -3 25 -71 25 -48 0 -70 -4 -70 -12z"/>
<path d="M5847 383 c-23 -4 -26 -7 -16 -19 7 -9 8 -14 1 -14 -6 0 -15 8 -21
18 -8 13 -14 15 -28 6 -15 -9 -68 -12 -68 -4 0 2 -10 4 -22 5 -13 1 -23 -2
-23 -6 0 -5 -9 -9 -21 -9 -11 0 -17 -4 -14 -10 3 -5 -3 -10 -14 -10 -12 0 -21
-4 -21 -10 0 -5 -10 -10 -22 -9 -20 0 -21 1 -5 8 17 6 17 8 3 20 -13 11 -20
11 -41 -3 -21 -14 -24 -14 -19 -1 4 10 0 15 -10 15 -9 0 -17 -4 -17 -10 -1 -5
-2 -14 -3 -20 -1 -13 -21 -13 -21 -1 0 6 -6 16 -12 23 -7 6 -13 8 -13 3 0 -6
-5 -3 -10 5 -9 13 -10 13 -10 0 0 -9 6 -22 13 -29 10 -11 9 -12 -3 -5 -20 12
-42 11 -59 -1 -11 -7 -13 -7 -8 2 4 6 3 14 -3 18 -5 3 -10 -1 -10 -9 0 -9 -7
-16 -15 -16 -8 0 -15 4 -15 8 0 17 -78 13 -96 -5 -16 -16 -17 -16 -11 -1 5 16
-1 17 -76 12 -45 -3 -88 -5 -94 -5 -47 3 -97 2 -151 -4 -39 -4 -62 -3 -58 3 3
6 -14 8 -42 5 -67 -7 -77 -10 -63 -27 9 -11 -1 -13 -54 -14 -51 -1 -65 2 -65
13 0 9 -9 15 -22 14 -17 -1 -19 -2 -5 -6 9 -2 17 -9 17 -14 0 -9 -36 -13 -80
-9 -14 2 -38 2 -55 1 -16 0 -99 -2 -182 -4 -149 -3 -153 -3 -154 17 -1 13 -6
6 -14 -19 -11 -34 -14 -36 -14 -14 -1 22 -5 26 -26 21 -14 -2 -25 -11 -25 -18
0 -17 -12 -18 -28 -2 -9 9 -12 8 -13 -7 0 -18 -1 -18 -9 3 -11 26 -26 29 -26
5 0 -10 -3 -31 -7 -48 -7 -28 -6 -29 8 -11 14 18 15 18 15 2 0 -10 4 -14 12
-10 8 5 9 2 5 -9 -4 -11 -1 -17 8 -17 8 0 15 6 15 14 0 15 27 30 32 17 3 -8
116 2 157 15 17 5 22 4 17 -4 -4 -7 -17 -12 -28 -12 -12 0 -19 -3 -15 -6 3 -4
22 -3 42 0 25 5 35 12 31 21 -2 7 2 16 10 19 12 5 15 0 11 -22 -2 -15 -2 -21
0 -14 3 7 9 10 14 7 5 -4 9 1 9 9 0 9 5 16 11 16 5 0 7 -4 4 -10 -3 -5 3 -10
14 -10 12 0 21 -6 21 -14 0 -8 4 -17 9 -20 4 -3 6 6 3 19 -3 18 0 25 12 25 9
0 16 5 16 10 0 6 4 10 10 10 5 0 6 -7 3 -17 -4 -10 -2 -14 5 -9 6 3 16 -2 22
-14 11 -20 29 -23 42 -5 5 7 8 6 8 -1 0 -6 25 -11 59 -12 54 -2 59 0 54 18 -7
26 1 25 37 -2 23 -16 33 -19 41 -11 9 9 16 6 30 -10 l18 -22 -6 23 c-5 20 -2
22 40 22 25 0 49 -5 52 -10 5 -8 11 -7 21 1 11 9 21 9 40 0 23 -10 26 -9 31
10 6 20 7 20 18 5 12 -15 13 -15 19 0 8 21 4 25 -23 27 -58 4 8 27 78 27 36
-1 76 -21 64 -33 -3 -4 -1 -7 6 -7 7 0 9 9 5 25 -4 15 -2 25 5 25 6 0 11 -7
11 -15 0 -8 5 -15 10 -15 6 0 10 4 10 9 0 4 11 6 24 4 13 -3 26 0 30 5 4 7 17
7 39 1 17 -5 33 -5 35 0 4 12 52 1 52 -13 0 -6 4 -6 9 3 7 10 13 11 30 2 18
-10 21 -9 21 6 0 24 21 2 23 -24 1 -13 6 -19 15 -15 8 3 18 -1 23 -9 7 -11 9
-11 9 4 0 11 -8 17 -21 17 -11 0 -18 4 -14 9 3 5 1 12 -5 16 -16 10 -12 25 5
19 8 -4 22 -1 29 5 10 8 16 9 21 1 3 -6 11 -8 16 -5 5 4 15 3 21 -1 7 -5 27
-7 45 -5 18 1 33 -2 33 -7 0 -13 -39 -22 -46 -11 -4 6 -10 6 -17 0 -8 -6 -18
-5 -31 4 -19 14 -46 10 -46 -7 0 -6 6 -8 14 -5 10 4 14 0 11 -14 -3 -16 2 -19
31 -19 21 0 33 4 29 10 -4 6 5 8 22 5 89 -14 123 -14 123 2 0 10 -6 13 -17 9
-15 -5 -15 -4 1 9 11 8 27 14 35 14 14 -1 13 -2 0 -6 -11 -3 -15 -11 -12 -24
5 -16 11 -19 31 -14 62 16 82 17 82 6 0 -6 5 -11 10 -11 6 0 5 8 -2 20 -7 11
-19 18 -27 15 -8 -3 -18 0 -23 7 -6 10 -8 10 -8 1 0 -7 -4 -13 -10 -13 -5 0
-10 9 -10 21 0 11 5 17 10 14 6 -3 10 0 10 7 0 8 3 9 8 2 4 -5 23 -15 42 -20
25 -7 34 -15 32 -27 -2 -10 4 -17 13 -17 22 0 18 26 -7 46 l-23 16 27 -6 c17
-4 28 -1 31 7 4 9 7 9 18 0 7 -7 22 -13 33 -13 16 0 12 5 -14 19 -19 11 -39
15 -44 11 -5 -5 -22 -6 -37 -3 -18 3 -35 0 -45 -8 -15 -12 -16 -11 -10 9 5 16
3 22 -7 22 -9 0 -18 -6 -20 -12 -3 -8 -6 -6 -6 5 -1 9 -5 17 -11 17 -5 0 -10
5 -10 11 0 5 4 8 9 5 7 -4 104 -17 141 -18 22 -1 29 4 23 19 -7 17 5 16 50 -2
12 -5 17 -2 17 9 0 9 -4 16 -9 16 -5 0 -15 2 -23 3 -7 2 -26 2 -41 0z"/>
<path d="M3723 263 c-45 -4 -60 -22 -20 -24 18 -1 19 -2 3 -6 -10 -3 -23 0
-29 6 -14 14 -29 14 -64 0 -41 -17 -73 -17 -73 -1 0 11 -3 12 -14 3 -11 -9
-15 -9 -18 0 -3 9 -9 8 -25 -2 -18 -10 -24 -11 -37 0 -14 11 -16 11 -16 -3 0
-13 -6 -15 -27 -10 -16 4 -31 12 -35 18 -4 6 -11 1 -16 -13 -6 -16 -11 -20
-16 -13 -4 7 -12 9 -18 6 -5 -4 -38 -8 -72 -10 -33 -2 -80 -6 -103 -10 -34 -5
-44 -3 -49 10 -9 22 -27 20 -20 -2 4 -13 1 -19 -9 -19 -11 0 -14 7 -10 21 6
21 6 21 -6 1 -18 -30 -19 -31 -28 -17 -4 7 -31 15 -59 17 -45 5 -52 3 -52 -12
-1 -17 -2 -16 -15 1 -8 11 -15 14 -15 8 0 -7 -6 -12 -13 -12 -7 0 -18 -9 -25
-20 -10 -16 -10 -20 1 -20 7 0 18 5 25 12 17 17 28 2 12 -17 -8 -10 -9 -15 -1
-15 6 0 11 4 11 9 0 5 7 12 16 15 8 3 13 2 10 -2 -3 -5 8 -9 23 -9 25 0 27 2
15 14 -8 8 -14 18 -14 23 0 13 26 19 41 9 11 -7 11 -9 -3 -9 -10 0 -18 -4 -18
-10 0 -5 5 -10 10 -10 6 0 10 -8 10 -17 0 -11 3 -14 8 -7 10 15 42 25 42 14 0
-6 4 -10 10 -10 5 0 7 6 4 13 -3 8 2 14 10 14 8 0 14 -5 13 -11 -2 -12 48 -15
66 -4 9 6 8 10 -3 18 -12 8 -11 10 8 10 13 0 20 -4 17 -10 -3 -6 1 -10 10 -10
9 0 13 -5 10 -10 -3 -6 -1 -10 4 -10 6 0 11 4 11 9 0 5 14 14 32 20 26 9 34 9
40 -4 10 -17 38 -20 38 -4 0 6 9 9 20 6 12 -3 20 0 20 7 0 7 7 13 15 13 8 0
15 -6 15 -14 0 -7 5 -13 10 -13 6 0 10 5 10 10 0 6 7 10 15 10 8 0 15 -7 15
-15 0 -14 3 -13 25 1 19 12 28 14 39 5 17 -14 46 -4 47 18 0 9 3 11 5 5 3 -7
14 -10 24 -7 15 4 20 0 21 -13 0 -18 1 -18 8 -1 6 17 8 17 34 -3 25 -20 32
-19 28 3 -2 14 24 34 39 29 8 -3 23 -12 33 -20 16 -15 17 -14 11 1 -5 14 0 17
36 17 23 0 50 -5 61 -10 21 -12 26 -1 7 18 -9 9 -9 15 -1 23 8 8 11 6 10 -7
-1 -13 6 -20 21 -22 12 -2 22 -8 22 -14 0 -5 -7 -8 -15 -4 -9 3 -15 0 -15 -8
0 -21 32 -13 41 10 6 14 8 15 9 4 2 -8 2 -18 2 -21 -1 -3 14 -3 31 0 32 5 32
6 5 9 -16 2 -28 8 -28 13 0 6 4 8 9 4 5 -3 12 -1 16 5 3 5 -1 10 -10 10 -9 0
-15 6 -12 13 2 6 10 12 17 12 29 0 19 22 -10 23 -16 0 -30 -3 -30 -8 0 -5 -13
-5 -30 0 -18 5 -32 5 -35 -1 -4 -5 -11 -9 -16 -9 -6 0 -7 6 -3 13 5 7 0 6 -11
-3 -14 -11 -19 -12 -22 -2 -3 6 -8 11 -11 10 -4 -1 -26 -3 -49 -5z"/>
<path d="M2201 185 c-1 -6 -24 -9 -57 -7 -36 3 -54 0 -50 -6 3 -6 0 -13 -6
-15 -10 -4 -9 -8 2 -16 11 -8 17 -5 26 11 l12 21 6 -21 c4 -12 12 -22 18 -22
5 0 7 7 4 16 -4 9 -2 13 5 8 6 -4 14 -2 18 4 4 6 12 8 19 3 18 -11 -4 -72 -24
-64 -8 3 -14 2 -13 -3 4 -23 -2 -26 -15 -8 -14 18 -16 18 -44 2 -16 -10 -32
-14 -36 -10 -4 4 -20 7 -35 8 -24 1 -27 -1 -23 -27 2 -16 8 -29 13 -29 5 0 9
-5 9 -11 0 -8 -5 -8 -15 1 -12 10 -15 9 -15 -4 0 -13 7 -17 28 -14 21 2 28 9
30 30 3 22 0 27 -12 22 -9 -3 -16 -1 -16 5 0 6 6 11 13 11 20 0 40 -17 33 -28
-3 -6 -2 -14 4 -17 6 -4 9 -1 8 6 -2 6 3 14 10 16 6 3 12 -2 12 -11 0 -26 21
-30 166 -32 111 -1 141 1 141 12 0 16 -24 27 -32 14 -12 -19 -62 -11 -78 12
-13 19 -16 20 -16 6 -1 -22 -21 -24 -21 -3 0 9 -9 15 -25 15 -18 0 -23 -4 -19
-15 4 -8 1 -15 -5 -15 -23 0 -8 42 19 53 13 5 12 6 -1 6 -13 1 -16 11 -13 54
3 32 1 47 -5 38 -7 -11 -9 -11 -14 0 -3 8 -6 10 -6 4z"/>
<path d="M1758 149 c-10 -5 -18 -6 -18 -2 0 4 -5 1 -10 -7 -7 -11 -14 -12 -27
-5 -13 8 -27 6 -51 -6 -27 -14 -30 -18 -15 -22 12 -3 8 -5 -10 -6 -16 0 -26
-5 -22 -10 3 -6 -7 -6 -27 0 -18 5 -34 9 -34 9 -1 0 0 -9 3 -20 3 -11 0 -20
-6 -20 -6 0 -10 6 -8 13 1 6 -4 11 -12 9 -8 -2 -17 2 -21 7 -4 8 -15 7 -33 -2
-37 -17 -34 -23 11 -20 20 1 29 0 19 -3 -9 -3 -15 -10 -12 -15 4 -5 1 -9 -4
-9 -6 0 -11 5 -11 10 0 6 -5 10 -11 10 -5 0 -7 -5 -3 -11 4 -7 2 -9 -7 -5 -8
3 -22 9 -31 12 -10 4 -18 10 -18 15 0 5 7 6 15 3 8 -4 15 -1 15 4 0 6 8 13 18
15 9 3 -1 5 -23 4 -31 -2 -40 -6 -39 -19 1 -10 -2 -18 -7 -18 -5 0 -9 6 -9 13
0 23 -20 -17 -21 -43 -1 -27 -3 -23 -15 25 l-7 30 -7 -25 c-18 -58 -19 -58 93
-56 57 2 109 6 116 11 7 4 16 4 20 -1 10 -15 72 -18 69 -3 -2 7 6 15 16 17 14
3 17 0 13 -12 -5 -13 1 -16 36 -14 37 1 38 2 10 5 -20 3 -33 10 -33 19 0 14
10 18 43 15 9 -1 17 3 17 8 0 15 37 14 46 -1 5 -8 0 -9 -14 -6 -12 4 -22 2
-22 -3 0 -5 12 -9 26 -9 21 0 25 4 22 23 -2 15 -9 21 -22 19 -10 -2 -15 1 -12
6 3 6 -1 13 -10 16 -8 3 -12 2 -9 -4 7 -11 -24 -13 -49 -4 -25 10 -7 32 27 33
42 0 86 14 88 26 1 14 -13 16 -33 4z"/>
<path d="M370 142 c0 -11 -59 -32 -65 -22 -8 13 -59 19 -72 8 -7 -6 -13 -7
-13 -2 0 5 -27 9 -60 9 -33 0 -60 -3 -60 -7 0 -4 -9 -4 -21 0 -12 5 -34 6 -51
4 -29 -4 -29 -5 -26 -66 2 -35 7 -60 13 -58 6 2 9 11 8 21 -1 10 4 18 13 18 9
0 12 -7 9 -17 -3 -11 1 -20 11 -24 13 -5 15 -2 11 13 -6 23 11 31 61 30 l37
-1 -42 -10 c-24 -5 -43 -13 -43 -18 0 -12 29 -19 60 -15 14 2 29 4 33 4 5 1 5
6 2 11 -3 6 -2 10 3 10 6 0 12 -7 16 -15 3 -8 12 -12 21 -10 51 16 50 16 35
25 -8 6 -25 10 -37 10 -34 0 -28 15 7 16 17 1 30 -3 30 -10 0 -8 2 -8 8 0 4 6
21 13 37 16 17 3 39 9 50 13 15 6 14 2 -7 -18 -16 -14 -28 -29 -28 -34 0 -4 5
-2 12 5 8 8 15 9 25 0 11 -8 12 -7 7 6 -3 9 -1 16 5 16 6 0 11 -5 11 -11 0 -5
5 -7 12 -3 8 5 9 2 5 -10 -5 -13 -3 -17 7 -13 7 3 18 1 24 -5 15 -15 61 18 55
41 -2 9 3 23 12 31 22 18 31 5 10 -16 -12 -12 -13 -19 -5 -24 9 -6 9 -9 1 -14
-13 -9 -5 -26 12 -26 7 0 6 4 -3 10 -13 8 -12 10 3 10 9 0 17 5 17 10 0 7 6 7
19 1 10 -6 22 -7 26 -3 5 4 5 -1 2 -10 -8 -23 2 -23 19 -1 7 10 16 14 20 10 5
-4 3 -12 -4 -16 -7 -4 24 -8 68 -8 44 0 78 2 76 5 -3 3 1 10 9 16 8 6 16 23
17 39 1 15 3 27 4 27 2 0 9 -14 18 -31 14 -28 14 -30 -1 -18 -14 12 -15 11 -8
-10 5 -15 4 -21 -3 -17 -6 3 -13 2 -17 -4 -3 -5 3 -10 14 -10 11 0 23 5 26 10
4 6 15 8 26 5 25 -8 24 3 -3 26 -13 10 -18 18 -12 19 6 0 26 -14 43 -31 22
-21 38 -28 49 -24 14 6 13 9 -8 18 -37 17 -48 29 -42 49 5 19 22 25 22 8 0 -5
7 -10 15 -10 8 0 15 -7 15 -15 0 -9 11 -21 25 -27 14 -6 25 -15 25 -20 0 -4 4
-8 10 -8 5 0 7 6 4 13 -3 10 5 12 31 9 19 -2 35 -7 35 -11 0 -4 13 -8 28 -9
25 -2 29 1 29 27 0 20 -4 28 -14 24 -15 -6 -18 13 -3 22 6 3 10 13 10 21 0 10
-13 14 -50 14 -27 0 -50 4 -50 8 0 5 -23 10 -52 11 -28 1 -54 4 -57 6 -2 3
-12 -2 -22 -11 -11 -10 -19 -12 -24 -5 -3 6 -15 11 -26 11 -12 0 -17 -4 -13
-11 4 -8 0 -7 -15 0 -17 10 -25 9 -37 -4 -8 -8 -21 -15 -27 -14 -8 0 -8 2 1 6
6 2 10 9 6 14 -3 5 -14 3 -26 -5 -18 -13 -23 -12 -41 5 -11 10 -30 19 -41 18
-18 -1 -17 -2 4 -8 l25 -7 -22 -12 c-12 -7 -30 -12 -40 -11 -13 1 -11 3 7 10
23 8 22 8 -7 5 -18 -1 -33 1 -33 6 0 4 6 8 14 8 8 0 18 5 22 11 4 8 -3 9 -22
5 -16 -4 -40 -8 -53 -11 -14 -2 -28 -10 -33 -17 -6 -10 -8 -10 -8 -1 0 9 -14
12 -42 10 -30 -1 -42 2 -40 11 1 6 -2 12 -8 12 -5 0 -10 -4 -10 -8z"/>
<path d="M3183 104 c8 -9 -25 -44 -43 -44 -12 1 -10 4 5 17 19 15 19 15 -7 9
-14 -3 -28 -2 -30 4 -2 6 -18 6 -43 0 -22 -5 -61 -10 -86 -10 -69 0 -108 -10
-103 -25 3 -7 1 -16 -5 -20 -6 -3 -11 1 -11 9 0 9 -5 16 -11 16 -5 0 -7 5 -3
11 4 7 1 10 -7 7 -8 -3 -15 -10 -15 -16 -1 -7 -2 -14 -3 -16 0 -3 -15 0 -33 6
-26 9 -33 8 -43 -5 -12 -16 -55 -13 -55 4 0 5 -6 6 -14 3 -22 -8 12 -39 44
-40 14 0 44 -4 68 -9 34 -6 42 -5 42 8 0 12 11 14 66 9 60 -4 66 -3 71 17 7
26 12 26 29 4 19 -25 17 -35 -5 -28 -11 3 -22 2 -24 -2 -5 -8 21 -9 61 -5 6 1
12 11 12 22 0 12 7 20 16 20 10 0 14 6 10 15 -3 8 -1 15 4 15 6 0 11 -4 11
-10 1 -5 2 -16 3 -22 1 -9 15 -12 41 -10 32 2 37 1 25 -8 -12 -9 -9 -10 15 -5
43 9 54 23 31 41 -20 14 -20 14 0 14 12 0 24 -3 27 -6 10 -10 107 -11 107 -2
0 13 28 9 33 -4 3 -7 6 -4 6 7 1 16 -5 20 -29 20 -16 0 -30 -3 -30 -7 0 -5 -5
-8 -11 -8 -5 0 -7 6 -3 13 6 10 4 10 -7 0 -15 -15 -43 -18 -35 -4 4 5 -7 7
-24 5 -17 -3 -30 -1 -30 5 0 6 -5 11 -12 11 -6 0 -9 -3 -5 -6z"/>
</g>
</svg>
