<?xml version="1.0" standalone="no"?>
<!DOCTYPE svg PUBLIC "-//W3C//DTD SVG 20010904//EN"
 "http://www.w3.org/TR/2001/REC-SVG-20010904/DTD/svg10.dtd">
<svg version="1.0" xmlns="http://www.w3.org/2000/svg"
 width="584.000000pt" height="433.000000pt" viewBox="0 0 584.000000 433.000000"
 preserveAspectRatio="xMidYMid meet">
<metadata>
Created by potrace 1.15, written by Peter Selinger 2001-2017
</metadata>
<g transform="translate(0.000000,433.000000) scale(0.100000,-0.100000)"
fill="#000000" stroke="none">
<path d="M1180 2432 c0 -5 -8 -17 -18 -28 -10 -10 -28 -40 -40 -65 -17 -34
-30 -48 -50 -52 -15 -4 -41 -19 -57 -35 -17 -16 -37 -31 -45 -35 -9 -3 -3 -6
13 -6 16 -1 26 -5 22 -11 -6 -9 8 -15 29 -11 5 1 4 -4 -3 -12 -9 -12 -8 -16 6
-22 24 -10 86 -6 94 7 4 6 8 5 11 -3 3 -8 -2 -19 -9 -24 -11 -9 -10 -11 9 -12
12 -1 26 3 30 10 6 9 10 9 16 1 4 -6 22 -13 40 -16 l32 -5 1 124 c0 68 1 137
1 153 0 17 -1 35 -1 40 -1 12 -81 14 -81 2z"/>
<path d="M450 1256 c0 -13 -11 -57 -25 -98 -29 -86 -29 -88 -10 -88 11 0 15
11 16 38 0 20 4 46 9 57 9 18 4 -395 -5 -452 -4 -23 -3 -23 133 -23 75 -1 198
-3 273 -6 110 -5 138 -3 150 8 8 8 21 17 28 19 11 4 10 8 -3 22 -15 15 -17 34
-13 160 7 194 14 328 18 351 4 18 -3 20 -111 22 -63 2 -193 5 -287 8 l-173 6
0 -24z m526 -39 c3 -3 2 -120 -2 -261 l-7 -256 -250 0 -250 0 7 257 c4 141 10
261 13 267 6 9 479 3 489 -7z"/>
<path d="M1239 1269 c0 -2 -2 -12 -4 -21 -2 -10 1 -18 5 -18 5 0 14 8 19 18
12 19 14 12 11 -35 -2 -34 8 -41 28 -21 9 9 12 9 12 -3 0 -8 -5 -20 -12 -27
-9 -9 -4 -12 25 -12 31 0 38 4 43 25 6 24 10 25 63 24 31 -1 51 -4 44 -6 -8
-3 -7 -10 5 -23 16 -19 16 -19 34 0 24 26 32 25 18 0 -6 -11 -9 -20 -8 -21 39
-10 45 -7 56 29 10 34 10 34 6 5 -5 -29 -3 -33 16 -33 16 0 20 4 16 15 -3 8
-1 15 3 15 5 0 11 -6 14 -13 3 -8 23 -14 51 -15 26 -1 52 -3 58 -5 7 -1 12 4
13 11 0 16 20 16 20 0 0 -7 15 -13 38 -13 20 -1 37 0 37 2 0 2 -8 16 -17 31
l-17 27 25 -22 c30 -28 39 -29 39 -5 1 9 7 31 14 47 13 30 13 30 10 -15 -2
-45 -2 -45 29 -43 56 3 63 4 50 10 -7 2 -13 9 -13 15 0 6 7 8 15 5 8 -4 17 -2
20 3 7 11 -15 18 -37 12 -9 -2 -14 -10 -11 -18 4 -10 -3 -14 -22 -14 -21 0
-26 4 -21 16 3 9 6 20 6 25 0 5 22 9 49 9 39 0 51 -4 54 -17 4 -17 5 -17 6 0
1 15 12 22 34 18 4 0 7 3 7 8 0 5 10 12 23 14 12 2 -39 5 -113 6 -74 1 -271 4
-437 8 -167 3 -303 4 -304 2z"/>
<path d="M2862 1088 c-1 -23 -5 -51 -8 -61 -4 -12 -2 -17 4 -13 5 3 17 -9 25
-27 l16 -32 10 25 c9 23 10 21 11 -20 l2 -45 8 34 c5 19 6 51 3 70 -9 54 3 34
21 -37 23 -90 21 -122 -5 -122 -21 0 -21 -2 -15 -152 4 -106 3 -147 -4 -133
-8 16 -9 13 -5 -14 3 -18 5 -40 5 -47 0 -11 22 -14 99 -14 56 0 103 4 106 10
3 6 -1 10 -9 10 -12 0 -16 11 -16 43 -1 23 -3 75 -6 116 -4 52 -3 71 5 67 6
-4 11 0 11 9 0 9 5 13 10 10 6 -4 10 -12 8 -18 -1 -7 2 -63 6 -124 l8 -113 26
1 c24 2 24 2 5 6 -22 4 -23 9 -23 93 0 49 -2 94 -3 102 -2 7 -2 10 0 5 9 -14
23 5 23 30 0 54 8 15 15 -72 4 -49 9 -92 11 -94 4 -5 8 107 4 124 -1 6 -4 35
-5 65 -10 206 -19 301 -28 307 -6 4 -8 -21 -5 -72 3 -48 2 -71 -4 -61 -5 8
-10 38 -11 66 0 27 -4 50 -8 50 -4 0 -11 17 -17 38 -9 34 -10 31 -12 -43 -3
-71 -4 -75 -10 -35 -4 25 -8 41 -9 35 -3 -20 -21 21 -21 50 0 23 -3 26 -10 15
-5 -8 -7 -23 -4 -32 4 -13 1 -16 -10 -12 -11 4 -16 0 -18 -12 0 -11 -4 1 -8
26 -6 39 -8 42 -15 22 -6 -18 -10 -21 -17 -10 -6 8 -7 -1 -3 -27 4 -29 3 -36
-4 -25 -6 8 -11 30 -11 47 0 31 -2 32 -25 23 -16 -6 -25 -6 -25 0 0 6 -4 10
-10 10 -5 0 -9 -3 -9 -7 1 -5 0 -21 -1 -38 -2 -30 -2 -30 -12 8 -14 51 -34 48
-36 -5z"/>
<path d="M1390 1111 c0 -4 -20 -14 -45 -21 -24 -7 -42 -16 -39 -21 3 -5 0 -9
-5 -9 -6 0 -11 -8 -10 -17 0 -11 3 -13 6 -5 3 8 28 12 74 12 l70 0 15 -35 c11
-28 20 -35 41 -35 21 0 24 3 15 12 -15 15 3 38 29 38 10 0 21 5 24 10 8 13 40
13 63 0 9 -5 29 -14 45 -20 38 -13 34 -27 -13 -46 -45 -18 -50 -29 -18 -40 21
-6 21 -7 3 -20 -10 -8 -14 -14 -8 -14 7 0 26 13 44 29 44 40 59 24 59 -62 0
-74 -7 -100 -24 -90 -6 3 -3 -3 7 -14 9 -11 17 -26 17 -35 0 -30 -22 -78 -37
-78 -12 0 -12 -2 1 -16 21 -21 21 -21 -19 -16 -20 2 -32 8 -29 14 4 6 1 9 -7
6 -8 -3 -14 -14 -15 -25 -1 -21 10 -24 34 -9 11 7 12 4 3 -13 -7 -11 -16 -21
-22 -21 -6 0 -7 -4 -4 -10 3 -5 -1 -10 -9 -10 -9 0 -16 7 -16 15 0 18 -17 19
-34 2 -21 -21 8 -38 69 -40 30 -1 55 -6 55 -10 0 -5 7 -1 16 8 21 20 11 53
-11 35 -8 -6 -19 -9 -25 -5 -13 8 -13 35 1 35 6 0 8 -7 5 -15 -5 -13 -1 -12
19 2 18 13 24 24 20 41 -4 15 -2 21 5 17 5 -3 10 -33 10 -66 0 -32 4 -59 9
-59 5 0 7 -9 4 -20 -3 -11 0 -20 6 -20 6 0 12 5 12 10 3 20 4 25 12 37 9 14
-1 81 -13 88 -14 9 -11 158 3 167 9 6 8 11 -5 18 -10 6 -14 18 -11 30 7 27 29
25 30 -2 3 -92 23 -125 23 -40 0 36 4 49 15 50 8 1 21 3 28 4 6 1 13 13 14 27
5 61 2 125 -6 135 -5 6 -14 28 -20 49 -11 32 -18 39 -57 48 -24 6 -47 15 -50
20 -7 12 -354 12 -354 0z"/>
<path d="M1920 910 c0 -5 9 -10 20 -10 11 0 20 -4 20 -10 0 -5 -3 -9 -7 -9 -5
1 -15 0 -23 -2 -8 -1 16 -5 54 -8 42 -4 71 -11 74 -18 2 -8 -6 -13 -20 -13
-24 0 -48 -16 -48 -33 0 -5 7 -6 16 -3 8 3 12 2 9 -3 -3 -6 3 -14 12 -20 10
-6 12 -11 6 -11 -7 0 -12 -3 -12 -7 3 -21 -3 -24 -18 -12 -14 12 -16 12 -9 -1
4 -8 1 -6 -8 4 -8 10 -13 23 -10 27 3 5 -4 9 -15 9 -10 0 -21 6 -24 13 -2 6
-8 8 -13 4 -5 -4 -2 -12 6 -17 11 -7 12 -13 2 -35 -16 -35 -8 -45 31 -39 25 3
28 2 12 -5 -11 -5 -15 -10 -9 -10 16 -1 26 -43 14 -55 -13 -13 -13 -29 0 -21
21 13 9 -10 -17 -33 -27 -22 -27 -23 -4 -16 16 4 21 3 17 -5 -4 -6 -3 -11 3
-11 5 0 12 6 14 13 4 9 6 9 6 -1 1 -10 5 -10 21 0 24 15 26 28 5 28 -9 0 -15
9 -15 23 0 18 2 19 10 7 8 -12 10 -9 10 13 0 15 5 27 12 27 6 0 9 -3 5 -6 -3
-3 2 -14 11 -25 12 -14 18 -16 25 -6 4 7 5 -15 2 -50 -9 -87 -4 -98 47 -99 24
0 55 -4 71 -8 25 -6 27 -4 27 21 -1 16 -8 46 -16 68 -8 22 -20 55 -25 73 -6
18 -13 30 -17 28 -5 -3 -9 10 -10 27 -3 50 -52 177 -68 177 -8 0 -15 -9 -15
-20 -2 -28 -3 -33 -12 -47 -16 -26 -25 -12 -11 17 8 16 18 45 21 65 l6 35 -82
0 c-47 0 -81 -4 -81 -10z"/>
<path d="M4715 812 c-3 -3 -5 -26 -5 -52 0 -34 7 -55 25 -80 36 -49 48 -53 75
-25 19 20 30 24 60 19 l36 -6 -4 35 c-3 30 -1 35 14 33 10 -2 19 -7 21 -13 2
-6 17 -9 32 -7 24 3 30 -1 35 -21 5 -18 13 -25 29 -24 17 1 18 2 4 6 -10 3
-16 10 -14 16 6 20 36 20 65 1 15 -10 30 -17 35 -16 4 1 7 -3 7 -9 0 -6 -7 -8
-16 -5 -16 6 -80 -22 -70 -31 3 -3 19 0 37 6 17 6 42 8 55 5 21 -6 24 -3 24
25 0 17 -5 31 -11 31 -6 0 -17 7 -25 15 -9 8 -24 15 -35 15 -12 0 -19 7 -19
18 0 18 -8 19 -100 14 -85 -4 -100 -2 -100 11 0 8 12 18 28 23 l27 7 -30 7
c-16 3 -38 3 -48 -2 -9 -5 -21 -7 -26 -4 -12 8 -99 14 -106 8z"/>
<path d="M205 669 c-2 -3 -7 -99 -11 -214 -5 -157 -4 -206 5 -201 6 4 9 12 6
17 -4 5 28 9 77 9 57 0 78 -3 68 -10 -10 -6 -11 -10 -2 -10 27 0 10 -19 -20
-22 -27 -2 -34 -8 -36 -28 -2 -14 -9 -31 -15 -39 -9 -10 -3 -10 21 3 34 17 44
33 15 21 -13 -4 -15 -3 -7 5 6 6 21 12 33 13 13 1 26 8 31 17 4 8 11 103 15
210 4 107 11 202 16 210 5 9 9 10 9 3 0 -16 30 -5 30 11 0 11 -228 17 -235 5z
m165 -209 c0 -5 -7 -10 -15 -10 -8 0 -15 -5 -15 -11 0 -6 7 -9 15 -5 9 3 15 0
15 -9 0 -8 -10 -16 -22 -16 -23 -2 -23 -2 -1 -6 17 -3 21 -11 21 -34 -1 -19
-6 -29 -17 -29 -14 -1 -13 -2 2 -11 32 -19 7 -29 -69 -29 -59 0 -74 3 -74 15
0 8 8 16 18 16 14 1 14 2 1 6 -10 2 -16 15 -16 33 0 23 5 30 21 31 l21 2 -21
4 c-15 3 -21 12 -22 33 l-1 30 80 0 c46 0 79 -4 79 -10z"/>
<path d="M5541 486 c-11 -14 -11 -34 -5 -128 5 -61 9 -78 21 -78 9 0 21 -7 27
-16 10 -13 27 -15 119 -8 96 6 107 9 107 26 0 11 -4 16 -10 13 -5 -3 -36 -3
-69 1 -56 6 -59 8 -57 32 2 14 11 29 22 33 16 6 15 8 -9 14 l-28 7 23 13 c13
6 22 17 20 24 -2 9 12 12 48 10 27 -2 52 0 56 3 3 4 12 4 20 1 10 -4 14 3 14
21 0 23 -3 25 -19 16 -14 -7 -20 -7 -23 1 -2 6 -20 12 -41 13 -20 0 -37 6 -37
11 0 6 -4 4 -9 -3 -6 -11 -21 -11 -67 -4 -72 12 -92 12 -103 -2z"/>
</g>
</svg>
