<?xml version="1.0" standalone="no"?>
<!DOCTYPE svg PUBLIC "-//W3C//DTD SVG 20010904//EN"
 "http://www.w3.org/TR/2001/REC-SVG-20010904/DTD/svg10.dtd">
<svg version="1.0" xmlns="http://www.w3.org/2000/svg"
 width="588.000000pt" height="433.000000pt" viewBox="0 0 588.000000 433.000000"
 preserveAspectRatio="xMidYMid meet">
<metadata>
Created by potrace 1.15, written by Peter Selinger 2001-2017
</metadata>
<g transform="translate(0.000000,433.000000) scale(0.100000,-0.100000)"
fill="#000000" stroke="none">
<path d="M1 3634 c-1 -513 1 -700 10 -710 8 -10 8 -14 0 -14 -17 0 -14 -80 4
-86 8 -4 15 -10 15 -15 0 -4 -7 -6 -15 -3 -12 5 -15 -2 -15 -34 l0 -40 50 -11
c28 -6 62 -11 75 -11 16 0 29 -9 39 -27 10 -18 15 -22 16 -12 0 9 6 17 13 16
56 -2 87 4 87 18 0 21 19 19 55 -6 l30 -20 -40 5 c-37 5 -38 5 -10 -4 17 -6
44 -8 60 -4 21 3 26 2 16 -4 -10 -8 -6 -11 18 -17 17 -3 34 -11 37 -17 4 -6
-2 -8 -17 -3 -18 5 -21 4 -9 -4 8 -6 22 -8 31 -6 22 7 52 -29 44 -53 -3 -11
-1 -23 4 -27 7 -4 8 1 4 12 -6 16 -5 17 13 3 18 -14 18 -14 5 3 -8 9 -11 21
-7 24 4 4 11 1 15 -6 6 -10 10 -10 16 -2 5 8 11 9 19 2 9 -8 13 -7 13 4 0 8
-9 17 -19 21 -10 3 -18 13 -18 22 0 13 2 14 9 4 4 -7 19 -14 32 -15 13 0 27
-6 31 -12 4 -5 8 0 8 13 0 13 -6 22 -15 22 -15 0 -21 25 -8 33 5 2 3 2 -4 1
-7 -2 -15 1 -18 6 -4 6 3 10 14 10 11 0 23 -4 26 -10 9 -15 27 -12 19 3 -4 6
2 4 14 -7 12 -10 19 -22 17 -26 -7 -11 22 -33 35 -25 5 3 10 2 10 -3 0 -14 54
-36 58 -23 2 6 9 8 15 4 8 -5 8 -2 0 9 -7 8 -10 18 -6 21 3 4 1 7 -6 7 -8 0
-11 -7 -7 -15 7 -20 -3 -19 -39 5 -16 11 -24 20 -17 20 9 0 10 5 3 18 -17 32
1 44 48 33 33 -7 40 -6 32 3 -11 13 -5 26 11 26 5 0 6 -4 3 -10 -4 -6 5 -10
22 -9 18 1 22 3 10 6 -18 5 -18 5 0 20 10 8 13 12 6 9 -6 -4 -14 3 -18 14 -3
11 -11 20 -17 20 -6 0 -3 10 8 23 l19 22 -21 -18 c-12 -10 -34 -22 -50 -26
-15 -4 -30 -13 -32 -20 -3 -9 0 -11 8 -6 9 6 11 4 5 -4 -4 -7 -16 -11 -26 -8
-10 3 -22 1 -25 -4 -3 -5 -10 -9 -15 -9 -6 0 -8 4 -5 9 3 5 -3 11 -14 14 -11
3 -20 10 -20 16 0 16 33 27 38 13 2 -7 8 -10 13 -6 5 3 9 0 9 -6 0 -6 5 -8 10
-5 8 5 7 11 0 20 -9 11 -6 16 17 22 15 4 35 6 43 5 8 -1 0 5 -18 14 -26 11
-32 19 -27 34 5 15 0 21 -19 26 -13 3 -34 3 -45 -1 -13 -4 -21 -2 -21 5 0 6 4
9 9 5 5 -3 12 -1 15 4 3 5 -4 11 -15 14 -18 5 -19 8 -9 28 11 19 9 25 -11 41
-13 10 -17 16 -8 12 10 -3 20 0 25 7 4 7 3 10 -2 6 -6 -3 -16 -2 -24 4 -11 6
-8 9 13 9 28 0 39 -24 15 -33 -10 -4 -10 -6 0 -6 6 -1 12 -7 12 -15 0 -8 4
-17 9 -20 5 -4 7 2 4 13 -4 16 0 18 24 13 15 -3 34 -12 41 -21 8 -9 11 -10 7
-3 -9 18 13 15 23 -4 8 -14 10 -12 14 10 3 15 1 26 -6 27 -6 0 -1 4 12 9 12 5
22 16 22 24 0 9 6 13 14 10 21 -8 28 24 8 36 -16 11 -16 11 0 6 14 -4 17 0 16
22 -1 15 -5 32 -10 38 -5 7 1 23 15 40 l25 29 -29 0 c-16 0 -29 -4 -29 -9 0
-4 -6 -6 -14 -3 -8 3 -17 1 -20 -6 -2 -7 -5 0 -5 14 -1 27 14 32 52 14 13 -5
25 -2 40 13 11 12 18 24 15 27 -10 10 -62 12 -87 3 -19 -7 -22 -6 -17 8 3 8 6
18 6 20 0 2 8 4 17 4 9 0 14 3 10 6 -3 3 -2 17 3 30 9 22 8 24 -9 14 -26 -13
-31 -13 -25 4 4 10 -7 13 -53 11 -48 -2 -54 0 -33 9 30 13 40 25 33 43 -3 9 3
13 20 13 14 0 28 4 31 9 3 5 21 12 41 15 19 4 37 11 40 16 3 6 -1 7 -10 4 -9
-4 -25 2 -35 11 -21 19 -28 41 -9 30 6 -4 5 2 -2 13 -7 12 -17 18 -21 16 -4
-3 -8 0 -8 6 0 7 8 9 20 5 11 -3 20 -2 20 4 0 5 28 8 68 7 37 -2 50 -1 30 1
-38 4 -48 19 -27 40 7 7 6 12 -6 17 -9 3 -13 2 -10 -4 3 -5 -6 -15 -20 -22
-22 -10 -29 -9 -43 6 -16 16 -16 17 10 7 21 -8 28 -7 33 6 3 10 -1 20 -10 25
-8 5 -15 15 -15 23 0 8 -9 19 -20 25 -14 8 -20 8 -20 0 0 -7 -6 -10 -12 -7 -7
2 -23 0 -36 -4 -13 -5 -34 -6 -47 -3 -22 6 -23 7 -9 22 9 9 33 17 53 19 19 1
48 8 63 14 31 12 37 43 12 53 -12 5 -14 1 -10 -17 3 -12 3 -17 0 -10 -4 9 -11
9 -29 1 -14 -6 -23 -14 -20 -17 2 -4 -5 -7 -15 -7 -10 0 -16 5 -13 10 6 9 -15
5 -50 -9 -13 -6 -16 -3 -11 9 3 9 14 16 23 17 9 0 26 2 39 5 15 3 21 0 16 -7
-5 -9 30 4 45 17 1 1 -23 1 -55 0 l-59 -4 43 15 c24 8 41 17 38 20 -9 10 18
30 35 26 12 -4 18 4 21 26 4 31 -8 43 -18 18 -2 -7 -14 -13 -24 -14 -11 -1
-18 2 -15 8 4 5 -1 9 -9 9 -19 0 -21 16 -3 24 6 3 -3 3 -20 0 -39 -5 -45 13
-8 22 14 3 25 10 25 15 0 5 8 9 18 10 11 1 8 4 -8 8 -17 5 -29 2 -37 -8 -11
-14 -12 -13 -13 7 0 12 -5 22 -11 22 -5 0 3 12 18 26 15 14 22 23 16 19 -8 -4
-13 0 -13 9 0 23 -21 20 -27 -4 -3 -11 -9 -17 -14 -14 -5 3 -7 9 -4 14 3 5 -4
14 -16 20 -19 11 -20 13 -4 30 15 16 14 18 -10 22 -18 4 -25 2 -21 -7 3 -8 -2
-11 -15 -8 -10 3 -19 0 -19 -6 0 -6 -8 -11 -18 -11 -10 0 -19 7 -19 15 0 8 3
12 7 10 4 -2 16 2 26 10 12 9 14 14 6 15 -7 0 -11 4 -7 9 3 5 1 12 -4 16 -5 3
-14 -3 -20 -12 -9 -16 -11 -15 -11 7 0 59 -9 76 -26 49 -4 -8 -9 -7 -16 2 -8
11 -9 11 -5 -2 3 -9 1 -22 -5 -30 -8 -11 -9 -11 -4 3 7 23 -9 32 -24 13 -16
-20 -30 -19 -30 2 0 9 3 14 6 10 11 -11 44 32 37 49 -5 13 -3 15 7 9 10 -6 12
-4 7 8 -4 10 1 20 11 27 14 8 11 9 -13 6 -16 -2 -24 -1 -16 1 8 3 23 14 34 24
16 14 29 18 54 13 19 -4 33 -2 33 4 0 18 -61 22 -325 22 l-263 0 -1 -696z"/>
<path d="M1079 4310 c15 -13 38 -20 65 -20 23 0 65 -11 96 -26 42 -20 66 -25
100 -21 25 2 39 2 33 0 -7 -3 -13 -11 -13 -18 0 -17 53 -27 220 -39 30 -2 61
-4 69 -5 11 -1 11 -4 1 -16 -9 -11 -16 -13 -24 -5 -13 13 -89 13 -81 0 3 -5
18 -10 32 -10 22 0 25 -3 21 -30 -3 -20 0 -30 9 -30 7 0 13 5 13 10 0 6 9 10
20 10 11 0 20 -5 20 -10 0 -6 11 -8 25 -4 35 9 75 -19 75 -52 0 -31 -21 -40
-52 -21 -13 8 -42 18 -65 22 -39 6 -43 5 -43 -14 0 -12 -4 -21 -9 -21 -5 0 -7
8 -5 18 4 13 -5 20 -35 30 -23 6 -57 12 -76 12 -43 0 -46 -18 -5 -45 16 -11
30 -23 30 -27 0 -5 6 -8 14 -8 8 0 27 -5 43 -11 l28 -11 -24 -19 c-18 -14 -19
-19 -7 -19 12 0 16 -10 16 -40 0 -29 4 -40 15 -40 22 0 18 -17 -6 -23 -12 -3
-18 -10 -14 -16 8 -14 35 -14 35 -1 0 6 18 10 40 10 36 0 40 -2 40 -25 0 -14
4 -25 9 -25 5 0 12 -10 14 -22 l4 -23 8 23 c8 25 16 27 33 10 9 -9 12 -9 12 0
0 7 7 12 15 12 11 0 15 11 15 40 0 29 -4 40 -15 40 -9 0 -15 -10 -15 -26 0
-31 -23 -28 -28 4 -2 14 2 22 11 22 9 0 17 5 19 10 2 7 55 13 131 16 109 4
132 2 157 -13 17 -9 30 -20 30 -24 0 -4 -36 -10 -80 -14 -44 -4 -80 -11 -80
-16 0 -5 36 -9 80 -9 47 0 80 4 80 10 0 6 33 10 80 10 64 0 80 3 80 15 0 11
11 15 40 15 22 0 40 -4 40 -9 0 -17 103 -20 129 -4 19 13 25 13 32 2 6 -11 11
-11 21 -1 9 9 9 12 -5 12 -9 0 -17 7 -17 15 0 13 20 15 120 15 73 0 120 4 120
10 0 6 18 10 40 10 23 0 40 -5 40 -11 0 -8 12 -10 36 -6 47 8 52 14 28 32 -17
13 -17 14 -1 15 9 0 17 -4 17 -9 0 -5 21 -11 47 -13 40 -3 51 1 77 25 24 21
32 24 34 12 2 -8 9 -15 16 -15 8 0 27 -3 44 -6 28 -6 30 -4 25 15 -5 22 -4 22
131 20 137 -1 167 3 125 16 -21 7 -21 8 10 21 19 8 47 14 64 14 17 0 39 7 49
17 17 15 18 15 18 0 0 -10 5 -17 10 -17 6 0 10 -10 11 -22 0 -22 1 -22 8 -3 5
11 6 25 4 31 -2 7 7 21 21 32 14 11 26 25 26 31 0 6 18 11 44 11 34 0 43 -3
42 -16 0 -9 5 -19 13 -22 10 -3 12 2 7 21 -8 34 15 47 83 47 30 0 51 5 53 12
3 8 14 3 30 -14 24 -26 31 -28 126 -30 64 -2 97 -7 91 -13 -5 -5 -9 -19 -9
-32 0 -22 1 -22 30 -5 21 12 28 22 24 35 -3 11 0 17 10 17 25 0 19 17 -9 24
-15 4 -27 16 -31 31 -5 18 -13 25 -31 25 -22 0 -24 2 -13 15 8 9 30 15 56 15
32 0 44 -4 44 -15 0 -11 12 -15 50 -15 28 0 50 -2 50 -5 0 -11 -36 -45 -47
-45 -8 0 -18 -11 -23 -25 -5 -14 -14 -25 -20 -25 -5 0 -10 -7 -10 -16 0 -14 8
-16 46 -10 59 8 67 13 60 42 -5 19 -2 24 14 24 12 0 22 -9 26 -24 7 -31 28
-24 44 15 11 25 10 32 -5 49 -14 16 -21 18 -28 8 -7 -10 -10 -10 -14 0 -2 6
-11 12 -19 12 -20 0 -17 14 7 36 16 14 22 15 28 5 5 -8 25 -11 57 -9 42 3 49
6 52 26 3 19 -1 22 -28 22 l-31 0 18 25 c16 22 25 24 96 25 62 0 77 3 77 15 0
13 -198 15 -1752 15 -1742 -1 -1753 -1 -1729 -20z"/>
<path d="M4523 4193 c-58 -6 -60 -33 -3 -33 29 0 40 -4 40 -15 0 -26 -74 -20
-94 8 -16 21 -16 21 -11 -23 5 -40 4 -43 -7 -24 -14 23 -38 21 -38 -2 0 -8 -5
-14 -10 -14 -6 0 -8 -15 -4 -39 5 -33 3 -40 -12 -44 -17 -4 -17 -5 -1 -6 9 0
17 -5 17 -11 0 -14 68 -12 111 4 23 8 55 10 88 6 28 -3 51 -3 51 2 0 4 -20 8
-45 8 -25 0 -45 5 -45 10 0 6 22 10 49 10 42 0 53 4 73 28 20 24 29 27 69 24
42 -3 47 -2 51 20 4 22 2 23 -39 19 -24 -1 -43 -7 -43 -12 0 -17 -32 4 -41 27
-4 13 -15 24 -24 24 -8 0 -15 9 -15 20 0 21 -11 22 -117 13z"/>
<path d="M1845 2640 c-4 -6 -2 -32 4 -58 8 -35 42 -543 41 -620 0 -7 -11 -11
-29 -10 -15 1 -41 -6 -56 -16 -23 -15 -29 -16 -37 -5 -6 10 -7 7 -3 -8 3 -13
2 -23 -3 -23 -13 0 -82 -69 -82 -81 0 -5 9 -9 20 -9 12 0 20 -7 20 -17 0 -15
-2 -16 -10 -3 -6 10 -10 11 -10 3 0 -9 -16 -13 -46 -13 l-46 0 38 43 c21 23
42 44 48 46 12 5 56 48 56 56 0 12 -24 4 -35 -12 -12 -16 -15 -16 -34 7 -12
15 -20 19 -21 11 0 -7 -6 -11 -15 -7 -10 4 -14 -1 -12 -17 2 -17 -3 -22 -24
-23 -15 -1 -34 -4 -43 -7 -18 -7 -20 37 -8 261 4 67 4 122 1 122 -3 0 -9 -78
-13 -172 -4 -95 -9 -181 -12 -190 -6 -20 -34 -25 -34 -5 0 8 -4 7 -10 -3 -5
-8 -10 -11 -10 -7 0 4 -9 3 -20 -3 -17 -9 -20 -7 -26 16 l-7 25 -29 -35 c-16
-20 -33 -34 -38 -31 -5 3 -11 1 -14 -3 -5 -9 -80 6 -103 21 -6 4 -23 8 -37 9
-14 1 -26 6 -26 9 0 4 -10 9 -22 11 -30 4 -34 24 -6 32 18 5 20 8 9 15 -7 5
-10 14 -6 21 6 9 3 9 -14 1 -18 -10 -21 -9 -21 7 0 10 6 24 13 32 9 11 8 11
-7 0 -18 -14 -19 -13 -14 7 5 19 3 21 -18 13 -21 -8 -25 -6 -30 17 -4 14 -3
86 2 160 5 74 6 137 3 139 -4 2 -10 -45 -13 -104 -10 -153 -17 -212 -27 -212
-5 0 -9 5 -9 11 0 8 -5 8 -15 -1 -8 -7 -15 -19 -15 -28 0 -8 -3 -12 -7 -9 -11
12 -33 -14 -33 -39 0 -16 5 -22 14 -18 8 3 16 -3 19 -15 4 -17 0 -21 -19 -21
-13 0 -24 5 -24 10 0 6 -7 10 -15 10 -8 0 -28 13 -43 30 -40 42 -65 40 -59 -3
2 -18 9 -43 16 -54 14 -28 14 -40 0 -26 -6 6 -17 9 -23 7 -7 -3 -11 15 -10 54
l1 59 -30 -30 c-22 -23 -26 -32 -15 -38 19 -12 30 -11 22 3 -4 6 -3 8 4 5 5
-4 9 -15 8 -24 -2 -14 -12 -17 -47 -16 -228 5 -286 8 -298 17 -10 8 -15 8 -19
-2 -3 -10 -7 -10 -18 -1 -8 6 -11 15 -8 20 3 5 -1 9 -8 9 -14 0 -14 27 0 353
4 88 4 161 1 163 -4 2 -9 -51 -13 -119 -14 -252 -17 -304 -27 -372 -5 -38 -11
-70 -12 -71 -1 -1 -8 4 -15 12 -10 11 -10 14 0 14 10 0 9 3 -1 9 -9 6 -19 4
-28 -5 -16 -16 -33 -19 -33 -5 0 4 -21 31 -48 59 -51 55 -55 55 -109 8 -14
-11 -29 -21 -35 -21 -6 0 -14 -9 -19 -20 -7 -18 -9 -18 -13 3 -1 4 -5 13 -9
20 -5 6 -5 12 -1 12 3 0 1 7 -6 15 -7 8 -16 12 -22 9 -5 -3 -4 -13 4 -22 10
-12 10 -14 1 -8 -8 4 -13 2 -13 -4 0 -7 7 -10 15 -7 21 9 28 -10 8 -22 -17 -9
-18 -60 -21 -910 -2 -724 0 -901 10 -901 7 0 29 5 48 10 19 6 52 13 73 16 21
3 49 9 63 14 33 13 34 13 28 -5 -4 -8 -14 -15 -24 -15 -11 0 -22 -4 -25 -10
-3 -5 0 -10 8 -10 7 0 24 -11 37 -25 l23 -25 -51 4 c-27 2 -55 7 -60 10 -6 3
-21 2 -34 -3 -13 -5 -40 -12 -60 -16 -35 -5 -38 -8 -38 -40 l0 -34 207 -1
c160 0 204 3 195 12 -18 18 -14 27 8 21 11 -3 20 -11 20 -19 0 -11 231 -14
1445 -14 964 0 1445 4 1445 10 0 6 -10 8 -22 5 -13 -3 -32 1 -43 9 -18 14 -18
15 -2 16 9 0 17 -3 17 -8 0 -4 21 -6 48 -4 44 4 46 3 27 -12 -20 -15 -19 -15
7 -16 21 0 25 4 21 20 -4 14 0 20 10 20 10 0 13 -6 10 -20 -5 -19 1 -20 598
-20 464 0 600 3 591 12 -17 17 -15 31 3 24 8 -3 15 0 15 6 0 9 3 9 12 0 8 -8
8 -15 -1 -26 -11 -13 35 -15 406 -15 376 0 414 2 379 15 -22 8 -68 19 -102 26
-35 6 -61 14 -59 18 3 4 -17 13 -43 20 -26 8 -57 21 -69 30 -12 10 -42 18 -65
18 -24 1 -83 8 -132 17 -49 9 -92 12 -95 7 -8 -12 -51 -13 -51 -1 0 6 -7 6
-19 -1 -11 -5 -40 -10 -65 -10 -26 0 -46 -5 -46 -11 0 -5 -4 -8 -9 -4 -6 3 -8
-4 -6 -15 2 -12 -1 -20 -9 -20 -8 0 -16 11 -18 25 -4 18 -1 25 11 25 9 0 0 8
-19 17 -46 22 -44 20 -29 36 8 7 21 12 29 9 12 -4 13 -2 3 9 -8 8 -45 14 -100
16 -49 2 -89 7 -91 12 -2 5 -12 7 -22 4 -11 -3 -17 -9 -14 -14 3 -5 -11 -9
-32 -9 -28 0 -34 3 -26 13 8 9 -2 12 -41 14 -28 1 -54 -3 -58 -8 -8 -13 -170
-14 -178 -1 -4 7 -51 9 -126 7 -98 -2 -128 -7 -162 -24 -50 -25 -66 -26 -87
-5 -20 20 -12 34 14 27 24 -6 27 12 4 21 -10 4 -14 14 -11 26 3 13 0 20 -8 20
-15 0 -85 39 -85 47 0 2 9 2 20 -2 10 -3 42 -10 69 -14 47 -7 52 -6 66 16 15
22 15 23 -12 23 -61 0 -70 39 -10 41 30 1 31 1 7 8 -24 8 -24 8 -3 12 17 3 20
8 13 19 -7 12 -13 10 -33 -11 -18 -20 -30 -25 -55 -21 -27 4 -33 0 -42 -23 -7
-19 -15 -25 -26 -21 -12 4 -15 2 -10 -9 5 -13 2 -13 -19 1 -23 15 -30 13 -26
-8 0 -5 -3 -8 -9 -8 -5 0 -10 11 -10 25 0 25 0 26 -20 7 -17 -16 -28 -18 -63
-10 -87 18 -233 40 -259 39 -16 0 -28 3 -28 7 0 4 -14 9 -31 10 -17 1 -28 -2
-25 -7 7 -10 -5 -15 -64 -27 -19 -3 -45 -13 -57 -21 -12 -8 -27 -12 -33 -8 -5
3 -10 -1 -10 -9 0 -20 -16 -21 -24 -1 -3 8 2 19 12 24 9 5 13 13 9 17 -5 5
-11 3 -15 -3 -8 -13 -88 -34 -96 -26 -2 3 -10 2 -16 -2 -9 -6 -9 -10 1 -16 10
-6 5 -9 -16 -8 l-30 0 27 22 c26 21 26 23 10 43 -10 13 -34 24 -58 28 -23 3
-54 13 -70 21 -16 8 -35 15 -43 15 -8 0 -11 3 -8 7 4 3 -3 13 -15 21 -19 14
-23 14 -32 0 -9 -14 -12 -14 -33 -1 -12 8 -38 15 -57 15 -37 0 -89 27 -53 28
27 0 20 15 -9 18 -32 2 -66 21 -59 32 3 4 -1 10 -7 13 -21 7 74 19 115 13 29
-3 37 -1 37 11 0 12 8 14 35 10 19 -3 37 -1 41 5 4 6 9 5 15 -3 5 -8 25 -14
46 -14 21 0 38 -2 38 -5 0 -3 10 -20 23 -37 l23 -33 -33 6 c-40 8 -38 8 -65
-1 -29 -9 -39 -35 -13 -35 13 0 20 -7 20 -20 0 -23 4 -24 33 -8 20 10 21 10 7
-7 -14 -17 -12 -17 25 -11 59 9 77 8 86 -5 4 -7 14 -9 22 -6 8 3 18 3 22 -1 7
-7 46 -11 109 -11 30 0 37 -3 33 -15 -8 -21 3 -27 27 -14 11 7 25 11 31 9 5
-1 1 7 -10 19 l-20 22 39 -7 c36 -7 38 -7 31 15 -5 16 -4 20 5 15 6 -4 19 0
28 7 11 10 26 12 42 8 24 -6 25 -7 3 -14 -11 -4 -24 -13 -27 -21 -6 -15 5 -20
17 -8 4 3 48 6 99 6 70 0 88 2 77 11 -8 6 -15 19 -17 28 -2 14 4 18 29 18 50
0 29 9 -37 16 -64 7 -62 7 -114 0 -19 -3 -27 -3 -17 0 9 3 17 14 17 25 0 20
-16 26 -22 8 -2 -6 -15 -9 -28 -7 l-25 3 23 22 c12 13 19 23 15 23 -5 0 -1 5
7 11 11 8 0 9 -40 4 -30 -3 -67 -6 -82 -6 -14 0 -29 -7 -32 -15 -3 -8 -10 -13
-15 -10 -5 4 -16 -1 -25 -9 -9 -9 -17 -11 -21 -5 -3 5 9 19 27 31 19 12 24 18
12 15 -13 -4 -21 -2 -21 6 0 13 51 19 142 18 66 -1 83 7 81 35 -1 23 -6 26
-46 30 -8 0 -20 3 -25 6 -24 14 -66 18 -90 9 -21 -8 -30 -7 -42 6 -19 19 -98
13 -146 -11 -21 -11 -29 -11 -33 -2 -2 7 -29 13 -66 14 -58 3 -90 14 -71 26
13 8 82 18 153 22 39 2 64 8 62 14 -1 7 22 11 60 12 40 0 56 3 44 8 -30 12 56
29 127 25 34 -1 55 1 52 7 -4 5 -14 9 -23 10 -9 0 -3 5 13 10 29 8 114 0 87
-8 -6 -3 -10 -8 -7 -13 3 -5 22 -4 42 2 20 5 55 11 77 13 23 1 49 3 58 4 11 1
15 6 12 16 -7 17 -41 20 -46 5 -4 -12 -68 -2 -68 10 0 10 66 19 118 16 23 -2
45 0 48 5 3 5 15 9 27 10 21 0 21 1 2 10 -16 7 -13 8 15 5 19 -2 39 2 45 9 10
11 117 40 188 50 21 3 47 10 58 15 10 6 37 11 59 13 22 1 40 5 40 10 0 4 13 7
28 7 16 0 64 9 107 20 76 19 298 30 313 16 3 -3 -13 -6 -36 -6 -53 0 -64 -17
-15 -25 61 -9 127 -26 136 -34 4 -4 -17 -7 -47 -6 -47 2 -53 1 -41 -11 12 -12
98 -20 158 -14 22 2 22 16 0 28 -11 7 3 9 48 9 35 0 84 1 109 3 78 5 231 -11
345 -35 61 -13 132 -27 159 -32 29 -5 51 -14 54 -23 4 -13 3 -13 -10 -2 -18
14 -164 6 -174 -10 -6 -10 -24 -1 -24 13 0 6 5 7 10 4 6 -3 10 -2 10 3 0 5
-11 10 -25 9 -13 0 -22 -3 -19 -8 8 -14 -20 -10 -55 7 -19 10 -39 13 -49 8 -9
-4 -21 -9 -27 -10 -5 -1 -14 -3 -20 -4 -5 -1 -1 -5 10 -10 16 -7 14 -9 -14 -9
-39 -1 -38 -10 1 -13 16 -1 24 -7 21 -15 -3 -7 -9 -10 -14 -7 -5 3 -9 0 -9 -5
0 -6 14 -11 32 -11 17 0 28 3 25 7 -4 3 -2 12 4 19 7 9 7 19 -2 36 l-12 23 25
-22 c16 -15 37 -23 64 -24 42 0 91 -16 64 -20 -16 -2 129 -19 170 -20 14 0 42
-5 62 -10 40 -10 140 -23 175 -22 14 1 20 -4 16 -13 -3 -9 1 -14 12 -14 9 0
14 4 11 8 -3 5 9 6 27 4 26 -4 28 -6 13 -12 -18 -6 -18 -7 4 -23 l23 -16 -26
-7 -27 -6 31 -29 c17 -15 46 -31 65 -35 19 -3 34 -10 34 -14 0 -5 -9 -6 -19
-3 -12 3 -19 0 -18 -9 1 -38 -4 -48 -27 -48 -14 0 -27 4 -31 10 -3 5 -11 8
-18 6 -7 -1 -9 -1 -4 1 4 3 7 11 7 18 0 16 -42 27 -75 19 -20 -5 -23 -9 -15
-24 13 -25 -31 -55 -59 -40 -11 5 -27 7 -35 4 -10 -4 -16 -1 -16 9 0 9 -9 18
-19 22 -14 4 -18 11 -14 23 6 16 6 16 -9 1 -21 -21 -17 -50 8 -60 11 -5 13 -8
5 -8 -29 -2 0 -13 40 -16 55 -5 64 -16 39 -47 -12 -16 -17 -33 -13 -44 5 -15
2 -16 -27 -10 -32 6 -33 5 -15 -8 20 -15 20 -15 -2 -11 -12 2 -31 9 -43 15
-12 6 -26 9 -33 7 -7 -2 -42 4 -79 14 -36 10 -93 22 -125 25 -54 6 -57 5 -38
-10 20 -15 20 -15 -3 -16 -13 0 -26 8 -29 18 -10 24 -55 71 -51 52 2 -8 8 -18
13 -22 6 -4 -1 -8 -15 -8 -17 0 -21 -3 -12 -8 7 -5 10 -16 6 -26 -5 -13 -14
-15 -43 -11 -29 5 -33 4 -18 -5 9 -6 30 -12 45 -14 19 -1 26 -7 24 -19 -2 -11
4 -17 18 -17 11 0 20 -5 20 -11 0 -8 14 -10 45 -6 63 9 135 -2 128 -19 -2 -7
-12 -15 -21 -17 -16 -4 48 -11 74 -8 6 1 11 -6 11 -14 0 -10 -11 -16 -31 -17
-20 -1 -14 -3 19 -7 28 -3 49 -11 48 -17 -1 -6 17 -17 40 -24 23 -8 48 -18 55
-23 8 -7 16 -7 24 1 13 13 58 -2 153 -53 61 -32 154 -65 186 -65 6 0 5 8 -1
21 -21 38 -5 52 49 46 44 -5 49 -4 59 19 10 21 9 24 -7 24 -10 0 -21 6 -24 14
-4 10 6 15 33 20 32 5 37 9 33 26 -3 10 -15 22 -27 26 -27 9 -60 36 -63 52 -2
6 7 12 20 13 21 0 21 0 -3 10 -13 6 -28 15 -32 22 -6 9 -12 9 -26 1 -14 -9
-27 -9 -53 0 -37 13 -39 13 -89 22 -19 3 -60 13 -90 22 -30 9 -62 15 -70 14
-9 -1 -10 1 -3 4 7 3 9 12 7 19 -5 11 2 13 26 10 23 -3 29 0 23 8 -17 25 0 77
25 77 12 0 13 -3 4 -12 -15 -15 -15 -28 -1 -28 5 0 8 4 5 9 -3 5 3 11 14 14
11 3 23 1 26 -4 3 -5 0 -9 -6 -9 -6 0 -8 -5 -5 -10 3 -6 13 -10 21 -10 8 0 12
4 9 10 -4 6 1 7 10 3 10 -3 21 0 27 8 7 11 11 11 15 2 2 -7 4 -15 3 -19 -1 -4
4 -11 12 -15 10 -7 9 -9 -4 -9 -10 0 -18 5 -18 10 0 6 -7 10 -17 10 -12 0 -9
-6 12 -24 27 -23 27 -24 4 -21 -13 1 -16 0 -6 -2 9 -2 17 -9 17 -16 0 -8 3 -8
12 1 7 7 20 12 31 12 10 0 16 4 13 9 -4 5 3 7 15 4 16 -5 18 -8 7 -15 -9 -7
-8 -8 7 -5 11 2 19 9 17 16 -3 17 88 11 106 -7 7 -6 28 -12 45 -12 26 0 29 -2
17 -11 -12 -9 -12 -10 3 -5 10 3 27 6 38 6 18 0 19 7 18 75 -1 69 -3 75 -23
75 -17 0 -18 2 -6 10 13 8 13 10 -2 10 -9 0 -19 4 -22 9 -3 5 8 8 24 7 l30 -2
0 512 c-1 388 -4 514 -13 518 -9 5 -9 7 1 12 9 4 12 40 12 130 l0 124 -157 -5
c-87 -3 -223 -10 -303 -16 -80 -6 -203 -13 -275 -14 -71 -2 -152 -8 -180 -13
-27 -6 -71 -8 -97 -5 -29 4 -53 1 -61 -6 -8 -6 -61 -11 -127 -13 -67 -1 -124
-6 -138 -14 -13 -6 -50 -12 -82 -13 -49 0 -57 2 -56 17 1 18 -11 19 -406 14
l-148 -2 0 -83 c0 -58 -5 -89 -15 -103 -13 -18 -14 -16 -15 26 0 33 3 41 10
30 7 -10 10 7 10 58 0 57 -3 72 -15 72 -8 0 -15 -3 -15 -7 0 -5 -48 -9 -108
-10 -59 -1 -115 -2 -124 -3 -16 0 -18 -11 -18 -86 0 -47 5 -94 10 -105 7 -13
7 -19 0 -19 -6 0 -8 -17 -5 -42 6 -46 15 -64 15 -31 0 15 5 20 18 18 9 -2 20
-4 25 -4 4 -1 7 -7 7 -15 0 -9 7 -12 23 -9 18 4 19 3 7 -7 -13 -10 -11 -11 7
-7 13 3 24 -1 27 -10 4 -9 13 -13 22 -9 9 3 12 2 9 -4 -13 -21 6 -69 28 -73
21 -4 21 -4 -1 -6 -13 0 -20 -5 -17 -11 4 -7 -2 -9 -19 -4 -19 4 -28 2 -32
-10 -3 -9 -18 -16 -33 -16 -47 -1 -58 -31 -57 -161 1 -108 0 -115 -19 -117
-19 -1 -20 4 -18 108 1 91 -2 110 -14 110 -8 0 -11 5 -8 10 4 6 10 8 15 5 9
-6 21 35 14 47 -4 5 -14 2 -23 -6 -42 -38 -61 40 -25 103 16 28 24 59 24 88
l0 46 -37 -6 c-31 -5 -94 0 -223 20 -33 5 -34 6 -11 14 12 5 79 7 147 3 l124
-5 0 92 0 91 -57 -7 c-32 -4 -63 -11 -68 -15 -6 -5 -17 -5 -24 -1 -7 5 -29 4
-48 -2 -26 -8 -40 -8 -54 1 -16 10 -20 10 -25 -1 -3 -8 -19 -13 -38 -13 -32 1
-33 2 -36 51 -1 28 -4 73 -6 100 -2 28 -7 113 -10 191 -7 170 -7 170 87 154
35 -5 88 -18 117 -29 28 -11 52 -15 52 -10 0 5 -8 12 -17 15 -79 26 -133 51
-133 60 0 11 -42 44 -55 44 -3 0 -5 -7 -5 -15 0 -21 -9 -20 -132 22 -95 32
-109 40 -114 62 -3 14 -7 31 -9 38 -4 12 -126 43 -169 43 -20 0 -23 -4 -19
-21 6 -23 -10 -39 -39 -39 -11 0 -18 8 -18 20 0 18 -7 20 -55 20 -54 0 -62 -6
-56 -42 0 -5 -6 -8 -14 -8 -18 0 -18 5 -5 30 8 14 5 19 -11 23 -47 12 -457
-37 -553 -66 -30 -9 -42 -19 -47 -38 -5 -22 -2 -29 17 -38 16 -7 24 -19 24
-36 0 -15 -4 -24 -10 -20 -13 8 -13 -30 1 -174 13 -147 16 -161 34 -161 10 0
15 -10 15 -30 0 -23 -5 -30 -19 -30 -11 0 -33 -11 -49 -25 -16 -13 -32 -21
-36 -18 -4 4 -4 0 -1 -9 4 -9 2 -19 -4 -22 -5 -4 -10 2 -9 11 0 10 -5 65 -10
123 -6 58 -14 164 -17 235 -9 186 -23 306 -41 332 -16 26 -20 27 -29 13z m333
-298 c1 -15 6 -71 12 -126 5 -54 10 -104 10 -112 0 -15 -35 -19 -44 -5 -3 4
-23 11 -45 15 -47 7 -48 9 -57 141 l-6 101 43 9 c63 14 84 9 87 -23z m878 19
c5 -5 25 -13 44 -18 l35 -9 3 -104 c1 -57 0 -111 -4 -119 -4 -9 -6 -29 -4 -46
2 -26 0 -28 -14 -16 -10 9 -40 13 -77 13 -58 -1 -61 0 -70 28 -6 15 -19 30
-31 33 -12 4 -17 10 -13 17 6 9 10 9 17 -1 8 -11 9 -11 5 1 -2 8 -12 17 -23
19 -44 8 -45 23 -2 44 23 12 37 22 31 24 -6 2 -26 -5 -44 -16 -47 -29 -57 -26
-62 17 l-4 37 -1 -41 -2 -41 -80 -7 c-73 -7 -80 -9 -81 -29 -1 -12 -7 21 -14
73 -8 68 -9 98 -1 106 6 6 46 14 89 17 l77 7 2 -43 1 -42 4 42 4 41 77 7 c42
3 84 8 92 9 28 7 36 6 46 -3z m-783 -12 c20 -5 37 -15 37 -21 0 -9 3 -9 11 -1
6 6 18 9 25 6 17 -6 20 -128 4 -138 -6 -4 -7 -11 -4 -17 4 -6 7 -26 8 -45 1
-25 -3 -33 -16 -33 -13 0 -18 9 -19 28 l-2 27 -4 -26 c-3 -21 -11 -28 -33 -31
-17 -3 -31 1 -34 8 -3 7 -8 56 -12 110 -5 72 -4 95 5 90 6 -4 11 -2 11 4 0 6
-7 13 -15 16 -15 6 -21 34 -7 34 4 0 24 -5 45 -11z m341 -71 c12 -123 11 -161
-1 -165 -8 -3 -13 4 -13 16 0 24 -18 28 -26 6 -7 -17 -89 -21 -99 -5 -4 6 -16
9 -28 8 -27 -4 -27 -3 -27 80 l1 67 52 27 c31 16 69 27 94 28 l41 0 6 -62z
m26 -202 c-5 -15 -5 -27 3 -35 6 -6 9 -11 7 -12 -72 -12 -116 -37 -182 -107
-48 -50 -58 -57 -58 -38 0 12 9 28 21 36 11 8 31 25 44 36 l24 22 -32 5 c-18
2 -55 1 -83 -3 -29 -5 -98 -10 -155 -11 -104 -2 -157 -18 -142 -42 3 -6 1 -7
-5 -3 -11 6 -112 -82 -112 -97 0 -4 29 -7 65 -7 51 0 65 -3 65 -15 0 -12 -18
-15 -97 -16 -54 0 -119 -2 -146 -5 -36 -4 -49 -1 -53 11 -3 8 -11 12 -17 8 -5
-3 -7 -1 -4 4 4 6 23 9 42 6 30 -4 35 -2 35 15 0 15 5 19 19 15 20 -5 106 39
95 49 -3 4 16 29 43 57 44 45 54 51 91 51 22 0 44 -4 47 -10 10 -16 73 -12 82
5 5 8 23 15 40 17 18 1 35 9 38 17 5 13 7 13 15 1 7 -11 30 -14 102 -12 51 1
110 5 131 8 34 5 37 8 37 40 0 30 3 34 25 34 22 0 23 -3 15 -24z m64 -242 c8
-94 19 -181 25 -193 10 -18 9 -21 -9 -21 -15 0 -20 -7 -20 -25 0 -18 5 -25 20
-25 38 0 23 -81 -27 -146 l-26 -35 -59 58 -58 57 0 -145 0 -145 -62 -12 c-367
-72 -475 -92 -489 -92 -14 0 -17 18 -21 117 -7 152 3 189 59 219 94 49 301
114 438 138 54 9 71 16 73 30 3 16 -2 17 -45 11 -124 -17 -315 -68 -420 -112
-7 -2 -13 0 -13 5 0 5 40 23 90 38 55 18 90 34 90 43 0 10 3 11 13 2 16 -13
119 10 125 28 2 6 16 11 30 12 15 0 23 2 17 5 -5 2 -10 35 -10 72 1 63 4 73
38 120 21 28 60 71 87 95 50 45 133 93 137 79 2 -4 9 -84 17 -178z m1981 47
c19 5 89 8 157 7 115 -3 123 -4 123 -23 0 -19 -8 -20 -152 -23 -100 -2 -153 1
-153 8 0 5 -5 10 -11 10 -5 0 -7 -4 -4 -10 4 -6 -13 -10 -44 -10 -28 0 -51 4
-51 8 0 12 84 41 93 32 5 -4 24 -4 42 1z m984 -38 c12 3 19 2 16 -3 -7 -11 22
-21 42 -13 11 4 14 3 9 -5 -4 -6 2 -17 14 -24 25 -16 26 -38 3 -39 -15 0 -15
-2 -3 -7 8 -4 16 -13 18 -19 1 -10 -23 -13 -98 -13 -92 0 -123 9 -84 24 9 3
14 12 11 20 -3 7 4 33 14 57 15 32 22 40 28 30 5 -8 18 -12 30 -8z m-1414 -31
c5 -12 13 -22 18 -22 4 0 19 -12 32 -26 24 -25 25 -26 25 -6 0 26 17 37 34 23
14 -12 10 -71 -5 -71 -5 0 -9 5 -9 11 0 8 -5 7 -15 -1 -9 -7 -18 -10 -22 -7
-3 4 -12 2 -19 -4 -15 -12 -86 -19 -94 -8 -3 3 -20 4 -38 2 -23 -4 -32 -10
-28 -19 3 -8 1 -14 -4 -14 -6 0 -10 6 -10 14 0 10 -19 16 -60 21 -46 5 -63 12
-71 27 -11 20 -9 21 32 14 83 -13 129 -15 129 -5 0 6 4 8 9 5 5 -4 7 2 5 12
-6 19 52 85 70 79 6 -2 15 -13 21 -25z m1015 8 c0 -7 6 -7 20 0 15 8 37 7 83
-2 74 -14 90 -24 84 -55 -4 -22 -1 -23 49 -23 30 0 54 -4 54 -10 0 -6 -63 -8
-175 -5 -173 4 -176 3 -170 -16 7 -20 3 -20 -88 -17 -53 1 -99 -1 -103 -5 -4
-4 -12 -7 -18 -7 -6 0 -4 4 4 10 12 7 11 10 -5 16 -11 4 -23 12 -27 17 -4 6
-13 4 -23 -6 -13 -13 -36 -17 -107 -17 l-90 0 6 34 c11 58 4 64 -97 73 -74 6
-26 9 243 13 184 3 341 6 348 8 6 1 12 -3 12 -8z m-4263 -247 c-9 -2 -15 -9
-12 -14 4 -5 -1 -9 -9 -9 -9 0 -16 -4 -16 -10 0 -5 -6 -7 -13 -4 -8 3 -21 -10
-33 -31 -10 -19 -27 -38 -36 -41 -10 -3 -16 -10 -13 -15 4 -5 -1 -9 -10 -9
-10 0 -26 -11 -37 -25 -11 -15 -28 -24 -41 -22 -12 1 -21 -3 -20 -10 2 -8 -6
-9 -28 -3 -26 8 -29 7 -19 -5 14 -17 -1 -20 -17 -4 -13 13 15 102 38 124 21
20 224 83 264 83 17 0 17 -1 2 -5z m3801 -36 c12 -25 11 -29 -20 -56 -33 -30
-33 -30 -8 -31 l25 -1 -22 -18 c-12 -10 -19 -21 -16 -25 4 -3 -1 -6 -10 -6
-23 0 -21 -12 3 -27 14 -9 21 -10 26 -1 4 6 3 8 -4 4 -18 -11 -20 8 -2 24 34
31 62 24 115 -27 24 -25 40 -30 29 -10 -5 8 -4 9 3 2 16 -15 25 -65 12 -65 -6
0 -9 -6 -7 -12 6 -17 -38 -38 -76 -37 -20 1 -24 3 -11 6 21 5 55 41 54 58 0 6
-4 2 -10 -7 -12 -21 -28 -22 -64 -6 -28 12 -33 28 -10 28 8 0 15 4 15 9 0 5
-7 11 -15 15 -8 3 -15 2 -15 -3 0 -5 -8 -8 -17 -7 -13 1 -18 -6 -18 -24 0 -25
-2 -25 -88 -28 -54 -2 -87 1 -87 7 0 14 -31 1 -48 -18 -8 -9 -11 -11 -8 -4 12
24 17 105 6 98 -5 -3 -8 -11 -5 -16 9 -14 -5 -11 -21 6 -14 14 -11 19 9 16 4
0 7 7 7 17 0 15 2 15 11 2 8 -11 9 -8 4 13 -8 39 12 26 25 -16 9 -31 10 -30 4
8 -9 59 -21 77 -52 73 -19 -2 -26 -8 -24 -21 2 -9 -4 -27 -13 -39 l-15 -22 0
22 c0 12 5 22 11 22 6 0 9 6 6 14 -8 21 27 58 41 44 8 -8 13 -7 17 5 6 14 11
14 52 -4 27 -12 68 -19 104 -19 l59 0 -6 36 c-9 58 29 72 54 21z m-486 -19
c107 -4 130 -2 144 11 14 12 15 13 7 1 -6 -8 -13 -31 -15 -50 l-3 -35 -22 22
c-17 17 -23 19 -27 7 -4 -11 -27 -14 -96 -14 -79 0 -90 2 -90 18 0 14 -2 15
-10 2 -9 -15 -13 -16 -51 -19 -12 -1 -17 -5 -13 -13 4 -7 3 -8 -5 -4 -16 10
-4 77 17 94 14 10 19 10 27 -1 7 -11 44 -16 137 -19z m-2282 -918 c0 -5 -9
-10 -19 -10 -31 0 -34 -18 -4 -24 70 -13 143 -17 143 -8 0 6 9 8 20 5 11 -3
17 -10 14 -15 -3 -5 0 -9 7 -7 28 3 50 -1 45 -10 -5 -8 -64 -25 -78 -22 -5 0
-8 -3 -8 -9 0 -20 -73 -23 -127 -5 -79 27 -129 85 -74 85 10 0 32 7 47 15 34
18 34 18 34 5z m-154 -55 c14 -13 11 -15 -25 -15 -22 0 -43 -5 -46 -11 -4 -5
-19 -15 -33 -20 -56 -21 -271 -56 -347 -57 l-80 0 85 18 c47 10 135 30 195 44
61 15 129 31 153 35 23 4 45 11 49 14 11 12 34 8 49 -8z m-13 -127 c7 -5 0 -8
-18 -8 -32 0 -58 -12 -55 -25 1 -10 -97 -45 -127 -45 -13 0 -23 5 -23 11 0 6
-9 8 -20 4 -12 -4 -26 0 -36 10 -12 12 -20 13 -27 6 -14 -14 -54 -14 -62 -1
-3 5 -12 7 -20 4 -12 -5 -11 -9 4 -25 14 -16 23 -17 52 -9 18 6 34 10 34 10 1
0 1 -9 2 -20 2 -21 -21 -28 -32 -10 -10 16 -25 12 -19 -5 4 -8 10 -12 15 -9 5
3 9 1 9 -4 0 -13 -44 -29 -99 -37 -25 -3 -59 -12 -75 -19 -17 -8 -51 -16 -76
-19 -25 -3 -39 -3 -32 0 20 8 14 31 -10 35 -22 3 -22 3 -2 22 18 19 18 20 0
13 -12 -5 -23 -1 -32 10 -12 16 -13 16 -14 2 0 -14 -7 -16 -37 -12 -51 7 -55
13 -10 13 38 0 49 13 21 24 -21 8 -98 8 -120 -1 -14 -5 -11 -9 17 -18 19 -7
34 -18 34 -25 0 -10 -21 -15 -83 -16 -46 -2 -89 -7 -95 -12 -18 -14 -57 -21
-57 -11 0 5 -5 9 -11 9 -5 0 -8 -4 -4 -9 3 -5 1 -12 -5 -16 -6 -3 -13 1 -16 9
-7 19 -84 23 -84 5 0 -8 -4 -8 -14 0 -10 8 -21 9 -41 1 -29 -11 -25 -24 10
-33 40 -10 -82 -6 -145 4 -36 6 -73 11 -82 12 -36 3 0 16 117 46 177 44 325
73 340 67 8 -3 15 0 18 7 2 6 20 11 40 11 20 0 37 3 37 6 0 13 255 -2 275 -16
11 -8 34 -14 52 -14 27 0 33 4 33 21 0 18 4 20 30 14 23 -5 30 -3 30 9 0 17
23 23 145 35 97 10 251 10 268 -1z"/>
<path d="M2226 1335 c-12 -12 -16 -13 -16 -3 -1 8 -6 6 -15 -6 -8 -11 -15 -14
-15 -8 0 21 -18 13 -23 -10 l-4 -23 -2 23 c-1 22 -21 32 -21 10 0 -9 -3 -9
-11 -1 -14 14 -47 5 -52 -16 -4 -14 -5 -14 -6 2 -2 31 -21 18 -22 -15 -2 -31
-2 -31 -6 -5 -4 26 -33 39 -33 15 0 -7 -3 -23 -6 -35 -4 -13 -2 -23 4 -23 6 0
13 8 15 18 4 16 5 16 6 0 1 -22 24 -23 45 -2 9 8 16 11 16 6 0 -6 8 -9 18 -7
9 2 26 4 38 4 12 1 26 11 32 24 9 18 11 19 11 4 1 -15 7 -17 33 -13 17 2 35
11 39 18 7 11 9 11 9 0 0 -7 5 -10 10 -7 6 3 10 17 10 30 0 13 -4 27 -10 30
-5 3 -10 0 -10 -7 0 -11 -2 -11 -9 0 -6 11 -11 10 -25 -3z"/>
<path d="M4281 383 c7 -30 5 -41 -7 -50 -13 -9 -7 -13 33 -17 26 -4 75 -11
108 -17 229 -41 298 -50 307 -36 4 7 8 8 8 3 0 -12 30 14 30 26 0 6 -9 8 -20
5 -12 -3 -29 4 -45 19 -14 13 -39 31 -56 39 -26 14 -29 14 -29 -1 0 -12 -4
-14 -12 -7 -22 16 -138 -1 -138 -20 0 -9 -2 -9 -8 -1 -4 7 -18 14 -32 15 -19
3 -26 11 -28 32 -3 26 -6 28 -43 26 -21 -2 -44 2 -51 9 -21 21 -26 13 -17 -25z"/>
</g>
</svg>
